G04 #@! TF.GenerationSoftware,KiCad,Pcbnew,8.0.7*
G04 #@! TF.CreationDate,2025-01-13T19:24:39-05:00*
G04 #@! TF.ProjectId,numpad,6e756d70-6164-42e6-9b69-6361645f7063,rev?*
G04 #@! TF.SameCoordinates,Original*
G04 #@! TF.FileFunction,Legend,Bot*
G04 #@! TF.FilePolarity,Positive*
%FSLAX46Y46*%
G04 Gerber Fmt 4.6, Leading zero omitted, Abs format (unit mm)*
G04 Created by KiCad (PCBNEW 8.0.7) date 2025-01-13 19:24:39*
%MOMM*%
%LPD*%
G01*
G04 APERTURE LIST*
%ADD10C,0.150000*%
%ADD11C,0.250000*%
%ADD12C,0.100000*%
%ADD13C,0.300000*%
%ADD14C,0.050000*%
%ADD15C,1.701800*%
%ADD16C,3.000000*%
%ADD17C,3.429000*%
%ADD18C,0.990600*%
%ADD19R,2.600000X2.600000*%
%ADD20C,4.000000*%
%ADD21C,7.500000*%
%ADD22R,1.700000X1.700000*%
%ADD23O,1.700000X1.700000*%
%ADD24R,1.800000X1.570000*%
%ADD25C,1.800000*%
%ADD26C,1.520000*%
%ADD27O,2.600000X3.000000*%
%ADD28R,0.860000X0.810000*%
%ADD29R,0.810000X0.860000*%
%ADD30R,1.000000X0.750000*%
%ADD31R,0.800000X0.900000*%
%ADD32R,1.500000X0.820000*%
%ADD33O,2.250000X0.630000*%
%ADD34R,0.750000X1.000000*%
%ADD35R,0.600000X0.600000*%
%ADD36C,0.700000*%
%ADD37R,0.550000X1.100000*%
%ADD38R,0.300000X1.100000*%
%ADD39O,1.200000X1.800000*%
%ADD40O,1.100000X2.000000*%
%ADD41R,0.900000X0.800000*%
%ADD42R,0.200000X1.100000*%
%ADD43R,1.100000X0.200000*%
%ADD44R,3.100000X3.100000*%
%ADD45R,1.200000X1.400000*%
%ADD46R,1.000000X0.600000*%
G04 APERTURE END LIST*
D10*
X47630180Y-148777506D02*
X46915895Y-148777506D01*
X46915895Y-148777506D02*
X46773038Y-148825125D01*
X46773038Y-148825125D02*
X46677800Y-148920363D01*
X46677800Y-148920363D02*
X46630180Y-149063220D01*
X46630180Y-149063220D02*
X46630180Y-149158458D01*
X46630180Y-147825125D02*
X46630180Y-148301315D01*
X46630180Y-148301315D02*
X47630180Y-148301315D01*
X46725419Y-146920363D02*
X46677800Y-146967982D01*
X46677800Y-146967982D02*
X46630180Y-147110839D01*
X46630180Y-147110839D02*
X46630180Y-147206077D01*
X46630180Y-147206077D02*
X46677800Y-147348934D01*
X46677800Y-147348934D02*
X46773038Y-147444172D01*
X46773038Y-147444172D02*
X46868276Y-147491791D01*
X46868276Y-147491791D02*
X47058752Y-147539410D01*
X47058752Y-147539410D02*
X47201609Y-147539410D01*
X47201609Y-147539410D02*
X47392085Y-147491791D01*
X47392085Y-147491791D02*
X47487323Y-147444172D01*
X47487323Y-147444172D02*
X47582561Y-147348934D01*
X47582561Y-147348934D02*
X47630180Y-147206077D01*
X47630180Y-147206077D02*
X47630180Y-147110839D01*
X47630180Y-147110839D02*
X47582561Y-146967982D01*
X47582561Y-146967982D02*
X47534942Y-146920363D01*
X47630180Y-146206077D02*
X46915895Y-146206077D01*
X46915895Y-146206077D02*
X46773038Y-146253696D01*
X46773038Y-146253696D02*
X46677800Y-146348934D01*
X46677800Y-146348934D02*
X46630180Y-146491791D01*
X46630180Y-146491791D02*
X46630180Y-146587029D01*
X46630180Y-145253696D02*
X46630180Y-145729886D01*
X46630180Y-145729886D02*
X47630180Y-145729886D01*
X46725419Y-144348934D02*
X46677800Y-144396553D01*
X46677800Y-144396553D02*
X46630180Y-144539410D01*
X46630180Y-144539410D02*
X46630180Y-144634648D01*
X46630180Y-144634648D02*
X46677800Y-144777505D01*
X46677800Y-144777505D02*
X46773038Y-144872743D01*
X46773038Y-144872743D02*
X46868276Y-144920362D01*
X46868276Y-144920362D02*
X47058752Y-144967981D01*
X47058752Y-144967981D02*
X47201609Y-144967981D01*
X47201609Y-144967981D02*
X47392085Y-144920362D01*
X47392085Y-144920362D02*
X47487323Y-144872743D01*
X47487323Y-144872743D02*
X47582561Y-144777505D01*
X47582561Y-144777505D02*
X47630180Y-144634648D01*
X47630180Y-144634648D02*
X47630180Y-144539410D01*
X47630180Y-144539410D02*
X47582561Y-144396553D01*
X47582561Y-144396553D02*
X47534942Y-144348934D01*
X47630180Y-143634648D02*
X46915895Y-143634648D01*
X46915895Y-143634648D02*
X46773038Y-143682267D01*
X46773038Y-143682267D02*
X46677800Y-143777505D01*
X46677800Y-143777505D02*
X46630180Y-143920362D01*
X46630180Y-143920362D02*
X46630180Y-144015600D01*
X46630180Y-142682267D02*
X46630180Y-143158457D01*
X46630180Y-143158457D02*
X47630180Y-143158457D01*
X46725419Y-141777505D02*
X46677800Y-141825124D01*
X46677800Y-141825124D02*
X46630180Y-141967981D01*
X46630180Y-141967981D02*
X46630180Y-142063219D01*
X46630180Y-142063219D02*
X46677800Y-142206076D01*
X46677800Y-142206076D02*
X46773038Y-142301314D01*
X46773038Y-142301314D02*
X46868276Y-142348933D01*
X46868276Y-142348933D02*
X47058752Y-142396552D01*
X47058752Y-142396552D02*
X47201609Y-142396552D01*
X47201609Y-142396552D02*
X47392085Y-142348933D01*
X47392085Y-142348933D02*
X47487323Y-142301314D01*
X47487323Y-142301314D02*
X47582561Y-142206076D01*
X47582561Y-142206076D02*
X47630180Y-142063219D01*
X47630180Y-142063219D02*
X47630180Y-141967981D01*
X47630180Y-141967981D02*
X47582561Y-141825124D01*
X47582561Y-141825124D02*
X47534942Y-141777505D01*
X47630180Y-141063219D02*
X46915895Y-141063219D01*
X46915895Y-141063219D02*
X46773038Y-141110838D01*
X46773038Y-141110838D02*
X46677800Y-141206076D01*
X46677800Y-141206076D02*
X46630180Y-141348933D01*
X46630180Y-141348933D02*
X46630180Y-141444171D01*
X46630180Y-140110838D02*
X46630180Y-140587028D01*
X46630180Y-140587028D02*
X47630180Y-140587028D01*
X46725419Y-139206076D02*
X46677800Y-139253695D01*
X46677800Y-139253695D02*
X46630180Y-139396552D01*
X46630180Y-139396552D02*
X46630180Y-139491790D01*
X46630180Y-139491790D02*
X46677800Y-139634647D01*
X46677800Y-139634647D02*
X46773038Y-139729885D01*
X46773038Y-139729885D02*
X46868276Y-139777504D01*
X46868276Y-139777504D02*
X47058752Y-139825123D01*
X47058752Y-139825123D02*
X47201609Y-139825123D01*
X47201609Y-139825123D02*
X47392085Y-139777504D01*
X47392085Y-139777504D02*
X47487323Y-139729885D01*
X47487323Y-139729885D02*
X47582561Y-139634647D01*
X47582561Y-139634647D02*
X47630180Y-139491790D01*
X47630180Y-139491790D02*
X47630180Y-139396552D01*
X47630180Y-139396552D02*
X47582561Y-139253695D01*
X47582561Y-139253695D02*
X47534942Y-139206076D01*
X128857142Y-67746009D02*
X128714285Y-67793628D01*
X128714285Y-67793628D02*
X128666666Y-67841247D01*
X128666666Y-67841247D02*
X128619047Y-67936485D01*
X128619047Y-67936485D02*
X128619047Y-68079342D01*
X128619047Y-68079342D02*
X128666666Y-68174580D01*
X128666666Y-68174580D02*
X128714285Y-68222200D01*
X128714285Y-68222200D02*
X128809523Y-68269819D01*
X128809523Y-68269819D02*
X129190475Y-68269819D01*
X129190475Y-68269819D02*
X129190475Y-67269819D01*
X129190475Y-67269819D02*
X128857142Y-67269819D01*
X128857142Y-67269819D02*
X128761904Y-67317438D01*
X128761904Y-67317438D02*
X128714285Y-67365057D01*
X128714285Y-67365057D02*
X128666666Y-67460295D01*
X128666666Y-67460295D02*
X128666666Y-67555533D01*
X128666666Y-67555533D02*
X128714285Y-67650771D01*
X128714285Y-67650771D02*
X128761904Y-67698390D01*
X128761904Y-67698390D02*
X128857142Y-67746009D01*
X128857142Y-67746009D02*
X129190475Y-67746009D01*
X127999999Y-67269819D02*
X127809523Y-67269819D01*
X127809523Y-67269819D02*
X127714285Y-67317438D01*
X127714285Y-67317438D02*
X127619047Y-67412676D01*
X127619047Y-67412676D02*
X127571428Y-67603152D01*
X127571428Y-67603152D02*
X127571428Y-67936485D01*
X127571428Y-67936485D02*
X127619047Y-68126961D01*
X127619047Y-68126961D02*
X127714285Y-68222200D01*
X127714285Y-68222200D02*
X127809523Y-68269819D01*
X127809523Y-68269819D02*
X127999999Y-68269819D01*
X127999999Y-68269819D02*
X128095237Y-68222200D01*
X128095237Y-68222200D02*
X128190475Y-68126961D01*
X128190475Y-68126961D02*
X128238094Y-67936485D01*
X128238094Y-67936485D02*
X128238094Y-67603152D01*
X128238094Y-67603152D02*
X128190475Y-67412676D01*
X128190475Y-67412676D02*
X128095237Y-67317438D01*
X128095237Y-67317438D02*
X127999999Y-67269819D01*
X126952380Y-67269819D02*
X126761904Y-67269819D01*
X126761904Y-67269819D02*
X126666666Y-67317438D01*
X126666666Y-67317438D02*
X126571428Y-67412676D01*
X126571428Y-67412676D02*
X126523809Y-67603152D01*
X126523809Y-67603152D02*
X126523809Y-67936485D01*
X126523809Y-67936485D02*
X126571428Y-68126961D01*
X126571428Y-68126961D02*
X126666666Y-68222200D01*
X126666666Y-68222200D02*
X126761904Y-68269819D01*
X126761904Y-68269819D02*
X126952380Y-68269819D01*
X126952380Y-68269819D02*
X127047618Y-68222200D01*
X127047618Y-68222200D02*
X127142856Y-68126961D01*
X127142856Y-68126961D02*
X127190475Y-67936485D01*
X127190475Y-67936485D02*
X127190475Y-67603152D01*
X127190475Y-67603152D02*
X127142856Y-67412676D01*
X127142856Y-67412676D02*
X127047618Y-67317438D01*
X127047618Y-67317438D02*
X126952380Y-67269819D01*
X126238094Y-67269819D02*
X125666666Y-67269819D01*
X125952380Y-68269819D02*
X125952380Y-67269819D01*
X50538095Y-63869819D02*
X50871428Y-63393628D01*
X51109523Y-63869819D02*
X51109523Y-62869819D01*
X51109523Y-62869819D02*
X50728571Y-62869819D01*
X50728571Y-62869819D02*
X50633333Y-62917438D01*
X50633333Y-62917438D02*
X50585714Y-62965057D01*
X50585714Y-62965057D02*
X50538095Y-63060295D01*
X50538095Y-63060295D02*
X50538095Y-63203152D01*
X50538095Y-63203152D02*
X50585714Y-63298390D01*
X50585714Y-63298390D02*
X50633333Y-63346009D01*
X50633333Y-63346009D02*
X50728571Y-63393628D01*
X50728571Y-63393628D02*
X51109523Y-63393628D01*
X49728571Y-63822200D02*
X49823809Y-63869819D01*
X49823809Y-63869819D02*
X50014285Y-63869819D01*
X50014285Y-63869819D02*
X50109523Y-63822200D01*
X50109523Y-63822200D02*
X50157142Y-63726961D01*
X50157142Y-63726961D02*
X50157142Y-63346009D01*
X50157142Y-63346009D02*
X50109523Y-63250771D01*
X50109523Y-63250771D02*
X50014285Y-63203152D01*
X50014285Y-63203152D02*
X49823809Y-63203152D01*
X49823809Y-63203152D02*
X49728571Y-63250771D01*
X49728571Y-63250771D02*
X49680952Y-63346009D01*
X49680952Y-63346009D02*
X49680952Y-63441247D01*
X49680952Y-63441247D02*
X50157142Y-63536485D01*
X49299999Y-63822200D02*
X49204761Y-63869819D01*
X49204761Y-63869819D02*
X49014285Y-63869819D01*
X49014285Y-63869819D02*
X48919047Y-63822200D01*
X48919047Y-63822200D02*
X48871428Y-63726961D01*
X48871428Y-63726961D02*
X48871428Y-63679342D01*
X48871428Y-63679342D02*
X48919047Y-63584104D01*
X48919047Y-63584104D02*
X49014285Y-63536485D01*
X49014285Y-63536485D02*
X49157142Y-63536485D01*
X49157142Y-63536485D02*
X49252380Y-63488866D01*
X49252380Y-63488866D02*
X49299999Y-63393628D01*
X49299999Y-63393628D02*
X49299999Y-63346009D01*
X49299999Y-63346009D02*
X49252380Y-63250771D01*
X49252380Y-63250771D02*
X49157142Y-63203152D01*
X49157142Y-63203152D02*
X49014285Y-63203152D01*
X49014285Y-63203152D02*
X48919047Y-63250771D01*
X48061904Y-63822200D02*
X48157142Y-63869819D01*
X48157142Y-63869819D02*
X48347618Y-63869819D01*
X48347618Y-63869819D02*
X48442856Y-63822200D01*
X48442856Y-63822200D02*
X48490475Y-63726961D01*
X48490475Y-63726961D02*
X48490475Y-63346009D01*
X48490475Y-63346009D02*
X48442856Y-63250771D01*
X48442856Y-63250771D02*
X48347618Y-63203152D01*
X48347618Y-63203152D02*
X48157142Y-63203152D01*
X48157142Y-63203152D02*
X48061904Y-63250771D01*
X48061904Y-63250771D02*
X48014285Y-63346009D01*
X48014285Y-63346009D02*
X48014285Y-63441247D01*
X48014285Y-63441247D02*
X48490475Y-63536485D01*
X47728570Y-63203152D02*
X47347618Y-63203152D01*
X47585713Y-62869819D02*
X47585713Y-63726961D01*
X47585713Y-63726961D02*
X47538094Y-63822200D01*
X47538094Y-63822200D02*
X47442856Y-63869819D01*
X47442856Y-63869819D02*
X47347618Y-63869819D01*
X104461904Y-85057200D02*
X104319047Y-85104819D01*
X104319047Y-85104819D02*
X104080952Y-85104819D01*
X104080952Y-85104819D02*
X103985714Y-85057200D01*
X103985714Y-85057200D02*
X103938095Y-85009580D01*
X103938095Y-85009580D02*
X103890476Y-84914342D01*
X103890476Y-84914342D02*
X103890476Y-84819104D01*
X103890476Y-84819104D02*
X103938095Y-84723866D01*
X103938095Y-84723866D02*
X103985714Y-84676247D01*
X103985714Y-84676247D02*
X104080952Y-84628628D01*
X104080952Y-84628628D02*
X104271428Y-84581009D01*
X104271428Y-84581009D02*
X104366666Y-84533390D01*
X104366666Y-84533390D02*
X104414285Y-84485771D01*
X104414285Y-84485771D02*
X104461904Y-84390533D01*
X104461904Y-84390533D02*
X104461904Y-84295295D01*
X104461904Y-84295295D02*
X104414285Y-84200057D01*
X104414285Y-84200057D02*
X104366666Y-84152438D01*
X104366666Y-84152438D02*
X104271428Y-84104819D01*
X104271428Y-84104819D02*
X104033333Y-84104819D01*
X104033333Y-84104819D02*
X103890476Y-84152438D01*
X103557142Y-84104819D02*
X102938095Y-84104819D01*
X102938095Y-84104819D02*
X103271428Y-84485771D01*
X103271428Y-84485771D02*
X103128571Y-84485771D01*
X103128571Y-84485771D02*
X103033333Y-84533390D01*
X103033333Y-84533390D02*
X102985714Y-84581009D01*
X102985714Y-84581009D02*
X102938095Y-84676247D01*
X102938095Y-84676247D02*
X102938095Y-84914342D01*
X102938095Y-84914342D02*
X102985714Y-85009580D01*
X102985714Y-85009580D02*
X103033333Y-85057200D01*
X103033333Y-85057200D02*
X103128571Y-85104819D01*
X103128571Y-85104819D02*
X103414285Y-85104819D01*
X103414285Y-85104819D02*
X103509523Y-85057200D01*
X103509523Y-85057200D02*
X103557142Y-85009580D01*
X123061904Y-85057200D02*
X122919047Y-85104819D01*
X122919047Y-85104819D02*
X122680952Y-85104819D01*
X122680952Y-85104819D02*
X122585714Y-85057200D01*
X122585714Y-85057200D02*
X122538095Y-85009580D01*
X122538095Y-85009580D02*
X122490476Y-84914342D01*
X122490476Y-84914342D02*
X122490476Y-84819104D01*
X122490476Y-84819104D02*
X122538095Y-84723866D01*
X122538095Y-84723866D02*
X122585714Y-84676247D01*
X122585714Y-84676247D02*
X122680952Y-84628628D01*
X122680952Y-84628628D02*
X122871428Y-84581009D01*
X122871428Y-84581009D02*
X122966666Y-84533390D01*
X122966666Y-84533390D02*
X123014285Y-84485771D01*
X123014285Y-84485771D02*
X123061904Y-84390533D01*
X123061904Y-84390533D02*
X123061904Y-84295295D01*
X123061904Y-84295295D02*
X123014285Y-84200057D01*
X123014285Y-84200057D02*
X122966666Y-84152438D01*
X122966666Y-84152438D02*
X122871428Y-84104819D01*
X122871428Y-84104819D02*
X122633333Y-84104819D01*
X122633333Y-84104819D02*
X122490476Y-84152438D01*
X121633333Y-84438152D02*
X121633333Y-85104819D01*
X121871428Y-84057200D02*
X122109523Y-84771485D01*
X122109523Y-84771485D02*
X121490476Y-84771485D01*
X67261904Y-85057200D02*
X67119047Y-85104819D01*
X67119047Y-85104819D02*
X66880952Y-85104819D01*
X66880952Y-85104819D02*
X66785714Y-85057200D01*
X66785714Y-85057200D02*
X66738095Y-85009580D01*
X66738095Y-85009580D02*
X66690476Y-84914342D01*
X66690476Y-84914342D02*
X66690476Y-84819104D01*
X66690476Y-84819104D02*
X66738095Y-84723866D01*
X66738095Y-84723866D02*
X66785714Y-84676247D01*
X66785714Y-84676247D02*
X66880952Y-84628628D01*
X66880952Y-84628628D02*
X67071428Y-84581009D01*
X67071428Y-84581009D02*
X67166666Y-84533390D01*
X67166666Y-84533390D02*
X67214285Y-84485771D01*
X67214285Y-84485771D02*
X67261904Y-84390533D01*
X67261904Y-84390533D02*
X67261904Y-84295295D01*
X67261904Y-84295295D02*
X67214285Y-84200057D01*
X67214285Y-84200057D02*
X67166666Y-84152438D01*
X67166666Y-84152438D02*
X67071428Y-84104819D01*
X67071428Y-84104819D02*
X66833333Y-84104819D01*
X66833333Y-84104819D02*
X66690476Y-84152438D01*
X65738095Y-85104819D02*
X66309523Y-85104819D01*
X66023809Y-85104819D02*
X66023809Y-84104819D01*
X66023809Y-84104819D02*
X66119047Y-84247676D01*
X66119047Y-84247676D02*
X66214285Y-84342914D01*
X66214285Y-84342914D02*
X66309523Y-84390533D01*
X86338094Y-155457200D02*
X86195237Y-155504819D01*
X86195237Y-155504819D02*
X85957142Y-155504819D01*
X85957142Y-155504819D02*
X85861904Y-155457200D01*
X85861904Y-155457200D02*
X85814285Y-155409580D01*
X85814285Y-155409580D02*
X85766666Y-155314342D01*
X85766666Y-155314342D02*
X85766666Y-155219104D01*
X85766666Y-155219104D02*
X85814285Y-155123866D01*
X85814285Y-155123866D02*
X85861904Y-155076247D01*
X85861904Y-155076247D02*
X85957142Y-155028628D01*
X85957142Y-155028628D02*
X86147618Y-154981009D01*
X86147618Y-154981009D02*
X86242856Y-154933390D01*
X86242856Y-154933390D02*
X86290475Y-154885771D01*
X86290475Y-154885771D02*
X86338094Y-154790533D01*
X86338094Y-154790533D02*
X86338094Y-154695295D01*
X86338094Y-154695295D02*
X86290475Y-154600057D01*
X86290475Y-154600057D02*
X86242856Y-154552438D01*
X86242856Y-154552438D02*
X86147618Y-154504819D01*
X86147618Y-154504819D02*
X85909523Y-154504819D01*
X85909523Y-154504819D02*
X85766666Y-154552438D01*
X84814285Y-155504819D02*
X85385713Y-155504819D01*
X85099999Y-155504819D02*
X85099999Y-154504819D01*
X85099999Y-154504819D02*
X85195237Y-154647676D01*
X85195237Y-154647676D02*
X85290475Y-154742914D01*
X85290475Y-154742914D02*
X85385713Y-154790533D01*
X84480951Y-154504819D02*
X83814285Y-154504819D01*
X83814285Y-154504819D02*
X84242856Y-155504819D01*
X104461904Y-102657200D02*
X104319047Y-102704819D01*
X104319047Y-102704819D02*
X104080952Y-102704819D01*
X104080952Y-102704819D02*
X103985714Y-102657200D01*
X103985714Y-102657200D02*
X103938095Y-102609580D01*
X103938095Y-102609580D02*
X103890476Y-102514342D01*
X103890476Y-102514342D02*
X103890476Y-102419104D01*
X103890476Y-102419104D02*
X103938095Y-102323866D01*
X103938095Y-102323866D02*
X103985714Y-102276247D01*
X103985714Y-102276247D02*
X104080952Y-102228628D01*
X104080952Y-102228628D02*
X104271428Y-102181009D01*
X104271428Y-102181009D02*
X104366666Y-102133390D01*
X104366666Y-102133390D02*
X104414285Y-102085771D01*
X104414285Y-102085771D02*
X104461904Y-101990533D01*
X104461904Y-101990533D02*
X104461904Y-101895295D01*
X104461904Y-101895295D02*
X104414285Y-101800057D01*
X104414285Y-101800057D02*
X104366666Y-101752438D01*
X104366666Y-101752438D02*
X104271428Y-101704819D01*
X104271428Y-101704819D02*
X104033333Y-101704819D01*
X104033333Y-101704819D02*
X103890476Y-101752438D01*
X103557142Y-101704819D02*
X102890476Y-101704819D01*
X102890476Y-101704819D02*
X103319047Y-102704819D01*
X123538094Y-146657200D02*
X123395237Y-146704819D01*
X123395237Y-146704819D02*
X123157142Y-146704819D01*
X123157142Y-146704819D02*
X123061904Y-146657200D01*
X123061904Y-146657200D02*
X123014285Y-146609580D01*
X123014285Y-146609580D02*
X122966666Y-146514342D01*
X122966666Y-146514342D02*
X122966666Y-146419104D01*
X122966666Y-146419104D02*
X123014285Y-146323866D01*
X123014285Y-146323866D02*
X123061904Y-146276247D01*
X123061904Y-146276247D02*
X123157142Y-146228628D01*
X123157142Y-146228628D02*
X123347618Y-146181009D01*
X123347618Y-146181009D02*
X123442856Y-146133390D01*
X123442856Y-146133390D02*
X123490475Y-146085771D01*
X123490475Y-146085771D02*
X123538094Y-145990533D01*
X123538094Y-145990533D02*
X123538094Y-145895295D01*
X123538094Y-145895295D02*
X123490475Y-145800057D01*
X123490475Y-145800057D02*
X123442856Y-145752438D01*
X123442856Y-145752438D02*
X123347618Y-145704819D01*
X123347618Y-145704819D02*
X123109523Y-145704819D01*
X123109523Y-145704819D02*
X122966666Y-145752438D01*
X122014285Y-146704819D02*
X122585713Y-146704819D01*
X122299999Y-146704819D02*
X122299999Y-145704819D01*
X122299999Y-145704819D02*
X122395237Y-145847676D01*
X122395237Y-145847676D02*
X122490475Y-145942914D01*
X122490475Y-145942914D02*
X122585713Y-145990533D01*
X121109523Y-145704819D02*
X121585713Y-145704819D01*
X121585713Y-145704819D02*
X121633332Y-146181009D01*
X121633332Y-146181009D02*
X121585713Y-146133390D01*
X121585713Y-146133390D02*
X121490475Y-146085771D01*
X121490475Y-146085771D02*
X121252380Y-146085771D01*
X121252380Y-146085771D02*
X121157142Y-146133390D01*
X121157142Y-146133390D02*
X121109523Y-146181009D01*
X121109523Y-146181009D02*
X121061904Y-146276247D01*
X121061904Y-146276247D02*
X121061904Y-146514342D01*
X121061904Y-146514342D02*
X121109523Y-146609580D01*
X121109523Y-146609580D02*
X121157142Y-146657200D01*
X121157142Y-146657200D02*
X121252380Y-146704819D01*
X121252380Y-146704819D02*
X121490475Y-146704819D01*
X121490475Y-146704819D02*
X121585713Y-146657200D01*
X121585713Y-146657200D02*
X121633332Y-146609580D01*
X86338094Y-120257200D02*
X86195237Y-120304819D01*
X86195237Y-120304819D02*
X85957142Y-120304819D01*
X85957142Y-120304819D02*
X85861904Y-120257200D01*
X85861904Y-120257200D02*
X85814285Y-120209580D01*
X85814285Y-120209580D02*
X85766666Y-120114342D01*
X85766666Y-120114342D02*
X85766666Y-120019104D01*
X85766666Y-120019104D02*
X85814285Y-119923866D01*
X85814285Y-119923866D02*
X85861904Y-119876247D01*
X85861904Y-119876247D02*
X85957142Y-119828628D01*
X85957142Y-119828628D02*
X86147618Y-119781009D01*
X86147618Y-119781009D02*
X86242856Y-119733390D01*
X86242856Y-119733390D02*
X86290475Y-119685771D01*
X86290475Y-119685771D02*
X86338094Y-119590533D01*
X86338094Y-119590533D02*
X86338094Y-119495295D01*
X86338094Y-119495295D02*
X86290475Y-119400057D01*
X86290475Y-119400057D02*
X86242856Y-119352438D01*
X86242856Y-119352438D02*
X86147618Y-119304819D01*
X86147618Y-119304819D02*
X85909523Y-119304819D01*
X85909523Y-119304819D02*
X85766666Y-119352438D01*
X84814285Y-120304819D02*
X85385713Y-120304819D01*
X85099999Y-120304819D02*
X85099999Y-119304819D01*
X85099999Y-119304819D02*
X85195237Y-119447676D01*
X85195237Y-119447676D02*
X85290475Y-119542914D01*
X85290475Y-119542914D02*
X85385713Y-119590533D01*
X84195237Y-119304819D02*
X84099999Y-119304819D01*
X84099999Y-119304819D02*
X84004761Y-119352438D01*
X84004761Y-119352438D02*
X83957142Y-119400057D01*
X83957142Y-119400057D02*
X83909523Y-119495295D01*
X83909523Y-119495295D02*
X83861904Y-119685771D01*
X83861904Y-119685771D02*
X83861904Y-119923866D01*
X83861904Y-119923866D02*
X83909523Y-120114342D01*
X83909523Y-120114342D02*
X83957142Y-120209580D01*
X83957142Y-120209580D02*
X84004761Y-120257200D01*
X84004761Y-120257200D02*
X84099999Y-120304819D01*
X84099999Y-120304819D02*
X84195237Y-120304819D01*
X84195237Y-120304819D02*
X84290475Y-120257200D01*
X84290475Y-120257200D02*
X84338094Y-120209580D01*
X84338094Y-120209580D02*
X84385713Y-120114342D01*
X84385713Y-120114342D02*
X84433332Y-119923866D01*
X84433332Y-119923866D02*
X84433332Y-119685771D01*
X84433332Y-119685771D02*
X84385713Y-119495295D01*
X84385713Y-119495295D02*
X84338094Y-119400057D01*
X84338094Y-119400057D02*
X84290475Y-119352438D01*
X84290475Y-119352438D02*
X84195237Y-119304819D01*
X85861904Y-85057200D02*
X85719047Y-85104819D01*
X85719047Y-85104819D02*
X85480952Y-85104819D01*
X85480952Y-85104819D02*
X85385714Y-85057200D01*
X85385714Y-85057200D02*
X85338095Y-85009580D01*
X85338095Y-85009580D02*
X85290476Y-84914342D01*
X85290476Y-84914342D02*
X85290476Y-84819104D01*
X85290476Y-84819104D02*
X85338095Y-84723866D01*
X85338095Y-84723866D02*
X85385714Y-84676247D01*
X85385714Y-84676247D02*
X85480952Y-84628628D01*
X85480952Y-84628628D02*
X85671428Y-84581009D01*
X85671428Y-84581009D02*
X85766666Y-84533390D01*
X85766666Y-84533390D02*
X85814285Y-84485771D01*
X85814285Y-84485771D02*
X85861904Y-84390533D01*
X85861904Y-84390533D02*
X85861904Y-84295295D01*
X85861904Y-84295295D02*
X85814285Y-84200057D01*
X85814285Y-84200057D02*
X85766666Y-84152438D01*
X85766666Y-84152438D02*
X85671428Y-84104819D01*
X85671428Y-84104819D02*
X85433333Y-84104819D01*
X85433333Y-84104819D02*
X85290476Y-84152438D01*
X84909523Y-84200057D02*
X84861904Y-84152438D01*
X84861904Y-84152438D02*
X84766666Y-84104819D01*
X84766666Y-84104819D02*
X84528571Y-84104819D01*
X84528571Y-84104819D02*
X84433333Y-84152438D01*
X84433333Y-84152438D02*
X84385714Y-84200057D01*
X84385714Y-84200057D02*
X84338095Y-84295295D01*
X84338095Y-84295295D02*
X84338095Y-84390533D01*
X84338095Y-84390533D02*
X84385714Y-84533390D01*
X84385714Y-84533390D02*
X84957142Y-85104819D01*
X84957142Y-85104819D02*
X84338095Y-85104819D01*
X123061904Y-111457200D02*
X122919047Y-111504819D01*
X122919047Y-111504819D02*
X122680952Y-111504819D01*
X122680952Y-111504819D02*
X122585714Y-111457200D01*
X122585714Y-111457200D02*
X122538095Y-111409580D01*
X122538095Y-111409580D02*
X122490476Y-111314342D01*
X122490476Y-111314342D02*
X122490476Y-111219104D01*
X122490476Y-111219104D02*
X122538095Y-111123866D01*
X122538095Y-111123866D02*
X122585714Y-111076247D01*
X122585714Y-111076247D02*
X122680952Y-111028628D01*
X122680952Y-111028628D02*
X122871428Y-110981009D01*
X122871428Y-110981009D02*
X122966666Y-110933390D01*
X122966666Y-110933390D02*
X123014285Y-110885771D01*
X123014285Y-110885771D02*
X123061904Y-110790533D01*
X123061904Y-110790533D02*
X123061904Y-110695295D01*
X123061904Y-110695295D02*
X123014285Y-110600057D01*
X123014285Y-110600057D02*
X122966666Y-110552438D01*
X122966666Y-110552438D02*
X122871428Y-110504819D01*
X122871428Y-110504819D02*
X122633333Y-110504819D01*
X122633333Y-110504819D02*
X122490476Y-110552438D01*
X121919047Y-110933390D02*
X122014285Y-110885771D01*
X122014285Y-110885771D02*
X122061904Y-110838152D01*
X122061904Y-110838152D02*
X122109523Y-110742914D01*
X122109523Y-110742914D02*
X122109523Y-110695295D01*
X122109523Y-110695295D02*
X122061904Y-110600057D01*
X122061904Y-110600057D02*
X122014285Y-110552438D01*
X122014285Y-110552438D02*
X121919047Y-110504819D01*
X121919047Y-110504819D02*
X121728571Y-110504819D01*
X121728571Y-110504819D02*
X121633333Y-110552438D01*
X121633333Y-110552438D02*
X121585714Y-110600057D01*
X121585714Y-110600057D02*
X121538095Y-110695295D01*
X121538095Y-110695295D02*
X121538095Y-110742914D01*
X121538095Y-110742914D02*
X121585714Y-110838152D01*
X121585714Y-110838152D02*
X121633333Y-110885771D01*
X121633333Y-110885771D02*
X121728571Y-110933390D01*
X121728571Y-110933390D02*
X121919047Y-110933390D01*
X121919047Y-110933390D02*
X122014285Y-110981009D01*
X122014285Y-110981009D02*
X122061904Y-111028628D01*
X122061904Y-111028628D02*
X122109523Y-111123866D01*
X122109523Y-111123866D02*
X122109523Y-111314342D01*
X122109523Y-111314342D02*
X122061904Y-111409580D01*
X122061904Y-111409580D02*
X122014285Y-111457200D01*
X122014285Y-111457200D02*
X121919047Y-111504819D01*
X121919047Y-111504819D02*
X121728571Y-111504819D01*
X121728571Y-111504819D02*
X121633333Y-111457200D01*
X121633333Y-111457200D02*
X121585714Y-111409580D01*
X121585714Y-111409580D02*
X121538095Y-111314342D01*
X121538095Y-111314342D02*
X121538095Y-111123866D01*
X121538095Y-111123866D02*
X121585714Y-111028628D01*
X121585714Y-111028628D02*
X121633333Y-110981009D01*
X121633333Y-110981009D02*
X121728571Y-110933390D01*
X104938094Y-155457200D02*
X104795237Y-155504819D01*
X104795237Y-155504819D02*
X104557142Y-155504819D01*
X104557142Y-155504819D02*
X104461904Y-155457200D01*
X104461904Y-155457200D02*
X104414285Y-155409580D01*
X104414285Y-155409580D02*
X104366666Y-155314342D01*
X104366666Y-155314342D02*
X104366666Y-155219104D01*
X104366666Y-155219104D02*
X104414285Y-155123866D01*
X104414285Y-155123866D02*
X104461904Y-155076247D01*
X104461904Y-155076247D02*
X104557142Y-155028628D01*
X104557142Y-155028628D02*
X104747618Y-154981009D01*
X104747618Y-154981009D02*
X104842856Y-154933390D01*
X104842856Y-154933390D02*
X104890475Y-154885771D01*
X104890475Y-154885771D02*
X104938094Y-154790533D01*
X104938094Y-154790533D02*
X104938094Y-154695295D01*
X104938094Y-154695295D02*
X104890475Y-154600057D01*
X104890475Y-154600057D02*
X104842856Y-154552438D01*
X104842856Y-154552438D02*
X104747618Y-154504819D01*
X104747618Y-154504819D02*
X104509523Y-154504819D01*
X104509523Y-154504819D02*
X104366666Y-154552438D01*
X103414285Y-155504819D02*
X103985713Y-155504819D01*
X103699999Y-155504819D02*
X103699999Y-154504819D01*
X103699999Y-154504819D02*
X103795237Y-154647676D01*
X103795237Y-154647676D02*
X103890475Y-154742914D01*
X103890475Y-154742914D02*
X103985713Y-154790533D01*
X102842856Y-154933390D02*
X102938094Y-154885771D01*
X102938094Y-154885771D02*
X102985713Y-154838152D01*
X102985713Y-154838152D02*
X103033332Y-154742914D01*
X103033332Y-154742914D02*
X103033332Y-154695295D01*
X103033332Y-154695295D02*
X102985713Y-154600057D01*
X102985713Y-154600057D02*
X102938094Y-154552438D01*
X102938094Y-154552438D02*
X102842856Y-154504819D01*
X102842856Y-154504819D02*
X102652380Y-154504819D01*
X102652380Y-154504819D02*
X102557142Y-154552438D01*
X102557142Y-154552438D02*
X102509523Y-154600057D01*
X102509523Y-154600057D02*
X102461904Y-154695295D01*
X102461904Y-154695295D02*
X102461904Y-154742914D01*
X102461904Y-154742914D02*
X102509523Y-154838152D01*
X102509523Y-154838152D02*
X102557142Y-154885771D01*
X102557142Y-154885771D02*
X102652380Y-154933390D01*
X102652380Y-154933390D02*
X102842856Y-154933390D01*
X102842856Y-154933390D02*
X102938094Y-154981009D01*
X102938094Y-154981009D02*
X102985713Y-155028628D01*
X102985713Y-155028628D02*
X103033332Y-155123866D01*
X103033332Y-155123866D02*
X103033332Y-155314342D01*
X103033332Y-155314342D02*
X102985713Y-155409580D01*
X102985713Y-155409580D02*
X102938094Y-155457200D01*
X102938094Y-155457200D02*
X102842856Y-155504819D01*
X102842856Y-155504819D02*
X102652380Y-155504819D01*
X102652380Y-155504819D02*
X102557142Y-155457200D01*
X102557142Y-155457200D02*
X102509523Y-155409580D01*
X102509523Y-155409580D02*
X102461904Y-155314342D01*
X102461904Y-155314342D02*
X102461904Y-155123866D01*
X102461904Y-155123866D02*
X102509523Y-155028628D01*
X102509523Y-155028628D02*
X102557142Y-154981009D01*
X102557142Y-154981009D02*
X102652380Y-154933390D01*
X67738094Y-137857200D02*
X67595237Y-137904819D01*
X67595237Y-137904819D02*
X67357142Y-137904819D01*
X67357142Y-137904819D02*
X67261904Y-137857200D01*
X67261904Y-137857200D02*
X67214285Y-137809580D01*
X67214285Y-137809580D02*
X67166666Y-137714342D01*
X67166666Y-137714342D02*
X67166666Y-137619104D01*
X67166666Y-137619104D02*
X67214285Y-137523866D01*
X67214285Y-137523866D02*
X67261904Y-137476247D01*
X67261904Y-137476247D02*
X67357142Y-137428628D01*
X67357142Y-137428628D02*
X67547618Y-137381009D01*
X67547618Y-137381009D02*
X67642856Y-137333390D01*
X67642856Y-137333390D02*
X67690475Y-137285771D01*
X67690475Y-137285771D02*
X67738094Y-137190533D01*
X67738094Y-137190533D02*
X67738094Y-137095295D01*
X67738094Y-137095295D02*
X67690475Y-137000057D01*
X67690475Y-137000057D02*
X67642856Y-136952438D01*
X67642856Y-136952438D02*
X67547618Y-136904819D01*
X67547618Y-136904819D02*
X67309523Y-136904819D01*
X67309523Y-136904819D02*
X67166666Y-136952438D01*
X66214285Y-137904819D02*
X66785713Y-137904819D01*
X66499999Y-137904819D02*
X66499999Y-136904819D01*
X66499999Y-136904819D02*
X66595237Y-137047676D01*
X66595237Y-137047676D02*
X66690475Y-137142914D01*
X66690475Y-137142914D02*
X66785713Y-137190533D01*
X65833332Y-137000057D02*
X65785713Y-136952438D01*
X65785713Y-136952438D02*
X65690475Y-136904819D01*
X65690475Y-136904819D02*
X65452380Y-136904819D01*
X65452380Y-136904819D02*
X65357142Y-136952438D01*
X65357142Y-136952438D02*
X65309523Y-137000057D01*
X65309523Y-137000057D02*
X65261904Y-137095295D01*
X65261904Y-137095295D02*
X65261904Y-137190533D01*
X65261904Y-137190533D02*
X65309523Y-137333390D01*
X65309523Y-137333390D02*
X65880951Y-137904819D01*
X65880951Y-137904819D02*
X65261904Y-137904819D01*
X104938094Y-120257200D02*
X104795237Y-120304819D01*
X104795237Y-120304819D02*
X104557142Y-120304819D01*
X104557142Y-120304819D02*
X104461904Y-120257200D01*
X104461904Y-120257200D02*
X104414285Y-120209580D01*
X104414285Y-120209580D02*
X104366666Y-120114342D01*
X104366666Y-120114342D02*
X104366666Y-120019104D01*
X104366666Y-120019104D02*
X104414285Y-119923866D01*
X104414285Y-119923866D02*
X104461904Y-119876247D01*
X104461904Y-119876247D02*
X104557142Y-119828628D01*
X104557142Y-119828628D02*
X104747618Y-119781009D01*
X104747618Y-119781009D02*
X104842856Y-119733390D01*
X104842856Y-119733390D02*
X104890475Y-119685771D01*
X104890475Y-119685771D02*
X104938094Y-119590533D01*
X104938094Y-119590533D02*
X104938094Y-119495295D01*
X104938094Y-119495295D02*
X104890475Y-119400057D01*
X104890475Y-119400057D02*
X104842856Y-119352438D01*
X104842856Y-119352438D02*
X104747618Y-119304819D01*
X104747618Y-119304819D02*
X104509523Y-119304819D01*
X104509523Y-119304819D02*
X104366666Y-119352438D01*
X103414285Y-120304819D02*
X103985713Y-120304819D01*
X103699999Y-120304819D02*
X103699999Y-119304819D01*
X103699999Y-119304819D02*
X103795237Y-119447676D01*
X103795237Y-119447676D02*
X103890475Y-119542914D01*
X103890475Y-119542914D02*
X103985713Y-119590533D01*
X102461904Y-120304819D02*
X103033332Y-120304819D01*
X102747618Y-120304819D02*
X102747618Y-119304819D01*
X102747618Y-119304819D02*
X102842856Y-119447676D01*
X102842856Y-119447676D02*
X102938094Y-119542914D01*
X102938094Y-119542914D02*
X103033332Y-119590533D01*
X85861904Y-102657200D02*
X85719047Y-102704819D01*
X85719047Y-102704819D02*
X85480952Y-102704819D01*
X85480952Y-102704819D02*
X85385714Y-102657200D01*
X85385714Y-102657200D02*
X85338095Y-102609580D01*
X85338095Y-102609580D02*
X85290476Y-102514342D01*
X85290476Y-102514342D02*
X85290476Y-102419104D01*
X85290476Y-102419104D02*
X85338095Y-102323866D01*
X85338095Y-102323866D02*
X85385714Y-102276247D01*
X85385714Y-102276247D02*
X85480952Y-102228628D01*
X85480952Y-102228628D02*
X85671428Y-102181009D01*
X85671428Y-102181009D02*
X85766666Y-102133390D01*
X85766666Y-102133390D02*
X85814285Y-102085771D01*
X85814285Y-102085771D02*
X85861904Y-101990533D01*
X85861904Y-101990533D02*
X85861904Y-101895295D01*
X85861904Y-101895295D02*
X85814285Y-101800057D01*
X85814285Y-101800057D02*
X85766666Y-101752438D01*
X85766666Y-101752438D02*
X85671428Y-101704819D01*
X85671428Y-101704819D02*
X85433333Y-101704819D01*
X85433333Y-101704819D02*
X85290476Y-101752438D01*
X84433333Y-101704819D02*
X84623809Y-101704819D01*
X84623809Y-101704819D02*
X84719047Y-101752438D01*
X84719047Y-101752438D02*
X84766666Y-101800057D01*
X84766666Y-101800057D02*
X84861904Y-101942914D01*
X84861904Y-101942914D02*
X84909523Y-102133390D01*
X84909523Y-102133390D02*
X84909523Y-102514342D01*
X84909523Y-102514342D02*
X84861904Y-102609580D01*
X84861904Y-102609580D02*
X84814285Y-102657200D01*
X84814285Y-102657200D02*
X84719047Y-102704819D01*
X84719047Y-102704819D02*
X84528571Y-102704819D01*
X84528571Y-102704819D02*
X84433333Y-102657200D01*
X84433333Y-102657200D02*
X84385714Y-102609580D01*
X84385714Y-102609580D02*
X84338095Y-102514342D01*
X84338095Y-102514342D02*
X84338095Y-102276247D01*
X84338095Y-102276247D02*
X84385714Y-102181009D01*
X84385714Y-102181009D02*
X84433333Y-102133390D01*
X84433333Y-102133390D02*
X84528571Y-102085771D01*
X84528571Y-102085771D02*
X84719047Y-102085771D01*
X84719047Y-102085771D02*
X84814285Y-102133390D01*
X84814285Y-102133390D02*
X84861904Y-102181009D01*
X84861904Y-102181009D02*
X84909523Y-102276247D01*
X104938094Y-137857200D02*
X104795237Y-137904819D01*
X104795237Y-137904819D02*
X104557142Y-137904819D01*
X104557142Y-137904819D02*
X104461904Y-137857200D01*
X104461904Y-137857200D02*
X104414285Y-137809580D01*
X104414285Y-137809580D02*
X104366666Y-137714342D01*
X104366666Y-137714342D02*
X104366666Y-137619104D01*
X104366666Y-137619104D02*
X104414285Y-137523866D01*
X104414285Y-137523866D02*
X104461904Y-137476247D01*
X104461904Y-137476247D02*
X104557142Y-137428628D01*
X104557142Y-137428628D02*
X104747618Y-137381009D01*
X104747618Y-137381009D02*
X104842856Y-137333390D01*
X104842856Y-137333390D02*
X104890475Y-137285771D01*
X104890475Y-137285771D02*
X104938094Y-137190533D01*
X104938094Y-137190533D02*
X104938094Y-137095295D01*
X104938094Y-137095295D02*
X104890475Y-137000057D01*
X104890475Y-137000057D02*
X104842856Y-136952438D01*
X104842856Y-136952438D02*
X104747618Y-136904819D01*
X104747618Y-136904819D02*
X104509523Y-136904819D01*
X104509523Y-136904819D02*
X104366666Y-136952438D01*
X103414285Y-137904819D02*
X103985713Y-137904819D01*
X103699999Y-137904819D02*
X103699999Y-136904819D01*
X103699999Y-136904819D02*
X103795237Y-137047676D01*
X103795237Y-137047676D02*
X103890475Y-137142914D01*
X103890475Y-137142914D02*
X103985713Y-137190533D01*
X102557142Y-137238152D02*
X102557142Y-137904819D01*
X102795237Y-136857200D02*
X103033332Y-137571485D01*
X103033332Y-137571485D02*
X102414285Y-137571485D01*
X86338094Y-137857200D02*
X86195237Y-137904819D01*
X86195237Y-137904819D02*
X85957142Y-137904819D01*
X85957142Y-137904819D02*
X85861904Y-137857200D01*
X85861904Y-137857200D02*
X85814285Y-137809580D01*
X85814285Y-137809580D02*
X85766666Y-137714342D01*
X85766666Y-137714342D02*
X85766666Y-137619104D01*
X85766666Y-137619104D02*
X85814285Y-137523866D01*
X85814285Y-137523866D02*
X85861904Y-137476247D01*
X85861904Y-137476247D02*
X85957142Y-137428628D01*
X85957142Y-137428628D02*
X86147618Y-137381009D01*
X86147618Y-137381009D02*
X86242856Y-137333390D01*
X86242856Y-137333390D02*
X86290475Y-137285771D01*
X86290475Y-137285771D02*
X86338094Y-137190533D01*
X86338094Y-137190533D02*
X86338094Y-137095295D01*
X86338094Y-137095295D02*
X86290475Y-137000057D01*
X86290475Y-137000057D02*
X86242856Y-136952438D01*
X86242856Y-136952438D02*
X86147618Y-136904819D01*
X86147618Y-136904819D02*
X85909523Y-136904819D01*
X85909523Y-136904819D02*
X85766666Y-136952438D01*
X84814285Y-137904819D02*
X85385713Y-137904819D01*
X85099999Y-137904819D02*
X85099999Y-136904819D01*
X85099999Y-136904819D02*
X85195237Y-137047676D01*
X85195237Y-137047676D02*
X85290475Y-137142914D01*
X85290475Y-137142914D02*
X85385713Y-137190533D01*
X84480951Y-136904819D02*
X83861904Y-136904819D01*
X83861904Y-136904819D02*
X84195237Y-137285771D01*
X84195237Y-137285771D02*
X84052380Y-137285771D01*
X84052380Y-137285771D02*
X83957142Y-137333390D01*
X83957142Y-137333390D02*
X83909523Y-137381009D01*
X83909523Y-137381009D02*
X83861904Y-137476247D01*
X83861904Y-137476247D02*
X83861904Y-137714342D01*
X83861904Y-137714342D02*
X83909523Y-137809580D01*
X83909523Y-137809580D02*
X83957142Y-137857200D01*
X83957142Y-137857200D02*
X84052380Y-137904819D01*
X84052380Y-137904819D02*
X84338094Y-137904819D01*
X84338094Y-137904819D02*
X84433332Y-137857200D01*
X84433332Y-137857200D02*
X84480951Y-137809580D01*
X67738094Y-155457200D02*
X67595237Y-155504819D01*
X67595237Y-155504819D02*
X67357142Y-155504819D01*
X67357142Y-155504819D02*
X67261904Y-155457200D01*
X67261904Y-155457200D02*
X67214285Y-155409580D01*
X67214285Y-155409580D02*
X67166666Y-155314342D01*
X67166666Y-155314342D02*
X67166666Y-155219104D01*
X67166666Y-155219104D02*
X67214285Y-155123866D01*
X67214285Y-155123866D02*
X67261904Y-155076247D01*
X67261904Y-155076247D02*
X67357142Y-155028628D01*
X67357142Y-155028628D02*
X67547618Y-154981009D01*
X67547618Y-154981009D02*
X67642856Y-154933390D01*
X67642856Y-154933390D02*
X67690475Y-154885771D01*
X67690475Y-154885771D02*
X67738094Y-154790533D01*
X67738094Y-154790533D02*
X67738094Y-154695295D01*
X67738094Y-154695295D02*
X67690475Y-154600057D01*
X67690475Y-154600057D02*
X67642856Y-154552438D01*
X67642856Y-154552438D02*
X67547618Y-154504819D01*
X67547618Y-154504819D02*
X67309523Y-154504819D01*
X67309523Y-154504819D02*
X67166666Y-154552438D01*
X66214285Y-155504819D02*
X66785713Y-155504819D01*
X66499999Y-155504819D02*
X66499999Y-154504819D01*
X66499999Y-154504819D02*
X66595237Y-154647676D01*
X66595237Y-154647676D02*
X66690475Y-154742914D01*
X66690475Y-154742914D02*
X66785713Y-154790533D01*
X65357142Y-154504819D02*
X65547618Y-154504819D01*
X65547618Y-154504819D02*
X65642856Y-154552438D01*
X65642856Y-154552438D02*
X65690475Y-154600057D01*
X65690475Y-154600057D02*
X65785713Y-154742914D01*
X65785713Y-154742914D02*
X65833332Y-154933390D01*
X65833332Y-154933390D02*
X65833332Y-155314342D01*
X65833332Y-155314342D02*
X65785713Y-155409580D01*
X65785713Y-155409580D02*
X65738094Y-155457200D01*
X65738094Y-155457200D02*
X65642856Y-155504819D01*
X65642856Y-155504819D02*
X65452380Y-155504819D01*
X65452380Y-155504819D02*
X65357142Y-155457200D01*
X65357142Y-155457200D02*
X65309523Y-155409580D01*
X65309523Y-155409580D02*
X65261904Y-155314342D01*
X65261904Y-155314342D02*
X65261904Y-155076247D01*
X65261904Y-155076247D02*
X65309523Y-154981009D01*
X65309523Y-154981009D02*
X65357142Y-154933390D01*
X65357142Y-154933390D02*
X65452380Y-154885771D01*
X65452380Y-154885771D02*
X65642856Y-154885771D01*
X65642856Y-154885771D02*
X65738094Y-154933390D01*
X65738094Y-154933390D02*
X65785713Y-154981009D01*
X65785713Y-154981009D02*
X65833332Y-155076247D01*
X67261904Y-120257200D02*
X67119047Y-120304819D01*
X67119047Y-120304819D02*
X66880952Y-120304819D01*
X66880952Y-120304819D02*
X66785714Y-120257200D01*
X66785714Y-120257200D02*
X66738095Y-120209580D01*
X66738095Y-120209580D02*
X66690476Y-120114342D01*
X66690476Y-120114342D02*
X66690476Y-120019104D01*
X66690476Y-120019104D02*
X66738095Y-119923866D01*
X66738095Y-119923866D02*
X66785714Y-119876247D01*
X66785714Y-119876247D02*
X66880952Y-119828628D01*
X66880952Y-119828628D02*
X67071428Y-119781009D01*
X67071428Y-119781009D02*
X67166666Y-119733390D01*
X67166666Y-119733390D02*
X67214285Y-119685771D01*
X67214285Y-119685771D02*
X67261904Y-119590533D01*
X67261904Y-119590533D02*
X67261904Y-119495295D01*
X67261904Y-119495295D02*
X67214285Y-119400057D01*
X67214285Y-119400057D02*
X67166666Y-119352438D01*
X67166666Y-119352438D02*
X67071428Y-119304819D01*
X67071428Y-119304819D02*
X66833333Y-119304819D01*
X66833333Y-119304819D02*
X66690476Y-119352438D01*
X66214285Y-120304819D02*
X66023809Y-120304819D01*
X66023809Y-120304819D02*
X65928571Y-120257200D01*
X65928571Y-120257200D02*
X65880952Y-120209580D01*
X65880952Y-120209580D02*
X65785714Y-120066723D01*
X65785714Y-120066723D02*
X65738095Y-119876247D01*
X65738095Y-119876247D02*
X65738095Y-119495295D01*
X65738095Y-119495295D02*
X65785714Y-119400057D01*
X65785714Y-119400057D02*
X65833333Y-119352438D01*
X65833333Y-119352438D02*
X65928571Y-119304819D01*
X65928571Y-119304819D02*
X66119047Y-119304819D01*
X66119047Y-119304819D02*
X66214285Y-119352438D01*
X66214285Y-119352438D02*
X66261904Y-119400057D01*
X66261904Y-119400057D02*
X66309523Y-119495295D01*
X66309523Y-119495295D02*
X66309523Y-119733390D01*
X66309523Y-119733390D02*
X66261904Y-119828628D01*
X66261904Y-119828628D02*
X66214285Y-119876247D01*
X66214285Y-119876247D02*
X66119047Y-119923866D01*
X66119047Y-119923866D02*
X65928571Y-119923866D01*
X65928571Y-119923866D02*
X65833333Y-119876247D01*
X65833333Y-119876247D02*
X65785714Y-119828628D01*
X65785714Y-119828628D02*
X65738095Y-119733390D01*
X67261904Y-102657200D02*
X67119047Y-102704819D01*
X67119047Y-102704819D02*
X66880952Y-102704819D01*
X66880952Y-102704819D02*
X66785714Y-102657200D01*
X66785714Y-102657200D02*
X66738095Y-102609580D01*
X66738095Y-102609580D02*
X66690476Y-102514342D01*
X66690476Y-102514342D02*
X66690476Y-102419104D01*
X66690476Y-102419104D02*
X66738095Y-102323866D01*
X66738095Y-102323866D02*
X66785714Y-102276247D01*
X66785714Y-102276247D02*
X66880952Y-102228628D01*
X66880952Y-102228628D02*
X67071428Y-102181009D01*
X67071428Y-102181009D02*
X67166666Y-102133390D01*
X67166666Y-102133390D02*
X67214285Y-102085771D01*
X67214285Y-102085771D02*
X67261904Y-101990533D01*
X67261904Y-101990533D02*
X67261904Y-101895295D01*
X67261904Y-101895295D02*
X67214285Y-101800057D01*
X67214285Y-101800057D02*
X67166666Y-101752438D01*
X67166666Y-101752438D02*
X67071428Y-101704819D01*
X67071428Y-101704819D02*
X66833333Y-101704819D01*
X66833333Y-101704819D02*
X66690476Y-101752438D01*
X65785714Y-101704819D02*
X66261904Y-101704819D01*
X66261904Y-101704819D02*
X66309523Y-102181009D01*
X66309523Y-102181009D02*
X66261904Y-102133390D01*
X66261904Y-102133390D02*
X66166666Y-102085771D01*
X66166666Y-102085771D02*
X65928571Y-102085771D01*
X65928571Y-102085771D02*
X65833333Y-102133390D01*
X65833333Y-102133390D02*
X65785714Y-102181009D01*
X65785714Y-102181009D02*
X65738095Y-102276247D01*
X65738095Y-102276247D02*
X65738095Y-102514342D01*
X65738095Y-102514342D02*
X65785714Y-102609580D01*
X65785714Y-102609580D02*
X65833333Y-102657200D01*
X65833333Y-102657200D02*
X65928571Y-102704819D01*
X65928571Y-102704819D02*
X66166666Y-102704819D01*
X66166666Y-102704819D02*
X66261904Y-102657200D01*
X66261904Y-102657200D02*
X66309523Y-102609580D01*
X76654819Y-48333333D02*
X76178628Y-48000000D01*
X76654819Y-47761905D02*
X75654819Y-47761905D01*
X75654819Y-47761905D02*
X75654819Y-48142857D01*
X75654819Y-48142857D02*
X75702438Y-48238095D01*
X75702438Y-48238095D02*
X75750057Y-48285714D01*
X75750057Y-48285714D02*
X75845295Y-48333333D01*
X75845295Y-48333333D02*
X75988152Y-48333333D01*
X75988152Y-48333333D02*
X76083390Y-48285714D01*
X76083390Y-48285714D02*
X76131009Y-48238095D01*
X76131009Y-48238095D02*
X76178628Y-48142857D01*
X76178628Y-48142857D02*
X76178628Y-47761905D01*
X75654819Y-49190476D02*
X75654819Y-49000000D01*
X75654819Y-49000000D02*
X75702438Y-48904762D01*
X75702438Y-48904762D02*
X75750057Y-48857143D01*
X75750057Y-48857143D02*
X75892914Y-48761905D01*
X75892914Y-48761905D02*
X76083390Y-48714286D01*
X76083390Y-48714286D02*
X76464342Y-48714286D01*
X76464342Y-48714286D02*
X76559580Y-48761905D01*
X76559580Y-48761905D02*
X76607200Y-48809524D01*
X76607200Y-48809524D02*
X76654819Y-48904762D01*
X76654819Y-48904762D02*
X76654819Y-49095238D01*
X76654819Y-49095238D02*
X76607200Y-49190476D01*
X76607200Y-49190476D02*
X76559580Y-49238095D01*
X76559580Y-49238095D02*
X76464342Y-49285714D01*
X76464342Y-49285714D02*
X76226247Y-49285714D01*
X76226247Y-49285714D02*
X76131009Y-49238095D01*
X76131009Y-49238095D02*
X76083390Y-49190476D01*
X76083390Y-49190476D02*
X76035771Y-49095238D01*
X76035771Y-49095238D02*
X76035771Y-48904762D01*
X76035771Y-48904762D02*
X76083390Y-48809524D01*
X76083390Y-48809524D02*
X76131009Y-48761905D01*
X76131009Y-48761905D02*
X76226247Y-48714286D01*
X115692857Y-57554819D02*
X116026190Y-57078628D01*
X116264285Y-57554819D02*
X116264285Y-56554819D01*
X116264285Y-56554819D02*
X115883333Y-56554819D01*
X115883333Y-56554819D02*
X115788095Y-56602438D01*
X115788095Y-56602438D02*
X115740476Y-56650057D01*
X115740476Y-56650057D02*
X115692857Y-56745295D01*
X115692857Y-56745295D02*
X115692857Y-56888152D01*
X115692857Y-56888152D02*
X115740476Y-56983390D01*
X115740476Y-56983390D02*
X115788095Y-57031009D01*
X115788095Y-57031009D02*
X115883333Y-57078628D01*
X115883333Y-57078628D02*
X116264285Y-57078628D01*
X115359523Y-56554819D02*
X114740476Y-56554819D01*
X114740476Y-56554819D02*
X115073809Y-56935771D01*
X115073809Y-56935771D02*
X114930952Y-56935771D01*
X114930952Y-56935771D02*
X114835714Y-56983390D01*
X114835714Y-56983390D02*
X114788095Y-57031009D01*
X114788095Y-57031009D02*
X114740476Y-57126247D01*
X114740476Y-57126247D02*
X114740476Y-57364342D01*
X114740476Y-57364342D02*
X114788095Y-57459580D01*
X114788095Y-57459580D02*
X114835714Y-57507200D01*
X114835714Y-57507200D02*
X114930952Y-57554819D01*
X114930952Y-57554819D02*
X115216666Y-57554819D01*
X115216666Y-57554819D02*
X115311904Y-57507200D01*
X115311904Y-57507200D02*
X115359523Y-57459580D01*
X114121428Y-56554819D02*
X114026190Y-56554819D01*
X114026190Y-56554819D02*
X113930952Y-56602438D01*
X113930952Y-56602438D02*
X113883333Y-56650057D01*
X113883333Y-56650057D02*
X113835714Y-56745295D01*
X113835714Y-56745295D02*
X113788095Y-56935771D01*
X113788095Y-56935771D02*
X113788095Y-57173866D01*
X113788095Y-57173866D02*
X113835714Y-57364342D01*
X113835714Y-57364342D02*
X113883333Y-57459580D01*
X113883333Y-57459580D02*
X113930952Y-57507200D01*
X113930952Y-57507200D02*
X114026190Y-57554819D01*
X114026190Y-57554819D02*
X114121428Y-57554819D01*
X114121428Y-57554819D02*
X114216666Y-57507200D01*
X114216666Y-57507200D02*
X114264285Y-57459580D01*
X114264285Y-57459580D02*
X114311904Y-57364342D01*
X114311904Y-57364342D02*
X114359523Y-57173866D01*
X114359523Y-57173866D02*
X114359523Y-56935771D01*
X114359523Y-56935771D02*
X114311904Y-56745295D01*
X114311904Y-56745295D02*
X114264285Y-56650057D01*
X114264285Y-56650057D02*
X114216666Y-56602438D01*
X114216666Y-56602438D02*
X114121428Y-56554819D01*
X75254819Y-48333333D02*
X74778628Y-48000000D01*
X75254819Y-47761905D02*
X74254819Y-47761905D01*
X74254819Y-47761905D02*
X74254819Y-48142857D01*
X74254819Y-48142857D02*
X74302438Y-48238095D01*
X74302438Y-48238095D02*
X74350057Y-48285714D01*
X74350057Y-48285714D02*
X74445295Y-48333333D01*
X74445295Y-48333333D02*
X74588152Y-48333333D01*
X74588152Y-48333333D02*
X74683390Y-48285714D01*
X74683390Y-48285714D02*
X74731009Y-48238095D01*
X74731009Y-48238095D02*
X74778628Y-48142857D01*
X74778628Y-48142857D02*
X74778628Y-47761905D01*
X74254819Y-49238095D02*
X74254819Y-48761905D01*
X74254819Y-48761905D02*
X74731009Y-48714286D01*
X74731009Y-48714286D02*
X74683390Y-48761905D01*
X74683390Y-48761905D02*
X74635771Y-48857143D01*
X74635771Y-48857143D02*
X74635771Y-49095238D01*
X74635771Y-49095238D02*
X74683390Y-49190476D01*
X74683390Y-49190476D02*
X74731009Y-49238095D01*
X74731009Y-49238095D02*
X74826247Y-49285714D01*
X74826247Y-49285714D02*
X75064342Y-49285714D01*
X75064342Y-49285714D02*
X75159580Y-49238095D01*
X75159580Y-49238095D02*
X75207200Y-49190476D01*
X75207200Y-49190476D02*
X75254819Y-49095238D01*
X75254819Y-49095238D02*
X75254819Y-48857143D01*
X75254819Y-48857143D02*
X75207200Y-48761905D01*
X75207200Y-48761905D02*
X75159580Y-48714286D01*
X66492857Y-57154819D02*
X66826190Y-56678628D01*
X67064285Y-57154819D02*
X67064285Y-56154819D01*
X67064285Y-56154819D02*
X66683333Y-56154819D01*
X66683333Y-56154819D02*
X66588095Y-56202438D01*
X66588095Y-56202438D02*
X66540476Y-56250057D01*
X66540476Y-56250057D02*
X66492857Y-56345295D01*
X66492857Y-56345295D02*
X66492857Y-56488152D01*
X66492857Y-56488152D02*
X66540476Y-56583390D01*
X66540476Y-56583390D02*
X66588095Y-56631009D01*
X66588095Y-56631009D02*
X66683333Y-56678628D01*
X66683333Y-56678628D02*
X67064285Y-56678628D01*
X66111904Y-56250057D02*
X66064285Y-56202438D01*
X66064285Y-56202438D02*
X65969047Y-56154819D01*
X65969047Y-56154819D02*
X65730952Y-56154819D01*
X65730952Y-56154819D02*
X65635714Y-56202438D01*
X65635714Y-56202438D02*
X65588095Y-56250057D01*
X65588095Y-56250057D02*
X65540476Y-56345295D01*
X65540476Y-56345295D02*
X65540476Y-56440533D01*
X65540476Y-56440533D02*
X65588095Y-56583390D01*
X65588095Y-56583390D02*
X66159523Y-57154819D01*
X66159523Y-57154819D02*
X65540476Y-57154819D01*
X65207142Y-56154819D02*
X64588095Y-56154819D01*
X64588095Y-56154819D02*
X64921428Y-56535771D01*
X64921428Y-56535771D02*
X64778571Y-56535771D01*
X64778571Y-56535771D02*
X64683333Y-56583390D01*
X64683333Y-56583390D02*
X64635714Y-56631009D01*
X64635714Y-56631009D02*
X64588095Y-56726247D01*
X64588095Y-56726247D02*
X64588095Y-56964342D01*
X64588095Y-56964342D02*
X64635714Y-57059580D01*
X64635714Y-57059580D02*
X64683333Y-57107200D01*
X64683333Y-57107200D02*
X64778571Y-57154819D01*
X64778571Y-57154819D02*
X65064285Y-57154819D01*
X65064285Y-57154819D02*
X65159523Y-57107200D01*
X65159523Y-57107200D02*
X65207142Y-57059580D01*
X51137857Y-51558580D02*
X51185476Y-51606200D01*
X51185476Y-51606200D02*
X51328333Y-51653819D01*
X51328333Y-51653819D02*
X51423571Y-51653819D01*
X51423571Y-51653819D02*
X51566428Y-51606200D01*
X51566428Y-51606200D02*
X51661666Y-51510961D01*
X51661666Y-51510961D02*
X51709285Y-51415723D01*
X51709285Y-51415723D02*
X51756904Y-51225247D01*
X51756904Y-51225247D02*
X51756904Y-51082390D01*
X51756904Y-51082390D02*
X51709285Y-50891914D01*
X51709285Y-50891914D02*
X51661666Y-50796676D01*
X51661666Y-50796676D02*
X51566428Y-50701438D01*
X51566428Y-50701438D02*
X51423571Y-50653819D01*
X51423571Y-50653819D02*
X51328333Y-50653819D01*
X51328333Y-50653819D02*
X51185476Y-50701438D01*
X51185476Y-50701438D02*
X51137857Y-50749057D01*
X50756904Y-50749057D02*
X50709285Y-50701438D01*
X50709285Y-50701438D02*
X50614047Y-50653819D01*
X50614047Y-50653819D02*
X50375952Y-50653819D01*
X50375952Y-50653819D02*
X50280714Y-50701438D01*
X50280714Y-50701438D02*
X50233095Y-50749057D01*
X50233095Y-50749057D02*
X50185476Y-50844295D01*
X50185476Y-50844295D02*
X50185476Y-50939533D01*
X50185476Y-50939533D02*
X50233095Y-51082390D01*
X50233095Y-51082390D02*
X50804523Y-51653819D01*
X50804523Y-51653819D02*
X50185476Y-51653819D01*
X49852142Y-50653819D02*
X49233095Y-50653819D01*
X49233095Y-50653819D02*
X49566428Y-51034771D01*
X49566428Y-51034771D02*
X49423571Y-51034771D01*
X49423571Y-51034771D02*
X49328333Y-51082390D01*
X49328333Y-51082390D02*
X49280714Y-51130009D01*
X49280714Y-51130009D02*
X49233095Y-51225247D01*
X49233095Y-51225247D02*
X49233095Y-51463342D01*
X49233095Y-51463342D02*
X49280714Y-51558580D01*
X49280714Y-51558580D02*
X49328333Y-51606200D01*
X49328333Y-51606200D02*
X49423571Y-51653819D01*
X49423571Y-51653819D02*
X49709285Y-51653819D01*
X49709285Y-51653819D02*
X49804523Y-51606200D01*
X49804523Y-51606200D02*
X49852142Y-51558580D01*
X85042857Y-65154819D02*
X85376190Y-64678628D01*
X85614285Y-65154819D02*
X85614285Y-64154819D01*
X85614285Y-64154819D02*
X85233333Y-64154819D01*
X85233333Y-64154819D02*
X85138095Y-64202438D01*
X85138095Y-64202438D02*
X85090476Y-64250057D01*
X85090476Y-64250057D02*
X85042857Y-64345295D01*
X85042857Y-64345295D02*
X85042857Y-64488152D01*
X85042857Y-64488152D02*
X85090476Y-64583390D01*
X85090476Y-64583390D02*
X85138095Y-64631009D01*
X85138095Y-64631009D02*
X85233333Y-64678628D01*
X85233333Y-64678628D02*
X85614285Y-64678628D01*
X84090476Y-65154819D02*
X84661904Y-65154819D01*
X84376190Y-65154819D02*
X84376190Y-64154819D01*
X84376190Y-64154819D02*
X84471428Y-64297676D01*
X84471428Y-64297676D02*
X84566666Y-64392914D01*
X84566666Y-64392914D02*
X84661904Y-64440533D01*
X83757142Y-64154819D02*
X83090476Y-64154819D01*
X83090476Y-64154819D02*
X83519047Y-65154819D01*
X125092857Y-55954819D02*
X125426190Y-55478628D01*
X125664285Y-55954819D02*
X125664285Y-54954819D01*
X125664285Y-54954819D02*
X125283333Y-54954819D01*
X125283333Y-54954819D02*
X125188095Y-55002438D01*
X125188095Y-55002438D02*
X125140476Y-55050057D01*
X125140476Y-55050057D02*
X125092857Y-55145295D01*
X125092857Y-55145295D02*
X125092857Y-55288152D01*
X125092857Y-55288152D02*
X125140476Y-55383390D01*
X125140476Y-55383390D02*
X125188095Y-55431009D01*
X125188095Y-55431009D02*
X125283333Y-55478628D01*
X125283333Y-55478628D02*
X125664285Y-55478628D01*
X124711904Y-55050057D02*
X124664285Y-55002438D01*
X124664285Y-55002438D02*
X124569047Y-54954819D01*
X124569047Y-54954819D02*
X124330952Y-54954819D01*
X124330952Y-54954819D02*
X124235714Y-55002438D01*
X124235714Y-55002438D02*
X124188095Y-55050057D01*
X124188095Y-55050057D02*
X124140476Y-55145295D01*
X124140476Y-55145295D02*
X124140476Y-55240533D01*
X124140476Y-55240533D02*
X124188095Y-55383390D01*
X124188095Y-55383390D02*
X124759523Y-55954819D01*
X124759523Y-55954819D02*
X124140476Y-55954819D01*
X123807142Y-54954819D02*
X123140476Y-54954819D01*
X123140476Y-54954819D02*
X123569047Y-55954819D01*
X106679819Y-36285666D02*
X107394104Y-36285666D01*
X107394104Y-36285666D02*
X107536961Y-36238047D01*
X107536961Y-36238047D02*
X107632200Y-36142809D01*
X107632200Y-36142809D02*
X107679819Y-35999952D01*
X107679819Y-35999952D02*
X107679819Y-35904714D01*
X107679819Y-37285666D02*
X107679819Y-36714238D01*
X107679819Y-36999952D02*
X106679819Y-36999952D01*
X106679819Y-36999952D02*
X106822676Y-36904714D01*
X106822676Y-36904714D02*
X106917914Y-36809476D01*
X106917914Y-36809476D02*
X106965533Y-36714238D01*
X75592857Y-60459580D02*
X75640476Y-60507200D01*
X75640476Y-60507200D02*
X75783333Y-60554819D01*
X75783333Y-60554819D02*
X75878571Y-60554819D01*
X75878571Y-60554819D02*
X76021428Y-60507200D01*
X76021428Y-60507200D02*
X76116666Y-60411961D01*
X76116666Y-60411961D02*
X76164285Y-60316723D01*
X76164285Y-60316723D02*
X76211904Y-60126247D01*
X76211904Y-60126247D02*
X76211904Y-59983390D01*
X76211904Y-59983390D02*
X76164285Y-59792914D01*
X76164285Y-59792914D02*
X76116666Y-59697676D01*
X76116666Y-59697676D02*
X76021428Y-59602438D01*
X76021428Y-59602438D02*
X75878571Y-59554819D01*
X75878571Y-59554819D02*
X75783333Y-59554819D01*
X75783333Y-59554819D02*
X75640476Y-59602438D01*
X75640476Y-59602438D02*
X75592857Y-59650057D01*
X75211904Y-59650057D02*
X75164285Y-59602438D01*
X75164285Y-59602438D02*
X75069047Y-59554819D01*
X75069047Y-59554819D02*
X74830952Y-59554819D01*
X74830952Y-59554819D02*
X74735714Y-59602438D01*
X74735714Y-59602438D02*
X74688095Y-59650057D01*
X74688095Y-59650057D02*
X74640476Y-59745295D01*
X74640476Y-59745295D02*
X74640476Y-59840533D01*
X74640476Y-59840533D02*
X74688095Y-59983390D01*
X74688095Y-59983390D02*
X75259523Y-60554819D01*
X75259523Y-60554819D02*
X74640476Y-60554819D01*
X74021428Y-59554819D02*
X73926190Y-59554819D01*
X73926190Y-59554819D02*
X73830952Y-59602438D01*
X73830952Y-59602438D02*
X73783333Y-59650057D01*
X73783333Y-59650057D02*
X73735714Y-59745295D01*
X73735714Y-59745295D02*
X73688095Y-59935771D01*
X73688095Y-59935771D02*
X73688095Y-60173866D01*
X73688095Y-60173866D02*
X73735714Y-60364342D01*
X73735714Y-60364342D02*
X73783333Y-60459580D01*
X73783333Y-60459580D02*
X73830952Y-60507200D01*
X73830952Y-60507200D02*
X73926190Y-60554819D01*
X73926190Y-60554819D02*
X74021428Y-60554819D01*
X74021428Y-60554819D02*
X74116666Y-60507200D01*
X74116666Y-60507200D02*
X74164285Y-60459580D01*
X74164285Y-60459580D02*
X74211904Y-60364342D01*
X74211904Y-60364342D02*
X74259523Y-60173866D01*
X74259523Y-60173866D02*
X74259523Y-59935771D01*
X74259523Y-59935771D02*
X74211904Y-59745295D01*
X74211904Y-59745295D02*
X74164285Y-59650057D01*
X74164285Y-59650057D02*
X74116666Y-59602438D01*
X74116666Y-59602438D02*
X74021428Y-59554819D01*
X89559580Y-72333333D02*
X89607200Y-72285714D01*
X89607200Y-72285714D02*
X89654819Y-72142857D01*
X89654819Y-72142857D02*
X89654819Y-72047619D01*
X89654819Y-72047619D02*
X89607200Y-71904762D01*
X89607200Y-71904762D02*
X89511961Y-71809524D01*
X89511961Y-71809524D02*
X89416723Y-71761905D01*
X89416723Y-71761905D02*
X89226247Y-71714286D01*
X89226247Y-71714286D02*
X89083390Y-71714286D01*
X89083390Y-71714286D02*
X88892914Y-71761905D01*
X88892914Y-71761905D02*
X88797676Y-71809524D01*
X88797676Y-71809524D02*
X88702438Y-71904762D01*
X88702438Y-71904762D02*
X88654819Y-72047619D01*
X88654819Y-72047619D02*
X88654819Y-72142857D01*
X88654819Y-72142857D02*
X88702438Y-72285714D01*
X88702438Y-72285714D02*
X88750057Y-72333333D01*
X89654819Y-72809524D02*
X89654819Y-73000000D01*
X89654819Y-73000000D02*
X89607200Y-73095238D01*
X89607200Y-73095238D02*
X89559580Y-73142857D01*
X89559580Y-73142857D02*
X89416723Y-73238095D01*
X89416723Y-73238095D02*
X89226247Y-73285714D01*
X89226247Y-73285714D02*
X88845295Y-73285714D01*
X88845295Y-73285714D02*
X88750057Y-73238095D01*
X88750057Y-73238095D02*
X88702438Y-73190476D01*
X88702438Y-73190476D02*
X88654819Y-73095238D01*
X88654819Y-73095238D02*
X88654819Y-72904762D01*
X88654819Y-72904762D02*
X88702438Y-72809524D01*
X88702438Y-72809524D02*
X88750057Y-72761905D01*
X88750057Y-72761905D02*
X88845295Y-72714286D01*
X88845295Y-72714286D02*
X89083390Y-72714286D01*
X89083390Y-72714286D02*
X89178628Y-72761905D01*
X89178628Y-72761905D02*
X89226247Y-72809524D01*
X89226247Y-72809524D02*
X89273866Y-72904762D01*
X89273866Y-72904762D02*
X89273866Y-73095238D01*
X89273866Y-73095238D02*
X89226247Y-73190476D01*
X89226247Y-73190476D02*
X89178628Y-73238095D01*
X89178628Y-73238095D02*
X89083390Y-73285714D01*
X112654819Y-43157142D02*
X112178628Y-42823809D01*
X112654819Y-42585714D02*
X111654819Y-42585714D01*
X111654819Y-42585714D02*
X111654819Y-42966666D01*
X111654819Y-42966666D02*
X111702438Y-43061904D01*
X111702438Y-43061904D02*
X111750057Y-43109523D01*
X111750057Y-43109523D02*
X111845295Y-43157142D01*
X111845295Y-43157142D02*
X111988152Y-43157142D01*
X111988152Y-43157142D02*
X112083390Y-43109523D01*
X112083390Y-43109523D02*
X112131009Y-43061904D01*
X112131009Y-43061904D02*
X112178628Y-42966666D01*
X112178628Y-42966666D02*
X112178628Y-42585714D01*
X112654819Y-44109523D02*
X112654819Y-43538095D01*
X112654819Y-43823809D02*
X111654819Y-43823809D01*
X111654819Y-43823809D02*
X111797676Y-43728571D01*
X111797676Y-43728571D02*
X111892914Y-43633333D01*
X111892914Y-43633333D02*
X111940533Y-43538095D01*
X111654819Y-45014285D02*
X111654819Y-44538095D01*
X111654819Y-44538095D02*
X112131009Y-44490476D01*
X112131009Y-44490476D02*
X112083390Y-44538095D01*
X112083390Y-44538095D02*
X112035771Y-44633333D01*
X112035771Y-44633333D02*
X112035771Y-44871428D01*
X112035771Y-44871428D02*
X112083390Y-44966666D01*
X112083390Y-44966666D02*
X112131009Y-45014285D01*
X112131009Y-45014285D02*
X112226247Y-45061904D01*
X112226247Y-45061904D02*
X112464342Y-45061904D01*
X112464342Y-45061904D02*
X112559580Y-45014285D01*
X112559580Y-45014285D02*
X112607200Y-44966666D01*
X112607200Y-44966666D02*
X112654819Y-44871428D01*
X112654819Y-44871428D02*
X112654819Y-44633333D01*
X112654819Y-44633333D02*
X112607200Y-44538095D01*
X112607200Y-44538095D02*
X112559580Y-44490476D01*
X98659580Y-51233333D02*
X98707200Y-51185714D01*
X98707200Y-51185714D02*
X98754819Y-51042857D01*
X98754819Y-51042857D02*
X98754819Y-50947619D01*
X98754819Y-50947619D02*
X98707200Y-50804762D01*
X98707200Y-50804762D02*
X98611961Y-50709524D01*
X98611961Y-50709524D02*
X98516723Y-50661905D01*
X98516723Y-50661905D02*
X98326247Y-50614286D01*
X98326247Y-50614286D02*
X98183390Y-50614286D01*
X98183390Y-50614286D02*
X97992914Y-50661905D01*
X97992914Y-50661905D02*
X97897676Y-50709524D01*
X97897676Y-50709524D02*
X97802438Y-50804762D01*
X97802438Y-50804762D02*
X97754819Y-50947619D01*
X97754819Y-50947619D02*
X97754819Y-51042857D01*
X97754819Y-51042857D02*
X97802438Y-51185714D01*
X97802438Y-51185714D02*
X97850057Y-51233333D01*
X97754819Y-51566667D02*
X97754819Y-52185714D01*
X97754819Y-52185714D02*
X98135771Y-51852381D01*
X98135771Y-51852381D02*
X98135771Y-51995238D01*
X98135771Y-51995238D02*
X98183390Y-52090476D01*
X98183390Y-52090476D02*
X98231009Y-52138095D01*
X98231009Y-52138095D02*
X98326247Y-52185714D01*
X98326247Y-52185714D02*
X98564342Y-52185714D01*
X98564342Y-52185714D02*
X98659580Y-52138095D01*
X98659580Y-52138095D02*
X98707200Y-52090476D01*
X98707200Y-52090476D02*
X98754819Y-51995238D01*
X98754819Y-51995238D02*
X98754819Y-51709524D01*
X98754819Y-51709524D02*
X98707200Y-51614286D01*
X98707200Y-51614286D02*
X98659580Y-51566667D01*
X75542857Y-62054819D02*
X75876190Y-61578628D01*
X76114285Y-62054819D02*
X76114285Y-61054819D01*
X76114285Y-61054819D02*
X75733333Y-61054819D01*
X75733333Y-61054819D02*
X75638095Y-61102438D01*
X75638095Y-61102438D02*
X75590476Y-61150057D01*
X75590476Y-61150057D02*
X75542857Y-61245295D01*
X75542857Y-61245295D02*
X75542857Y-61388152D01*
X75542857Y-61388152D02*
X75590476Y-61483390D01*
X75590476Y-61483390D02*
X75638095Y-61531009D01*
X75638095Y-61531009D02*
X75733333Y-61578628D01*
X75733333Y-61578628D02*
X76114285Y-61578628D01*
X74590476Y-62054819D02*
X75161904Y-62054819D01*
X74876190Y-62054819D02*
X74876190Y-61054819D01*
X74876190Y-61054819D02*
X74971428Y-61197676D01*
X74971428Y-61197676D02*
X75066666Y-61292914D01*
X75066666Y-61292914D02*
X75161904Y-61340533D01*
X74019047Y-61483390D02*
X74114285Y-61435771D01*
X74114285Y-61435771D02*
X74161904Y-61388152D01*
X74161904Y-61388152D02*
X74209523Y-61292914D01*
X74209523Y-61292914D02*
X74209523Y-61245295D01*
X74209523Y-61245295D02*
X74161904Y-61150057D01*
X74161904Y-61150057D02*
X74114285Y-61102438D01*
X74114285Y-61102438D02*
X74019047Y-61054819D01*
X74019047Y-61054819D02*
X73828571Y-61054819D01*
X73828571Y-61054819D02*
X73733333Y-61102438D01*
X73733333Y-61102438D02*
X73685714Y-61150057D01*
X73685714Y-61150057D02*
X73638095Y-61245295D01*
X73638095Y-61245295D02*
X73638095Y-61292914D01*
X73638095Y-61292914D02*
X73685714Y-61388152D01*
X73685714Y-61388152D02*
X73733333Y-61435771D01*
X73733333Y-61435771D02*
X73828571Y-61483390D01*
X73828571Y-61483390D02*
X74019047Y-61483390D01*
X74019047Y-61483390D02*
X74114285Y-61531009D01*
X74114285Y-61531009D02*
X74161904Y-61578628D01*
X74161904Y-61578628D02*
X74209523Y-61673866D01*
X74209523Y-61673866D02*
X74209523Y-61864342D01*
X74209523Y-61864342D02*
X74161904Y-61959580D01*
X74161904Y-61959580D02*
X74114285Y-62007200D01*
X74114285Y-62007200D02*
X74019047Y-62054819D01*
X74019047Y-62054819D02*
X73828571Y-62054819D01*
X73828571Y-62054819D02*
X73733333Y-62007200D01*
X73733333Y-62007200D02*
X73685714Y-61959580D01*
X73685714Y-61959580D02*
X73638095Y-61864342D01*
X73638095Y-61864342D02*
X73638095Y-61673866D01*
X73638095Y-61673866D02*
X73685714Y-61578628D01*
X73685714Y-61578628D02*
X73733333Y-61531009D01*
X73733333Y-61531009D02*
X73828571Y-61483390D01*
X103049819Y-43106142D02*
X102573628Y-42772809D01*
X103049819Y-42534714D02*
X102049819Y-42534714D01*
X102049819Y-42534714D02*
X102049819Y-42915666D01*
X102049819Y-42915666D02*
X102097438Y-43010904D01*
X102097438Y-43010904D02*
X102145057Y-43058523D01*
X102145057Y-43058523D02*
X102240295Y-43106142D01*
X102240295Y-43106142D02*
X102383152Y-43106142D01*
X102383152Y-43106142D02*
X102478390Y-43058523D01*
X102478390Y-43058523D02*
X102526009Y-43010904D01*
X102526009Y-43010904D02*
X102573628Y-42915666D01*
X102573628Y-42915666D02*
X102573628Y-42534714D01*
X103049819Y-44058523D02*
X103049819Y-43487095D01*
X103049819Y-43772809D02*
X102049819Y-43772809D01*
X102049819Y-43772809D02*
X102192676Y-43677571D01*
X102192676Y-43677571D02*
X102287914Y-43582333D01*
X102287914Y-43582333D02*
X102335533Y-43487095D01*
X102383152Y-44915666D02*
X103049819Y-44915666D01*
X102002200Y-44677571D02*
X102716485Y-44439476D01*
X102716485Y-44439476D02*
X102716485Y-45058523D01*
X66392857Y-58654819D02*
X66726190Y-58178628D01*
X66964285Y-58654819D02*
X66964285Y-57654819D01*
X66964285Y-57654819D02*
X66583333Y-57654819D01*
X66583333Y-57654819D02*
X66488095Y-57702438D01*
X66488095Y-57702438D02*
X66440476Y-57750057D01*
X66440476Y-57750057D02*
X66392857Y-57845295D01*
X66392857Y-57845295D02*
X66392857Y-57988152D01*
X66392857Y-57988152D02*
X66440476Y-58083390D01*
X66440476Y-58083390D02*
X66488095Y-58131009D01*
X66488095Y-58131009D02*
X66583333Y-58178628D01*
X66583333Y-58178628D02*
X66964285Y-58178628D01*
X66011904Y-57750057D02*
X65964285Y-57702438D01*
X65964285Y-57702438D02*
X65869047Y-57654819D01*
X65869047Y-57654819D02*
X65630952Y-57654819D01*
X65630952Y-57654819D02*
X65535714Y-57702438D01*
X65535714Y-57702438D02*
X65488095Y-57750057D01*
X65488095Y-57750057D02*
X65440476Y-57845295D01*
X65440476Y-57845295D02*
X65440476Y-57940533D01*
X65440476Y-57940533D02*
X65488095Y-58083390D01*
X65488095Y-58083390D02*
X66059523Y-58654819D01*
X66059523Y-58654819D02*
X65440476Y-58654819D01*
X64535714Y-57654819D02*
X65011904Y-57654819D01*
X65011904Y-57654819D02*
X65059523Y-58131009D01*
X65059523Y-58131009D02*
X65011904Y-58083390D01*
X65011904Y-58083390D02*
X64916666Y-58035771D01*
X64916666Y-58035771D02*
X64678571Y-58035771D01*
X64678571Y-58035771D02*
X64583333Y-58083390D01*
X64583333Y-58083390D02*
X64535714Y-58131009D01*
X64535714Y-58131009D02*
X64488095Y-58226247D01*
X64488095Y-58226247D02*
X64488095Y-58464342D01*
X64488095Y-58464342D02*
X64535714Y-58559580D01*
X64535714Y-58559580D02*
X64583333Y-58607200D01*
X64583333Y-58607200D02*
X64678571Y-58654819D01*
X64678571Y-58654819D02*
X64916666Y-58654819D01*
X64916666Y-58654819D02*
X65011904Y-58607200D01*
X65011904Y-58607200D02*
X65059523Y-58559580D01*
X73854819Y-48333333D02*
X73378628Y-48000000D01*
X73854819Y-47761905D02*
X72854819Y-47761905D01*
X72854819Y-47761905D02*
X72854819Y-48142857D01*
X72854819Y-48142857D02*
X72902438Y-48238095D01*
X72902438Y-48238095D02*
X72950057Y-48285714D01*
X72950057Y-48285714D02*
X73045295Y-48333333D01*
X73045295Y-48333333D02*
X73188152Y-48333333D01*
X73188152Y-48333333D02*
X73283390Y-48285714D01*
X73283390Y-48285714D02*
X73331009Y-48238095D01*
X73331009Y-48238095D02*
X73378628Y-48142857D01*
X73378628Y-48142857D02*
X73378628Y-47761905D01*
X72950057Y-48714286D02*
X72902438Y-48761905D01*
X72902438Y-48761905D02*
X72854819Y-48857143D01*
X72854819Y-48857143D02*
X72854819Y-49095238D01*
X72854819Y-49095238D02*
X72902438Y-49190476D01*
X72902438Y-49190476D02*
X72950057Y-49238095D01*
X72950057Y-49238095D02*
X73045295Y-49285714D01*
X73045295Y-49285714D02*
X73140533Y-49285714D01*
X73140533Y-49285714D02*
X73283390Y-49238095D01*
X73283390Y-49238095D02*
X73854819Y-48666667D01*
X73854819Y-48666667D02*
X73854819Y-49285714D01*
X85216666Y-73654819D02*
X85549999Y-73178628D01*
X85788094Y-73654819D02*
X85788094Y-72654819D01*
X85788094Y-72654819D02*
X85407142Y-72654819D01*
X85407142Y-72654819D02*
X85311904Y-72702438D01*
X85311904Y-72702438D02*
X85264285Y-72750057D01*
X85264285Y-72750057D02*
X85216666Y-72845295D01*
X85216666Y-72845295D02*
X85216666Y-72988152D01*
X85216666Y-72988152D02*
X85264285Y-73083390D01*
X85264285Y-73083390D02*
X85311904Y-73131009D01*
X85311904Y-73131009D02*
X85407142Y-73178628D01*
X85407142Y-73178628D02*
X85788094Y-73178628D01*
X84740475Y-73654819D02*
X84549999Y-73654819D01*
X84549999Y-73654819D02*
X84454761Y-73607200D01*
X84454761Y-73607200D02*
X84407142Y-73559580D01*
X84407142Y-73559580D02*
X84311904Y-73416723D01*
X84311904Y-73416723D02*
X84264285Y-73226247D01*
X84264285Y-73226247D02*
X84264285Y-72845295D01*
X84264285Y-72845295D02*
X84311904Y-72750057D01*
X84311904Y-72750057D02*
X84359523Y-72702438D01*
X84359523Y-72702438D02*
X84454761Y-72654819D01*
X84454761Y-72654819D02*
X84645237Y-72654819D01*
X84645237Y-72654819D02*
X84740475Y-72702438D01*
X84740475Y-72702438D02*
X84788094Y-72750057D01*
X84788094Y-72750057D02*
X84835713Y-72845295D01*
X84835713Y-72845295D02*
X84835713Y-73083390D01*
X84835713Y-73083390D02*
X84788094Y-73178628D01*
X84788094Y-73178628D02*
X84740475Y-73226247D01*
X84740475Y-73226247D02*
X84645237Y-73273866D01*
X84645237Y-73273866D02*
X84454761Y-73273866D01*
X84454761Y-73273866D02*
X84359523Y-73226247D01*
X84359523Y-73226247D02*
X84311904Y-73178628D01*
X84311904Y-73178628D02*
X84264285Y-73083390D01*
X59992857Y-61659580D02*
X60040476Y-61707200D01*
X60040476Y-61707200D02*
X60183333Y-61754819D01*
X60183333Y-61754819D02*
X60278571Y-61754819D01*
X60278571Y-61754819D02*
X60421428Y-61707200D01*
X60421428Y-61707200D02*
X60516666Y-61611961D01*
X60516666Y-61611961D02*
X60564285Y-61516723D01*
X60564285Y-61516723D02*
X60611904Y-61326247D01*
X60611904Y-61326247D02*
X60611904Y-61183390D01*
X60611904Y-61183390D02*
X60564285Y-60992914D01*
X60564285Y-60992914D02*
X60516666Y-60897676D01*
X60516666Y-60897676D02*
X60421428Y-60802438D01*
X60421428Y-60802438D02*
X60278571Y-60754819D01*
X60278571Y-60754819D02*
X60183333Y-60754819D01*
X60183333Y-60754819D02*
X60040476Y-60802438D01*
X60040476Y-60802438D02*
X59992857Y-60850057D01*
X59611904Y-60850057D02*
X59564285Y-60802438D01*
X59564285Y-60802438D02*
X59469047Y-60754819D01*
X59469047Y-60754819D02*
X59230952Y-60754819D01*
X59230952Y-60754819D02*
X59135714Y-60802438D01*
X59135714Y-60802438D02*
X59088095Y-60850057D01*
X59088095Y-60850057D02*
X59040476Y-60945295D01*
X59040476Y-60945295D02*
X59040476Y-61040533D01*
X59040476Y-61040533D02*
X59088095Y-61183390D01*
X59088095Y-61183390D02*
X59659523Y-61754819D01*
X59659523Y-61754819D02*
X59040476Y-61754819D01*
X58183333Y-60754819D02*
X58373809Y-60754819D01*
X58373809Y-60754819D02*
X58469047Y-60802438D01*
X58469047Y-60802438D02*
X58516666Y-60850057D01*
X58516666Y-60850057D02*
X58611904Y-60992914D01*
X58611904Y-60992914D02*
X58659523Y-61183390D01*
X58659523Y-61183390D02*
X58659523Y-61564342D01*
X58659523Y-61564342D02*
X58611904Y-61659580D01*
X58611904Y-61659580D02*
X58564285Y-61707200D01*
X58564285Y-61707200D02*
X58469047Y-61754819D01*
X58469047Y-61754819D02*
X58278571Y-61754819D01*
X58278571Y-61754819D02*
X58183333Y-61707200D01*
X58183333Y-61707200D02*
X58135714Y-61659580D01*
X58135714Y-61659580D02*
X58088095Y-61564342D01*
X58088095Y-61564342D02*
X58088095Y-61326247D01*
X58088095Y-61326247D02*
X58135714Y-61231009D01*
X58135714Y-61231009D02*
X58183333Y-61183390D01*
X58183333Y-61183390D02*
X58278571Y-61135771D01*
X58278571Y-61135771D02*
X58469047Y-61135771D01*
X58469047Y-61135771D02*
X58564285Y-61183390D01*
X58564285Y-61183390D02*
X58611904Y-61231009D01*
X58611904Y-61231009D02*
X58659523Y-61326247D01*
X115792857Y-56054819D02*
X116126190Y-55578628D01*
X116364285Y-56054819D02*
X116364285Y-55054819D01*
X116364285Y-55054819D02*
X115983333Y-55054819D01*
X115983333Y-55054819D02*
X115888095Y-55102438D01*
X115888095Y-55102438D02*
X115840476Y-55150057D01*
X115840476Y-55150057D02*
X115792857Y-55245295D01*
X115792857Y-55245295D02*
X115792857Y-55388152D01*
X115792857Y-55388152D02*
X115840476Y-55483390D01*
X115840476Y-55483390D02*
X115888095Y-55531009D01*
X115888095Y-55531009D02*
X115983333Y-55578628D01*
X115983333Y-55578628D02*
X116364285Y-55578628D01*
X115411904Y-55150057D02*
X115364285Y-55102438D01*
X115364285Y-55102438D02*
X115269047Y-55054819D01*
X115269047Y-55054819D02*
X115030952Y-55054819D01*
X115030952Y-55054819D02*
X114935714Y-55102438D01*
X114935714Y-55102438D02*
X114888095Y-55150057D01*
X114888095Y-55150057D02*
X114840476Y-55245295D01*
X114840476Y-55245295D02*
X114840476Y-55340533D01*
X114840476Y-55340533D02*
X114888095Y-55483390D01*
X114888095Y-55483390D02*
X115459523Y-56054819D01*
X115459523Y-56054819D02*
X114840476Y-56054819D01*
X114269047Y-55483390D02*
X114364285Y-55435771D01*
X114364285Y-55435771D02*
X114411904Y-55388152D01*
X114411904Y-55388152D02*
X114459523Y-55292914D01*
X114459523Y-55292914D02*
X114459523Y-55245295D01*
X114459523Y-55245295D02*
X114411904Y-55150057D01*
X114411904Y-55150057D02*
X114364285Y-55102438D01*
X114364285Y-55102438D02*
X114269047Y-55054819D01*
X114269047Y-55054819D02*
X114078571Y-55054819D01*
X114078571Y-55054819D02*
X113983333Y-55102438D01*
X113983333Y-55102438D02*
X113935714Y-55150057D01*
X113935714Y-55150057D02*
X113888095Y-55245295D01*
X113888095Y-55245295D02*
X113888095Y-55292914D01*
X113888095Y-55292914D02*
X113935714Y-55388152D01*
X113935714Y-55388152D02*
X113983333Y-55435771D01*
X113983333Y-55435771D02*
X114078571Y-55483390D01*
X114078571Y-55483390D02*
X114269047Y-55483390D01*
X114269047Y-55483390D02*
X114364285Y-55531009D01*
X114364285Y-55531009D02*
X114411904Y-55578628D01*
X114411904Y-55578628D02*
X114459523Y-55673866D01*
X114459523Y-55673866D02*
X114459523Y-55864342D01*
X114459523Y-55864342D02*
X114411904Y-55959580D01*
X114411904Y-55959580D02*
X114364285Y-56007200D01*
X114364285Y-56007200D02*
X114269047Y-56054819D01*
X114269047Y-56054819D02*
X114078571Y-56054819D01*
X114078571Y-56054819D02*
X113983333Y-56007200D01*
X113983333Y-56007200D02*
X113935714Y-55959580D01*
X113935714Y-55959580D02*
X113888095Y-55864342D01*
X113888095Y-55864342D02*
X113888095Y-55673866D01*
X113888095Y-55673866D02*
X113935714Y-55578628D01*
X113935714Y-55578628D02*
X113983333Y-55531009D01*
X113983333Y-55531009D02*
X114078571Y-55483390D01*
X104337857Y-59928580D02*
X104385476Y-59976200D01*
X104385476Y-59976200D02*
X104528333Y-60023819D01*
X104528333Y-60023819D02*
X104623571Y-60023819D01*
X104623571Y-60023819D02*
X104766428Y-59976200D01*
X104766428Y-59976200D02*
X104861666Y-59880961D01*
X104861666Y-59880961D02*
X104909285Y-59785723D01*
X104909285Y-59785723D02*
X104956904Y-59595247D01*
X104956904Y-59595247D02*
X104956904Y-59452390D01*
X104956904Y-59452390D02*
X104909285Y-59261914D01*
X104909285Y-59261914D02*
X104861666Y-59166676D01*
X104861666Y-59166676D02*
X104766428Y-59071438D01*
X104766428Y-59071438D02*
X104623571Y-59023819D01*
X104623571Y-59023819D02*
X104528333Y-59023819D01*
X104528333Y-59023819D02*
X104385476Y-59071438D01*
X104385476Y-59071438D02*
X104337857Y-59119057D01*
X103385476Y-60023819D02*
X103956904Y-60023819D01*
X103671190Y-60023819D02*
X103671190Y-59023819D01*
X103671190Y-59023819D02*
X103766428Y-59166676D01*
X103766428Y-59166676D02*
X103861666Y-59261914D01*
X103861666Y-59261914D02*
X103956904Y-59309533D01*
X102528333Y-59023819D02*
X102718809Y-59023819D01*
X102718809Y-59023819D02*
X102814047Y-59071438D01*
X102814047Y-59071438D02*
X102861666Y-59119057D01*
X102861666Y-59119057D02*
X102956904Y-59261914D01*
X102956904Y-59261914D02*
X103004523Y-59452390D01*
X103004523Y-59452390D02*
X103004523Y-59833342D01*
X103004523Y-59833342D02*
X102956904Y-59928580D01*
X102956904Y-59928580D02*
X102909285Y-59976200D01*
X102909285Y-59976200D02*
X102814047Y-60023819D01*
X102814047Y-60023819D02*
X102623571Y-60023819D01*
X102623571Y-60023819D02*
X102528333Y-59976200D01*
X102528333Y-59976200D02*
X102480714Y-59928580D01*
X102480714Y-59928580D02*
X102433095Y-59833342D01*
X102433095Y-59833342D02*
X102433095Y-59595247D01*
X102433095Y-59595247D02*
X102480714Y-59500009D01*
X102480714Y-59500009D02*
X102528333Y-59452390D01*
X102528333Y-59452390D02*
X102623571Y-59404771D01*
X102623571Y-59404771D02*
X102814047Y-59404771D01*
X102814047Y-59404771D02*
X102909285Y-59452390D01*
X102909285Y-59452390D02*
X102956904Y-59500009D01*
X102956904Y-59500009D02*
X103004523Y-59595247D01*
X51237857Y-53153819D02*
X51571190Y-52677628D01*
X51809285Y-53153819D02*
X51809285Y-52153819D01*
X51809285Y-52153819D02*
X51428333Y-52153819D01*
X51428333Y-52153819D02*
X51333095Y-52201438D01*
X51333095Y-52201438D02*
X51285476Y-52249057D01*
X51285476Y-52249057D02*
X51237857Y-52344295D01*
X51237857Y-52344295D02*
X51237857Y-52487152D01*
X51237857Y-52487152D02*
X51285476Y-52582390D01*
X51285476Y-52582390D02*
X51333095Y-52630009D01*
X51333095Y-52630009D02*
X51428333Y-52677628D01*
X51428333Y-52677628D02*
X51809285Y-52677628D01*
X50856904Y-52249057D02*
X50809285Y-52201438D01*
X50809285Y-52201438D02*
X50714047Y-52153819D01*
X50714047Y-52153819D02*
X50475952Y-52153819D01*
X50475952Y-52153819D02*
X50380714Y-52201438D01*
X50380714Y-52201438D02*
X50333095Y-52249057D01*
X50333095Y-52249057D02*
X50285476Y-52344295D01*
X50285476Y-52344295D02*
X50285476Y-52439533D01*
X50285476Y-52439533D02*
X50333095Y-52582390D01*
X50333095Y-52582390D02*
X50904523Y-53153819D01*
X50904523Y-53153819D02*
X50285476Y-53153819D01*
X49904523Y-52249057D02*
X49856904Y-52201438D01*
X49856904Y-52201438D02*
X49761666Y-52153819D01*
X49761666Y-52153819D02*
X49523571Y-52153819D01*
X49523571Y-52153819D02*
X49428333Y-52201438D01*
X49428333Y-52201438D02*
X49380714Y-52249057D01*
X49380714Y-52249057D02*
X49333095Y-52344295D01*
X49333095Y-52344295D02*
X49333095Y-52439533D01*
X49333095Y-52439533D02*
X49380714Y-52582390D01*
X49380714Y-52582390D02*
X49952142Y-53153819D01*
X49952142Y-53153819D02*
X49333095Y-53153819D01*
X46984580Y-77876142D02*
X47032200Y-77828523D01*
X47032200Y-77828523D02*
X47079819Y-77685666D01*
X47079819Y-77685666D02*
X47079819Y-77590428D01*
X47079819Y-77590428D02*
X47032200Y-77447571D01*
X47032200Y-77447571D02*
X46936961Y-77352333D01*
X46936961Y-77352333D02*
X46841723Y-77304714D01*
X46841723Y-77304714D02*
X46651247Y-77257095D01*
X46651247Y-77257095D02*
X46508390Y-77257095D01*
X46508390Y-77257095D02*
X46317914Y-77304714D01*
X46317914Y-77304714D02*
X46222676Y-77352333D01*
X46222676Y-77352333D02*
X46127438Y-77447571D01*
X46127438Y-77447571D02*
X46079819Y-77590428D01*
X46079819Y-77590428D02*
X46079819Y-77685666D01*
X46079819Y-77685666D02*
X46127438Y-77828523D01*
X46127438Y-77828523D02*
X46175057Y-77876142D01*
X46175057Y-78257095D02*
X46127438Y-78304714D01*
X46127438Y-78304714D02*
X46079819Y-78399952D01*
X46079819Y-78399952D02*
X46079819Y-78638047D01*
X46079819Y-78638047D02*
X46127438Y-78733285D01*
X46127438Y-78733285D02*
X46175057Y-78780904D01*
X46175057Y-78780904D02*
X46270295Y-78828523D01*
X46270295Y-78828523D02*
X46365533Y-78828523D01*
X46365533Y-78828523D02*
X46508390Y-78780904D01*
X46508390Y-78780904D02*
X47079819Y-78209476D01*
X47079819Y-78209476D02*
X47079819Y-78828523D01*
X46175057Y-79209476D02*
X46127438Y-79257095D01*
X46127438Y-79257095D02*
X46079819Y-79352333D01*
X46079819Y-79352333D02*
X46079819Y-79590428D01*
X46079819Y-79590428D02*
X46127438Y-79685666D01*
X46127438Y-79685666D02*
X46175057Y-79733285D01*
X46175057Y-79733285D02*
X46270295Y-79780904D01*
X46270295Y-79780904D02*
X46365533Y-79780904D01*
X46365533Y-79780904D02*
X46508390Y-79733285D01*
X46508390Y-79733285D02*
X47079819Y-79161857D01*
X47079819Y-79161857D02*
X47079819Y-79780904D01*
X103461666Y-61328580D02*
X103509285Y-61376200D01*
X103509285Y-61376200D02*
X103652142Y-61423819D01*
X103652142Y-61423819D02*
X103747380Y-61423819D01*
X103747380Y-61423819D02*
X103890237Y-61376200D01*
X103890237Y-61376200D02*
X103985475Y-61280961D01*
X103985475Y-61280961D02*
X104033094Y-61185723D01*
X104033094Y-61185723D02*
X104080713Y-60995247D01*
X104080713Y-60995247D02*
X104080713Y-60852390D01*
X104080713Y-60852390D02*
X104033094Y-60661914D01*
X104033094Y-60661914D02*
X103985475Y-60566676D01*
X103985475Y-60566676D02*
X103890237Y-60471438D01*
X103890237Y-60471438D02*
X103747380Y-60423819D01*
X103747380Y-60423819D02*
X103652142Y-60423819D01*
X103652142Y-60423819D02*
X103509285Y-60471438D01*
X103509285Y-60471438D02*
X103461666Y-60519057D01*
X102604523Y-60423819D02*
X102794999Y-60423819D01*
X102794999Y-60423819D02*
X102890237Y-60471438D01*
X102890237Y-60471438D02*
X102937856Y-60519057D01*
X102937856Y-60519057D02*
X103033094Y-60661914D01*
X103033094Y-60661914D02*
X103080713Y-60852390D01*
X103080713Y-60852390D02*
X103080713Y-61233342D01*
X103080713Y-61233342D02*
X103033094Y-61328580D01*
X103033094Y-61328580D02*
X102985475Y-61376200D01*
X102985475Y-61376200D02*
X102890237Y-61423819D01*
X102890237Y-61423819D02*
X102699761Y-61423819D01*
X102699761Y-61423819D02*
X102604523Y-61376200D01*
X102604523Y-61376200D02*
X102556904Y-61328580D01*
X102556904Y-61328580D02*
X102509285Y-61233342D01*
X102509285Y-61233342D02*
X102509285Y-60995247D01*
X102509285Y-60995247D02*
X102556904Y-60900009D01*
X102556904Y-60900009D02*
X102604523Y-60852390D01*
X102604523Y-60852390D02*
X102699761Y-60804771D01*
X102699761Y-60804771D02*
X102890237Y-60804771D01*
X102890237Y-60804771D02*
X102985475Y-60852390D01*
X102985475Y-60852390D02*
X103033094Y-60900009D01*
X103033094Y-60900009D02*
X103080713Y-60995247D01*
X69442857Y-52859580D02*
X69490476Y-52907200D01*
X69490476Y-52907200D02*
X69633333Y-52954819D01*
X69633333Y-52954819D02*
X69728571Y-52954819D01*
X69728571Y-52954819D02*
X69871428Y-52907200D01*
X69871428Y-52907200D02*
X69966666Y-52811961D01*
X69966666Y-52811961D02*
X70014285Y-52716723D01*
X70014285Y-52716723D02*
X70061904Y-52526247D01*
X70061904Y-52526247D02*
X70061904Y-52383390D01*
X70061904Y-52383390D02*
X70014285Y-52192914D01*
X70014285Y-52192914D02*
X69966666Y-52097676D01*
X69966666Y-52097676D02*
X69871428Y-52002438D01*
X69871428Y-52002438D02*
X69728571Y-51954819D01*
X69728571Y-51954819D02*
X69633333Y-51954819D01*
X69633333Y-51954819D02*
X69490476Y-52002438D01*
X69490476Y-52002438D02*
X69442857Y-52050057D01*
X69061904Y-52050057D02*
X69014285Y-52002438D01*
X69014285Y-52002438D02*
X68919047Y-51954819D01*
X68919047Y-51954819D02*
X68680952Y-51954819D01*
X68680952Y-51954819D02*
X68585714Y-52002438D01*
X68585714Y-52002438D02*
X68538095Y-52050057D01*
X68538095Y-52050057D02*
X68490476Y-52145295D01*
X68490476Y-52145295D02*
X68490476Y-52240533D01*
X68490476Y-52240533D02*
X68538095Y-52383390D01*
X68538095Y-52383390D02*
X69109523Y-52954819D01*
X69109523Y-52954819D02*
X68490476Y-52954819D01*
X67633333Y-52288152D02*
X67633333Y-52954819D01*
X67871428Y-51907200D02*
X68109523Y-52621485D01*
X68109523Y-52621485D02*
X67490476Y-52621485D01*
X118742857Y-60709580D02*
X118790476Y-60757200D01*
X118790476Y-60757200D02*
X118933333Y-60804819D01*
X118933333Y-60804819D02*
X119028571Y-60804819D01*
X119028571Y-60804819D02*
X119171428Y-60757200D01*
X119171428Y-60757200D02*
X119266666Y-60661961D01*
X119266666Y-60661961D02*
X119314285Y-60566723D01*
X119314285Y-60566723D02*
X119361904Y-60376247D01*
X119361904Y-60376247D02*
X119361904Y-60233390D01*
X119361904Y-60233390D02*
X119314285Y-60042914D01*
X119314285Y-60042914D02*
X119266666Y-59947676D01*
X119266666Y-59947676D02*
X119171428Y-59852438D01*
X119171428Y-59852438D02*
X119028571Y-59804819D01*
X119028571Y-59804819D02*
X118933333Y-59804819D01*
X118933333Y-59804819D02*
X118790476Y-59852438D01*
X118790476Y-59852438D02*
X118742857Y-59900057D01*
X118361904Y-59900057D02*
X118314285Y-59852438D01*
X118314285Y-59852438D02*
X118219047Y-59804819D01*
X118219047Y-59804819D02*
X117980952Y-59804819D01*
X117980952Y-59804819D02*
X117885714Y-59852438D01*
X117885714Y-59852438D02*
X117838095Y-59900057D01*
X117838095Y-59900057D02*
X117790476Y-59995295D01*
X117790476Y-59995295D02*
X117790476Y-60090533D01*
X117790476Y-60090533D02*
X117838095Y-60233390D01*
X117838095Y-60233390D02*
X118409523Y-60804819D01*
X118409523Y-60804819D02*
X117790476Y-60804819D01*
X117314285Y-60804819D02*
X117123809Y-60804819D01*
X117123809Y-60804819D02*
X117028571Y-60757200D01*
X117028571Y-60757200D02*
X116980952Y-60709580D01*
X116980952Y-60709580D02*
X116885714Y-60566723D01*
X116885714Y-60566723D02*
X116838095Y-60376247D01*
X116838095Y-60376247D02*
X116838095Y-59995295D01*
X116838095Y-59995295D02*
X116885714Y-59900057D01*
X116885714Y-59900057D02*
X116933333Y-59852438D01*
X116933333Y-59852438D02*
X117028571Y-59804819D01*
X117028571Y-59804819D02*
X117219047Y-59804819D01*
X117219047Y-59804819D02*
X117314285Y-59852438D01*
X117314285Y-59852438D02*
X117361904Y-59900057D01*
X117361904Y-59900057D02*
X117409523Y-59995295D01*
X117409523Y-59995295D02*
X117409523Y-60233390D01*
X117409523Y-60233390D02*
X117361904Y-60328628D01*
X117361904Y-60328628D02*
X117314285Y-60376247D01*
X117314285Y-60376247D02*
X117219047Y-60423866D01*
X117219047Y-60423866D02*
X117028571Y-60423866D01*
X117028571Y-60423866D02*
X116933333Y-60376247D01*
X116933333Y-60376247D02*
X116885714Y-60328628D01*
X116885714Y-60328628D02*
X116838095Y-60233390D01*
X82666666Y-58859580D02*
X82714285Y-58907200D01*
X82714285Y-58907200D02*
X82857142Y-58954819D01*
X82857142Y-58954819D02*
X82952380Y-58954819D01*
X82952380Y-58954819D02*
X83095237Y-58907200D01*
X83095237Y-58907200D02*
X83190475Y-58811961D01*
X83190475Y-58811961D02*
X83238094Y-58716723D01*
X83238094Y-58716723D02*
X83285713Y-58526247D01*
X83285713Y-58526247D02*
X83285713Y-58383390D01*
X83285713Y-58383390D02*
X83238094Y-58192914D01*
X83238094Y-58192914D02*
X83190475Y-58097676D01*
X83190475Y-58097676D02*
X83095237Y-58002438D01*
X83095237Y-58002438D02*
X82952380Y-57954819D01*
X82952380Y-57954819D02*
X82857142Y-57954819D01*
X82857142Y-57954819D02*
X82714285Y-58002438D01*
X82714285Y-58002438D02*
X82666666Y-58050057D01*
X81761904Y-57954819D02*
X82238094Y-57954819D01*
X82238094Y-57954819D02*
X82285713Y-58431009D01*
X82285713Y-58431009D02*
X82238094Y-58383390D01*
X82238094Y-58383390D02*
X82142856Y-58335771D01*
X82142856Y-58335771D02*
X81904761Y-58335771D01*
X81904761Y-58335771D02*
X81809523Y-58383390D01*
X81809523Y-58383390D02*
X81761904Y-58431009D01*
X81761904Y-58431009D02*
X81714285Y-58526247D01*
X81714285Y-58526247D02*
X81714285Y-58764342D01*
X81714285Y-58764342D02*
X81761904Y-58859580D01*
X81761904Y-58859580D02*
X81809523Y-58907200D01*
X81809523Y-58907200D02*
X81904761Y-58954819D01*
X81904761Y-58954819D02*
X82142856Y-58954819D01*
X82142856Y-58954819D02*
X82238094Y-58907200D01*
X82238094Y-58907200D02*
X82285713Y-58859580D01*
X56992857Y-58654819D02*
X57326190Y-58178628D01*
X57564285Y-58654819D02*
X57564285Y-57654819D01*
X57564285Y-57654819D02*
X57183333Y-57654819D01*
X57183333Y-57654819D02*
X57088095Y-57702438D01*
X57088095Y-57702438D02*
X57040476Y-57750057D01*
X57040476Y-57750057D02*
X56992857Y-57845295D01*
X56992857Y-57845295D02*
X56992857Y-57988152D01*
X56992857Y-57988152D02*
X57040476Y-58083390D01*
X57040476Y-58083390D02*
X57088095Y-58131009D01*
X57088095Y-58131009D02*
X57183333Y-58178628D01*
X57183333Y-58178628D02*
X57564285Y-58178628D01*
X56611904Y-57750057D02*
X56564285Y-57702438D01*
X56564285Y-57702438D02*
X56469047Y-57654819D01*
X56469047Y-57654819D02*
X56230952Y-57654819D01*
X56230952Y-57654819D02*
X56135714Y-57702438D01*
X56135714Y-57702438D02*
X56088095Y-57750057D01*
X56088095Y-57750057D02*
X56040476Y-57845295D01*
X56040476Y-57845295D02*
X56040476Y-57940533D01*
X56040476Y-57940533D02*
X56088095Y-58083390D01*
X56088095Y-58083390D02*
X56659523Y-58654819D01*
X56659523Y-58654819D02*
X56040476Y-58654819D01*
X55183333Y-57654819D02*
X55373809Y-57654819D01*
X55373809Y-57654819D02*
X55469047Y-57702438D01*
X55469047Y-57702438D02*
X55516666Y-57750057D01*
X55516666Y-57750057D02*
X55611904Y-57892914D01*
X55611904Y-57892914D02*
X55659523Y-58083390D01*
X55659523Y-58083390D02*
X55659523Y-58464342D01*
X55659523Y-58464342D02*
X55611904Y-58559580D01*
X55611904Y-58559580D02*
X55564285Y-58607200D01*
X55564285Y-58607200D02*
X55469047Y-58654819D01*
X55469047Y-58654819D02*
X55278571Y-58654819D01*
X55278571Y-58654819D02*
X55183333Y-58607200D01*
X55183333Y-58607200D02*
X55135714Y-58559580D01*
X55135714Y-58559580D02*
X55088095Y-58464342D01*
X55088095Y-58464342D02*
X55088095Y-58226247D01*
X55088095Y-58226247D02*
X55135714Y-58131009D01*
X55135714Y-58131009D02*
X55183333Y-58083390D01*
X55183333Y-58083390D02*
X55278571Y-58035771D01*
X55278571Y-58035771D02*
X55469047Y-58035771D01*
X55469047Y-58035771D02*
X55564285Y-58083390D01*
X55564285Y-58083390D02*
X55611904Y-58131009D01*
X55611904Y-58131009D02*
X55659523Y-58226247D01*
X51367857Y-71373819D02*
X51701190Y-70897628D01*
X51939285Y-71373819D02*
X51939285Y-70373819D01*
X51939285Y-70373819D02*
X51558333Y-70373819D01*
X51558333Y-70373819D02*
X51463095Y-70421438D01*
X51463095Y-70421438D02*
X51415476Y-70469057D01*
X51415476Y-70469057D02*
X51367857Y-70564295D01*
X51367857Y-70564295D02*
X51367857Y-70707152D01*
X51367857Y-70707152D02*
X51415476Y-70802390D01*
X51415476Y-70802390D02*
X51463095Y-70850009D01*
X51463095Y-70850009D02*
X51558333Y-70897628D01*
X51558333Y-70897628D02*
X51939285Y-70897628D01*
X51034523Y-70373819D02*
X50415476Y-70373819D01*
X50415476Y-70373819D02*
X50748809Y-70754771D01*
X50748809Y-70754771D02*
X50605952Y-70754771D01*
X50605952Y-70754771D02*
X50510714Y-70802390D01*
X50510714Y-70802390D02*
X50463095Y-70850009D01*
X50463095Y-70850009D02*
X50415476Y-70945247D01*
X50415476Y-70945247D02*
X50415476Y-71183342D01*
X50415476Y-71183342D02*
X50463095Y-71278580D01*
X50463095Y-71278580D02*
X50510714Y-71326200D01*
X50510714Y-71326200D02*
X50605952Y-71373819D01*
X50605952Y-71373819D02*
X50891666Y-71373819D01*
X50891666Y-71373819D02*
X50986904Y-71326200D01*
X50986904Y-71326200D02*
X51034523Y-71278580D01*
X50034523Y-70469057D02*
X49986904Y-70421438D01*
X49986904Y-70421438D02*
X49891666Y-70373819D01*
X49891666Y-70373819D02*
X49653571Y-70373819D01*
X49653571Y-70373819D02*
X49558333Y-70421438D01*
X49558333Y-70421438D02*
X49510714Y-70469057D01*
X49510714Y-70469057D02*
X49463095Y-70564295D01*
X49463095Y-70564295D02*
X49463095Y-70659533D01*
X49463095Y-70659533D02*
X49510714Y-70802390D01*
X49510714Y-70802390D02*
X50082142Y-71373819D01*
X50082142Y-71373819D02*
X49463095Y-71373819D01*
X97159580Y-51233333D02*
X97207200Y-51185714D01*
X97207200Y-51185714D02*
X97254819Y-51042857D01*
X97254819Y-51042857D02*
X97254819Y-50947619D01*
X97254819Y-50947619D02*
X97207200Y-50804762D01*
X97207200Y-50804762D02*
X97111961Y-50709524D01*
X97111961Y-50709524D02*
X97016723Y-50661905D01*
X97016723Y-50661905D02*
X96826247Y-50614286D01*
X96826247Y-50614286D02*
X96683390Y-50614286D01*
X96683390Y-50614286D02*
X96492914Y-50661905D01*
X96492914Y-50661905D02*
X96397676Y-50709524D01*
X96397676Y-50709524D02*
X96302438Y-50804762D01*
X96302438Y-50804762D02*
X96254819Y-50947619D01*
X96254819Y-50947619D02*
X96254819Y-51042857D01*
X96254819Y-51042857D02*
X96302438Y-51185714D01*
X96302438Y-51185714D02*
X96350057Y-51233333D01*
X96350057Y-51614286D02*
X96302438Y-51661905D01*
X96302438Y-51661905D02*
X96254819Y-51757143D01*
X96254819Y-51757143D02*
X96254819Y-51995238D01*
X96254819Y-51995238D02*
X96302438Y-52090476D01*
X96302438Y-52090476D02*
X96350057Y-52138095D01*
X96350057Y-52138095D02*
X96445295Y-52185714D01*
X96445295Y-52185714D02*
X96540533Y-52185714D01*
X96540533Y-52185714D02*
X96683390Y-52138095D01*
X96683390Y-52138095D02*
X97254819Y-51566667D01*
X97254819Y-51566667D02*
X97254819Y-52185714D01*
X88059580Y-72257142D02*
X88107200Y-72209523D01*
X88107200Y-72209523D02*
X88154819Y-72066666D01*
X88154819Y-72066666D02*
X88154819Y-71971428D01*
X88154819Y-71971428D02*
X88107200Y-71828571D01*
X88107200Y-71828571D02*
X88011961Y-71733333D01*
X88011961Y-71733333D02*
X87916723Y-71685714D01*
X87916723Y-71685714D02*
X87726247Y-71638095D01*
X87726247Y-71638095D02*
X87583390Y-71638095D01*
X87583390Y-71638095D02*
X87392914Y-71685714D01*
X87392914Y-71685714D02*
X87297676Y-71733333D01*
X87297676Y-71733333D02*
X87202438Y-71828571D01*
X87202438Y-71828571D02*
X87154819Y-71971428D01*
X87154819Y-71971428D02*
X87154819Y-72066666D01*
X87154819Y-72066666D02*
X87202438Y-72209523D01*
X87202438Y-72209523D02*
X87250057Y-72257142D01*
X88154819Y-73209523D02*
X88154819Y-72638095D01*
X88154819Y-72923809D02*
X87154819Y-72923809D01*
X87154819Y-72923809D02*
X87297676Y-72828571D01*
X87297676Y-72828571D02*
X87392914Y-72733333D01*
X87392914Y-72733333D02*
X87440533Y-72638095D01*
X87154819Y-74114285D02*
X87154819Y-73638095D01*
X87154819Y-73638095D02*
X87631009Y-73590476D01*
X87631009Y-73590476D02*
X87583390Y-73638095D01*
X87583390Y-73638095D02*
X87535771Y-73733333D01*
X87535771Y-73733333D02*
X87535771Y-73971428D01*
X87535771Y-73971428D02*
X87583390Y-74066666D01*
X87583390Y-74066666D02*
X87631009Y-74114285D01*
X87631009Y-74114285D02*
X87726247Y-74161904D01*
X87726247Y-74161904D02*
X87964342Y-74161904D01*
X87964342Y-74161904D02*
X88059580Y-74114285D01*
X88059580Y-74114285D02*
X88107200Y-74066666D01*
X88107200Y-74066666D02*
X88154819Y-73971428D01*
X88154819Y-73971428D02*
X88154819Y-73733333D01*
X88154819Y-73733333D02*
X88107200Y-73638095D01*
X88107200Y-73638095D02*
X88059580Y-73590476D01*
X78054819Y-48333333D02*
X77578628Y-48000000D01*
X78054819Y-47761905D02*
X77054819Y-47761905D01*
X77054819Y-47761905D02*
X77054819Y-48142857D01*
X77054819Y-48142857D02*
X77102438Y-48238095D01*
X77102438Y-48238095D02*
X77150057Y-48285714D01*
X77150057Y-48285714D02*
X77245295Y-48333333D01*
X77245295Y-48333333D02*
X77388152Y-48333333D01*
X77388152Y-48333333D02*
X77483390Y-48285714D01*
X77483390Y-48285714D02*
X77531009Y-48238095D01*
X77531009Y-48238095D02*
X77578628Y-48142857D01*
X77578628Y-48142857D02*
X77578628Y-47761905D01*
X77054819Y-48666667D02*
X77054819Y-49333333D01*
X77054819Y-49333333D02*
X78054819Y-48904762D01*
X63492857Y-61659580D02*
X63540476Y-61707200D01*
X63540476Y-61707200D02*
X63683333Y-61754819D01*
X63683333Y-61754819D02*
X63778571Y-61754819D01*
X63778571Y-61754819D02*
X63921428Y-61707200D01*
X63921428Y-61707200D02*
X64016666Y-61611961D01*
X64016666Y-61611961D02*
X64064285Y-61516723D01*
X64064285Y-61516723D02*
X64111904Y-61326247D01*
X64111904Y-61326247D02*
X64111904Y-61183390D01*
X64111904Y-61183390D02*
X64064285Y-60992914D01*
X64064285Y-60992914D02*
X64016666Y-60897676D01*
X64016666Y-60897676D02*
X63921428Y-60802438D01*
X63921428Y-60802438D02*
X63778571Y-60754819D01*
X63778571Y-60754819D02*
X63683333Y-60754819D01*
X63683333Y-60754819D02*
X63540476Y-60802438D01*
X63540476Y-60802438D02*
X63492857Y-60850057D01*
X63111904Y-60850057D02*
X63064285Y-60802438D01*
X63064285Y-60802438D02*
X62969047Y-60754819D01*
X62969047Y-60754819D02*
X62730952Y-60754819D01*
X62730952Y-60754819D02*
X62635714Y-60802438D01*
X62635714Y-60802438D02*
X62588095Y-60850057D01*
X62588095Y-60850057D02*
X62540476Y-60945295D01*
X62540476Y-60945295D02*
X62540476Y-61040533D01*
X62540476Y-61040533D02*
X62588095Y-61183390D01*
X62588095Y-61183390D02*
X63159523Y-61754819D01*
X63159523Y-61754819D02*
X62540476Y-61754819D01*
X61635714Y-60754819D02*
X62111904Y-60754819D01*
X62111904Y-60754819D02*
X62159523Y-61231009D01*
X62159523Y-61231009D02*
X62111904Y-61183390D01*
X62111904Y-61183390D02*
X62016666Y-61135771D01*
X62016666Y-61135771D02*
X61778571Y-61135771D01*
X61778571Y-61135771D02*
X61683333Y-61183390D01*
X61683333Y-61183390D02*
X61635714Y-61231009D01*
X61635714Y-61231009D02*
X61588095Y-61326247D01*
X61588095Y-61326247D02*
X61588095Y-61564342D01*
X61588095Y-61564342D02*
X61635714Y-61659580D01*
X61635714Y-61659580D02*
X61683333Y-61707200D01*
X61683333Y-61707200D02*
X61778571Y-61754819D01*
X61778571Y-61754819D02*
X62016666Y-61754819D01*
X62016666Y-61754819D02*
X62111904Y-61707200D01*
X62111904Y-61707200D02*
X62159523Y-61659580D01*
X83142857Y-63459580D02*
X83190476Y-63507200D01*
X83190476Y-63507200D02*
X83333333Y-63554819D01*
X83333333Y-63554819D02*
X83428571Y-63554819D01*
X83428571Y-63554819D02*
X83571428Y-63507200D01*
X83571428Y-63507200D02*
X83666666Y-63411961D01*
X83666666Y-63411961D02*
X83714285Y-63316723D01*
X83714285Y-63316723D02*
X83761904Y-63126247D01*
X83761904Y-63126247D02*
X83761904Y-62983390D01*
X83761904Y-62983390D02*
X83714285Y-62792914D01*
X83714285Y-62792914D02*
X83666666Y-62697676D01*
X83666666Y-62697676D02*
X83571428Y-62602438D01*
X83571428Y-62602438D02*
X83428571Y-62554819D01*
X83428571Y-62554819D02*
X83333333Y-62554819D01*
X83333333Y-62554819D02*
X83190476Y-62602438D01*
X83190476Y-62602438D02*
X83142857Y-62650057D01*
X82190476Y-63554819D02*
X82761904Y-63554819D01*
X82476190Y-63554819D02*
X82476190Y-62554819D01*
X82476190Y-62554819D02*
X82571428Y-62697676D01*
X82571428Y-62697676D02*
X82666666Y-62792914D01*
X82666666Y-62792914D02*
X82761904Y-62840533D01*
X81333333Y-62888152D02*
X81333333Y-63554819D01*
X81571428Y-62507200D02*
X81809523Y-63221485D01*
X81809523Y-63221485D02*
X81190476Y-63221485D01*
X97342857Y-66859580D02*
X97390476Y-66907200D01*
X97390476Y-66907200D02*
X97533333Y-66954819D01*
X97533333Y-66954819D02*
X97628571Y-66954819D01*
X97628571Y-66954819D02*
X97771428Y-66907200D01*
X97771428Y-66907200D02*
X97866666Y-66811961D01*
X97866666Y-66811961D02*
X97914285Y-66716723D01*
X97914285Y-66716723D02*
X97961904Y-66526247D01*
X97961904Y-66526247D02*
X97961904Y-66383390D01*
X97961904Y-66383390D02*
X97914285Y-66192914D01*
X97914285Y-66192914D02*
X97866666Y-66097676D01*
X97866666Y-66097676D02*
X97771428Y-66002438D01*
X97771428Y-66002438D02*
X97628571Y-65954819D01*
X97628571Y-65954819D02*
X97533333Y-65954819D01*
X97533333Y-65954819D02*
X97390476Y-66002438D01*
X97390476Y-66002438D02*
X97342857Y-66050057D01*
X96390476Y-66954819D02*
X96961904Y-66954819D01*
X96676190Y-66954819D02*
X96676190Y-65954819D01*
X96676190Y-65954819D02*
X96771428Y-66097676D01*
X96771428Y-66097676D02*
X96866666Y-66192914D01*
X96866666Y-66192914D02*
X96961904Y-66240533D01*
X96057142Y-65954819D02*
X95438095Y-65954819D01*
X95438095Y-65954819D02*
X95771428Y-66335771D01*
X95771428Y-66335771D02*
X95628571Y-66335771D01*
X95628571Y-66335771D02*
X95533333Y-66383390D01*
X95533333Y-66383390D02*
X95485714Y-66431009D01*
X95485714Y-66431009D02*
X95438095Y-66526247D01*
X95438095Y-66526247D02*
X95438095Y-66764342D01*
X95438095Y-66764342D02*
X95485714Y-66859580D01*
X95485714Y-66859580D02*
X95533333Y-66907200D01*
X95533333Y-66907200D02*
X95628571Y-66954819D01*
X95628571Y-66954819D02*
X95914285Y-66954819D01*
X95914285Y-66954819D02*
X96009523Y-66907200D01*
X96009523Y-66907200D02*
X96057142Y-66859580D01*
X104442857Y-58523819D02*
X104776190Y-58047628D01*
X105014285Y-58523819D02*
X105014285Y-57523819D01*
X105014285Y-57523819D02*
X104633333Y-57523819D01*
X104633333Y-57523819D02*
X104538095Y-57571438D01*
X104538095Y-57571438D02*
X104490476Y-57619057D01*
X104490476Y-57619057D02*
X104442857Y-57714295D01*
X104442857Y-57714295D02*
X104442857Y-57857152D01*
X104442857Y-57857152D02*
X104490476Y-57952390D01*
X104490476Y-57952390D02*
X104538095Y-58000009D01*
X104538095Y-58000009D02*
X104633333Y-58047628D01*
X104633333Y-58047628D02*
X105014285Y-58047628D01*
X103490476Y-58523819D02*
X104061904Y-58523819D01*
X103776190Y-58523819D02*
X103776190Y-57523819D01*
X103776190Y-57523819D02*
X103871428Y-57666676D01*
X103871428Y-57666676D02*
X103966666Y-57761914D01*
X103966666Y-57761914D02*
X104061904Y-57809533D01*
X103157142Y-57523819D02*
X102538095Y-57523819D01*
X102538095Y-57523819D02*
X102871428Y-57904771D01*
X102871428Y-57904771D02*
X102728571Y-57904771D01*
X102728571Y-57904771D02*
X102633333Y-57952390D01*
X102633333Y-57952390D02*
X102585714Y-58000009D01*
X102585714Y-58000009D02*
X102538095Y-58095247D01*
X102538095Y-58095247D02*
X102538095Y-58333342D01*
X102538095Y-58333342D02*
X102585714Y-58428580D01*
X102585714Y-58428580D02*
X102633333Y-58476200D01*
X102633333Y-58476200D02*
X102728571Y-58523819D01*
X102728571Y-58523819D02*
X103014285Y-58523819D01*
X103014285Y-58523819D02*
X103109523Y-58476200D01*
X103109523Y-58476200D02*
X103157142Y-58428580D01*
X118042857Y-69954819D02*
X118376190Y-69478628D01*
X118614285Y-69954819D02*
X118614285Y-68954819D01*
X118614285Y-68954819D02*
X118233333Y-68954819D01*
X118233333Y-68954819D02*
X118138095Y-69002438D01*
X118138095Y-69002438D02*
X118090476Y-69050057D01*
X118090476Y-69050057D02*
X118042857Y-69145295D01*
X118042857Y-69145295D02*
X118042857Y-69288152D01*
X118042857Y-69288152D02*
X118090476Y-69383390D01*
X118090476Y-69383390D02*
X118138095Y-69431009D01*
X118138095Y-69431009D02*
X118233333Y-69478628D01*
X118233333Y-69478628D02*
X118614285Y-69478628D01*
X117090476Y-69954819D02*
X117661904Y-69954819D01*
X117376190Y-69954819D02*
X117376190Y-68954819D01*
X117376190Y-68954819D02*
X117471428Y-69097676D01*
X117471428Y-69097676D02*
X117566666Y-69192914D01*
X117566666Y-69192914D02*
X117661904Y-69240533D01*
X116614285Y-69954819D02*
X116423809Y-69954819D01*
X116423809Y-69954819D02*
X116328571Y-69907200D01*
X116328571Y-69907200D02*
X116280952Y-69859580D01*
X116280952Y-69859580D02*
X116185714Y-69716723D01*
X116185714Y-69716723D02*
X116138095Y-69526247D01*
X116138095Y-69526247D02*
X116138095Y-69145295D01*
X116138095Y-69145295D02*
X116185714Y-69050057D01*
X116185714Y-69050057D02*
X116233333Y-69002438D01*
X116233333Y-69002438D02*
X116328571Y-68954819D01*
X116328571Y-68954819D02*
X116519047Y-68954819D01*
X116519047Y-68954819D02*
X116614285Y-69002438D01*
X116614285Y-69002438D02*
X116661904Y-69050057D01*
X116661904Y-69050057D02*
X116709523Y-69145295D01*
X116709523Y-69145295D02*
X116709523Y-69383390D01*
X116709523Y-69383390D02*
X116661904Y-69478628D01*
X116661904Y-69478628D02*
X116614285Y-69526247D01*
X116614285Y-69526247D02*
X116519047Y-69573866D01*
X116519047Y-69573866D02*
X116328571Y-69573866D01*
X116328571Y-69573866D02*
X116233333Y-69526247D01*
X116233333Y-69526247D02*
X116185714Y-69478628D01*
X116185714Y-69478628D02*
X116138095Y-69383390D01*
X92959580Y-51383333D02*
X93007200Y-51335714D01*
X93007200Y-51335714D02*
X93054819Y-51192857D01*
X93054819Y-51192857D02*
X93054819Y-51097619D01*
X93054819Y-51097619D02*
X93007200Y-50954762D01*
X93007200Y-50954762D02*
X92911961Y-50859524D01*
X92911961Y-50859524D02*
X92816723Y-50811905D01*
X92816723Y-50811905D02*
X92626247Y-50764286D01*
X92626247Y-50764286D02*
X92483390Y-50764286D01*
X92483390Y-50764286D02*
X92292914Y-50811905D01*
X92292914Y-50811905D02*
X92197676Y-50859524D01*
X92197676Y-50859524D02*
X92102438Y-50954762D01*
X92102438Y-50954762D02*
X92054819Y-51097619D01*
X92054819Y-51097619D02*
X92054819Y-51192857D01*
X92054819Y-51192857D02*
X92102438Y-51335714D01*
X92102438Y-51335714D02*
X92150057Y-51383333D01*
X92054819Y-51716667D02*
X92054819Y-52383333D01*
X92054819Y-52383333D02*
X93054819Y-51954762D01*
X51237857Y-54653819D02*
X51571190Y-54177628D01*
X51809285Y-54653819D02*
X51809285Y-53653819D01*
X51809285Y-53653819D02*
X51428333Y-53653819D01*
X51428333Y-53653819D02*
X51333095Y-53701438D01*
X51333095Y-53701438D02*
X51285476Y-53749057D01*
X51285476Y-53749057D02*
X51237857Y-53844295D01*
X51237857Y-53844295D02*
X51237857Y-53987152D01*
X51237857Y-53987152D02*
X51285476Y-54082390D01*
X51285476Y-54082390D02*
X51333095Y-54130009D01*
X51333095Y-54130009D02*
X51428333Y-54177628D01*
X51428333Y-54177628D02*
X51809285Y-54177628D01*
X50856904Y-53749057D02*
X50809285Y-53701438D01*
X50809285Y-53701438D02*
X50714047Y-53653819D01*
X50714047Y-53653819D02*
X50475952Y-53653819D01*
X50475952Y-53653819D02*
X50380714Y-53701438D01*
X50380714Y-53701438D02*
X50333095Y-53749057D01*
X50333095Y-53749057D02*
X50285476Y-53844295D01*
X50285476Y-53844295D02*
X50285476Y-53939533D01*
X50285476Y-53939533D02*
X50333095Y-54082390D01*
X50333095Y-54082390D02*
X50904523Y-54653819D01*
X50904523Y-54653819D02*
X50285476Y-54653819D01*
X49666428Y-53653819D02*
X49571190Y-53653819D01*
X49571190Y-53653819D02*
X49475952Y-53701438D01*
X49475952Y-53701438D02*
X49428333Y-53749057D01*
X49428333Y-53749057D02*
X49380714Y-53844295D01*
X49380714Y-53844295D02*
X49333095Y-54034771D01*
X49333095Y-54034771D02*
X49333095Y-54272866D01*
X49333095Y-54272866D02*
X49380714Y-54463342D01*
X49380714Y-54463342D02*
X49428333Y-54558580D01*
X49428333Y-54558580D02*
X49475952Y-54606200D01*
X49475952Y-54606200D02*
X49571190Y-54653819D01*
X49571190Y-54653819D02*
X49666428Y-54653819D01*
X49666428Y-54653819D02*
X49761666Y-54606200D01*
X49761666Y-54606200D02*
X49809285Y-54558580D01*
X49809285Y-54558580D02*
X49856904Y-54463342D01*
X49856904Y-54463342D02*
X49904523Y-54272866D01*
X49904523Y-54272866D02*
X49904523Y-54034771D01*
X49904523Y-54034771D02*
X49856904Y-53844295D01*
X49856904Y-53844295D02*
X49809285Y-53749057D01*
X49809285Y-53749057D02*
X49761666Y-53701438D01*
X49761666Y-53701438D02*
X49666428Y-53653819D01*
X122192857Y-60709580D02*
X122240476Y-60757200D01*
X122240476Y-60757200D02*
X122383333Y-60804819D01*
X122383333Y-60804819D02*
X122478571Y-60804819D01*
X122478571Y-60804819D02*
X122621428Y-60757200D01*
X122621428Y-60757200D02*
X122716666Y-60661961D01*
X122716666Y-60661961D02*
X122764285Y-60566723D01*
X122764285Y-60566723D02*
X122811904Y-60376247D01*
X122811904Y-60376247D02*
X122811904Y-60233390D01*
X122811904Y-60233390D02*
X122764285Y-60042914D01*
X122764285Y-60042914D02*
X122716666Y-59947676D01*
X122716666Y-59947676D02*
X122621428Y-59852438D01*
X122621428Y-59852438D02*
X122478571Y-59804819D01*
X122478571Y-59804819D02*
X122383333Y-59804819D01*
X122383333Y-59804819D02*
X122240476Y-59852438D01*
X122240476Y-59852438D02*
X122192857Y-59900057D01*
X121811904Y-59900057D02*
X121764285Y-59852438D01*
X121764285Y-59852438D02*
X121669047Y-59804819D01*
X121669047Y-59804819D02*
X121430952Y-59804819D01*
X121430952Y-59804819D02*
X121335714Y-59852438D01*
X121335714Y-59852438D02*
X121288095Y-59900057D01*
X121288095Y-59900057D02*
X121240476Y-59995295D01*
X121240476Y-59995295D02*
X121240476Y-60090533D01*
X121240476Y-60090533D02*
X121288095Y-60233390D01*
X121288095Y-60233390D02*
X121859523Y-60804819D01*
X121859523Y-60804819D02*
X121240476Y-60804819D01*
X120669047Y-60233390D02*
X120764285Y-60185771D01*
X120764285Y-60185771D02*
X120811904Y-60138152D01*
X120811904Y-60138152D02*
X120859523Y-60042914D01*
X120859523Y-60042914D02*
X120859523Y-59995295D01*
X120859523Y-59995295D02*
X120811904Y-59900057D01*
X120811904Y-59900057D02*
X120764285Y-59852438D01*
X120764285Y-59852438D02*
X120669047Y-59804819D01*
X120669047Y-59804819D02*
X120478571Y-59804819D01*
X120478571Y-59804819D02*
X120383333Y-59852438D01*
X120383333Y-59852438D02*
X120335714Y-59900057D01*
X120335714Y-59900057D02*
X120288095Y-59995295D01*
X120288095Y-59995295D02*
X120288095Y-60042914D01*
X120288095Y-60042914D02*
X120335714Y-60138152D01*
X120335714Y-60138152D02*
X120383333Y-60185771D01*
X120383333Y-60185771D02*
X120478571Y-60233390D01*
X120478571Y-60233390D02*
X120669047Y-60233390D01*
X120669047Y-60233390D02*
X120764285Y-60281009D01*
X120764285Y-60281009D02*
X120811904Y-60328628D01*
X120811904Y-60328628D02*
X120859523Y-60423866D01*
X120859523Y-60423866D02*
X120859523Y-60614342D01*
X120859523Y-60614342D02*
X120811904Y-60709580D01*
X120811904Y-60709580D02*
X120764285Y-60757200D01*
X120764285Y-60757200D02*
X120669047Y-60804819D01*
X120669047Y-60804819D02*
X120478571Y-60804819D01*
X120478571Y-60804819D02*
X120383333Y-60757200D01*
X120383333Y-60757200D02*
X120335714Y-60709580D01*
X120335714Y-60709580D02*
X120288095Y-60614342D01*
X120288095Y-60614342D02*
X120288095Y-60423866D01*
X120288095Y-60423866D02*
X120335714Y-60328628D01*
X120335714Y-60328628D02*
X120383333Y-60281009D01*
X120383333Y-60281009D02*
X120478571Y-60233390D01*
X128859580Y-55157142D02*
X128907200Y-55109523D01*
X128907200Y-55109523D02*
X128954819Y-54966666D01*
X128954819Y-54966666D02*
X128954819Y-54871428D01*
X128954819Y-54871428D02*
X128907200Y-54728571D01*
X128907200Y-54728571D02*
X128811961Y-54633333D01*
X128811961Y-54633333D02*
X128716723Y-54585714D01*
X128716723Y-54585714D02*
X128526247Y-54538095D01*
X128526247Y-54538095D02*
X128383390Y-54538095D01*
X128383390Y-54538095D02*
X128192914Y-54585714D01*
X128192914Y-54585714D02*
X128097676Y-54633333D01*
X128097676Y-54633333D02*
X128002438Y-54728571D01*
X128002438Y-54728571D02*
X127954819Y-54871428D01*
X127954819Y-54871428D02*
X127954819Y-54966666D01*
X127954819Y-54966666D02*
X128002438Y-55109523D01*
X128002438Y-55109523D02*
X128050057Y-55157142D01*
X128050057Y-55538095D02*
X128002438Y-55585714D01*
X128002438Y-55585714D02*
X127954819Y-55680952D01*
X127954819Y-55680952D02*
X127954819Y-55919047D01*
X127954819Y-55919047D02*
X128002438Y-56014285D01*
X128002438Y-56014285D02*
X128050057Y-56061904D01*
X128050057Y-56061904D02*
X128145295Y-56109523D01*
X128145295Y-56109523D02*
X128240533Y-56109523D01*
X128240533Y-56109523D02*
X128383390Y-56061904D01*
X128383390Y-56061904D02*
X128954819Y-55490476D01*
X128954819Y-55490476D02*
X128954819Y-56109523D01*
X127954819Y-56442857D02*
X127954819Y-57109523D01*
X127954819Y-57109523D02*
X128954819Y-56680952D01*
X62366666Y-72654819D02*
X62699999Y-72178628D01*
X62938094Y-72654819D02*
X62938094Y-71654819D01*
X62938094Y-71654819D02*
X62557142Y-71654819D01*
X62557142Y-71654819D02*
X62461904Y-71702438D01*
X62461904Y-71702438D02*
X62414285Y-71750057D01*
X62414285Y-71750057D02*
X62366666Y-71845295D01*
X62366666Y-71845295D02*
X62366666Y-71988152D01*
X62366666Y-71988152D02*
X62414285Y-72083390D01*
X62414285Y-72083390D02*
X62461904Y-72131009D01*
X62461904Y-72131009D02*
X62557142Y-72178628D01*
X62557142Y-72178628D02*
X62938094Y-72178628D01*
X61795237Y-72083390D02*
X61890475Y-72035771D01*
X61890475Y-72035771D02*
X61938094Y-71988152D01*
X61938094Y-71988152D02*
X61985713Y-71892914D01*
X61985713Y-71892914D02*
X61985713Y-71845295D01*
X61985713Y-71845295D02*
X61938094Y-71750057D01*
X61938094Y-71750057D02*
X61890475Y-71702438D01*
X61890475Y-71702438D02*
X61795237Y-71654819D01*
X61795237Y-71654819D02*
X61604761Y-71654819D01*
X61604761Y-71654819D02*
X61509523Y-71702438D01*
X61509523Y-71702438D02*
X61461904Y-71750057D01*
X61461904Y-71750057D02*
X61414285Y-71845295D01*
X61414285Y-71845295D02*
X61414285Y-71892914D01*
X61414285Y-71892914D02*
X61461904Y-71988152D01*
X61461904Y-71988152D02*
X61509523Y-72035771D01*
X61509523Y-72035771D02*
X61604761Y-72083390D01*
X61604761Y-72083390D02*
X61795237Y-72083390D01*
X61795237Y-72083390D02*
X61890475Y-72131009D01*
X61890475Y-72131009D02*
X61938094Y-72178628D01*
X61938094Y-72178628D02*
X61985713Y-72273866D01*
X61985713Y-72273866D02*
X61985713Y-72464342D01*
X61985713Y-72464342D02*
X61938094Y-72559580D01*
X61938094Y-72559580D02*
X61890475Y-72607200D01*
X61890475Y-72607200D02*
X61795237Y-72654819D01*
X61795237Y-72654819D02*
X61604761Y-72654819D01*
X61604761Y-72654819D02*
X61509523Y-72607200D01*
X61509523Y-72607200D02*
X61461904Y-72559580D01*
X61461904Y-72559580D02*
X61414285Y-72464342D01*
X61414285Y-72464342D02*
X61414285Y-72273866D01*
X61414285Y-72273866D02*
X61461904Y-72178628D01*
X61461904Y-72178628D02*
X61509523Y-72131009D01*
X61509523Y-72131009D02*
X61604761Y-72083390D01*
X106167857Y-71178580D02*
X106215476Y-71226200D01*
X106215476Y-71226200D02*
X106358333Y-71273819D01*
X106358333Y-71273819D02*
X106453571Y-71273819D01*
X106453571Y-71273819D02*
X106596428Y-71226200D01*
X106596428Y-71226200D02*
X106691666Y-71130961D01*
X106691666Y-71130961D02*
X106739285Y-71035723D01*
X106739285Y-71035723D02*
X106786904Y-70845247D01*
X106786904Y-70845247D02*
X106786904Y-70702390D01*
X106786904Y-70702390D02*
X106739285Y-70511914D01*
X106739285Y-70511914D02*
X106691666Y-70416676D01*
X106691666Y-70416676D02*
X106596428Y-70321438D01*
X106596428Y-70321438D02*
X106453571Y-70273819D01*
X106453571Y-70273819D02*
X106358333Y-70273819D01*
X106358333Y-70273819D02*
X106215476Y-70321438D01*
X106215476Y-70321438D02*
X106167857Y-70369057D01*
X105786904Y-70369057D02*
X105739285Y-70321438D01*
X105739285Y-70321438D02*
X105644047Y-70273819D01*
X105644047Y-70273819D02*
X105405952Y-70273819D01*
X105405952Y-70273819D02*
X105310714Y-70321438D01*
X105310714Y-70321438D02*
X105263095Y-70369057D01*
X105263095Y-70369057D02*
X105215476Y-70464295D01*
X105215476Y-70464295D02*
X105215476Y-70559533D01*
X105215476Y-70559533D02*
X105263095Y-70702390D01*
X105263095Y-70702390D02*
X105834523Y-71273819D01*
X105834523Y-71273819D02*
X105215476Y-71273819D01*
X104263095Y-71273819D02*
X104834523Y-71273819D01*
X104548809Y-71273819D02*
X104548809Y-70273819D01*
X104548809Y-70273819D02*
X104644047Y-70416676D01*
X104644047Y-70416676D02*
X104739285Y-70511914D01*
X104739285Y-70511914D02*
X104834523Y-70559533D01*
X92061904Y-57554819D02*
X92061904Y-58364342D01*
X92061904Y-58364342D02*
X92014285Y-58459580D01*
X92014285Y-58459580D02*
X91966666Y-58507200D01*
X91966666Y-58507200D02*
X91871428Y-58554819D01*
X91871428Y-58554819D02*
X91680952Y-58554819D01*
X91680952Y-58554819D02*
X91585714Y-58507200D01*
X91585714Y-58507200D02*
X91538095Y-58459580D01*
X91538095Y-58459580D02*
X91490476Y-58364342D01*
X91490476Y-58364342D02*
X91490476Y-57554819D01*
X91061904Y-57650057D02*
X91014285Y-57602438D01*
X91014285Y-57602438D02*
X90919047Y-57554819D01*
X90919047Y-57554819D02*
X90680952Y-57554819D01*
X90680952Y-57554819D02*
X90585714Y-57602438D01*
X90585714Y-57602438D02*
X90538095Y-57650057D01*
X90538095Y-57650057D02*
X90490476Y-57745295D01*
X90490476Y-57745295D02*
X90490476Y-57840533D01*
X90490476Y-57840533D02*
X90538095Y-57983390D01*
X90538095Y-57983390D02*
X91109523Y-58554819D01*
X91109523Y-58554819D02*
X90490476Y-58554819D01*
X103466666Y-62628580D02*
X103514285Y-62676200D01*
X103514285Y-62676200D02*
X103657142Y-62723819D01*
X103657142Y-62723819D02*
X103752380Y-62723819D01*
X103752380Y-62723819D02*
X103895237Y-62676200D01*
X103895237Y-62676200D02*
X103990475Y-62580961D01*
X103990475Y-62580961D02*
X104038094Y-62485723D01*
X104038094Y-62485723D02*
X104085713Y-62295247D01*
X104085713Y-62295247D02*
X104085713Y-62152390D01*
X104085713Y-62152390D02*
X104038094Y-61961914D01*
X104038094Y-61961914D02*
X103990475Y-61866676D01*
X103990475Y-61866676D02*
X103895237Y-61771438D01*
X103895237Y-61771438D02*
X103752380Y-61723819D01*
X103752380Y-61723819D02*
X103657142Y-61723819D01*
X103657142Y-61723819D02*
X103514285Y-61771438D01*
X103514285Y-61771438D02*
X103466666Y-61819057D01*
X102609523Y-62057152D02*
X102609523Y-62723819D01*
X102847618Y-61676200D02*
X103085713Y-62390485D01*
X103085713Y-62390485D02*
X102466666Y-62390485D01*
X125092857Y-57554819D02*
X125426190Y-57078628D01*
X125664285Y-57554819D02*
X125664285Y-56554819D01*
X125664285Y-56554819D02*
X125283333Y-56554819D01*
X125283333Y-56554819D02*
X125188095Y-56602438D01*
X125188095Y-56602438D02*
X125140476Y-56650057D01*
X125140476Y-56650057D02*
X125092857Y-56745295D01*
X125092857Y-56745295D02*
X125092857Y-56888152D01*
X125092857Y-56888152D02*
X125140476Y-56983390D01*
X125140476Y-56983390D02*
X125188095Y-57031009D01*
X125188095Y-57031009D02*
X125283333Y-57078628D01*
X125283333Y-57078628D02*
X125664285Y-57078628D01*
X124711904Y-56650057D02*
X124664285Y-56602438D01*
X124664285Y-56602438D02*
X124569047Y-56554819D01*
X124569047Y-56554819D02*
X124330952Y-56554819D01*
X124330952Y-56554819D02*
X124235714Y-56602438D01*
X124235714Y-56602438D02*
X124188095Y-56650057D01*
X124188095Y-56650057D02*
X124140476Y-56745295D01*
X124140476Y-56745295D02*
X124140476Y-56840533D01*
X124140476Y-56840533D02*
X124188095Y-56983390D01*
X124188095Y-56983390D02*
X124759523Y-57554819D01*
X124759523Y-57554819D02*
X124140476Y-57554819D01*
X123664285Y-57554819D02*
X123473809Y-57554819D01*
X123473809Y-57554819D02*
X123378571Y-57507200D01*
X123378571Y-57507200D02*
X123330952Y-57459580D01*
X123330952Y-57459580D02*
X123235714Y-57316723D01*
X123235714Y-57316723D02*
X123188095Y-57126247D01*
X123188095Y-57126247D02*
X123188095Y-56745295D01*
X123188095Y-56745295D02*
X123235714Y-56650057D01*
X123235714Y-56650057D02*
X123283333Y-56602438D01*
X123283333Y-56602438D02*
X123378571Y-56554819D01*
X123378571Y-56554819D02*
X123569047Y-56554819D01*
X123569047Y-56554819D02*
X123664285Y-56602438D01*
X123664285Y-56602438D02*
X123711904Y-56650057D01*
X123711904Y-56650057D02*
X123759523Y-56745295D01*
X123759523Y-56745295D02*
X123759523Y-56983390D01*
X123759523Y-56983390D02*
X123711904Y-57078628D01*
X123711904Y-57078628D02*
X123664285Y-57126247D01*
X123664285Y-57126247D02*
X123569047Y-57173866D01*
X123569047Y-57173866D02*
X123378571Y-57173866D01*
X123378571Y-57173866D02*
X123283333Y-57126247D01*
X123283333Y-57126247D02*
X123235714Y-57078628D01*
X123235714Y-57078628D02*
X123188095Y-56983390D01*
X104442857Y-57323819D02*
X104776190Y-56847628D01*
X105014285Y-57323819D02*
X105014285Y-56323819D01*
X105014285Y-56323819D02*
X104633333Y-56323819D01*
X104633333Y-56323819D02*
X104538095Y-56371438D01*
X104538095Y-56371438D02*
X104490476Y-56419057D01*
X104490476Y-56419057D02*
X104442857Y-56514295D01*
X104442857Y-56514295D02*
X104442857Y-56657152D01*
X104442857Y-56657152D02*
X104490476Y-56752390D01*
X104490476Y-56752390D02*
X104538095Y-56800009D01*
X104538095Y-56800009D02*
X104633333Y-56847628D01*
X104633333Y-56847628D02*
X105014285Y-56847628D01*
X103490476Y-57323819D02*
X104061904Y-57323819D01*
X103776190Y-57323819D02*
X103776190Y-56323819D01*
X103776190Y-56323819D02*
X103871428Y-56466676D01*
X103871428Y-56466676D02*
X103966666Y-56561914D01*
X103966666Y-56561914D02*
X104061904Y-56609533D01*
X103109523Y-56419057D02*
X103061904Y-56371438D01*
X103061904Y-56371438D02*
X102966666Y-56323819D01*
X102966666Y-56323819D02*
X102728571Y-56323819D01*
X102728571Y-56323819D02*
X102633333Y-56371438D01*
X102633333Y-56371438D02*
X102585714Y-56419057D01*
X102585714Y-56419057D02*
X102538095Y-56514295D01*
X102538095Y-56514295D02*
X102538095Y-56609533D01*
X102538095Y-56609533D02*
X102585714Y-56752390D01*
X102585714Y-56752390D02*
X103157142Y-57323819D01*
X103157142Y-57323819D02*
X102538095Y-57323819D01*
X117942857Y-71354819D02*
X118276190Y-70878628D01*
X118514285Y-71354819D02*
X118514285Y-70354819D01*
X118514285Y-70354819D02*
X118133333Y-70354819D01*
X118133333Y-70354819D02*
X118038095Y-70402438D01*
X118038095Y-70402438D02*
X117990476Y-70450057D01*
X117990476Y-70450057D02*
X117942857Y-70545295D01*
X117942857Y-70545295D02*
X117942857Y-70688152D01*
X117942857Y-70688152D02*
X117990476Y-70783390D01*
X117990476Y-70783390D02*
X118038095Y-70831009D01*
X118038095Y-70831009D02*
X118133333Y-70878628D01*
X118133333Y-70878628D02*
X118514285Y-70878628D01*
X117561904Y-70450057D02*
X117514285Y-70402438D01*
X117514285Y-70402438D02*
X117419047Y-70354819D01*
X117419047Y-70354819D02*
X117180952Y-70354819D01*
X117180952Y-70354819D02*
X117085714Y-70402438D01*
X117085714Y-70402438D02*
X117038095Y-70450057D01*
X117038095Y-70450057D02*
X116990476Y-70545295D01*
X116990476Y-70545295D02*
X116990476Y-70640533D01*
X116990476Y-70640533D02*
X117038095Y-70783390D01*
X117038095Y-70783390D02*
X117609523Y-71354819D01*
X117609523Y-71354819D02*
X116990476Y-71354819D01*
X116038095Y-71354819D02*
X116609523Y-71354819D01*
X116323809Y-71354819D02*
X116323809Y-70354819D01*
X116323809Y-70354819D02*
X116419047Y-70497676D01*
X116419047Y-70497676D02*
X116514285Y-70592914D01*
X116514285Y-70592914D02*
X116609523Y-70640533D01*
X94359580Y-51233333D02*
X94407200Y-51185714D01*
X94407200Y-51185714D02*
X94454819Y-51042857D01*
X94454819Y-51042857D02*
X94454819Y-50947619D01*
X94454819Y-50947619D02*
X94407200Y-50804762D01*
X94407200Y-50804762D02*
X94311961Y-50709524D01*
X94311961Y-50709524D02*
X94216723Y-50661905D01*
X94216723Y-50661905D02*
X94026247Y-50614286D01*
X94026247Y-50614286D02*
X93883390Y-50614286D01*
X93883390Y-50614286D02*
X93692914Y-50661905D01*
X93692914Y-50661905D02*
X93597676Y-50709524D01*
X93597676Y-50709524D02*
X93502438Y-50804762D01*
X93502438Y-50804762D02*
X93454819Y-50947619D01*
X93454819Y-50947619D02*
X93454819Y-51042857D01*
X93454819Y-51042857D02*
X93502438Y-51185714D01*
X93502438Y-51185714D02*
X93550057Y-51233333D01*
X94454819Y-52185714D02*
X94454819Y-51614286D01*
X94454819Y-51900000D02*
X93454819Y-51900000D01*
X93454819Y-51900000D02*
X93597676Y-51804762D01*
X93597676Y-51804762D02*
X93692914Y-51709524D01*
X93692914Y-51709524D02*
X93740533Y-51614286D01*
X56992857Y-57154819D02*
X57326190Y-56678628D01*
X57564285Y-57154819D02*
X57564285Y-56154819D01*
X57564285Y-56154819D02*
X57183333Y-56154819D01*
X57183333Y-56154819D02*
X57088095Y-56202438D01*
X57088095Y-56202438D02*
X57040476Y-56250057D01*
X57040476Y-56250057D02*
X56992857Y-56345295D01*
X56992857Y-56345295D02*
X56992857Y-56488152D01*
X56992857Y-56488152D02*
X57040476Y-56583390D01*
X57040476Y-56583390D02*
X57088095Y-56631009D01*
X57088095Y-56631009D02*
X57183333Y-56678628D01*
X57183333Y-56678628D02*
X57564285Y-56678628D01*
X56611904Y-56250057D02*
X56564285Y-56202438D01*
X56564285Y-56202438D02*
X56469047Y-56154819D01*
X56469047Y-56154819D02*
X56230952Y-56154819D01*
X56230952Y-56154819D02*
X56135714Y-56202438D01*
X56135714Y-56202438D02*
X56088095Y-56250057D01*
X56088095Y-56250057D02*
X56040476Y-56345295D01*
X56040476Y-56345295D02*
X56040476Y-56440533D01*
X56040476Y-56440533D02*
X56088095Y-56583390D01*
X56088095Y-56583390D02*
X56659523Y-57154819D01*
X56659523Y-57154819D02*
X56040476Y-57154819D01*
X55183333Y-56488152D02*
X55183333Y-57154819D01*
X55421428Y-56107200D02*
X55659523Y-56821485D01*
X55659523Y-56821485D02*
X55040476Y-56821485D01*
X87654580Y-51332333D02*
X87702200Y-51284714D01*
X87702200Y-51284714D02*
X87749819Y-51141857D01*
X87749819Y-51141857D02*
X87749819Y-51046619D01*
X87749819Y-51046619D02*
X87702200Y-50903762D01*
X87702200Y-50903762D02*
X87606961Y-50808524D01*
X87606961Y-50808524D02*
X87511723Y-50760905D01*
X87511723Y-50760905D02*
X87321247Y-50713286D01*
X87321247Y-50713286D02*
X87178390Y-50713286D01*
X87178390Y-50713286D02*
X86987914Y-50760905D01*
X86987914Y-50760905D02*
X86892676Y-50808524D01*
X86892676Y-50808524D02*
X86797438Y-50903762D01*
X86797438Y-50903762D02*
X86749819Y-51046619D01*
X86749819Y-51046619D02*
X86749819Y-51141857D01*
X86749819Y-51141857D02*
X86797438Y-51284714D01*
X86797438Y-51284714D02*
X86845057Y-51332333D01*
X87178390Y-51903762D02*
X87130771Y-51808524D01*
X87130771Y-51808524D02*
X87083152Y-51760905D01*
X87083152Y-51760905D02*
X86987914Y-51713286D01*
X86987914Y-51713286D02*
X86940295Y-51713286D01*
X86940295Y-51713286D02*
X86845057Y-51760905D01*
X86845057Y-51760905D02*
X86797438Y-51808524D01*
X86797438Y-51808524D02*
X86749819Y-51903762D01*
X86749819Y-51903762D02*
X86749819Y-52094238D01*
X86749819Y-52094238D02*
X86797438Y-52189476D01*
X86797438Y-52189476D02*
X86845057Y-52237095D01*
X86845057Y-52237095D02*
X86940295Y-52284714D01*
X86940295Y-52284714D02*
X86987914Y-52284714D01*
X86987914Y-52284714D02*
X87083152Y-52237095D01*
X87083152Y-52237095D02*
X87130771Y-52189476D01*
X87130771Y-52189476D02*
X87178390Y-52094238D01*
X87178390Y-52094238D02*
X87178390Y-51903762D01*
X87178390Y-51903762D02*
X87226009Y-51808524D01*
X87226009Y-51808524D02*
X87273628Y-51760905D01*
X87273628Y-51760905D02*
X87368866Y-51713286D01*
X87368866Y-51713286D02*
X87559342Y-51713286D01*
X87559342Y-51713286D02*
X87654580Y-51760905D01*
X87654580Y-51760905D02*
X87702200Y-51808524D01*
X87702200Y-51808524D02*
X87749819Y-51903762D01*
X87749819Y-51903762D02*
X87749819Y-52094238D01*
X87749819Y-52094238D02*
X87702200Y-52189476D01*
X87702200Y-52189476D02*
X87654580Y-52237095D01*
X87654580Y-52237095D02*
X87559342Y-52284714D01*
X87559342Y-52284714D02*
X87368866Y-52284714D01*
X87368866Y-52284714D02*
X87273628Y-52237095D01*
X87273628Y-52237095D02*
X87226009Y-52189476D01*
X87226009Y-52189476D02*
X87178390Y-52094238D01*
X95854819Y-51333333D02*
X95378628Y-51000000D01*
X95854819Y-50761905D02*
X94854819Y-50761905D01*
X94854819Y-50761905D02*
X94854819Y-51142857D01*
X94854819Y-51142857D02*
X94902438Y-51238095D01*
X94902438Y-51238095D02*
X94950057Y-51285714D01*
X94950057Y-51285714D02*
X95045295Y-51333333D01*
X95045295Y-51333333D02*
X95188152Y-51333333D01*
X95188152Y-51333333D02*
X95283390Y-51285714D01*
X95283390Y-51285714D02*
X95331009Y-51238095D01*
X95331009Y-51238095D02*
X95378628Y-51142857D01*
X95378628Y-51142857D02*
X95378628Y-50761905D01*
X95854819Y-52285714D02*
X95854819Y-51714286D01*
X95854819Y-52000000D02*
X94854819Y-52000000D01*
X94854819Y-52000000D02*
X94997676Y-51904762D01*
X94997676Y-51904762D02*
X95092914Y-51809524D01*
X95092914Y-51809524D02*
X95140533Y-51714286D01*
X85042857Y-66559580D02*
X85090476Y-66607200D01*
X85090476Y-66607200D02*
X85233333Y-66654819D01*
X85233333Y-66654819D02*
X85328571Y-66654819D01*
X85328571Y-66654819D02*
X85471428Y-66607200D01*
X85471428Y-66607200D02*
X85566666Y-66511961D01*
X85566666Y-66511961D02*
X85614285Y-66416723D01*
X85614285Y-66416723D02*
X85661904Y-66226247D01*
X85661904Y-66226247D02*
X85661904Y-66083390D01*
X85661904Y-66083390D02*
X85614285Y-65892914D01*
X85614285Y-65892914D02*
X85566666Y-65797676D01*
X85566666Y-65797676D02*
X85471428Y-65702438D01*
X85471428Y-65702438D02*
X85328571Y-65654819D01*
X85328571Y-65654819D02*
X85233333Y-65654819D01*
X85233333Y-65654819D02*
X85090476Y-65702438D01*
X85090476Y-65702438D02*
X85042857Y-65750057D01*
X84090476Y-66654819D02*
X84661904Y-66654819D01*
X84376190Y-66654819D02*
X84376190Y-65654819D01*
X84376190Y-65654819D02*
X84471428Y-65797676D01*
X84471428Y-65797676D02*
X84566666Y-65892914D01*
X84566666Y-65892914D02*
X84661904Y-65940533D01*
X83614285Y-66654819D02*
X83423809Y-66654819D01*
X83423809Y-66654819D02*
X83328571Y-66607200D01*
X83328571Y-66607200D02*
X83280952Y-66559580D01*
X83280952Y-66559580D02*
X83185714Y-66416723D01*
X83185714Y-66416723D02*
X83138095Y-66226247D01*
X83138095Y-66226247D02*
X83138095Y-65845295D01*
X83138095Y-65845295D02*
X83185714Y-65750057D01*
X83185714Y-65750057D02*
X83233333Y-65702438D01*
X83233333Y-65702438D02*
X83328571Y-65654819D01*
X83328571Y-65654819D02*
X83519047Y-65654819D01*
X83519047Y-65654819D02*
X83614285Y-65702438D01*
X83614285Y-65702438D02*
X83661904Y-65750057D01*
X83661904Y-65750057D02*
X83709523Y-65845295D01*
X83709523Y-65845295D02*
X83709523Y-66083390D01*
X83709523Y-66083390D02*
X83661904Y-66178628D01*
X83661904Y-66178628D02*
X83614285Y-66226247D01*
X83614285Y-66226247D02*
X83519047Y-66273866D01*
X83519047Y-66273866D02*
X83328571Y-66273866D01*
X83328571Y-66273866D02*
X83233333Y-66226247D01*
X83233333Y-66226247D02*
X83185714Y-66178628D01*
X83185714Y-66178628D02*
X83138095Y-66083390D01*
X97400000Y-74950000D02*
X97900000Y-74450000D01*
X97400000Y-78450000D02*
X97900000Y-78950000D01*
X97900000Y-74450000D02*
X100900000Y-74450000D01*
X97900000Y-78950000D02*
X100400000Y-78950000D01*
X100900000Y-74450000D02*
X101400000Y-74950000D01*
X101400000Y-75950000D02*
X101400000Y-74950000D01*
X101900000Y-80450000D02*
X101900000Y-81150000D01*
X101900000Y-81150000D02*
X106400000Y-81150000D01*
X106400000Y-76450000D02*
X101900000Y-76450000D01*
X106400000Y-77050000D02*
X106400000Y-76450000D01*
X106400000Y-81150000D02*
X106400000Y-80650000D01*
X100400000Y-78950000D02*
G75*
G02*
X101900000Y-80450000I-1J-1500001D01*
G01*
X101900000Y-76450000D02*
G75*
G02*
X101400000Y-75950000I1J500001D01*
G01*
X116000000Y-74950000D02*
X116500000Y-74450000D01*
X116000000Y-78450000D02*
X116500000Y-78950000D01*
X116500000Y-74450000D02*
X119500000Y-74450000D01*
X116500000Y-78950000D02*
X119000000Y-78950000D01*
X119500000Y-74450000D02*
X120000000Y-74950000D01*
X120000000Y-75950000D02*
X120000000Y-74950000D01*
X120500000Y-80450000D02*
X120500000Y-81150000D01*
X120500000Y-81150000D02*
X125000000Y-81150000D01*
X125000000Y-76450000D02*
X120500000Y-76450000D01*
X125000000Y-77050000D02*
X125000000Y-76450000D01*
X125000000Y-81150000D02*
X125000000Y-80650000D01*
X119000000Y-78950000D02*
G75*
G02*
X120500000Y-80450000I-1J-1500001D01*
G01*
X120500000Y-76450000D02*
G75*
G02*
X120000000Y-75950000I1J500001D01*
G01*
X60200000Y-74950000D02*
X60700000Y-74450000D01*
X60200000Y-78450000D02*
X60700000Y-78950000D01*
X60700000Y-74450000D02*
X63700000Y-74450000D01*
X60700000Y-78950000D02*
X63200000Y-78950000D01*
X63700000Y-74450000D02*
X64200000Y-74950000D01*
X64200000Y-75950000D02*
X64200000Y-74950000D01*
X64700000Y-80450000D02*
X64700000Y-81150000D01*
X64700000Y-81150000D02*
X69200000Y-81150000D01*
X69200000Y-76450000D02*
X64700000Y-76450000D01*
X69200000Y-77050000D02*
X69200000Y-76450000D01*
X69200000Y-81150000D02*
X69200000Y-80650000D01*
X63200000Y-78950000D02*
G75*
G02*
X64700000Y-80450000I-1J-1500001D01*
G01*
X64700000Y-76450000D02*
G75*
G02*
X64200000Y-75950000I1J500001D01*
G01*
X78800000Y-145350000D02*
X79300000Y-144850000D01*
X78800000Y-148850000D02*
X79300000Y-149350000D01*
X79300000Y-144850000D02*
X82300000Y-144850000D01*
X79300000Y-149350000D02*
X81800000Y-149350000D01*
X82300000Y-144850000D02*
X82800000Y-145350000D01*
X82800000Y-146350000D02*
X82800000Y-145350000D01*
X83300000Y-150850000D02*
X83300000Y-151550000D01*
X83300000Y-151550000D02*
X87800000Y-151550000D01*
X87800000Y-146850000D02*
X83300000Y-146850000D01*
X87800000Y-147450000D02*
X87800000Y-146850000D01*
X87800000Y-151550000D02*
X87800000Y-151050000D01*
X81800000Y-149350000D02*
G75*
G02*
X83300000Y-150850000I-1J-1500001D01*
G01*
X83300000Y-146850000D02*
G75*
G02*
X82800000Y-146350000I1J500001D01*
G01*
X97400000Y-92550000D02*
X97900000Y-92050000D01*
X97400000Y-96050000D02*
X97900000Y-96550000D01*
X97900000Y-92050000D02*
X100900000Y-92050000D01*
X97900000Y-96550000D02*
X100400000Y-96550000D01*
X100900000Y-92050000D02*
X101400000Y-92550000D01*
X101400000Y-93550000D02*
X101400000Y-92550000D01*
X101900000Y-98050000D02*
X101900000Y-98750000D01*
X101900000Y-98750000D02*
X106400000Y-98750000D01*
X106400000Y-94050000D02*
X101900000Y-94050000D01*
X106400000Y-94650000D02*
X106400000Y-94050000D01*
X106400000Y-98750000D02*
X106400000Y-98250000D01*
X100400000Y-96550000D02*
G75*
G02*
X101900000Y-98050000I-1J-1500001D01*
G01*
X101900000Y-94050000D02*
G75*
G02*
X101400000Y-93550000I1J500001D01*
G01*
X116000000Y-136550000D02*
X116500000Y-136050000D01*
X116000000Y-140050000D02*
X116500000Y-140550000D01*
X116500000Y-136050000D02*
X119500000Y-136050000D01*
X116500000Y-140550000D02*
X119000000Y-140550000D01*
X119500000Y-136050000D02*
X120000000Y-136550000D01*
X120000000Y-137550000D02*
X120000000Y-136550000D01*
X120500000Y-142050000D02*
X120500000Y-142750000D01*
X120500000Y-142750000D02*
X125000000Y-142750000D01*
X125000000Y-138050000D02*
X120500000Y-138050000D01*
X125000000Y-138650000D02*
X125000000Y-138050000D01*
X125000000Y-142750000D02*
X125000000Y-142250000D01*
X119000000Y-140550000D02*
G75*
G02*
X120500000Y-142050000I-1J-1500001D01*
G01*
X120500000Y-138050000D02*
G75*
G02*
X120000000Y-137550000I1J500001D01*
G01*
X78800000Y-110150000D02*
X79300000Y-109650000D01*
X78800000Y-113650000D02*
X79300000Y-114150000D01*
X79300000Y-109650000D02*
X82300000Y-109650000D01*
X79300000Y-114150000D02*
X81800000Y-114150000D01*
X82300000Y-109650000D02*
X82800000Y-110150000D01*
X82800000Y-111150000D02*
X82800000Y-110150000D01*
X83300000Y-115650000D02*
X83300000Y-116350000D01*
X83300000Y-116350000D02*
X87800000Y-116350000D01*
X87800000Y-111650000D02*
X83300000Y-111650000D01*
X87800000Y-112250000D02*
X87800000Y-111650000D01*
X87800000Y-116350000D02*
X87800000Y-115850000D01*
X81800000Y-114150000D02*
G75*
G02*
X83300000Y-115650000I-1J-1500001D01*
G01*
X83300000Y-111650000D02*
G75*
G02*
X82800000Y-111150000I1J500001D01*
G01*
X78800000Y-74950000D02*
X79300000Y-74450000D01*
X78800000Y-78450000D02*
X79300000Y-78950000D01*
X79300000Y-74450000D02*
X82300000Y-74450000D01*
X79300000Y-78950000D02*
X81800000Y-78950000D01*
X82300000Y-74450000D02*
X82800000Y-74950000D01*
X82800000Y-75950000D02*
X82800000Y-74950000D01*
X83300000Y-80450000D02*
X83300000Y-81150000D01*
X83300000Y-81150000D02*
X87800000Y-81150000D01*
X87800000Y-76450000D02*
X83300000Y-76450000D01*
X87800000Y-77050000D02*
X87800000Y-76450000D01*
X87800000Y-81150000D02*
X87800000Y-80650000D01*
X81800000Y-78950000D02*
G75*
G02*
X83300000Y-80450000I-1J-1500001D01*
G01*
X83300000Y-76450000D02*
G75*
G02*
X82800000Y-75950000I1J500001D01*
G01*
X116000000Y-101350000D02*
X116500000Y-100850000D01*
X116000000Y-104850000D02*
X116500000Y-105350000D01*
X116500000Y-100850000D02*
X119500000Y-100850000D01*
X116500000Y-105350000D02*
X119000000Y-105350000D01*
X119500000Y-100850000D02*
X120000000Y-101350000D01*
X120000000Y-102350000D02*
X120000000Y-101350000D01*
X120500000Y-106850000D02*
X120500000Y-107550000D01*
X120500000Y-107550000D02*
X125000000Y-107550000D01*
X125000000Y-102850000D02*
X120500000Y-102850000D01*
X125000000Y-103450000D02*
X125000000Y-102850000D01*
X125000000Y-107550000D02*
X125000000Y-107050000D01*
X119000000Y-105350000D02*
G75*
G02*
X120500000Y-106850000I-1J-1500001D01*
G01*
X120500000Y-102850000D02*
G75*
G02*
X120000000Y-102350000I1J500001D01*
G01*
X97400000Y-145350000D02*
X97900000Y-144850000D01*
X97400000Y-148850000D02*
X97900000Y-149350000D01*
X97900000Y-144850000D02*
X100900000Y-144850000D01*
X97900000Y-149350000D02*
X100400000Y-149350000D01*
X100900000Y-144850000D02*
X101400000Y-145350000D01*
X101400000Y-146350000D02*
X101400000Y-145350000D01*
X101900000Y-150850000D02*
X101900000Y-151550000D01*
X101900000Y-151550000D02*
X106400000Y-151550000D01*
X106400000Y-146850000D02*
X101900000Y-146850000D01*
X106400000Y-147450000D02*
X106400000Y-146850000D01*
X106400000Y-151550000D02*
X106400000Y-151050000D01*
X100400000Y-149350000D02*
G75*
G02*
X101900000Y-150850000I-1J-1500001D01*
G01*
X101900000Y-146850000D02*
G75*
G02*
X101400000Y-146350000I1J500001D01*
G01*
X60200000Y-127750000D02*
X60700000Y-127250000D01*
X60200000Y-131250000D02*
X60700000Y-131750000D01*
X60700000Y-127250000D02*
X63700000Y-127250000D01*
X60700000Y-131750000D02*
X63200000Y-131750000D01*
X63700000Y-127250000D02*
X64200000Y-127750000D01*
X64200000Y-128750000D02*
X64200000Y-127750000D01*
X64700000Y-133250000D02*
X64700000Y-133950000D01*
X64700000Y-133950000D02*
X69200000Y-133950000D01*
X69200000Y-129250000D02*
X64700000Y-129250000D01*
X69200000Y-129850000D02*
X69200000Y-129250000D01*
X69200000Y-133950000D02*
X69200000Y-133450000D01*
X63200000Y-131750000D02*
G75*
G02*
X64700000Y-133250000I-1J-1500001D01*
G01*
X64700000Y-129250000D02*
G75*
G02*
X64200000Y-128750000I1J500001D01*
G01*
X97400000Y-110150000D02*
X97900000Y-109650000D01*
X97400000Y-113650000D02*
X97900000Y-114150000D01*
X97900000Y-109650000D02*
X100900000Y-109650000D01*
X97900000Y-114150000D02*
X100400000Y-114150000D01*
X100900000Y-109650000D02*
X101400000Y-110150000D01*
X101400000Y-111150000D02*
X101400000Y-110150000D01*
X101900000Y-115650000D02*
X101900000Y-116350000D01*
X101900000Y-116350000D02*
X106400000Y-116350000D01*
X106400000Y-111650000D02*
X101900000Y-111650000D01*
X106400000Y-112250000D02*
X106400000Y-111650000D01*
X106400000Y-116350000D02*
X106400000Y-115850000D01*
X100400000Y-114150000D02*
G75*
G02*
X101900000Y-115650000I-1J-1500001D01*
G01*
X101900000Y-111650000D02*
G75*
G02*
X101400000Y-111150000I1J500001D01*
G01*
X78800000Y-92550000D02*
X79300000Y-92050000D01*
X78800000Y-96050000D02*
X79300000Y-96550000D01*
X79300000Y-92050000D02*
X82300000Y-92050000D01*
X79300000Y-96550000D02*
X81800000Y-96550000D01*
X82300000Y-92050000D02*
X82800000Y-92550000D01*
X82800000Y-93550000D02*
X82800000Y-92550000D01*
X83300000Y-98050000D02*
X83300000Y-98750000D01*
X83300000Y-98750000D02*
X87800000Y-98750000D01*
X87800000Y-94050000D02*
X83300000Y-94050000D01*
X87800000Y-94650000D02*
X87800000Y-94050000D01*
X87800000Y-98750000D02*
X87800000Y-98250000D01*
X81800000Y-96550000D02*
G75*
G02*
X83300000Y-98050000I-1J-1500001D01*
G01*
X83300000Y-94050000D02*
G75*
G02*
X82800000Y-93550000I1J500001D01*
G01*
X97400000Y-127750000D02*
X97900000Y-127250000D01*
X97400000Y-131250000D02*
X97900000Y-131750000D01*
X97900000Y-127250000D02*
X100900000Y-127250000D01*
X97900000Y-131750000D02*
X100400000Y-131750000D01*
X100900000Y-127250000D02*
X101400000Y-127750000D01*
X101400000Y-128750000D02*
X101400000Y-127750000D01*
X101900000Y-133250000D02*
X101900000Y-133950000D01*
X101900000Y-133950000D02*
X106400000Y-133950000D01*
X106400000Y-129250000D02*
X101900000Y-129250000D01*
X106400000Y-129850000D02*
X106400000Y-129250000D01*
X106400000Y-133950000D02*
X106400000Y-133450000D01*
X100400000Y-131750000D02*
G75*
G02*
X101900000Y-133250000I-1J-1500001D01*
G01*
X101900000Y-129250000D02*
G75*
G02*
X101400000Y-128750000I1J500001D01*
G01*
X78800000Y-127750000D02*
X79300000Y-127250000D01*
X78800000Y-131250000D02*
X79300000Y-131750000D01*
X79300000Y-127250000D02*
X82300000Y-127250000D01*
X79300000Y-131750000D02*
X81800000Y-131750000D01*
X82300000Y-127250000D02*
X82800000Y-127750000D01*
X82800000Y-128750000D02*
X82800000Y-127750000D01*
X83300000Y-133250000D02*
X83300000Y-133950000D01*
X83300000Y-133950000D02*
X87800000Y-133950000D01*
X87800000Y-129250000D02*
X83300000Y-129250000D01*
X87800000Y-129850000D02*
X87800000Y-129250000D01*
X87800000Y-133950000D02*
X87800000Y-133450000D01*
X81800000Y-131750000D02*
G75*
G02*
X83300000Y-133250000I-1J-1500001D01*
G01*
X83300000Y-129250000D02*
G75*
G02*
X82800000Y-128750000I1J500001D01*
G01*
X60200000Y-145350000D02*
X60700000Y-144850000D01*
X60200000Y-148850000D02*
X60700000Y-149350000D01*
X60700000Y-144850000D02*
X63700000Y-144850000D01*
X60700000Y-149350000D02*
X63200000Y-149350000D01*
X63700000Y-144850000D02*
X64200000Y-145350000D01*
X64200000Y-146350000D02*
X64200000Y-145350000D01*
X64700000Y-150850000D02*
X64700000Y-151550000D01*
X64700000Y-151550000D02*
X69200000Y-151550000D01*
X69200000Y-146850000D02*
X64700000Y-146850000D01*
X69200000Y-147450000D02*
X69200000Y-146850000D01*
X69200000Y-151550000D02*
X69200000Y-151050000D01*
X63200000Y-149350000D02*
G75*
G02*
X64700000Y-150850000I-1J-1500001D01*
G01*
X64700000Y-146850000D02*
G75*
G02*
X64200000Y-146350000I1J500001D01*
G01*
X60200000Y-110150000D02*
X60700000Y-109650000D01*
X60200000Y-113650000D02*
X60700000Y-114150000D01*
X60700000Y-109650000D02*
X63700000Y-109650000D01*
X60700000Y-114150000D02*
X63200000Y-114150000D01*
X63700000Y-109650000D02*
X64200000Y-110150000D01*
X64200000Y-111150000D02*
X64200000Y-110150000D01*
X64700000Y-115650000D02*
X64700000Y-116350000D01*
X64700000Y-116350000D02*
X69200000Y-116350000D01*
X69200000Y-111650000D02*
X64700000Y-111650000D01*
X69200000Y-112250000D02*
X69200000Y-111650000D01*
X69200000Y-116350000D02*
X69200000Y-115850000D01*
X63200000Y-114150000D02*
G75*
G02*
X64700000Y-115650000I-1J-1500001D01*
G01*
X64700000Y-111650000D02*
G75*
G02*
X64200000Y-111150000I1J500001D01*
G01*
X60200000Y-92550000D02*
X60700000Y-92050000D01*
X60200000Y-96050000D02*
X60700000Y-96550000D01*
X60700000Y-92050000D02*
X63700000Y-92050000D01*
X60700000Y-96550000D02*
X63200000Y-96550000D01*
X63700000Y-92050000D02*
X64200000Y-92550000D01*
X64200000Y-93550000D02*
X64200000Y-92550000D01*
X64700000Y-98050000D02*
X64700000Y-98750000D01*
X64700000Y-98750000D02*
X69200000Y-98750000D01*
X69200000Y-94050000D02*
X64700000Y-94050000D01*
X69200000Y-94650000D02*
X69200000Y-94050000D01*
X69200000Y-98750000D02*
X69200000Y-98250000D01*
X63200000Y-96550000D02*
G75*
G02*
X64700000Y-98050000I-1J-1500001D01*
G01*
X64700000Y-94050000D02*
G75*
G02*
X64200000Y-93550000I1J500001D01*
G01*
X75540000Y-44610000D02*
X76860000Y-44610000D01*
X75540000Y-45570000D02*
X75540000Y-44610000D01*
X75540000Y-46430000D02*
X75540000Y-47390000D01*
X75540000Y-47390000D02*
X76860000Y-47390000D01*
X76860000Y-44610000D02*
X76860000Y-45570000D01*
X76860000Y-47390000D02*
X76860000Y-46430000D01*
X116660000Y-56440000D02*
X117620000Y-56440000D01*
X116660000Y-57760000D02*
X116660000Y-56440000D01*
X117620000Y-57760000D02*
X116660000Y-57760000D01*
X118480000Y-57760000D02*
X119440000Y-57760000D01*
X119440000Y-56440000D02*
X118480000Y-56440000D01*
X119440000Y-57760000D02*
X119440000Y-56440000D01*
X74140000Y-44610000D02*
X74140000Y-45570000D01*
X74140000Y-47390000D02*
X74140000Y-46430000D01*
X75460000Y-44610000D02*
X74140000Y-44610000D01*
X75460000Y-45570000D02*
X75460000Y-44610000D01*
X75460000Y-46430000D02*
X75460000Y-47390000D01*
X75460000Y-47390000D02*
X74140000Y-47390000D01*
X124410000Y-134770000D02*
X124410000Y-136230000D01*
X125760000Y-134770000D02*
X124000000Y-134770000D01*
X125760000Y-134900000D02*
X125760000Y-134770000D01*
X125760000Y-136230000D02*
X124000000Y-136230000D01*
X125760000Y-136230000D02*
X125760000Y-136100000D01*
D11*
X66405000Y-123699000D02*
X66405000Y-122899000D01*
X66715000Y-122589000D02*
X67515000Y-122589000D01*
X66715000Y-124009000D02*
X67515000Y-124009000D01*
X68875000Y-122589000D02*
X68075000Y-122589000D01*
X68875000Y-124009000D02*
X68075000Y-124009000D01*
X69185000Y-122899000D02*
X69185000Y-123699000D01*
X66405000Y-122899000D02*
G75*
G02*
X66715000Y-122589000I310000J0D01*
G01*
X66715000Y-124009000D02*
G75*
G02*
X66405000Y-123699000I0J310000D01*
G01*
X68875000Y-122589000D02*
G75*
G02*
X69185000Y-122899000I0J-310000D01*
G01*
X69185000Y-123699000D02*
G75*
G02*
X68875000Y-124009000I-310000J0D01*
G01*
X85005000Y-123699000D02*
X85005000Y-122899000D01*
X85315000Y-122589000D02*
X86115000Y-122589000D01*
X85315000Y-124009000D02*
X86115000Y-124009000D01*
X87475000Y-122589000D02*
X86675000Y-122589000D01*
X87475000Y-124009000D02*
X86675000Y-124009000D01*
X87785000Y-122899000D02*
X87785000Y-123699000D01*
X85005000Y-122899000D02*
G75*
G02*
X85315000Y-122589000I310000J0D01*
G01*
X85315000Y-124009000D02*
G75*
G02*
X85005000Y-123699000I0J310000D01*
G01*
X87475000Y-122589000D02*
G75*
G02*
X87785000Y-122899000I0J-310000D01*
G01*
X87785000Y-123699000D02*
G75*
G02*
X87475000Y-124009000I-310000J0D01*
G01*
X102800000Y-124050000D02*
G75*
G02*
X102600000Y-124050000I-100000J0D01*
G01*
X102600000Y-124050000D02*
G75*
G02*
X102800000Y-124050000I100000J0D01*
G01*
D10*
X61460000Y-56040000D02*
X62420000Y-56040000D01*
X61460000Y-57360000D02*
X61460000Y-56040000D01*
X62420000Y-57360000D02*
X61460000Y-57360000D01*
X63280000Y-57360000D02*
X64240000Y-57360000D01*
X64240000Y-56040000D02*
X63280000Y-56040000D01*
X64240000Y-57360000D02*
X64240000Y-56040000D01*
D11*
X84200000Y-88850000D02*
G75*
G02*
X84000000Y-88850000I-100000J0D01*
G01*
X84000000Y-88850000D02*
G75*
G02*
X84200000Y-88850000I100000J0D01*
G01*
X52205000Y-51599000D02*
X52205000Y-50799000D01*
X52515000Y-50489000D02*
X53315000Y-50489000D01*
X52515000Y-51909000D02*
X53315000Y-51909000D01*
X54675000Y-50489000D02*
X53875000Y-50489000D01*
X54675000Y-51909000D02*
X53875000Y-51909000D01*
X54985000Y-50799000D02*
X54985000Y-51599000D01*
X52205000Y-50799000D02*
G75*
G02*
X52515000Y-50489000I310000J0D01*
G01*
X52515000Y-51909000D02*
G75*
G02*
X52205000Y-51599000I0J310000D01*
G01*
X54675000Y-50489000D02*
G75*
G02*
X54985000Y-50799000I0J-310000D01*
G01*
X54985000Y-51599000D02*
G75*
G02*
X54675000Y-51909000I-310000J0D01*
G01*
D12*
X102620000Y-62860000D02*
X102620000Y-68140000D01*
X102620000Y-68140000D02*
X106980000Y-68140000D01*
X106980000Y-62860000D02*
X102620000Y-62860000D01*
X106980000Y-68140000D02*
X106980000Y-62860000D01*
D13*
X101420000Y-68170000D02*
G75*
G02*
X101120000Y-68170000I-150000J0D01*
G01*
X101120000Y-68170000D02*
G75*
G02*
X101420000Y-68170000I150000J0D01*
G01*
X103530000Y-67410000D02*
G75*
G02*
X103230000Y-67410000I-150000J0D01*
G01*
X103230000Y-67410000D02*
G75*
G02*
X103530000Y-67410000I150000J0D01*
G01*
D10*
X106995000Y-152909000D02*
X106995000Y-154669000D01*
X106995000Y-154259000D02*
X108455000Y-154259000D01*
X107125000Y-152909000D02*
X106995000Y-152909000D01*
X108455000Y-152909000D02*
X108325000Y-152909000D01*
X108455000Y-152909000D02*
X108455000Y-154669000D01*
D11*
X102800000Y-141650000D02*
G75*
G02*
X102600000Y-141650000I-100000J0D01*
G01*
X102600000Y-141650000D02*
G75*
G02*
X102800000Y-141650000I100000J0D01*
G01*
D10*
X80010000Y-63940000D02*
X80010000Y-65260000D01*
X80010000Y-65260000D02*
X80970000Y-65260000D01*
X80970000Y-63940000D02*
X80010000Y-63940000D01*
X81830000Y-63940000D02*
X82790000Y-63940000D01*
X82790000Y-63940000D02*
X82790000Y-65260000D01*
X82790000Y-65260000D02*
X81830000Y-65260000D01*
X93140000Y-72310000D02*
X94460000Y-72310000D01*
X93140000Y-73270000D02*
X93140000Y-72310000D01*
X93140000Y-74130000D02*
X93140000Y-75090000D01*
X93140000Y-75090000D02*
X94460000Y-75090000D01*
X94460000Y-72310000D02*
X94460000Y-73270000D01*
X94460000Y-75090000D02*
X94460000Y-74130000D01*
X120160000Y-54940000D02*
X121120000Y-54940000D01*
X120160000Y-56260000D02*
X120160000Y-54940000D01*
X121120000Y-56260000D02*
X120160000Y-56260000D01*
X121980000Y-56260000D02*
X122940000Y-56260000D01*
X122940000Y-54940000D02*
X121980000Y-54940000D01*
X122940000Y-56260000D02*
X122940000Y-54940000D01*
D11*
X103605000Y-141299000D02*
X103605000Y-140499000D01*
X103915000Y-140189000D02*
X104715000Y-140189000D01*
X103915000Y-141609000D02*
X104715000Y-141609000D01*
X106075000Y-140189000D02*
X105275000Y-140189000D01*
X106075000Y-141609000D02*
X105275000Y-141609000D01*
X106385000Y-140499000D02*
X106385000Y-141299000D01*
X103605000Y-140499000D02*
G75*
G02*
X103915000Y-140189000I310000J0D01*
G01*
X103915000Y-141609000D02*
G75*
G02*
X103605000Y-141299000I0J310000D01*
G01*
X106075000Y-140189000D02*
G75*
G02*
X106385000Y-140499000I0J-310000D01*
G01*
X106385000Y-141299000D02*
G75*
G02*
X106075000Y-141609000I-310000J0D01*
G01*
X122205000Y-88499000D02*
X122205000Y-87699000D01*
X122515000Y-87389000D02*
X123315000Y-87389000D01*
X122515000Y-88809000D02*
X123315000Y-88809000D01*
X124675000Y-87389000D02*
X123875000Y-87389000D01*
X124675000Y-88809000D02*
X123875000Y-88809000D01*
X124985000Y-87699000D02*
X124985000Y-88499000D01*
X122205000Y-87699000D02*
G75*
G02*
X122515000Y-87389000I310000J0D01*
G01*
X122515000Y-88809000D02*
G75*
G02*
X122205000Y-88499000I0J310000D01*
G01*
X124675000Y-87389000D02*
G75*
G02*
X124985000Y-87699000I0J-310000D01*
G01*
X124985000Y-88499000D02*
G75*
G02*
X124675000Y-88809000I-310000J0D01*
G01*
D10*
X104695000Y-42151000D02*
X104695000Y-41141000D01*
X104715000Y-42157000D02*
X105565000Y-42157000D01*
X104895000Y-41149000D02*
X104895000Y-42149000D01*
X105565000Y-41141000D02*
X104715000Y-41141000D01*
D14*
X105885000Y-41399000D02*
X105885000Y-41899000D01*
D10*
X106215000Y-41145000D02*
X107065000Y-41145000D01*
X106215000Y-42157000D02*
X107065000Y-42157000D01*
X106895000Y-42157000D02*
X106895000Y-41141000D01*
X107095000Y-41143000D02*
X107095000Y-42155000D01*
D11*
X103605000Y-158899000D02*
X103605000Y-158099000D01*
X103915000Y-157789000D02*
X104715000Y-157789000D01*
X103915000Y-159209000D02*
X104715000Y-159209000D01*
X106075000Y-157789000D02*
X105275000Y-157789000D01*
X106075000Y-159209000D02*
X105275000Y-159209000D01*
X106385000Y-158099000D02*
X106385000Y-158899000D01*
X103605000Y-158099000D02*
G75*
G02*
X103915000Y-157789000I310000J0D01*
G01*
X103915000Y-159209000D02*
G75*
G02*
X103605000Y-158899000I0J310000D01*
G01*
X106075000Y-157789000D02*
G75*
G02*
X106385000Y-158099000I0J-310000D01*
G01*
X106385000Y-158899000D02*
G75*
G02*
X106075000Y-159209000I-310000J0D01*
G01*
X85005000Y-141299000D02*
X85005000Y-140499000D01*
X85315000Y-140189000D02*
X86115000Y-140189000D01*
X85315000Y-141609000D02*
X86115000Y-141609000D01*
X87475000Y-140189000D02*
X86675000Y-140189000D01*
X87475000Y-141609000D02*
X86675000Y-141609000D01*
X87785000Y-140499000D02*
X87785000Y-141299000D01*
X85005000Y-140499000D02*
G75*
G02*
X85315000Y-140189000I310000J0D01*
G01*
X85315000Y-141609000D02*
G75*
G02*
X85005000Y-141299000I0J310000D01*
G01*
X87475000Y-140189000D02*
G75*
G02*
X87785000Y-140499000I0J-310000D01*
G01*
X87785000Y-141299000D02*
G75*
G02*
X87475000Y-141609000I-310000J0D01*
G01*
X65600000Y-159250000D02*
G75*
G02*
X65400000Y-159250000I-100000J0D01*
G01*
X65400000Y-159250000D02*
G75*
G02*
X65600000Y-159250000I100000J0D01*
G01*
X102725000Y-37019000D02*
X102725000Y-35619000D01*
X111795000Y-37019000D02*
X111795000Y-35619000D01*
D10*
X116890000Y-71770000D02*
X116890000Y-73230000D01*
X118240000Y-71770000D02*
X116480000Y-71770000D01*
X118240000Y-71900000D02*
X118240000Y-71770000D01*
X118240000Y-73230000D02*
X116480000Y-73230000D01*
X118240000Y-73230000D02*
X118240000Y-73100000D01*
D11*
X76510000Y-60500000D02*
X76510000Y-59700000D01*
X76820000Y-59390000D02*
X77620000Y-59390000D01*
X76820000Y-60810000D02*
X77620000Y-60810000D01*
X78980000Y-59390000D02*
X78180000Y-59390000D01*
X78980000Y-60810000D02*
X78180000Y-60810000D01*
X79290000Y-59700000D02*
X79290000Y-60500000D01*
X76510000Y-59700000D02*
G75*
G02*
X76820000Y-59390000I310000J0D01*
G01*
X76820000Y-60810000D02*
G75*
G02*
X76510000Y-60500000I0J310000D01*
G01*
X78980000Y-59390000D02*
G75*
G02*
X79290000Y-59700000I0J-310000D01*
G01*
X79290000Y-60500000D02*
G75*
G02*
X78980000Y-60810000I-310000J0D01*
G01*
X88490000Y-68920000D02*
X88490000Y-69720000D01*
X88490000Y-71080000D02*
X88490000Y-70280000D01*
X88800000Y-68610000D02*
X89600000Y-68610000D01*
X89600000Y-71390000D02*
X88800000Y-71390000D01*
X89910000Y-68920000D02*
X89910000Y-69720000D01*
X89910000Y-71080000D02*
X89910000Y-70280000D01*
X88490000Y-68920000D02*
G75*
G02*
X88800000Y-68610000I310000J0D01*
G01*
X88800000Y-71390000D02*
G75*
G02*
X88490000Y-71080000I0J310000D01*
G01*
X89600000Y-68610000D02*
G75*
G02*
X89910000Y-68920000I0J-310000D01*
G01*
X89910000Y-71080000D02*
G75*
G02*
X89600000Y-71390000I-310000J0D01*
G01*
D10*
X109935000Y-42359000D02*
X109935000Y-43319000D01*
X109935000Y-45139000D02*
X109935000Y-44179000D01*
X111255000Y-42359000D02*
X109935000Y-42359000D01*
X111255000Y-43319000D02*
X111255000Y-42359000D01*
X111255000Y-44179000D02*
X111255000Y-45139000D01*
X111255000Y-45139000D02*
X109935000Y-45139000D01*
D11*
X121400000Y-88850000D02*
G75*
G02*
X121200000Y-88850000I-100000J0D01*
G01*
X121200000Y-88850000D02*
G75*
G02*
X121400000Y-88850000I100000J0D01*
G01*
D10*
X109710000Y-75940000D02*
X110670000Y-75940000D01*
X109710000Y-77260000D02*
X109710000Y-75940000D01*
X110670000Y-77260000D02*
X109710000Y-77260000D01*
X111530000Y-77260000D02*
X112490000Y-77260000D01*
X112490000Y-75940000D02*
X111530000Y-75940000D01*
X112490000Y-77260000D02*
X112490000Y-75940000D01*
D11*
X97490000Y-52920000D02*
X97490000Y-53720000D01*
X97490000Y-55080000D02*
X97490000Y-54280000D01*
X97800000Y-52610000D02*
X98600000Y-52610000D01*
X98600000Y-55390000D02*
X97800000Y-55390000D01*
X98910000Y-52920000D02*
X98910000Y-53720000D01*
X98910000Y-55080000D02*
X98910000Y-54280000D01*
X97490000Y-52920000D02*
G75*
G02*
X97800000Y-52610000I310000J0D01*
G01*
X97800000Y-55390000D02*
G75*
G02*
X97490000Y-55080000I0J310000D01*
G01*
X98600000Y-52610000D02*
G75*
G02*
X98910000Y-52920000I0J-310000D01*
G01*
X98910000Y-55080000D02*
G75*
G02*
X98600000Y-55390000I-310000J0D01*
G01*
D10*
X76510000Y-60940000D02*
X76510000Y-62260000D01*
X76510000Y-62260000D02*
X77470000Y-62260000D01*
X77470000Y-60940000D02*
X76510000Y-60940000D01*
X78330000Y-60940000D02*
X79290000Y-60940000D01*
X79290000Y-60940000D02*
X79290000Y-62260000D01*
X79290000Y-62260000D02*
X78330000Y-62260000D01*
X103235000Y-42359000D02*
X104555000Y-42359000D01*
X103235000Y-43319000D02*
X103235000Y-42359000D01*
X103235000Y-44179000D02*
X103235000Y-45139000D01*
X103235000Y-45139000D02*
X104555000Y-45139000D01*
X104555000Y-42359000D02*
X104555000Y-43319000D01*
X104555000Y-45139000D02*
X104555000Y-44179000D01*
X106995000Y-82509000D02*
X106995000Y-84269000D01*
X106995000Y-83859000D02*
X108455000Y-83859000D01*
X107125000Y-82509000D02*
X106995000Y-82509000D01*
X108455000Y-82509000D02*
X108325000Y-82509000D01*
X108455000Y-82509000D02*
X108455000Y-84269000D01*
X61460000Y-57540000D02*
X61460000Y-58860000D01*
X61460000Y-58860000D02*
X62420000Y-58860000D01*
X62420000Y-57540000D02*
X61460000Y-57540000D01*
X63280000Y-57540000D02*
X64240000Y-57540000D01*
X64240000Y-57540000D02*
X64240000Y-58860000D01*
X64240000Y-58860000D02*
X63280000Y-58860000D01*
D11*
X85005000Y-158899000D02*
X85005000Y-158099000D01*
X85315000Y-157789000D02*
X86115000Y-157789000D01*
X85315000Y-159209000D02*
X86115000Y-159209000D01*
X87475000Y-157789000D02*
X86675000Y-157789000D01*
X87475000Y-159209000D02*
X86675000Y-159209000D01*
X87785000Y-158099000D02*
X87785000Y-158899000D01*
X85005000Y-158099000D02*
G75*
G02*
X85315000Y-157789000I310000J0D01*
G01*
X85315000Y-159209000D02*
G75*
G02*
X85005000Y-158899000I0J310000D01*
G01*
X87475000Y-157789000D02*
G75*
G02*
X87785000Y-158099000I0J-310000D01*
G01*
X87785000Y-158899000D02*
G75*
G02*
X87475000Y-159209000I-310000J0D01*
G01*
D10*
X88395000Y-152909000D02*
X88395000Y-154669000D01*
X88395000Y-154259000D02*
X89855000Y-154259000D01*
X88525000Y-152909000D02*
X88395000Y-152909000D01*
X89855000Y-152909000D02*
X89725000Y-152909000D01*
X89855000Y-152909000D02*
X89855000Y-154669000D01*
X72740000Y-44610000D02*
X74060000Y-44610000D01*
X72740000Y-45570000D02*
X72740000Y-44610000D01*
X72740000Y-46430000D02*
X72740000Y-47390000D01*
X72740000Y-47390000D02*
X74060000Y-47390000D01*
X74060000Y-44610000D02*
X74060000Y-45570000D01*
X74060000Y-47390000D02*
X74060000Y-46430000D01*
D11*
X121400000Y-115250000D02*
G75*
G02*
X121200000Y-115250000I-100000J0D01*
G01*
X121200000Y-115250000D02*
G75*
G02*
X121400000Y-115250000I100000J0D01*
G01*
D10*
X107095000Y-99909000D02*
X107095000Y-101669000D01*
X107095000Y-101259000D02*
X108555000Y-101259000D01*
X107225000Y-99909000D02*
X107095000Y-99909000D01*
X108555000Y-99909000D02*
X108425000Y-99909000D01*
X108555000Y-99909000D02*
X108555000Y-101669000D01*
X66890000Y-67870000D02*
X66890000Y-68000000D01*
X66890000Y-67870000D02*
X68650000Y-67870000D01*
X66890000Y-69200000D02*
X66890000Y-69330000D01*
X66890000Y-69330000D02*
X68650000Y-69330000D01*
X68240000Y-69330000D02*
X68240000Y-67870000D01*
X75910000Y-55940000D02*
X75910000Y-57260000D01*
X75910000Y-57260000D02*
X76870000Y-57260000D01*
X76870000Y-55940000D02*
X75910000Y-55940000D01*
X77730000Y-55940000D02*
X78690000Y-55940000D01*
X78690000Y-55940000D02*
X78690000Y-57260000D01*
X78690000Y-57260000D02*
X77730000Y-57260000D01*
X69795000Y-100109000D02*
X69795000Y-101869000D01*
X69795000Y-101459000D02*
X71255000Y-101459000D01*
X69925000Y-100109000D02*
X69795000Y-100109000D01*
X71255000Y-100109000D02*
X71125000Y-100109000D01*
X71255000Y-100109000D02*
X71255000Y-101869000D01*
X83710000Y-73940000D02*
X83710000Y-75260000D01*
X83710000Y-75260000D02*
X84670000Y-75260000D01*
X84670000Y-73940000D02*
X83710000Y-73940000D01*
X85530000Y-73940000D02*
X86490000Y-73940000D01*
X86490000Y-73940000D02*
X86490000Y-75260000D01*
X86490000Y-75260000D02*
X85530000Y-75260000D01*
D11*
X57960000Y-60200000D02*
X57960000Y-59400000D01*
X58270000Y-59090000D02*
X59070000Y-59090000D01*
X58270000Y-60510000D02*
X59070000Y-60510000D01*
X60430000Y-59090000D02*
X59630000Y-59090000D01*
X60430000Y-60510000D02*
X59630000Y-60510000D01*
X60740000Y-59400000D02*
X60740000Y-60200000D01*
X57960000Y-59400000D02*
G75*
G02*
X58270000Y-59090000I310000J0D01*
G01*
X58270000Y-60510000D02*
G75*
G02*
X57960000Y-60200000I0J310000D01*
G01*
X60430000Y-59090000D02*
G75*
G02*
X60740000Y-59400000I0J-310000D01*
G01*
X60740000Y-60200000D02*
G75*
G02*
X60430000Y-60510000I-310000J0D01*
G01*
D10*
X116660000Y-54940000D02*
X116660000Y-56260000D01*
X116660000Y-56260000D02*
X117620000Y-56260000D01*
X117620000Y-54940000D02*
X116660000Y-54940000D01*
X118480000Y-54940000D02*
X119440000Y-54940000D01*
X119440000Y-54940000D02*
X119440000Y-56260000D01*
X119440000Y-56260000D02*
X118480000Y-56260000D01*
D11*
X65600000Y-88850000D02*
G75*
G02*
X65400000Y-88850000I-100000J0D01*
G01*
X65400000Y-88850000D02*
G75*
G02*
X65600000Y-88850000I100000J0D01*
G01*
X99405000Y-59869000D02*
X99405000Y-59069000D01*
X99715000Y-58759000D02*
X100515000Y-58759000D01*
X99715000Y-60179000D02*
X100515000Y-60179000D01*
X101875000Y-58759000D02*
X101075000Y-58759000D01*
X101875000Y-60179000D02*
X101075000Y-60179000D01*
X102185000Y-59069000D02*
X102185000Y-59869000D01*
X99405000Y-59069000D02*
G75*
G02*
X99715000Y-58759000I310000J0D01*
G01*
X99715000Y-60179000D02*
G75*
G02*
X99405000Y-59869000I0J310000D01*
G01*
X101875000Y-58759000D02*
G75*
G02*
X102185000Y-59069000I0J-310000D01*
G01*
X102185000Y-59869000D02*
G75*
G02*
X101875000Y-60179000I-310000J0D01*
G01*
D10*
X69795000Y-152909000D02*
X69795000Y-154669000D01*
X69795000Y-154259000D02*
X71255000Y-154259000D01*
X69925000Y-152909000D02*
X69795000Y-152909000D01*
X71255000Y-152909000D02*
X71125000Y-152909000D01*
X71255000Y-152909000D02*
X71255000Y-154669000D01*
X52155000Y-52039000D02*
X53115000Y-52039000D01*
X52155000Y-53359000D02*
X52155000Y-52039000D01*
X53115000Y-53359000D02*
X52155000Y-53359000D01*
X53975000Y-53359000D02*
X54935000Y-53359000D01*
X54935000Y-52039000D02*
X53975000Y-52039000D01*
X54935000Y-53359000D02*
X54935000Y-52039000D01*
D11*
X85005000Y-106099000D02*
X85005000Y-105299000D01*
X85315000Y-104989000D02*
X86115000Y-104989000D01*
X85315000Y-106409000D02*
X86115000Y-106409000D01*
X87475000Y-104989000D02*
X86675000Y-104989000D01*
X87475000Y-106409000D02*
X86675000Y-106409000D01*
X87785000Y-105299000D02*
X87785000Y-106099000D01*
X85005000Y-105299000D02*
G75*
G02*
X85315000Y-104989000I310000J0D01*
G01*
X85315000Y-106409000D02*
G75*
G02*
X85005000Y-106099000I0J310000D01*
G01*
X87475000Y-104989000D02*
G75*
G02*
X87785000Y-105299000I0J-310000D01*
G01*
X87785000Y-106099000D02*
G75*
G02*
X87475000Y-106409000I-310000J0D01*
G01*
X103605000Y-88499000D02*
X103605000Y-87699000D01*
X103915000Y-87389000D02*
X104715000Y-87389000D01*
X103915000Y-88809000D02*
X104715000Y-88809000D01*
X106075000Y-87389000D02*
X105275000Y-87389000D01*
X106075000Y-88809000D02*
X105275000Y-88809000D01*
X106385000Y-87699000D02*
X106385000Y-88499000D01*
X103605000Y-87699000D02*
G75*
G02*
X103915000Y-87389000I310000J0D01*
G01*
X103915000Y-88809000D02*
G75*
G02*
X103605000Y-88499000I0J310000D01*
G01*
X106075000Y-87389000D02*
G75*
G02*
X106385000Y-87699000I0J-310000D01*
G01*
X106385000Y-88499000D02*
G75*
G02*
X106075000Y-88809000I-310000J0D01*
G01*
D10*
X88395000Y-100109000D02*
X88395000Y-101869000D01*
X88395000Y-101459000D02*
X89855000Y-101459000D01*
X88525000Y-100109000D02*
X88395000Y-100109000D01*
X89855000Y-100109000D02*
X89725000Y-100109000D01*
X89855000Y-100109000D02*
X89855000Y-101869000D01*
D11*
X45915000Y-74439000D02*
X45915000Y-75239000D01*
X45915000Y-76599000D02*
X45915000Y-75799000D01*
X46225000Y-74129000D02*
X47025000Y-74129000D01*
X47025000Y-76909000D02*
X46225000Y-76909000D01*
X47335000Y-74439000D02*
X47335000Y-75239000D01*
X47335000Y-76599000D02*
X47335000Y-75799000D01*
X45915000Y-74439000D02*
G75*
G02*
X46225000Y-74129000I310000J0D01*
G01*
X46225000Y-76909000D02*
G75*
G02*
X45915000Y-76599000I0J310000D01*
G01*
X47025000Y-74129000D02*
G75*
G02*
X47335000Y-74439000I0J-310000D01*
G01*
X47335000Y-76599000D02*
G75*
G02*
X47025000Y-76909000I-310000J0D01*
G01*
X99405000Y-61269000D02*
X99405000Y-60469000D01*
X99715000Y-60159000D02*
X100515000Y-60159000D01*
X99715000Y-61579000D02*
X100515000Y-61579000D01*
X101875000Y-60159000D02*
X101075000Y-60159000D01*
X101875000Y-61579000D02*
X101075000Y-61579000D01*
X102185000Y-60469000D02*
X102185000Y-61269000D01*
X99405000Y-60469000D02*
G75*
G02*
X99715000Y-60159000I310000J0D01*
G01*
X99715000Y-61579000D02*
G75*
G02*
X99405000Y-61269000I0J310000D01*
G01*
X101875000Y-60159000D02*
G75*
G02*
X102185000Y-60469000I0J-310000D01*
G01*
X102185000Y-61269000D02*
G75*
G02*
X101875000Y-61579000I-310000J0D01*
G01*
D10*
X88395000Y-117709000D02*
X88395000Y-119469000D01*
X88395000Y-119059000D02*
X89855000Y-119059000D01*
X88525000Y-117709000D02*
X88395000Y-117709000D01*
X89855000Y-117709000D02*
X89725000Y-117709000D01*
X89855000Y-117709000D02*
X89855000Y-119469000D01*
D11*
X67410000Y-54400000D02*
X67410000Y-53600000D01*
X67720000Y-53290000D02*
X68520000Y-53290000D01*
X67720000Y-54710000D02*
X68520000Y-54710000D01*
X69880000Y-53290000D02*
X69080000Y-53290000D01*
X69880000Y-54710000D02*
X69080000Y-54710000D01*
X70190000Y-53600000D02*
X70190000Y-54400000D01*
X67410000Y-53600000D02*
G75*
G02*
X67720000Y-53290000I310000J0D01*
G01*
X67720000Y-54710000D02*
G75*
G02*
X67410000Y-54400000I0J310000D01*
G01*
X69880000Y-53290000D02*
G75*
G02*
X70190000Y-53600000I0J-310000D01*
G01*
X70190000Y-54400000D02*
G75*
G02*
X69880000Y-54710000I-310000J0D01*
G01*
X116710000Y-59250000D02*
X116710000Y-58450000D01*
X117020000Y-58140000D02*
X117820000Y-58140000D01*
X117020000Y-59560000D02*
X117820000Y-59560000D01*
X119180000Y-58140000D02*
X118380000Y-58140000D01*
X119180000Y-59560000D02*
X118380000Y-59560000D01*
X119490000Y-58450000D02*
X119490000Y-59250000D01*
X116710000Y-58450000D02*
G75*
G02*
X117020000Y-58140000I310000J0D01*
G01*
X117020000Y-59560000D02*
G75*
G02*
X116710000Y-59250000I0J310000D01*
G01*
X119180000Y-58140000D02*
G75*
G02*
X119490000Y-58450000I0J-310000D01*
G01*
X119490000Y-59250000D02*
G75*
G02*
X119180000Y-59560000I-310000J0D01*
G01*
D10*
X106995000Y-117709000D02*
X106995000Y-119469000D01*
X106995000Y-119059000D02*
X108455000Y-119059000D01*
X107125000Y-117709000D02*
X106995000Y-117709000D01*
X108455000Y-117709000D02*
X108325000Y-117709000D01*
X108455000Y-117709000D02*
X108455000Y-119469000D01*
D11*
X81110000Y-60400000D02*
X81110000Y-59600000D01*
X81420000Y-59290000D02*
X82220000Y-59290000D01*
X81420000Y-60710000D02*
X82220000Y-60710000D01*
X83580000Y-59290000D02*
X82780000Y-59290000D01*
X83580000Y-60710000D02*
X82780000Y-60710000D01*
X83890000Y-59600000D02*
X83890000Y-60400000D01*
X81110000Y-59600000D02*
G75*
G02*
X81420000Y-59290000I310000J0D01*
G01*
X81420000Y-60710000D02*
G75*
G02*
X81110000Y-60400000I0J310000D01*
G01*
X83580000Y-59290000D02*
G75*
G02*
X83890000Y-59600000I0J-310000D01*
G01*
X83890000Y-60400000D02*
G75*
G02*
X83580000Y-60710000I-310000J0D01*
G01*
D10*
X69795000Y-117709000D02*
X69795000Y-119469000D01*
X69795000Y-119059000D02*
X71255000Y-119059000D01*
X69925000Y-117709000D02*
X69795000Y-117709000D01*
X71255000Y-117709000D02*
X71125000Y-117709000D01*
X71255000Y-117709000D02*
X71255000Y-119469000D01*
X57960000Y-57540000D02*
X58920000Y-57540000D01*
X57960000Y-58860000D02*
X57960000Y-57540000D01*
X58920000Y-58860000D02*
X57960000Y-58860000D01*
X59780000Y-58860000D02*
X60740000Y-58860000D01*
X60740000Y-57540000D02*
X59780000Y-57540000D01*
X60740000Y-58860000D02*
X60740000Y-57540000D01*
X49335000Y-71659000D02*
X49335000Y-72979000D01*
X49335000Y-72979000D02*
X50295000Y-72979000D01*
X50295000Y-71659000D02*
X49335000Y-71659000D01*
X51155000Y-71659000D02*
X52115000Y-71659000D01*
X52115000Y-71659000D02*
X52115000Y-72979000D01*
X52115000Y-72979000D02*
X51155000Y-72979000D01*
D11*
X66405000Y-88499000D02*
X66405000Y-87699000D01*
X66715000Y-87389000D02*
X67515000Y-87389000D01*
X66715000Y-88809000D02*
X67515000Y-88809000D01*
X68875000Y-87389000D02*
X68075000Y-87389000D01*
X68875000Y-88809000D02*
X68075000Y-88809000D01*
X69185000Y-87699000D02*
X69185000Y-88499000D01*
X66405000Y-87699000D02*
G75*
G02*
X66715000Y-87389000I310000J0D01*
G01*
X66715000Y-88809000D02*
G75*
G02*
X66405000Y-88499000I0J310000D01*
G01*
X68875000Y-87389000D02*
G75*
G02*
X69185000Y-87699000I0J-310000D01*
G01*
X69185000Y-88499000D02*
G75*
G02*
X68875000Y-88809000I-310000J0D01*
G01*
X96090000Y-52920000D02*
X96090000Y-53720000D01*
X96090000Y-55080000D02*
X96090000Y-54280000D01*
X96400000Y-52610000D02*
X97200000Y-52610000D01*
X97200000Y-55390000D02*
X96400000Y-55390000D01*
X97510000Y-52920000D02*
X97510000Y-53720000D01*
X97510000Y-55080000D02*
X97510000Y-54280000D01*
X96090000Y-52920000D02*
G75*
G02*
X96400000Y-52610000I310000J0D01*
G01*
X96400000Y-55390000D02*
G75*
G02*
X96090000Y-55080000I0J310000D01*
G01*
X97200000Y-52610000D02*
G75*
G02*
X97510000Y-52920000I0J-310000D01*
G01*
X97510000Y-55080000D02*
G75*
G02*
X97200000Y-55390000I-310000J0D01*
G01*
D10*
X69795000Y-82509000D02*
X69795000Y-84269000D01*
X69795000Y-83859000D02*
X71255000Y-83859000D01*
X69925000Y-82509000D02*
X69795000Y-82509000D01*
X71255000Y-82509000D02*
X71125000Y-82509000D01*
X71255000Y-82509000D02*
X71255000Y-84269000D01*
D11*
X86990000Y-68920000D02*
X86990000Y-69720000D01*
X86990000Y-71080000D02*
X86990000Y-70280000D01*
X87300000Y-68610000D02*
X88100000Y-68610000D01*
X88100000Y-71390000D02*
X87300000Y-71390000D01*
X88410000Y-68920000D02*
X88410000Y-69720000D01*
X88410000Y-71080000D02*
X88410000Y-70280000D01*
X86990000Y-68920000D02*
G75*
G02*
X87300000Y-68610000I310000J0D01*
G01*
X87300000Y-71390000D02*
G75*
G02*
X86990000Y-71080000I0J310000D01*
G01*
X88100000Y-68610000D02*
G75*
G02*
X88410000Y-68920000I0J-310000D01*
G01*
X88410000Y-71080000D02*
G75*
G02*
X88100000Y-71390000I-310000J0D01*
G01*
X66405000Y-158899000D02*
X66405000Y-158099000D01*
X66715000Y-157789000D02*
X67515000Y-157789000D01*
X66715000Y-159209000D02*
X67515000Y-159209000D01*
X68875000Y-157789000D02*
X68075000Y-157789000D01*
X68875000Y-159209000D02*
X68075000Y-159209000D01*
X69185000Y-158099000D02*
X69185000Y-158899000D01*
X66405000Y-158099000D02*
G75*
G02*
X66715000Y-157789000I310000J0D01*
G01*
X66715000Y-159209000D02*
G75*
G02*
X66405000Y-158899000I0J310000D01*
G01*
X68875000Y-157789000D02*
G75*
G02*
X69185000Y-158099000I0J-310000D01*
G01*
X69185000Y-158899000D02*
G75*
G02*
X68875000Y-159209000I-310000J0D01*
G01*
D10*
X76940000Y-44610000D02*
X78260000Y-44610000D01*
X76940000Y-45570000D02*
X76940000Y-44610000D01*
X76940000Y-46430000D02*
X76940000Y-47390000D01*
X76940000Y-47390000D02*
X78260000Y-47390000D01*
X78260000Y-44610000D02*
X78260000Y-45570000D01*
X78260000Y-47390000D02*
X78260000Y-46430000D01*
D11*
X65600000Y-106450000D02*
G75*
G02*
X65400000Y-106450000I-100000J0D01*
G01*
X65400000Y-106450000D02*
G75*
G02*
X65600000Y-106450000I100000J0D01*
G01*
X85405000Y-88599000D02*
X85405000Y-87799000D01*
X85715000Y-87489000D02*
X86515000Y-87489000D01*
X85715000Y-88909000D02*
X86515000Y-88909000D01*
X87875000Y-87489000D02*
X87075000Y-87489000D01*
X87875000Y-88909000D02*
X87075000Y-88909000D01*
X88185000Y-87799000D02*
X88185000Y-88599000D01*
X85405000Y-87799000D02*
G75*
G02*
X85715000Y-87489000I310000J0D01*
G01*
X85715000Y-88909000D02*
G75*
G02*
X85405000Y-88599000I0J310000D01*
G01*
X87875000Y-87489000D02*
G75*
G02*
X88185000Y-87799000I0J-310000D01*
G01*
X88185000Y-88599000D02*
G75*
G02*
X87875000Y-88909000I-310000J0D01*
G01*
X61460000Y-60200000D02*
X61460000Y-59400000D01*
X61770000Y-59090000D02*
X62570000Y-59090000D01*
X61770000Y-60510000D02*
X62570000Y-60510000D01*
X63930000Y-59090000D02*
X63130000Y-59090000D01*
X63930000Y-60510000D02*
X63130000Y-60510000D01*
X64240000Y-59400000D02*
X64240000Y-60200000D01*
X61460000Y-59400000D02*
G75*
G02*
X61770000Y-59090000I310000J0D01*
G01*
X61770000Y-60510000D02*
G75*
G02*
X61460000Y-60200000I0J310000D01*
G01*
X63930000Y-59090000D02*
G75*
G02*
X64240000Y-59400000I0J-310000D01*
G01*
X64240000Y-60200000D02*
G75*
G02*
X63930000Y-60510000I-310000J0D01*
G01*
X84200000Y-124050000D02*
G75*
G02*
X84000000Y-124050000I-100000J0D01*
G01*
X84000000Y-124050000D02*
G75*
G02*
X84200000Y-124050000I100000J0D01*
G01*
X81110000Y-61900000D02*
X81110000Y-61100000D01*
X81420000Y-60790000D02*
X82220000Y-60790000D01*
X81420000Y-62210000D02*
X82220000Y-62210000D01*
X83580000Y-60790000D02*
X82780000Y-60790000D01*
X83580000Y-62210000D02*
X82780000Y-62210000D01*
X83890000Y-61100000D02*
X83890000Y-61900000D01*
X81110000Y-61100000D02*
G75*
G02*
X81420000Y-60790000I310000J0D01*
G01*
X81420000Y-62210000D02*
G75*
G02*
X81110000Y-61900000I0J310000D01*
G01*
X83580000Y-60790000D02*
G75*
G02*
X83890000Y-61100000I0J-310000D01*
G01*
X83890000Y-61900000D02*
G75*
G02*
X83580000Y-62210000I-310000J0D01*
G01*
X66405000Y-106099000D02*
X66405000Y-105299000D01*
X66715000Y-104989000D02*
X67515000Y-104989000D01*
X66715000Y-106409000D02*
X67515000Y-106409000D01*
X68875000Y-104989000D02*
X68075000Y-104989000D01*
X68875000Y-106409000D02*
X68075000Y-106409000D01*
X69185000Y-105299000D02*
X69185000Y-106099000D01*
X66405000Y-105299000D02*
G75*
G02*
X66715000Y-104989000I310000J0D01*
G01*
X66715000Y-106409000D02*
G75*
G02*
X66405000Y-106099000I0J310000D01*
G01*
X68875000Y-104989000D02*
G75*
G02*
X69185000Y-105299000I0J-310000D01*
G01*
X69185000Y-106099000D02*
G75*
G02*
X68875000Y-106409000I-310000J0D01*
G01*
X122205000Y-114899000D02*
X122205000Y-114099000D01*
X122515000Y-113789000D02*
X123315000Y-113789000D01*
X122515000Y-115209000D02*
X123315000Y-115209000D01*
X124675000Y-113789000D02*
X123875000Y-113789000D01*
X124675000Y-115209000D02*
X123875000Y-115209000D01*
X124985000Y-114099000D02*
X124985000Y-114899000D01*
X122205000Y-114099000D02*
G75*
G02*
X122515000Y-113789000I310000J0D01*
G01*
X122515000Y-115209000D02*
G75*
G02*
X122205000Y-114899000I0J310000D01*
G01*
X124675000Y-113789000D02*
G75*
G02*
X124985000Y-114099000I0J-310000D01*
G01*
X124985000Y-114899000D02*
G75*
G02*
X124675000Y-115209000I-310000J0D01*
G01*
X95310000Y-68400000D02*
X95310000Y-67600000D01*
X95620000Y-67290000D02*
X96420000Y-67290000D01*
X95620000Y-68710000D02*
X96420000Y-68710000D01*
X97780000Y-67290000D02*
X96980000Y-67290000D01*
X97780000Y-68710000D02*
X96980000Y-68710000D01*
X98090000Y-67600000D02*
X98090000Y-68400000D01*
X95310000Y-67600000D02*
G75*
G02*
X95620000Y-67290000I310000J0D01*
G01*
X95620000Y-68710000D02*
G75*
G02*
X95310000Y-68400000I0J310000D01*
G01*
X97780000Y-67290000D02*
G75*
G02*
X98090000Y-67600000I0J-310000D01*
G01*
X98090000Y-68400000D02*
G75*
G02*
X97780000Y-68710000I-310000J0D01*
G01*
D10*
X88351400Y-82509000D02*
X88351400Y-84269000D01*
X88351400Y-83859000D02*
X89811400Y-83859000D01*
X88481400Y-82509000D02*
X88351400Y-82509000D01*
X89811400Y-82509000D02*
X89681400Y-82509000D01*
X89811400Y-82509000D02*
X89811400Y-84269000D01*
X99410000Y-57409000D02*
X99410000Y-58729000D01*
X99410000Y-58729000D02*
X100370000Y-58729000D01*
X100370000Y-57409000D02*
X99410000Y-57409000D01*
X101230000Y-57409000D02*
X102190000Y-57409000D01*
X102190000Y-57409000D02*
X102190000Y-58729000D01*
X102190000Y-58729000D02*
X101230000Y-58729000D01*
X124410000Y-99520000D02*
X124410000Y-100980000D01*
X125760000Y-99520000D02*
X124000000Y-99520000D01*
X125760000Y-99650000D02*
X125760000Y-99520000D01*
X125760000Y-100980000D02*
X124000000Y-100980000D01*
X125760000Y-100980000D02*
X125760000Y-100850000D01*
D11*
X102800000Y-106450000D02*
G75*
G02*
X102600000Y-106450000I-100000J0D01*
G01*
X102600000Y-106450000D02*
G75*
G02*
X102800000Y-106450000I100000J0D01*
G01*
D10*
X113010000Y-68790000D02*
X113010000Y-70110000D01*
X113010000Y-70110000D02*
X113970000Y-70110000D01*
X113970000Y-68790000D02*
X113010000Y-68790000D01*
X114830000Y-68790000D02*
X115790000Y-68790000D01*
X115790000Y-68790000D02*
X115790000Y-70110000D01*
X115790000Y-70110000D02*
X114830000Y-70110000D01*
D11*
X91890000Y-52920000D02*
X91890000Y-53720000D01*
X91890000Y-55080000D02*
X91890000Y-54280000D01*
X92200000Y-52610000D02*
X93000000Y-52610000D01*
X93000000Y-55390000D02*
X92200000Y-55390000D01*
X93310000Y-52920000D02*
X93310000Y-53720000D01*
X93310000Y-55080000D02*
X93310000Y-54280000D01*
X91890000Y-52920000D02*
G75*
G02*
X92200000Y-52610000I310000J0D01*
G01*
X92200000Y-55390000D02*
G75*
G02*
X91890000Y-55080000I0J310000D01*
G01*
X93000000Y-52610000D02*
G75*
G02*
X93310000Y-52920000I0J-310000D01*
G01*
X93310000Y-55080000D02*
G75*
G02*
X93000000Y-55390000I-310000J0D01*
G01*
D10*
X106995000Y-135309000D02*
X106995000Y-137069000D01*
X106995000Y-136659000D02*
X108455000Y-136659000D01*
X107125000Y-135309000D02*
X106995000Y-135309000D01*
X108455000Y-135309000D02*
X108325000Y-135309000D01*
X108455000Y-135309000D02*
X108455000Y-137069000D01*
X52105000Y-53539000D02*
X53065000Y-53539000D01*
X52105000Y-54859000D02*
X52105000Y-53539000D01*
X53065000Y-54859000D02*
X52105000Y-54859000D01*
X53925000Y-54859000D02*
X54885000Y-54859000D01*
X54885000Y-53539000D02*
X53925000Y-53539000D01*
X54885000Y-54859000D02*
X54885000Y-53539000D01*
D11*
X120160000Y-59250000D02*
X120160000Y-58450000D01*
X120470000Y-58140000D02*
X121270000Y-58140000D01*
X120470000Y-59560000D02*
X121270000Y-59560000D01*
X122630000Y-58140000D02*
X121830000Y-58140000D01*
X122630000Y-59560000D02*
X121830000Y-59560000D01*
X122940000Y-58450000D02*
X122940000Y-59250000D01*
X120160000Y-58450000D02*
G75*
G02*
X120470000Y-58140000I310000J0D01*
G01*
X120470000Y-59560000D02*
G75*
G02*
X120160000Y-59250000I0J310000D01*
G01*
X122630000Y-58140000D02*
G75*
G02*
X122940000Y-58450000I0J-310000D01*
G01*
X122940000Y-59250000D02*
G75*
G02*
X122630000Y-59560000I-310000J0D01*
G01*
X126290000Y-54720000D02*
X126290000Y-55520000D01*
X126290000Y-56880000D02*
X126290000Y-56080000D01*
X126600000Y-54410000D02*
X127400000Y-54410000D01*
X127400000Y-57190000D02*
X126600000Y-57190000D01*
X127710000Y-54720000D02*
X127710000Y-55520000D01*
X127710000Y-56880000D02*
X127710000Y-56080000D01*
X126290000Y-54720000D02*
G75*
G02*
X126600000Y-54410000I310000J0D01*
G01*
X126600000Y-57190000D02*
G75*
G02*
X126290000Y-56880000I0J310000D01*
G01*
X127400000Y-54410000D02*
G75*
G02*
X127710000Y-54720000I0J-310000D01*
G01*
X127710000Y-56880000D02*
G75*
G02*
X127400000Y-57190000I-310000J0D01*
G01*
X46745000Y-59879000D02*
X46745000Y-57319000D01*
X47495000Y-57599000D02*
X48295000Y-56799000D01*
X47495000Y-59499000D02*
X47495000Y-57599000D01*
X47635000Y-56429000D02*
X46745000Y-57319000D01*
X47635000Y-60769000D02*
X46745000Y-59879000D01*
X48295000Y-56799000D02*
X50295000Y-56799000D01*
X48395000Y-60399000D02*
X47495000Y-59499000D01*
X50195000Y-60399000D02*
X48395000Y-60399000D01*
X50295000Y-56799000D02*
X51195000Y-57699000D01*
X50465000Y-56049000D02*
X48125000Y-56049000D01*
X50465000Y-61149000D02*
X48125000Y-61149000D01*
X51195000Y-57699000D02*
X51195000Y-59399000D01*
X51195000Y-59399000D02*
X50195000Y-60399000D01*
X51845000Y-57319000D02*
X50955000Y-56429000D01*
X51845000Y-59879000D02*
X50955000Y-60769000D01*
X51845000Y-59879000D02*
X51845000Y-57319000D01*
X50575000Y-58599000D02*
G75*
G02*
X48015000Y-58599000I-1280000J0D01*
G01*
X48015000Y-58599000D02*
G75*
G02*
X50575000Y-58599000I1280000J0D01*
G01*
X125050000Y-70130000D02*
X125050000Y-72470000D01*
X125430000Y-72960000D02*
X126320000Y-73850000D01*
X125800000Y-70300000D02*
X126700000Y-69400000D01*
X125800000Y-72300000D02*
X125800000Y-70300000D01*
X126320000Y-68750000D02*
X125430000Y-69640000D01*
X126600000Y-73100000D02*
X125800000Y-72300000D01*
X126700000Y-69400000D02*
X128400000Y-69400000D01*
X128400000Y-69400000D02*
X129400000Y-70400000D01*
X128500000Y-73100000D02*
X126600000Y-73100000D01*
X128880000Y-68750000D02*
X126320000Y-68750000D01*
X128880000Y-68750000D02*
X129770000Y-69640000D01*
X128880000Y-73850000D02*
X126320000Y-73850000D01*
X129400000Y-70400000D02*
X129400000Y-72200000D01*
X129400000Y-72200000D02*
X128500000Y-73100000D01*
X129770000Y-72960000D02*
X128880000Y-73850000D01*
X130150000Y-70130000D02*
X130150000Y-72470000D01*
X128880000Y-71300000D02*
G75*
G02*
X126320000Y-71300000I-1280000J0D01*
G01*
X126320000Y-71300000D02*
G75*
G02*
X128880000Y-71300000I1280000J0D01*
G01*
D10*
X60810000Y-72840000D02*
X60810000Y-74160000D01*
X60810000Y-74160000D02*
X61770000Y-74160000D01*
X61770000Y-72840000D02*
X60810000Y-72840000D01*
X62630000Y-72840000D02*
X63590000Y-72840000D01*
X63590000Y-72840000D02*
X63590000Y-74160000D01*
X63590000Y-74160000D02*
X62630000Y-74160000D01*
D11*
X104110000Y-69700000D02*
X104110000Y-68900000D01*
X104420000Y-68590000D02*
X105220000Y-68590000D01*
X104420000Y-70010000D02*
X105220000Y-70010000D01*
X106580000Y-68590000D02*
X105780000Y-68590000D01*
X106580000Y-70010000D02*
X105780000Y-70010000D01*
X106890000Y-68900000D02*
X106890000Y-69700000D01*
X104110000Y-68900000D02*
G75*
G02*
X104420000Y-68590000I310000J0D01*
G01*
X104420000Y-70010000D02*
G75*
G02*
X104110000Y-69700000I0J310000D01*
G01*
X106580000Y-68590000D02*
G75*
G02*
X106890000Y-68900000I0J-310000D01*
G01*
X106890000Y-69700000D02*
G75*
G02*
X106580000Y-70010000I-310000J0D01*
G01*
D10*
X69795000Y-135309000D02*
X69795000Y-137069000D01*
X69795000Y-136659000D02*
X71255000Y-136659000D01*
X69925000Y-135309000D02*
X69795000Y-135309000D01*
X71255000Y-135309000D02*
X71125000Y-135309000D01*
X71255000Y-135309000D02*
X71255000Y-137069000D01*
D11*
X65600000Y-124050000D02*
G75*
G02*
X65400000Y-124050000I-100000J0D01*
G01*
X65400000Y-124050000D02*
G75*
G02*
X65600000Y-124050000I100000J0D01*
G01*
X87600000Y-59700000D02*
X88170000Y-59700000D01*
X87600000Y-60270000D02*
X87600000Y-59700000D01*
X87600000Y-66600000D02*
X87600000Y-66130000D01*
X87600000Y-66700000D02*
X87600000Y-66600000D01*
X88170000Y-66700000D02*
X87600000Y-66700000D01*
X94030000Y-59700000D02*
X94600000Y-59700000D01*
X94240000Y-66700000D02*
X94500000Y-66440000D01*
X94500000Y-66440000D02*
X94600000Y-66440000D01*
X94600000Y-59700000D02*
X94600000Y-60270000D01*
X94600000Y-66130000D02*
X94030000Y-66700000D01*
X94600000Y-66130000D02*
X94600000Y-66700000D01*
X94600000Y-66700000D02*
X94030000Y-66700000D01*
X94930000Y-67200000D02*
G75*
G02*
X94670000Y-67200000I-130000J0D01*
G01*
X94670000Y-67200000D02*
G75*
G02*
X94930000Y-67200000I130000J0D01*
G01*
X84200000Y-141650000D02*
G75*
G02*
X84000000Y-141650000I-100000J0D01*
G01*
X84000000Y-141650000D02*
G75*
G02*
X84200000Y-141650000I100000J0D01*
G01*
X99405000Y-62669000D02*
X99405000Y-61869000D01*
X99715000Y-61559000D02*
X100515000Y-61559000D01*
X99715000Y-62979000D02*
X100515000Y-62979000D01*
X101875000Y-61559000D02*
X101075000Y-61559000D01*
X101875000Y-62979000D02*
X101075000Y-62979000D01*
X102185000Y-61869000D02*
X102185000Y-62669000D01*
X99405000Y-61869000D02*
G75*
G02*
X99715000Y-61559000I310000J0D01*
G01*
X99715000Y-62979000D02*
G75*
G02*
X99405000Y-62669000I0J310000D01*
G01*
X101875000Y-61559000D02*
G75*
G02*
X102185000Y-61869000I0J-310000D01*
G01*
X102185000Y-62669000D02*
G75*
G02*
X101875000Y-62979000I-310000J0D01*
G01*
D10*
X125620000Y-83090000D02*
X125620000Y-84850000D01*
X125620000Y-84440000D02*
X127080000Y-84440000D01*
X125750000Y-83090000D02*
X125620000Y-83090000D01*
X127080000Y-83090000D02*
X126950000Y-83090000D01*
X127080000Y-83090000D02*
X127080000Y-84850000D01*
X120160000Y-56440000D02*
X120160000Y-57760000D01*
X120160000Y-57760000D02*
X121120000Y-57760000D01*
X121120000Y-56440000D02*
X120160000Y-56440000D01*
X121980000Y-56440000D02*
X122940000Y-56440000D01*
X122940000Y-56440000D02*
X122940000Y-57760000D01*
X122940000Y-57760000D02*
X121980000Y-57760000D01*
X107395000Y-42155000D02*
X107395000Y-41143000D01*
X107595000Y-41141000D02*
X107595000Y-42157000D01*
X108275000Y-41141000D02*
X107425000Y-41141000D01*
X108275000Y-42153000D02*
X107425000Y-42153000D01*
D14*
X108605000Y-41899000D02*
X108605000Y-41399000D01*
D10*
X108925000Y-42157000D02*
X109775000Y-42157000D01*
X109595000Y-42149000D02*
X109595000Y-41149000D01*
X109775000Y-41141000D02*
X108925000Y-41141000D01*
X109795000Y-41147000D02*
X109795000Y-42157000D01*
D11*
X103605000Y-106099000D02*
X103605000Y-105299000D01*
X103915000Y-104989000D02*
X104715000Y-104989000D01*
X103915000Y-106409000D02*
X104715000Y-106409000D01*
X106075000Y-104989000D02*
X105275000Y-104989000D01*
X106075000Y-106409000D02*
X105275000Y-106409000D01*
X106385000Y-105299000D02*
X106385000Y-106099000D01*
X103605000Y-105299000D02*
G75*
G02*
X103915000Y-104989000I310000J0D01*
G01*
X103915000Y-106409000D02*
G75*
G02*
X103605000Y-106099000I0J310000D01*
G01*
X106075000Y-104989000D02*
G75*
G02*
X106385000Y-105299000I0J-310000D01*
G01*
X106385000Y-106099000D02*
G75*
G02*
X106075000Y-106409000I-310000J0D01*
G01*
D10*
X99410000Y-56109000D02*
X99410000Y-57429000D01*
X99410000Y-57429000D02*
X100370000Y-57429000D01*
X100370000Y-56109000D02*
X99410000Y-56109000D01*
X101230000Y-56109000D02*
X102190000Y-56109000D01*
X102190000Y-56109000D02*
X102190000Y-57429000D01*
X102190000Y-57429000D02*
X101230000Y-57429000D01*
D11*
X102800000Y-159250000D02*
G75*
G02*
X102600000Y-159250000I-100000J0D01*
G01*
X102600000Y-159250000D02*
G75*
G02*
X102800000Y-159250000I100000J0D01*
G01*
X121400000Y-150450000D02*
G75*
G02*
X121200000Y-150450000I-100000J0D01*
G01*
X121200000Y-150450000D02*
G75*
G02*
X121400000Y-150450000I100000J0D01*
G01*
D10*
X113010000Y-70290000D02*
X113970000Y-70290000D01*
X113010000Y-71610000D02*
X113010000Y-70290000D01*
X113970000Y-71610000D02*
X113010000Y-71610000D01*
X114830000Y-71610000D02*
X115790000Y-71610000D01*
X115790000Y-70290000D02*
X114830000Y-70290000D01*
X115790000Y-71610000D02*
X115790000Y-70290000D01*
D11*
X84200000Y-159250000D02*
G75*
G02*
X84000000Y-159250000I-100000J0D01*
G01*
X84000000Y-159250000D02*
G75*
G02*
X84200000Y-159250000I100000J0D01*
G01*
D10*
X75275000Y-65785000D02*
X75275000Y-67645000D01*
X75275000Y-67645000D02*
X76935000Y-67645000D01*
X75505000Y-63355000D02*
X78865000Y-63355000D01*
X75505000Y-67415000D02*
X75505000Y-63355000D01*
X78865000Y-63355000D02*
X78865000Y-67415000D01*
X78865000Y-67415000D02*
X75505000Y-67415000D01*
D11*
X84200000Y-106450000D02*
G75*
G02*
X84000000Y-106450000I-100000J0D01*
G01*
X84000000Y-106450000D02*
G75*
G02*
X84200000Y-106450000I100000J0D01*
G01*
X93290000Y-52920000D02*
X93290000Y-53720000D01*
X93290000Y-55080000D02*
X93290000Y-54280000D01*
X93600000Y-52610000D02*
X94400000Y-52610000D01*
X94400000Y-55390000D02*
X93600000Y-55390000D01*
X94710000Y-52920000D02*
X94710000Y-53720000D01*
X94710000Y-55080000D02*
X94710000Y-54280000D01*
X93290000Y-52920000D02*
G75*
G02*
X93600000Y-52610000I310000J0D01*
G01*
X93600000Y-55390000D02*
G75*
G02*
X93290000Y-55080000I0J310000D01*
G01*
X94400000Y-52610000D02*
G75*
G02*
X94710000Y-52920000I0J-310000D01*
G01*
X94710000Y-55080000D02*
G75*
G02*
X94400000Y-55390000I-310000J0D01*
G01*
X65600000Y-141650000D02*
G75*
G02*
X65400000Y-141650000I-100000J0D01*
G01*
X65400000Y-141650000D02*
G75*
G02*
X65600000Y-141650000I100000J0D01*
G01*
D10*
X57960000Y-56040000D02*
X57960000Y-57360000D01*
X57960000Y-57360000D02*
X58920000Y-57360000D01*
X58920000Y-56040000D02*
X57960000Y-56040000D01*
X59780000Y-56040000D02*
X60740000Y-56040000D01*
X60740000Y-56040000D02*
X60740000Y-57360000D01*
X60740000Y-57360000D02*
X59780000Y-57360000D01*
X75910000Y-54640000D02*
X75910000Y-55960000D01*
X75910000Y-55960000D02*
X76870000Y-55960000D01*
X76870000Y-54640000D02*
X75910000Y-54640000D01*
X77730000Y-54640000D02*
X78690000Y-54640000D01*
X78690000Y-54640000D02*
X78690000Y-55960000D01*
X78690000Y-55960000D02*
X77730000Y-55960000D01*
D11*
X86585000Y-52919000D02*
X86585000Y-53719000D01*
X86585000Y-55079000D02*
X86585000Y-54279000D01*
X86895000Y-52609000D02*
X87695000Y-52609000D01*
X87695000Y-55389000D02*
X86895000Y-55389000D01*
X88005000Y-52919000D02*
X88005000Y-53719000D01*
X88005000Y-55079000D02*
X88005000Y-54279000D01*
X86585000Y-52919000D02*
G75*
G02*
X86895000Y-52609000I310000J0D01*
G01*
X86895000Y-55389000D02*
G75*
G02*
X86585000Y-55079000I0J310000D01*
G01*
X87695000Y-52609000D02*
G75*
G02*
X88005000Y-52919000I0J-310000D01*
G01*
X88005000Y-55079000D02*
G75*
G02*
X87695000Y-55389000I-310000J0D01*
G01*
X102800000Y-88850000D02*
G75*
G02*
X102600000Y-88850000I-100000J0D01*
G01*
X102600000Y-88850000D02*
G75*
G02*
X102800000Y-88850000I100000J0D01*
G01*
D10*
X88395000Y-135309000D02*
X88395000Y-137069000D01*
X88395000Y-136659000D02*
X89855000Y-136659000D01*
X88525000Y-135309000D02*
X88395000Y-135309000D01*
X89855000Y-135309000D02*
X89725000Y-135309000D01*
X89855000Y-135309000D02*
X89855000Y-137069000D01*
D11*
X66405000Y-141299000D02*
X66405000Y-140499000D01*
X66715000Y-140189000D02*
X67515000Y-140189000D01*
X66715000Y-141609000D02*
X67515000Y-141609000D01*
X68875000Y-140189000D02*
X68075000Y-140189000D01*
X68875000Y-141609000D02*
X68075000Y-141609000D01*
X69185000Y-140499000D02*
X69185000Y-141299000D01*
X66405000Y-140499000D02*
G75*
G02*
X66715000Y-140189000I310000J0D01*
G01*
X66715000Y-141609000D02*
G75*
G02*
X66405000Y-141299000I0J310000D01*
G01*
X68875000Y-140189000D02*
G75*
G02*
X69185000Y-140499000I0J-310000D01*
G01*
X69185000Y-141299000D02*
G75*
G02*
X68875000Y-141609000I-310000J0D01*
G01*
D10*
X94740000Y-52610000D02*
X96060000Y-52610000D01*
X94740000Y-53570000D02*
X94740000Y-52610000D01*
X94740000Y-54430000D02*
X94740000Y-55390000D01*
X94740000Y-55390000D02*
X96060000Y-55390000D01*
X96060000Y-52610000D02*
X96060000Y-53570000D01*
X96060000Y-55390000D02*
X96060000Y-54430000D01*
D11*
X103605000Y-123699000D02*
X103605000Y-122899000D01*
X103915000Y-122589000D02*
X104715000Y-122589000D01*
X103915000Y-124009000D02*
X104715000Y-124009000D01*
X106075000Y-122589000D02*
X105275000Y-122589000D01*
X106075000Y-124009000D02*
X105275000Y-124009000D01*
X106385000Y-122899000D02*
X106385000Y-123699000D01*
X103605000Y-122899000D02*
G75*
G02*
X103915000Y-122589000I310000J0D01*
G01*
X103915000Y-124009000D02*
G75*
G02*
X103605000Y-123699000I0J310000D01*
G01*
X106075000Y-122589000D02*
G75*
G02*
X106385000Y-122899000I0J-310000D01*
G01*
X106385000Y-123699000D02*
G75*
G02*
X106075000Y-124009000I-310000J0D01*
G01*
X49105000Y-75779000D02*
X49105000Y-75019000D01*
X50415000Y-76789000D02*
X49575000Y-76789000D01*
X50695000Y-73869000D02*
X49295000Y-73869000D01*
D13*
X52155000Y-74439000D02*
G75*
G02*
X51855000Y-74439000I-150000J0D01*
G01*
X51855000Y-74439000D02*
G75*
G02*
X52155000Y-74439000I150000J0D01*
G01*
D11*
X118805000Y-152099000D02*
X118805000Y-151299000D01*
X119115000Y-150989000D02*
X119915000Y-150989000D01*
X119115000Y-152409000D02*
X119915000Y-152409000D01*
X121275000Y-150989000D02*
X120475000Y-150989000D01*
X121275000Y-152409000D02*
X120475000Y-152409000D01*
X121585000Y-151299000D02*
X121585000Y-152099000D01*
X118805000Y-151299000D02*
G75*
G02*
X119115000Y-150989000I310000J0D01*
G01*
X119115000Y-152409000D02*
G75*
G02*
X118805000Y-152099000I0J310000D01*
G01*
X121275000Y-150989000D02*
G75*
G02*
X121585000Y-151299000I0J-310000D01*
G01*
X121585000Y-152099000D02*
G75*
G02*
X121275000Y-152409000I-310000J0D01*
G01*
X80010000Y-66500000D02*
X80010000Y-65700000D01*
X80320000Y-65390000D02*
X81120000Y-65390000D01*
X80320000Y-66810000D02*
X81120000Y-66810000D01*
X82480000Y-65390000D02*
X81680000Y-65390000D01*
X82480000Y-66810000D02*
X81680000Y-66810000D01*
X82790000Y-65700000D02*
X82790000Y-66500000D01*
X80010000Y-65700000D02*
G75*
G02*
X80320000Y-65390000I310000J0D01*
G01*
X80320000Y-66810000D02*
G75*
G02*
X80010000Y-66500000I0J310000D01*
G01*
X82480000Y-65390000D02*
G75*
G02*
X82790000Y-65700000I0J-310000D01*
G01*
X82790000Y-66500000D02*
G75*
G02*
X82480000Y-66810000I-310000J0D01*
G01*
%LPC*%
D15*
X104900000Y-82650000D03*
D16*
X104400000Y-78900000D03*
D17*
X99400000Y-82650000D03*
D16*
X99400000Y-76700000D03*
D18*
X94180000Y-86850000D03*
D15*
X93900000Y-82650000D03*
D19*
X96125000Y-76700000D03*
X107675000Y-78900000D03*
D15*
X123500000Y-82650000D03*
D16*
X123000000Y-78900000D03*
D17*
X118000000Y-82650000D03*
D16*
X118000000Y-76700000D03*
D18*
X112780000Y-86850000D03*
D15*
X112500000Y-82650000D03*
D19*
X114725000Y-76700000D03*
X126275000Y-78900000D03*
D15*
X67700000Y-82650000D03*
D16*
X67200000Y-78900000D03*
D17*
X62200000Y-82650000D03*
D16*
X62200000Y-76700000D03*
D18*
X56980000Y-86850000D03*
D15*
X56700000Y-82650000D03*
D19*
X58925000Y-76700000D03*
X70475000Y-78900000D03*
D20*
X48725000Y-153250000D03*
D15*
X86300000Y-153050000D03*
D16*
X85800000Y-149300000D03*
D17*
X80800000Y-153050000D03*
D16*
X80800000Y-147100000D03*
D18*
X75580000Y-157250000D03*
D15*
X75300000Y-153050000D03*
D19*
X77525000Y-147100000D03*
X89075000Y-149300000D03*
D15*
X104900000Y-100250000D03*
D16*
X104400000Y-96500000D03*
D17*
X99400000Y-100250000D03*
D16*
X99400000Y-94300000D03*
D18*
X94180000Y-104450000D03*
D15*
X93900000Y-100250000D03*
D19*
X96125000Y-94300000D03*
X107675000Y-96500000D03*
D15*
X123500000Y-144250000D03*
D16*
X123000000Y-140500000D03*
D17*
X118000000Y-144250000D03*
D16*
X118000000Y-138300000D03*
D18*
X112780000Y-148450000D03*
D15*
X112500000Y-144250000D03*
D19*
X114725000Y-138300000D03*
X126275000Y-140500000D03*
D15*
X86300000Y-117850000D03*
D16*
X85800000Y-114100000D03*
D17*
X80800000Y-117850000D03*
D16*
X80800000Y-111900000D03*
D18*
X75580000Y-122050000D03*
D15*
X75300000Y-117850000D03*
D19*
X77525000Y-111900000D03*
X89075000Y-114100000D03*
D15*
X86300000Y-82650000D03*
D16*
X85800000Y-78900000D03*
D17*
X80800000Y-82650000D03*
D16*
X80800000Y-76700000D03*
D18*
X75580000Y-86850000D03*
D15*
X75300000Y-82650000D03*
D19*
X77525000Y-76700000D03*
X89075000Y-78900000D03*
D20*
X131725000Y-153250000D03*
D15*
X123500000Y-109050000D03*
D16*
X123000000Y-105300000D03*
D17*
X118000000Y-109050000D03*
D16*
X118000000Y-103100000D03*
D18*
X112780000Y-113250000D03*
D15*
X112500000Y-109050000D03*
D19*
X114725000Y-103100000D03*
X126275000Y-105300000D03*
D15*
X104900000Y-153050000D03*
D16*
X104400000Y-149300000D03*
D17*
X99400000Y-153050000D03*
D16*
X99400000Y-147100000D03*
D18*
X94180000Y-157250000D03*
D15*
X93900000Y-153050000D03*
D19*
X96125000Y-147100000D03*
X107675000Y-149300000D03*
D15*
X67700000Y-135450000D03*
D16*
X67200000Y-131700000D03*
D17*
X62200000Y-135450000D03*
D16*
X62200000Y-129500000D03*
D18*
X56980000Y-139650000D03*
D15*
X56700000Y-135450000D03*
D19*
X58925000Y-129500000D03*
X70475000Y-131700000D03*
D21*
X50000000Y-160000000D03*
D22*
X87000000Y-37100000D03*
D23*
X89540000Y-37100000D03*
X92080000Y-37100000D03*
X94620000Y-37100000D03*
D21*
X130000000Y-40000000D03*
D15*
X104900000Y-117850000D03*
D16*
X104400000Y-114100000D03*
D17*
X99400000Y-117850000D03*
D16*
X99400000Y-111900000D03*
D18*
X94180000Y-122050000D03*
D15*
X93900000Y-117850000D03*
D19*
X96125000Y-111900000D03*
X107675000Y-114100000D03*
D24*
X47395000Y-51239000D03*
D25*
X47395000Y-48699000D03*
X47395000Y-46159000D03*
D26*
X63640000Y-68450000D03*
X58560000Y-68450000D03*
D27*
X55400000Y-61450000D03*
X66800000Y-61450000D03*
D25*
X63640000Y-53950000D03*
X58560000Y-53950000D03*
X61100000Y-53950000D03*
D15*
X86300000Y-100250000D03*
D16*
X85800000Y-96500000D03*
D17*
X80800000Y-100250000D03*
D16*
X80800000Y-94300000D03*
D18*
X75580000Y-104450000D03*
D15*
X75300000Y-100250000D03*
D19*
X77525000Y-94300000D03*
X89075000Y-96500000D03*
D20*
X48725000Y-82019000D03*
D15*
X104900000Y-135450000D03*
D16*
X104400000Y-131700000D03*
D17*
X99400000Y-135450000D03*
D16*
X99400000Y-129500000D03*
D18*
X94180000Y-139650000D03*
D15*
X93900000Y-135450000D03*
D19*
X96125000Y-129500000D03*
X107675000Y-131700000D03*
D20*
X130225000Y-82019000D03*
D15*
X86300000Y-135450000D03*
D16*
X85800000Y-131700000D03*
D17*
X80800000Y-135450000D03*
D16*
X80800000Y-129500000D03*
D18*
X75580000Y-139650000D03*
D15*
X75300000Y-135450000D03*
D19*
X77525000Y-129500000D03*
X89075000Y-131700000D03*
D15*
X67700000Y-153050000D03*
D16*
X67200000Y-149300000D03*
D17*
X62200000Y-153050000D03*
D16*
X62200000Y-147100000D03*
D18*
X56980000Y-157250000D03*
D15*
X56700000Y-153050000D03*
D19*
X58925000Y-147100000D03*
X70475000Y-149300000D03*
D21*
X50000000Y-40000000D03*
D15*
X67700000Y-117850000D03*
D16*
X67200000Y-114100000D03*
D17*
X62200000Y-117850000D03*
D16*
X62200000Y-111900000D03*
D18*
X56980000Y-122050000D03*
D15*
X56700000Y-117850000D03*
D19*
X58925000Y-111900000D03*
X70475000Y-114100000D03*
D15*
X67700000Y-100250000D03*
D16*
X67200000Y-96500000D03*
D17*
X62200000Y-100250000D03*
D16*
X62200000Y-94300000D03*
D18*
X56980000Y-104450000D03*
D15*
X56700000Y-100250000D03*
D19*
X58925000Y-94300000D03*
X70475000Y-96500000D03*
D26*
X122340000Y-67350000D03*
X117260000Y-67350000D03*
D27*
X114100000Y-60350000D03*
X125500000Y-60350000D03*
D25*
X122340000Y-52850000D03*
X117260000Y-52850000D03*
X119800000Y-52850000D03*
D21*
X130000000Y-160000000D03*
D28*
X76200000Y-45250000D03*
X76200000Y-46750000D03*
D29*
X117300000Y-57100000D03*
X118800000Y-57100000D03*
D28*
X74800000Y-46750000D03*
X74800000Y-45250000D03*
D30*
X123680000Y-135500000D03*
X126020000Y-135500000D03*
D31*
X67095000Y-123299000D03*
X68495000Y-123299000D03*
X85695000Y-123299000D03*
X87095000Y-123299000D03*
D32*
X102300000Y-123300000D03*
X102300000Y-121800000D03*
X96500000Y-121800000D03*
X96500000Y-123300000D03*
D29*
X62100000Y-56700000D03*
X63600000Y-56700000D03*
D32*
X83700000Y-88100000D03*
X83700000Y-86600000D03*
X77900000Y-86600000D03*
X77900000Y-88100000D03*
D31*
X52895000Y-51199000D03*
X54295000Y-51199000D03*
D33*
X101270000Y-67410000D03*
X101270000Y-66130000D03*
X101270000Y-64870000D03*
X101270000Y-63600000D03*
X108330000Y-63600000D03*
X108330000Y-64870000D03*
X108330000Y-66130000D03*
X108330000Y-67410000D03*
D34*
X107725000Y-154989000D03*
X107725000Y-152649000D03*
D32*
X102300000Y-140900000D03*
X102300000Y-139400000D03*
X96500000Y-139400000D03*
X96500000Y-140900000D03*
D29*
X82150000Y-64600000D03*
X80650000Y-64600000D03*
D28*
X93800000Y-72950000D03*
X93800000Y-74450000D03*
D29*
X120800000Y-55600000D03*
X122300000Y-55600000D03*
D31*
X104295000Y-140899000D03*
X105695000Y-140899000D03*
X122895000Y-88099000D03*
X124295000Y-88099000D03*
D35*
X105395000Y-41649000D03*
X106395000Y-41649000D03*
D31*
X104295000Y-158499000D03*
X105695000Y-158499000D03*
X85695000Y-140899000D03*
X87095000Y-140899000D03*
D32*
X65100000Y-158500000D03*
X65100000Y-157000000D03*
X59300000Y-157000000D03*
X59300000Y-158500000D03*
D36*
X104335000Y-37919000D03*
X110115000Y-37919000D03*
D37*
X104025000Y-38999000D03*
X104825000Y-38999000D03*
D38*
X105475000Y-38999000D03*
X105975000Y-38999000D03*
X106475000Y-38999000D03*
X106975000Y-38999000D03*
X107475000Y-38999000D03*
X107975000Y-38999000D03*
X108475000Y-38999000D03*
X108975000Y-38999000D03*
D37*
X109625000Y-38999000D03*
X110425000Y-38999000D03*
D39*
X102905000Y-34239000D03*
D40*
X102905000Y-38449000D03*
D39*
X111545000Y-34239000D03*
D40*
X111545000Y-38449000D03*
D30*
X116160000Y-72500000D03*
X118500000Y-72500000D03*
D31*
X78600000Y-60100000D03*
X77200000Y-60100000D03*
D41*
X89200000Y-69300000D03*
X89200000Y-70700000D03*
D28*
X110595000Y-44499000D03*
X110595000Y-42999000D03*
D32*
X120900000Y-88100000D03*
X120900000Y-86600000D03*
X115100000Y-86600000D03*
X115100000Y-88100000D03*
D29*
X110350000Y-76600000D03*
X111850000Y-76600000D03*
D41*
X98200000Y-54700000D03*
X98200000Y-53300000D03*
D29*
X78650000Y-61600000D03*
X77150000Y-61600000D03*
D28*
X103895000Y-42999000D03*
X103895000Y-44499000D03*
D34*
X107725000Y-84589000D03*
X107725000Y-82249000D03*
D29*
X63600000Y-58200000D03*
X62100000Y-58200000D03*
D31*
X85695000Y-158499000D03*
X87095000Y-158499000D03*
D34*
X89125000Y-154989000D03*
X89125000Y-152649000D03*
D28*
X73400000Y-45250000D03*
X73400000Y-46750000D03*
D32*
X120900000Y-114500000D03*
X120900000Y-113000000D03*
X115100000Y-113000000D03*
X115100000Y-114500000D03*
D34*
X107825000Y-101989000D03*
X107825000Y-99649000D03*
D30*
X68970000Y-68600000D03*
X66630000Y-68600000D03*
D29*
X78050000Y-56600000D03*
X76550000Y-56600000D03*
D34*
X70525000Y-102189000D03*
X70525000Y-99849000D03*
D29*
X85850000Y-74600000D03*
X84350000Y-74600000D03*
D31*
X60050000Y-59800000D03*
X58650000Y-59800000D03*
D29*
X118800000Y-55600000D03*
X117300000Y-55600000D03*
D32*
X65100000Y-88100000D03*
X65100000Y-86600000D03*
X59300000Y-86600000D03*
X59300000Y-88100000D03*
D31*
X101495000Y-59469000D03*
X100095000Y-59469000D03*
D34*
X70525000Y-154989000D03*
X70525000Y-152649000D03*
D29*
X52795000Y-52699000D03*
X54295000Y-52699000D03*
D31*
X85695000Y-105699000D03*
X87095000Y-105699000D03*
X104295000Y-88099000D03*
X105695000Y-88099000D03*
D34*
X89125000Y-102189000D03*
X89125000Y-99849000D03*
D41*
X46625000Y-76219000D03*
X46625000Y-74819000D03*
D31*
X100095000Y-60869000D03*
X101495000Y-60869000D03*
D34*
X89125000Y-119789000D03*
X89125000Y-117449000D03*
D31*
X68100000Y-54000000D03*
X69500000Y-54000000D03*
X118800000Y-58850000D03*
X117400000Y-58850000D03*
D34*
X107725000Y-119789000D03*
X107725000Y-117449000D03*
D31*
X81800000Y-60000000D03*
X83200000Y-60000000D03*
D34*
X70525000Y-119789000D03*
X70525000Y-117449000D03*
D29*
X58600000Y-58200000D03*
X60100000Y-58200000D03*
X51475000Y-72319000D03*
X49975000Y-72319000D03*
D31*
X67095000Y-88099000D03*
X68495000Y-88099000D03*
D41*
X96800000Y-54700000D03*
X96800000Y-53300000D03*
D34*
X70525000Y-84589000D03*
X70525000Y-82249000D03*
D41*
X87700000Y-70700000D03*
X87700000Y-69300000D03*
D31*
X67095000Y-158499000D03*
X68495000Y-158499000D03*
D28*
X77600000Y-45250000D03*
X77600000Y-46750000D03*
D32*
X65100000Y-105700000D03*
X65100000Y-104200000D03*
X59300000Y-104200000D03*
X59300000Y-105700000D03*
D31*
X86095000Y-88199000D03*
X87495000Y-88199000D03*
X62150000Y-59800000D03*
X63550000Y-59800000D03*
D32*
X83700000Y-123300000D03*
X83700000Y-121800000D03*
X77900000Y-121800000D03*
X77900000Y-123300000D03*
D31*
X81800000Y-61500000D03*
X83200000Y-61500000D03*
X67095000Y-105699000D03*
X68495000Y-105699000D03*
X122895000Y-114499000D03*
X124295000Y-114499000D03*
X97400000Y-68000000D03*
X96000000Y-68000000D03*
D34*
X89081400Y-84589000D03*
X89081400Y-82249000D03*
D29*
X101550000Y-58069000D03*
X100050000Y-58069000D03*
D30*
X123680000Y-100250000D03*
X126020000Y-100250000D03*
D32*
X102300000Y-105700000D03*
X102300000Y-104200000D03*
X96500000Y-104200000D03*
X96500000Y-105700000D03*
D29*
X115150000Y-69450000D03*
X113650000Y-69450000D03*
D41*
X92600000Y-53300000D03*
X92600000Y-54700000D03*
D34*
X107725000Y-137389000D03*
X107725000Y-135049000D03*
D29*
X52745000Y-54199000D03*
X54245000Y-54199000D03*
D31*
X120850000Y-58850000D03*
X122250000Y-58850000D03*
D41*
X127000000Y-55100000D03*
X127000000Y-56500000D03*
D34*
X47445000Y-55599000D03*
X47445000Y-61599000D03*
X51145000Y-55599000D03*
X51145000Y-61599000D03*
D30*
X124600000Y-73150000D03*
X130600000Y-73150000D03*
X124600000Y-69450000D03*
X130600000Y-69450000D03*
D29*
X62950000Y-73500000D03*
X61450000Y-73500000D03*
D31*
X104800000Y-69300000D03*
X106200000Y-69300000D03*
D34*
X70525000Y-137389000D03*
X70525000Y-135049000D03*
D32*
X65100000Y-123300000D03*
X65100000Y-121800000D03*
X59300000Y-121800000D03*
X59300000Y-123300000D03*
D42*
X93700000Y-66750000D03*
X93300000Y-66750000D03*
X92900000Y-66750000D03*
X92500000Y-66750000D03*
X92100000Y-66750000D03*
X91700000Y-66750000D03*
X91300000Y-66750000D03*
X90900000Y-66750000D03*
X90500000Y-66750000D03*
X90100000Y-66750000D03*
X89700000Y-66750000D03*
X89300000Y-66750000D03*
X88900000Y-66750000D03*
X88500000Y-66750000D03*
D43*
X87550000Y-65800000D03*
X87550000Y-65400000D03*
X87550000Y-65000000D03*
X87550000Y-64600000D03*
X87550000Y-64200000D03*
X87550000Y-63800000D03*
X87550000Y-63400000D03*
X87550000Y-63000000D03*
X87550000Y-62600000D03*
X87550000Y-62200000D03*
X87550000Y-61800000D03*
X87550000Y-61400000D03*
X87550000Y-61000000D03*
X87550000Y-60600000D03*
D42*
X88500000Y-59650000D03*
X88900000Y-59650000D03*
X89300000Y-59650000D03*
X89700000Y-59650000D03*
X90100000Y-59650000D03*
X90500000Y-59650000D03*
X90900000Y-59650000D03*
X91300000Y-59650000D03*
X91700000Y-59650000D03*
X92100000Y-59650000D03*
X92500000Y-59650000D03*
X92900000Y-59650000D03*
X93300000Y-59650000D03*
X93700000Y-59650000D03*
D43*
X94650000Y-60600000D03*
X94650000Y-61000000D03*
X94650000Y-61400000D03*
X94650000Y-61800000D03*
X94650000Y-62200000D03*
X94650000Y-62600000D03*
X94650000Y-63000000D03*
X94650000Y-63400000D03*
X94650000Y-63800000D03*
X94650000Y-64200000D03*
X94650000Y-64600000D03*
X94650000Y-65000000D03*
X94650000Y-65400000D03*
X94650000Y-65800000D03*
D44*
X91100000Y-63200000D03*
D32*
X83700000Y-140900000D03*
X83700000Y-139400000D03*
X77900000Y-139400000D03*
X77900000Y-140900000D03*
D31*
X101495000Y-62269000D03*
X100095000Y-62269000D03*
D34*
X126350000Y-85170000D03*
X126350000Y-82830000D03*
D29*
X122300000Y-57100000D03*
X120800000Y-57100000D03*
D35*
X109095000Y-41649000D03*
X108095000Y-41649000D03*
D31*
X104295000Y-105699000D03*
X105695000Y-105699000D03*
D29*
X101550000Y-56769000D03*
X100050000Y-56769000D03*
D32*
X102300000Y-158500000D03*
X102300000Y-157000000D03*
X96500000Y-157000000D03*
X96500000Y-158500000D03*
X120900000Y-149700000D03*
X120900000Y-148200000D03*
X115100000Y-148200000D03*
X115100000Y-149700000D03*
D29*
X113650000Y-70950000D03*
X115150000Y-70950000D03*
D32*
X83700000Y-158500000D03*
X83700000Y-157000000D03*
X77900000Y-157000000D03*
X77900000Y-158500000D03*
D45*
X76335000Y-66485000D03*
X76335000Y-64285000D03*
X78035000Y-64285000D03*
X78035000Y-66485000D03*
D32*
X83700000Y-105700000D03*
X83700000Y-104200000D03*
X77900000Y-104200000D03*
X77900000Y-105700000D03*
D41*
X94000000Y-54700000D03*
X94000000Y-53300000D03*
D32*
X65100000Y-140900000D03*
X65100000Y-139400000D03*
X59300000Y-139400000D03*
X59300000Y-140900000D03*
D29*
X60100000Y-56700000D03*
X58600000Y-56700000D03*
X78050000Y-55300000D03*
X76550000Y-55300000D03*
D41*
X87295000Y-53299000D03*
X87295000Y-54699000D03*
D32*
X102300000Y-88100000D03*
X102300000Y-86600000D03*
X96500000Y-86600000D03*
X96500000Y-88100000D03*
D34*
X89125000Y-137389000D03*
X89125000Y-135049000D03*
D31*
X67095000Y-140899000D03*
X68495000Y-140899000D03*
D28*
X95400000Y-54750000D03*
X95400000Y-53250000D03*
D31*
X104295000Y-123299000D03*
X105695000Y-123299000D03*
D46*
X51095000Y-74449000D03*
X51095000Y-75399000D03*
X51095000Y-76349000D03*
X48895000Y-76349000D03*
X48895000Y-74449000D03*
D31*
X120895000Y-151699000D03*
X119495000Y-151699000D03*
X82100000Y-66100000D03*
X80700000Y-66100000D03*
%LPD*%
M02*
