G04 #@! TF.GenerationSoftware,KiCad,Pcbnew,8.0.7*
G04 #@! TF.CreationDate,2025-01-13T19:24:39-05:00*
G04 #@! TF.ProjectId,numpad,6e756d70-6164-42e6-9b69-6361645f7063,rev?*
G04 #@! TF.SameCoordinates,Original*
G04 #@! TF.FileFunction,Profile,NP*
%FSLAX46Y46*%
G04 Gerber Fmt 4.6, Leading zero omitted, Abs format (unit mm)*
G04 Created by KiCad (PCBNEW 8.0.7) date 2025-01-13 19:24:39*
%MOMM*%
%LPD*%
G01*
G04 APERTURE LIST*
G04 #@! TA.AperFunction,Profile*
%ADD10C,0.200000*%
G04 #@! TD*
G04 #@! TA.AperFunction,Profile*
%ADD11C,0.100000*%
G04 #@! TD*
G04 #@! TA.AperFunction,Profile*
%ADD12C,0.152400*%
G04 #@! TD*
G04 APERTURE END LIST*
D10*
X135000000Y-160000000D02*
G75*
G02*
X130000000Y-165000000I-5000000J0D01*
G01*
X50000000Y-165000000D02*
G75*
G02*
X45000000Y-160000000I0J5000000D01*
G01*
X130000000Y-165000000D02*
X50000000Y-165000000D01*
X45000000Y-160000000D02*
X45000000Y-40000000D01*
D11*
X101500000Y-32750000D02*
X101500000Y-35000000D01*
D10*
X45000000Y-40000000D02*
G75*
G02*
X50000000Y-35000000I5000000J0D01*
G01*
D11*
X130000000Y-35000000D02*
X113000000Y-35000000D01*
X113000000Y-32750000D02*
X101500000Y-32750000D01*
D10*
X135000000Y-160000000D02*
X135000000Y-40000000D01*
D11*
X113000000Y-35000000D02*
X113000000Y-32750000D01*
D10*
X130000000Y-35000000D02*
G75*
G02*
X135000000Y-40000000I0J-5000000D01*
G01*
D11*
X101500000Y-35000000D02*
X50000000Y-35000000D01*
D12*
X101050000Y-121100000D02*
X97750000Y-121100000D01*
X97750000Y-124000000D01*
X101050000Y-124000000D01*
X101050000Y-121100000D01*
X82450000Y-85900000D02*
X79150000Y-85900000D01*
X79150000Y-88800000D01*
X82450000Y-88800000D01*
X82450000Y-85900000D01*
X101050000Y-138700000D02*
X97750000Y-138700000D01*
X97750000Y-141600000D01*
X101050000Y-141600000D01*
X101050000Y-138700000D01*
X63850000Y-156300000D02*
X60550000Y-156300000D01*
X60550000Y-159200000D01*
X63850000Y-159200000D01*
X63850000Y-156300000D01*
X119650000Y-85900000D02*
X116350000Y-85900000D01*
X116350000Y-88800000D01*
X119650000Y-88800000D01*
X119650000Y-85900000D01*
X119650000Y-112300000D02*
X116350000Y-112300000D01*
X116350000Y-115200000D01*
X119650000Y-115200000D01*
X119650000Y-112300000D01*
X63850000Y-85900000D02*
X60550000Y-85900000D01*
X60550000Y-88800000D01*
X63850000Y-88800000D01*
X63850000Y-85900000D01*
X63850000Y-103500000D02*
X60550000Y-103500000D01*
X60550000Y-106400000D01*
X63850000Y-106400000D01*
X63850000Y-103500000D01*
X82450000Y-121100000D02*
X79150000Y-121100000D01*
X79150000Y-124000000D01*
X82450000Y-124000000D01*
X82450000Y-121100000D01*
X101050000Y-103500000D02*
X97750000Y-103500000D01*
X97750000Y-106400000D01*
X101050000Y-106400000D01*
X101050000Y-103500000D01*
X63850000Y-121100000D02*
X60550000Y-121100000D01*
X60550000Y-124000000D01*
X63850000Y-124000000D01*
X63850000Y-121100000D01*
X82450000Y-138700000D02*
X79150000Y-138700000D01*
X79150000Y-141600000D01*
X82450000Y-141600000D01*
X82450000Y-138700000D01*
X101050000Y-156300000D02*
X97750000Y-156300000D01*
X97750000Y-159200000D01*
X101050000Y-159200000D01*
X101050000Y-156300000D01*
X119650000Y-147500000D02*
X116350000Y-147500000D01*
X116350000Y-150400000D01*
X119650000Y-150400000D01*
X119650000Y-147500000D01*
X82450000Y-156300000D02*
X79150000Y-156300000D01*
X79150000Y-159200000D01*
X82450000Y-159200000D01*
X82450000Y-156300000D01*
X82450000Y-103500000D02*
X79150000Y-103500000D01*
X79150000Y-106400000D01*
X82450000Y-106400000D01*
X82450000Y-103500000D01*
X63850000Y-138700000D02*
X60550000Y-138700000D01*
X60550000Y-141600000D01*
X63850000Y-141600000D01*
X63850000Y-138700000D01*
X101050000Y-85900000D02*
X97750000Y-85900000D01*
X97750000Y-88800000D01*
X101050000Y-88800000D01*
X101050000Y-85900000D01*
M02*
