M48
; DRILL file {KiCad 8.0.7} date 2025-01-13T19:24:29-0500
; FORMAT={-:-/ absolute / metric / decimal}
; #@! TF.CreationDate,2025-01-13T19:24:29-05:00
; #@! TF.GenerationSoftware,Kicad,Pcbnew,8.0.7
; #@! TF.FileFunction,Plated,1,2,PTH
FMAT,2
METRIC
; #@! TA.AperFunction,Plated,PTH,ViaDrill
T1C0.300
; #@! TA.AperFunction,Plated,PTH,ComponentDrill
T2C0.600
; #@! TA.AperFunction,Plated,PTH,ComponentDrill
T3C0.914
; #@! TA.AperFunction,Plated,PTH,ComponentDrill
T4C1.000
; #@! TA.AperFunction,Plated,PTH,ComponentDrill
T5C1.200
; #@! TA.AperFunction,Plated,PTH,ComponentDrill
T6C1.800
; #@! TA.AperFunction,Plated,PTH,ComponentDrill
T7C2.200
; #@! TA.AperFunction,Plated,PTH,ComponentDrill
T8C3.200
%
G90
G05
T1
X47.695Y-72.2
X47.695Y-73.199
X47.925Y-77.369
X48.1Y-66.2
X49.1Y-109.2
X49.1Y-127.2
X49.1Y-144.2
X50.325Y-91.019
X51.153Y-87.347
X51.425Y-78.819
X51.695Y-76.999
X52.9Y-76.4
X53.0Y-71.4
X53.1Y-66.2
X53.195Y-44.599
X53.7Y-76.4
X54.5Y-76.4
X54.6Y-120.199
X54.7Y-153.5
X54.837Y-83.537
X55.195Y-86.609
X55.195Y-139.409
X55.295Y-137.699
X55.3Y-76.4
X55.5Y-121.504
X55.595Y-104.399
X55.725Y-91.019
X55.995Y-102.099
X56.1Y-76.4
X56.1Y-109.2
X56.1Y-127.2
X56.1Y-144.2
X56.745Y-56.649
X57.3Y-58.2
X57.3Y-72.8
X58.395Y-44.599
X58.8Y-50.0
X58.9Y-73.5
X58.9Y-79.0
X58.9Y-92.1
X58.9Y-96.9
X58.9Y-109.6
X58.9Y-114.4
X58.9Y-127.2
X58.9Y-132.3
X58.9Y-144.3
X61.1Y-61.2
X65.045Y-37.899
X66.25Y-55.95
X67.9Y-56.8
X68.8Y-42.6
X70.07Y-106.524
X70.1Y-66.2
X70.1Y-76.2
X70.145Y-88.824
X70.17Y-124.199
X70.195Y-141.799
X70.295Y-159.599
X72.1Y-50.0
X72.1Y-59.2
X73.0Y-39.5
X73.1Y-53.2
X73.1Y-66.2
X73.1Y-76.2
X73.6Y-43.7
X73.795Y-86.609
X73.795Y-104.209
X73.795Y-121.809
X73.795Y-139.409
X73.795Y-157.009
X74.3Y-63.0
X74.6Y-144.8
X75.1Y-97.2
X76.1Y-80.2
X76.1Y-115.2
X76.1Y-133.2
X76.8Y-39.6
X76.9Y-40.4
X77.5Y-79.0
X77.5Y-92.0
X77.5Y-96.5
X77.5Y-109.799
X77.5Y-114.0
X77.5Y-127.5
X77.5Y-132.0
X77.5Y-144.799
X79.1Y-80.2
X79.1Y-97.2
X79.1Y-115.2
X79.1Y-133.2
X80.1Y-67.6
X80.2Y-56.2
X80.3Y-59.3
X81.1Y-55.6
X84.2Y-62.7
X84.4Y-60.1
X84.5Y-65.2
X84.7Y-61.7
X85.1Y-43.2
X85.1Y-48.2
X85.2Y-60.1
X85.9Y-70.7
X85.9Y-72.0
X88.67Y-106.599
X88.795Y-141.599
X88.845Y-124.249
X89.02Y-88.924
X89.195Y-159.799
X90.1Y-57.9
X90.1Y-62.2
X90.1Y-64.2
X90.125Y-68.419
X90.595Y-51.499
X91.1Y-63.2
X92.1Y-43.2
X92.1Y-48.2
X92.1Y-62.2
X92.1Y-64.2
X92.29Y-104.208
X92.395Y-86.609
X92.395Y-121.809
X92.395Y-139.409
X92.395Y-157.009
X92.4Y-145.0
X92.6Y-57.9
X93.2Y-56.3
X94.1Y-80.2
X94.1Y-97.2
X94.6Y-66.7
X95.8Y-56.1
X96.1Y-96.6
X96.1Y-109.95
X96.15Y-79.1
X96.15Y-92.3
X96.15Y-113.95
X96.15Y-127.4
X96.2Y-131.6
X96.2Y-145.0
X96.8Y-57.7
X97.0Y-56.2
X97.1Y-36.2
X97.7Y-62.3
X97.915Y-64.159
X98.1Y-80.2
X98.1Y-97.2
X98.2Y-70.0
X98.3Y-61.7
X98.835Y-63.409
X98.875Y-64.239
X99.5Y-42.5
X99.585Y-63.8
X99.7Y-54.9
X100.2Y-70.0
X101.1Y-36.2
X102.3Y-41.2
X103.4Y-69.2
X104.1Y-50.2
X104.595Y-104.2
X104.595Y-108.999
X105.41Y-42.998
X105.7Y-60.9
X106.4Y-63.8
X106.4Y-65.0
X106.4Y-66.2
X106.995Y-108.024
X107.345Y-88.774
X108.3Y-69.2
X108.795Y-139.399
X109.12Y-42.948
X109.5Y-58.7
X110.1Y-50.2
X110.4Y-70.0
X110.4Y-72.7
X110.695Y-121.799
X110.795Y-40.599
X111.295Y-86.629
X111.4Y-70.0
X111.4Y-71.8
X111.795Y-149.699
X112.1Y-96.2
X112.1Y-131.2
X112.395Y-43.2
X112.7Y-120.3
X113.095Y-146.299
X113.1Y-80.2
X113.195Y-111.099
X113.6Y-67.8
X114.75Y-79.0
X114.75Y-101.0
X114.75Y-105.5
X114.75Y-135.75
X115.8Y-55.6
X116.1Y-80.2
X116.3Y-152.5
X117.1Y-96.2
X117.1Y-131.2
X117.25Y-73.75
X117.4Y-47.6
X118.1Y-45.2
X118.3Y-118.6
X118.5Y-71.6
X118.7Y-47.6
X119.995Y-126.499
X120.0Y-61.4
X120.195Y-41.699
X120.4Y-48.2
X120.4Y-50.5
X120.995Y-36.599
X121.92Y-153.724
X122.0Y-48.2
X122.0Y-50.5
X122.695Y-86.599
X122.695Y-91.599
X123.195Y-112.999
X123.7Y-45.9
X124.5Y-55.3
X125.3Y-45.9
X125.4Y-154.0
X127.2Y-47.9
X129.195Y-113.499
X129.3Y-143.3
X130.195Y-90.349
X130.5Y-149.0
T3
X58.56Y-68.45
X63.64Y-68.45
X117.26Y-67.35
X122.34Y-67.35
T4
X87.0Y-37.1
X89.54Y-37.1
X92.08Y-37.1
X94.62Y-37.1
T5
X47.395Y-46.159
X47.395Y-48.699
X47.395Y-51.239
X58.56Y-53.95
X61.1Y-53.95
X63.64Y-53.95
X117.26Y-52.85
X119.8Y-52.85
X122.34Y-52.85
T7
X48.725Y-82.019
X48.725Y-153.25
X130.225Y-82.019
X131.725Y-153.25
T8
X50.0Y-40.0
X50.0Y-160.0
X130.0Y-40.0
X130.0Y-160.0
T2
X102.905Y-33.939G85X102.905Y-34.539
G05
X102.905Y-37.999G85X102.905Y-38.899
G05
X111.545Y-33.939G85X111.545Y-34.539
G05
X111.545Y-37.999G85X111.545Y-38.899
G05
T6
X55.4Y-61.65G85X55.4Y-61.25
G05
X66.8Y-61.35G85X66.8Y-61.55
G05
X114.1Y-60.55G85X114.1Y-60.15
G05
X125.5Y-60.25G85X125.5Y-60.45
G05
M30
