G04 #@! TF.GenerationSoftware,KiCad,Pcbnew,8.0.7*
G04 #@! TF.CreationDate,2025-01-13T19:24:39-05:00*
G04 #@! TF.ProjectId,numpad,6e756d70-6164-42e6-9b69-6361645f7063,rev?*
G04 #@! TF.SameCoordinates,Original*
G04 #@! TF.FileFunction,Paste,Bot*
G04 #@! TF.FilePolarity,Positive*
%FSLAX46Y46*%
G04 Gerber Fmt 4.6, Leading zero omitted, Abs format (unit mm)*
G04 Created by KiCad (PCBNEW 8.0.7) date 2025-01-13 19:24:39*
%MOMM*%
%LPD*%
G01*
G04 APERTURE LIST*
%ADD10R,2.600000X2.600000*%
%ADD11R,0.860000X0.810000*%
%ADD12R,0.810000X0.860000*%
%ADD13R,1.000000X0.750000*%
%ADD14R,0.800000X0.900000*%
%ADD15R,1.500000X0.820000*%
%ADD16O,2.250000X0.630000*%
%ADD17R,0.750000X1.000000*%
%ADD18R,0.600000X0.600000*%
%ADD19R,0.550000X1.100000*%
%ADD20R,0.300000X1.100000*%
%ADD21R,0.900000X0.800000*%
%ADD22R,0.200000X1.100000*%
%ADD23R,1.100000X0.200000*%
%ADD24R,3.100000X3.100000*%
%ADD25R,1.200000X1.400000*%
%ADD26R,1.000000X0.600000*%
G04 APERTURE END LIST*
D10*
X96125000Y-76700000D03*
X107675000Y-78900000D03*
X114725000Y-76700000D03*
X126275000Y-78900000D03*
X58925000Y-76700000D03*
X70475000Y-78900000D03*
X77525000Y-147100000D03*
X89075000Y-149300000D03*
X96125000Y-94300000D03*
X107675000Y-96500000D03*
X114725000Y-138300000D03*
X126275000Y-140500000D03*
X77525000Y-111900000D03*
X89075000Y-114100000D03*
X77525000Y-76700000D03*
X89075000Y-78900000D03*
X114725000Y-103100000D03*
X126275000Y-105300000D03*
X96125000Y-147100000D03*
X107675000Y-149300000D03*
X58925000Y-129500000D03*
X70475000Y-131700000D03*
X96125000Y-111900000D03*
X107675000Y-114100000D03*
X77525000Y-94300000D03*
X89075000Y-96500000D03*
X96125000Y-129500000D03*
X107675000Y-131700000D03*
X77525000Y-129500000D03*
X89075000Y-131700000D03*
X58925000Y-147100000D03*
X70475000Y-149300000D03*
X58925000Y-111900000D03*
X70475000Y-114100000D03*
X58925000Y-94300000D03*
X70475000Y-96500000D03*
D11*
X76200000Y-45250000D03*
X76200000Y-46750000D03*
D12*
X117300000Y-57100000D03*
X118800000Y-57100000D03*
D11*
X74800000Y-46750000D03*
X74800000Y-45250000D03*
D13*
X123680000Y-135500000D03*
X126020000Y-135500000D03*
D14*
X67095000Y-123299000D03*
X68495000Y-123299000D03*
X85695000Y-123299000D03*
X87095000Y-123299000D03*
D15*
X102300000Y-123300000D03*
X102300000Y-121800000D03*
X96500000Y-121800000D03*
X96500000Y-123300000D03*
D12*
X62100000Y-56700000D03*
X63600000Y-56700000D03*
D15*
X83700000Y-88100000D03*
X83700000Y-86600000D03*
X77900000Y-86600000D03*
X77900000Y-88100000D03*
D14*
X52895000Y-51199000D03*
X54295000Y-51199000D03*
D16*
X101270000Y-67410000D03*
X101270000Y-66130000D03*
X101270000Y-64870000D03*
X101270000Y-63600000D03*
X108330000Y-63600000D03*
X108330000Y-64870000D03*
X108330000Y-66130000D03*
X108330000Y-67410000D03*
D17*
X107725000Y-154989000D03*
X107725000Y-152649000D03*
D15*
X102300000Y-140900000D03*
X102300000Y-139400000D03*
X96500000Y-139400000D03*
X96500000Y-140900000D03*
D12*
X82150000Y-64600000D03*
X80650000Y-64600000D03*
D11*
X93800000Y-72950000D03*
X93800000Y-74450000D03*
D12*
X120800000Y-55600000D03*
X122300000Y-55600000D03*
D14*
X104295000Y-140899000D03*
X105695000Y-140899000D03*
X122895000Y-88099000D03*
X124295000Y-88099000D03*
D18*
X105395000Y-41649000D03*
X106395000Y-41649000D03*
D14*
X104295000Y-158499000D03*
X105695000Y-158499000D03*
X85695000Y-140899000D03*
X87095000Y-140899000D03*
D15*
X65100000Y-158500000D03*
X65100000Y-157000000D03*
X59300000Y-157000000D03*
X59300000Y-158500000D03*
D19*
X104025000Y-38999000D03*
X104825000Y-38999000D03*
D20*
X105475000Y-38999000D03*
X105975000Y-38999000D03*
X106475000Y-38999000D03*
X106975000Y-38999000D03*
X107475000Y-38999000D03*
X107975000Y-38999000D03*
X108475000Y-38999000D03*
X108975000Y-38999000D03*
D19*
X109625000Y-38999000D03*
X110425000Y-38999000D03*
D13*
X116160000Y-72500000D03*
X118500000Y-72500000D03*
D14*
X78600000Y-60100000D03*
X77200000Y-60100000D03*
D21*
X89200000Y-69300000D03*
X89200000Y-70700000D03*
D11*
X110595000Y-44499000D03*
X110595000Y-42999000D03*
D15*
X120900000Y-88100000D03*
X120900000Y-86600000D03*
X115100000Y-86600000D03*
X115100000Y-88100000D03*
D12*
X110350000Y-76600000D03*
X111850000Y-76600000D03*
D21*
X98200000Y-54700000D03*
X98200000Y-53300000D03*
D12*
X78650000Y-61600000D03*
X77150000Y-61600000D03*
D11*
X103895000Y-42999000D03*
X103895000Y-44499000D03*
D17*
X107725000Y-84589000D03*
X107725000Y-82249000D03*
D12*
X63600000Y-58200000D03*
X62100000Y-58200000D03*
D14*
X85695000Y-158499000D03*
X87095000Y-158499000D03*
D17*
X89125000Y-154989000D03*
X89125000Y-152649000D03*
D11*
X73400000Y-45250000D03*
X73400000Y-46750000D03*
D15*
X120900000Y-114500000D03*
X120900000Y-113000000D03*
X115100000Y-113000000D03*
X115100000Y-114500000D03*
D17*
X107825000Y-101989000D03*
X107825000Y-99649000D03*
D13*
X68970000Y-68600000D03*
X66630000Y-68600000D03*
D12*
X78050000Y-56600000D03*
X76550000Y-56600000D03*
D17*
X70525000Y-102189000D03*
X70525000Y-99849000D03*
D12*
X85850000Y-74600000D03*
X84350000Y-74600000D03*
D14*
X60050000Y-59800000D03*
X58650000Y-59800000D03*
D12*
X118800000Y-55600000D03*
X117300000Y-55600000D03*
D15*
X65100000Y-88100000D03*
X65100000Y-86600000D03*
X59300000Y-86600000D03*
X59300000Y-88100000D03*
D14*
X101495000Y-59469000D03*
X100095000Y-59469000D03*
D17*
X70525000Y-154989000D03*
X70525000Y-152649000D03*
D12*
X52795000Y-52699000D03*
X54295000Y-52699000D03*
D14*
X85695000Y-105699000D03*
X87095000Y-105699000D03*
X104295000Y-88099000D03*
X105695000Y-88099000D03*
D17*
X89125000Y-102189000D03*
X89125000Y-99849000D03*
D21*
X46625000Y-76219000D03*
X46625000Y-74819000D03*
D14*
X100095000Y-60869000D03*
X101495000Y-60869000D03*
D17*
X89125000Y-119789000D03*
X89125000Y-117449000D03*
D14*
X68100000Y-54000000D03*
X69500000Y-54000000D03*
X118800000Y-58850000D03*
X117400000Y-58850000D03*
D17*
X107725000Y-119789000D03*
X107725000Y-117449000D03*
D14*
X81800000Y-60000000D03*
X83200000Y-60000000D03*
D17*
X70525000Y-119789000D03*
X70525000Y-117449000D03*
D12*
X58600000Y-58200000D03*
X60100000Y-58200000D03*
X51475000Y-72319000D03*
X49975000Y-72319000D03*
D14*
X67095000Y-88099000D03*
X68495000Y-88099000D03*
D21*
X96800000Y-54700000D03*
X96800000Y-53300000D03*
D17*
X70525000Y-84589000D03*
X70525000Y-82249000D03*
D21*
X87700000Y-70700000D03*
X87700000Y-69300000D03*
D14*
X67095000Y-158499000D03*
X68495000Y-158499000D03*
D11*
X77600000Y-45250000D03*
X77600000Y-46750000D03*
D15*
X65100000Y-105700000D03*
X65100000Y-104200000D03*
X59300000Y-104200000D03*
X59300000Y-105700000D03*
D14*
X86095000Y-88199000D03*
X87495000Y-88199000D03*
X62150000Y-59800000D03*
X63550000Y-59800000D03*
D15*
X83700000Y-123300000D03*
X83700000Y-121800000D03*
X77900000Y-121800000D03*
X77900000Y-123300000D03*
D14*
X81800000Y-61500000D03*
X83200000Y-61500000D03*
X67095000Y-105699000D03*
X68495000Y-105699000D03*
X122895000Y-114499000D03*
X124295000Y-114499000D03*
X97400000Y-68000000D03*
X96000000Y-68000000D03*
D17*
X89081400Y-84589000D03*
X89081400Y-82249000D03*
D12*
X101550000Y-58069000D03*
X100050000Y-58069000D03*
D13*
X123680000Y-100250000D03*
X126020000Y-100250000D03*
D15*
X102300000Y-105700000D03*
X102300000Y-104200000D03*
X96500000Y-104200000D03*
X96500000Y-105700000D03*
D12*
X115150000Y-69450000D03*
X113650000Y-69450000D03*
D21*
X92600000Y-53300000D03*
X92600000Y-54700000D03*
D17*
X107725000Y-137389000D03*
X107725000Y-135049000D03*
D12*
X52745000Y-54199000D03*
X54245000Y-54199000D03*
D14*
X120850000Y-58850000D03*
X122250000Y-58850000D03*
D21*
X127000000Y-55100000D03*
X127000000Y-56500000D03*
D17*
X47445000Y-55599000D03*
X47445000Y-61599000D03*
X51145000Y-55599000D03*
X51145000Y-61599000D03*
D13*
X124600000Y-73150000D03*
X130600000Y-73150000D03*
X124600000Y-69450000D03*
X130600000Y-69450000D03*
D12*
X62950000Y-73500000D03*
X61450000Y-73500000D03*
D14*
X104800000Y-69300000D03*
X106200000Y-69300000D03*
D17*
X70525000Y-137389000D03*
X70525000Y-135049000D03*
D15*
X65100000Y-123300000D03*
X65100000Y-121800000D03*
X59300000Y-121800000D03*
X59300000Y-123300000D03*
D22*
X93700000Y-66750000D03*
X93300000Y-66750000D03*
X92900000Y-66750000D03*
X92500000Y-66750000D03*
X92100000Y-66750000D03*
X91700000Y-66750000D03*
X91300000Y-66750000D03*
X90900000Y-66750000D03*
X90500000Y-66750000D03*
X90100000Y-66750000D03*
X89700000Y-66750000D03*
X89300000Y-66750000D03*
X88900000Y-66750000D03*
X88500000Y-66750000D03*
D23*
X87550000Y-65800000D03*
X87550000Y-65400000D03*
X87550000Y-65000000D03*
X87550000Y-64600000D03*
X87550000Y-64200000D03*
X87550000Y-63800000D03*
X87550000Y-63400000D03*
X87550000Y-63000000D03*
X87550000Y-62600000D03*
X87550000Y-62200000D03*
X87550000Y-61800000D03*
X87550000Y-61400000D03*
X87550000Y-61000000D03*
X87550000Y-60600000D03*
D22*
X88500000Y-59650000D03*
X88900000Y-59650000D03*
X89300000Y-59650000D03*
X89700000Y-59650000D03*
X90100000Y-59650000D03*
X90500000Y-59650000D03*
X90900000Y-59650000D03*
X91300000Y-59650000D03*
X91700000Y-59650000D03*
X92100000Y-59650000D03*
X92500000Y-59650000D03*
X92900000Y-59650000D03*
X93300000Y-59650000D03*
X93700000Y-59650000D03*
D23*
X94650000Y-60600000D03*
X94650000Y-61000000D03*
X94650000Y-61400000D03*
X94650000Y-61800000D03*
X94650000Y-62200000D03*
X94650000Y-62600000D03*
X94650000Y-63000000D03*
X94650000Y-63400000D03*
X94650000Y-63800000D03*
X94650000Y-64200000D03*
X94650000Y-64600000D03*
X94650000Y-65000000D03*
X94650000Y-65400000D03*
X94650000Y-65800000D03*
D24*
X91100000Y-63200000D03*
D15*
X83700000Y-140900000D03*
X83700000Y-139400000D03*
X77900000Y-139400000D03*
X77900000Y-140900000D03*
D14*
X101495000Y-62269000D03*
X100095000Y-62269000D03*
D17*
X126350000Y-85170000D03*
X126350000Y-82830000D03*
D12*
X122300000Y-57100000D03*
X120800000Y-57100000D03*
D18*
X109095000Y-41649000D03*
X108095000Y-41649000D03*
D14*
X104295000Y-105699000D03*
X105695000Y-105699000D03*
D12*
X101550000Y-56769000D03*
X100050000Y-56769000D03*
D15*
X102300000Y-158500000D03*
X102300000Y-157000000D03*
X96500000Y-157000000D03*
X96500000Y-158500000D03*
X120900000Y-149700000D03*
X120900000Y-148200000D03*
X115100000Y-148200000D03*
X115100000Y-149700000D03*
D12*
X113650000Y-70950000D03*
X115150000Y-70950000D03*
D15*
X83700000Y-158500000D03*
X83700000Y-157000000D03*
X77900000Y-157000000D03*
X77900000Y-158500000D03*
D25*
X76335000Y-66485000D03*
X76335000Y-64285000D03*
X78035000Y-64285000D03*
X78035000Y-66485000D03*
D15*
X83700000Y-105700000D03*
X83700000Y-104200000D03*
X77900000Y-104200000D03*
X77900000Y-105700000D03*
D21*
X94000000Y-54700000D03*
X94000000Y-53300000D03*
D15*
X65100000Y-140900000D03*
X65100000Y-139400000D03*
X59300000Y-139400000D03*
X59300000Y-140900000D03*
D12*
X60100000Y-56700000D03*
X58600000Y-56700000D03*
X78050000Y-55300000D03*
X76550000Y-55300000D03*
D21*
X87295000Y-53299000D03*
X87295000Y-54699000D03*
D15*
X102300000Y-88100000D03*
X102300000Y-86600000D03*
X96500000Y-86600000D03*
X96500000Y-88100000D03*
D17*
X89125000Y-137389000D03*
X89125000Y-135049000D03*
D14*
X67095000Y-140899000D03*
X68495000Y-140899000D03*
D11*
X95400000Y-54750000D03*
X95400000Y-53250000D03*
D14*
X104295000Y-123299000D03*
X105695000Y-123299000D03*
D26*
X51095000Y-74449000D03*
X51095000Y-75399000D03*
X51095000Y-76349000D03*
X48895000Y-76349000D03*
X48895000Y-74449000D03*
D14*
X120895000Y-151699000D03*
X119495000Y-151699000D03*
X82100000Y-66100000D03*
X80700000Y-66100000D03*
M02*
