%TF.GenerationSoftware,KiCad,Pcbnew,8.0.7*%
%TF.CreationDate,2025-01-13T19:24:30-05:00*%
%TF.ProjectId,numpad,6e756d70-6164-42e6-9b69-6361645f7063,rev?*%
%TF.SameCoordinates,Original*%
%TF.FileFunction,Drillmap*%
%TF.FilePolarity,Positive*%
%FSLAX45Y45*%
G04 Gerber Fmt 4.5, Leading zero omitted, Abs format (unit mm)*
G04 Created by KiCad (PCBNEW 8.0.7) date 2025-01-13 19:24:30*
%MOMM*%
%LPD*%
G01*
G04 APERTURE LIST*
%ADD10C,0.200000*%
%ADD11C,0.100000*%
%ADD12C,0.152400*%
%ADD13C,0.170180*%
%ADD14C,0.300000*%
%ADD15C,0.342900*%
G04 APERTURE END LIST*
D10*
X13500000Y-16000000D02*
G75*
G02*
X13000000Y-16500000I-500000J0D01*
G01*
X5000000Y-16500000D02*
G75*
G02*
X4500000Y-16000000I0J500000D01*
G01*
X13000000Y-16500000D02*
X5000000Y-16500000D01*
X4500000Y-16000000D02*
X4500000Y-4000000D01*
D11*
X10150000Y-3275000D02*
X10150000Y-3500000D01*
D10*
X4500000Y-4000000D02*
G75*
G02*
X5000000Y-3500000I500000J0D01*
G01*
D11*
X13000000Y-3500000D02*
X11300000Y-3500000D01*
X11300000Y-3275000D02*
X10150000Y-3275000D01*
D10*
X13500000Y-16000000D02*
X13500000Y-4000000D01*
D11*
X11300000Y-3500000D02*
X11300000Y-3275000D01*
D10*
X13000000Y-3500000D02*
G75*
G02*
X13500000Y-4000000I0J-500000D01*
G01*
D11*
X10150000Y-3500000D02*
X5000000Y-3500000D01*
D12*
X10105000Y-12110000D02*
X9775000Y-12110000D01*
X9775000Y-12400000D01*
X10105000Y-12400000D01*
X10105000Y-12110000D01*
X8245000Y-8590000D02*
X7915000Y-8590000D01*
X7915000Y-8880000D01*
X8245000Y-8880000D01*
X8245000Y-8590000D01*
X10105000Y-13870000D02*
X9775000Y-13870000D01*
X9775000Y-14160000D01*
X10105000Y-14160000D01*
X10105000Y-13870000D01*
X6385000Y-15630000D02*
X6055000Y-15630000D01*
X6055000Y-15920000D01*
X6385000Y-15920000D01*
X6385000Y-15630000D01*
X11965000Y-8590000D02*
X11635000Y-8590000D01*
X11635000Y-8880000D01*
X11965000Y-8880000D01*
X11965000Y-8590000D01*
X11965000Y-11230000D02*
X11635000Y-11230000D01*
X11635000Y-11520000D01*
X11965000Y-11520000D01*
X11965000Y-11230000D01*
X6385000Y-8590000D02*
X6055000Y-8590000D01*
X6055000Y-8880000D01*
X6385000Y-8880000D01*
X6385000Y-8590000D01*
X6385000Y-10350000D02*
X6055000Y-10350000D01*
X6055000Y-10640000D01*
X6385000Y-10640000D01*
X6385000Y-10350000D01*
X8245000Y-12110000D02*
X7915000Y-12110000D01*
X7915000Y-12400000D01*
X8245000Y-12400000D01*
X8245000Y-12110000D01*
X10105000Y-10350000D02*
X9775000Y-10350000D01*
X9775000Y-10640000D01*
X10105000Y-10640000D01*
X10105000Y-10350000D01*
X6385000Y-12110000D02*
X6055000Y-12110000D01*
X6055000Y-12400000D01*
X6385000Y-12400000D01*
X6385000Y-12110000D01*
X8245000Y-13870000D02*
X7915000Y-13870000D01*
X7915000Y-14160000D01*
X8245000Y-14160000D01*
X8245000Y-13870000D01*
X10105000Y-15630000D02*
X9775000Y-15630000D01*
X9775000Y-15920000D01*
X10105000Y-15920000D01*
X10105000Y-15630000D01*
X11965000Y-14750000D02*
X11635000Y-14750000D01*
X11635000Y-15040000D01*
X11965000Y-15040000D01*
X11965000Y-14750000D01*
X8245000Y-15630000D02*
X7915000Y-15630000D01*
X7915000Y-15920000D01*
X8245000Y-15920000D01*
X8245000Y-15630000D01*
X8245000Y-10350000D02*
X7915000Y-10350000D01*
X7915000Y-10640000D01*
X8245000Y-10640000D01*
X8245000Y-10350000D01*
X6385000Y-13870000D02*
X6055000Y-13870000D01*
X6055000Y-14160000D01*
X6385000Y-14160000D01*
X6385000Y-13870000D01*
X10105000Y-8590000D02*
X9775000Y-8590000D01*
X9775000Y-8880000D01*
X10105000Y-8880000D01*
X10105000Y-8590000D01*
D10*
D11*
X10398500Y-3756900D02*
X10468500Y-3826900D01*
X10468500Y-3756900D02*
X10398500Y-3826900D01*
X10976500Y-3756900D02*
X11046500Y-3826900D01*
X11046500Y-3756900D02*
X10976500Y-3826900D01*
X5747530Y-8685000D02*
G75*
G02*
X5648470Y-8685000I-49530J0D01*
G01*
X5648470Y-8685000D02*
G75*
G02*
X5747530Y-8685000I49530J0D01*
G01*
X5747530Y-10445000D02*
G75*
G02*
X5648470Y-10445000I-49530J0D01*
G01*
X5648470Y-10445000D02*
G75*
G02*
X5747530Y-10445000I49530J0D01*
G01*
X5747530Y-12205000D02*
G75*
G02*
X5648470Y-12205000I-49530J0D01*
G01*
X5648470Y-12205000D02*
G75*
G02*
X5747530Y-12205000I49530J0D01*
G01*
X5747530Y-13965000D02*
G75*
G02*
X5648470Y-13965000I-49530J0D01*
G01*
X5648470Y-13965000D02*
G75*
G02*
X5747530Y-13965000I49530J0D01*
G01*
X5747530Y-15725000D02*
G75*
G02*
X5648470Y-15725000I-49530J0D01*
G01*
X5648470Y-15725000D02*
G75*
G02*
X5747530Y-15725000I49530J0D01*
G01*
X7607530Y-8685000D02*
G75*
G02*
X7508470Y-8685000I-49530J0D01*
G01*
X7508470Y-8685000D02*
G75*
G02*
X7607530Y-8685000I49530J0D01*
G01*
X7607530Y-10445000D02*
G75*
G02*
X7508470Y-10445000I-49530J0D01*
G01*
X7508470Y-10445000D02*
G75*
G02*
X7607530Y-10445000I49530J0D01*
G01*
X7607530Y-12205000D02*
G75*
G02*
X7508470Y-12205000I-49530J0D01*
G01*
X7508470Y-12205000D02*
G75*
G02*
X7607530Y-12205000I49530J0D01*
G01*
X7607530Y-13965000D02*
G75*
G02*
X7508470Y-13965000I-49530J0D01*
G01*
X7508470Y-13965000D02*
G75*
G02*
X7607530Y-13965000I49530J0D01*
G01*
X7607530Y-15725000D02*
G75*
G02*
X7508470Y-15725000I-49530J0D01*
G01*
X7508470Y-15725000D02*
G75*
G02*
X7607530Y-15725000I49530J0D01*
G01*
X9467530Y-8685000D02*
G75*
G02*
X9368470Y-8685000I-49530J0D01*
G01*
X9368470Y-8685000D02*
G75*
G02*
X9467530Y-8685000I49530J0D01*
G01*
X9467530Y-10445000D02*
G75*
G02*
X9368470Y-10445000I-49530J0D01*
G01*
X9368470Y-10445000D02*
G75*
G02*
X9467530Y-10445000I49530J0D01*
G01*
X9467530Y-12205000D02*
G75*
G02*
X9368470Y-12205000I-49530J0D01*
G01*
X9368470Y-12205000D02*
G75*
G02*
X9467530Y-12205000I49530J0D01*
G01*
X9467530Y-13965000D02*
G75*
G02*
X9368470Y-13965000I-49530J0D01*
G01*
X9368470Y-13965000D02*
G75*
G02*
X9467530Y-13965000I49530J0D01*
G01*
X9467530Y-15725000D02*
G75*
G02*
X9368470Y-15725000I-49530J0D01*
G01*
X9368470Y-15725000D02*
G75*
G02*
X9467530Y-15725000I49530J0D01*
G01*
X11327530Y-8685000D02*
G75*
G02*
X11228470Y-8685000I-49530J0D01*
G01*
X11228470Y-8685000D02*
G75*
G02*
X11327530Y-8685000I49530J0D01*
G01*
X11327530Y-11325000D02*
G75*
G02*
X11228470Y-11325000I-49530J0D01*
G01*
X11228470Y-11325000D02*
G75*
G02*
X11327530Y-11325000I49530J0D01*
G01*
X11327530Y-14845000D02*
G75*
G02*
X11228470Y-14845000I-49530J0D01*
G01*
X11228470Y-14845000D02*
G75*
G02*
X11327530Y-14845000I49530J0D01*
G01*
D13*
X5670000Y-8179910D02*
X5670000Y-8350090D01*
X5584910Y-8265000D02*
X5755090Y-8265000D01*
X5670000Y-9939910D02*
X5670000Y-10110090D01*
X5584910Y-10025000D02*
X5755090Y-10025000D01*
X5670000Y-11699910D02*
X5670000Y-11870090D01*
X5584910Y-11785000D02*
X5755090Y-11785000D01*
X5670000Y-13459910D02*
X5670000Y-13630090D01*
X5584910Y-13545000D02*
X5755090Y-13545000D01*
X5670000Y-15219910D02*
X5670000Y-15390090D01*
X5584910Y-15305000D02*
X5755090Y-15305000D01*
X6770000Y-8179910D02*
X6770000Y-8350090D01*
X6684910Y-8265000D02*
X6855090Y-8265000D01*
X6770000Y-9939910D02*
X6770000Y-10110090D01*
X6684910Y-10025000D02*
X6855090Y-10025000D01*
X6770000Y-11699910D02*
X6770000Y-11870090D01*
X6684910Y-11785000D02*
X6855090Y-11785000D01*
X6770000Y-13459910D02*
X6770000Y-13630090D01*
X6684910Y-13545000D02*
X6855090Y-13545000D01*
X6770000Y-15219910D02*
X6770000Y-15390090D01*
X6684910Y-15305000D02*
X6855090Y-15305000D01*
X7530000Y-8179910D02*
X7530000Y-8350090D01*
X7444910Y-8265000D02*
X7615090Y-8265000D01*
X7530000Y-9939910D02*
X7530000Y-10110090D01*
X7444910Y-10025000D02*
X7615090Y-10025000D01*
X7530000Y-11699910D02*
X7530000Y-11870090D01*
X7444910Y-11785000D02*
X7615090Y-11785000D01*
X7530000Y-13459910D02*
X7530000Y-13630090D01*
X7444910Y-13545000D02*
X7615090Y-13545000D01*
X7530000Y-15219910D02*
X7530000Y-15390090D01*
X7444910Y-15305000D02*
X7615090Y-15305000D01*
X8630000Y-8179910D02*
X8630000Y-8350090D01*
X8544910Y-8265000D02*
X8715090Y-8265000D01*
X8630000Y-9939910D02*
X8630000Y-10110090D01*
X8544910Y-10025000D02*
X8715090Y-10025000D01*
X8630000Y-11699910D02*
X8630000Y-11870090D01*
X8544910Y-11785000D02*
X8715090Y-11785000D01*
X8630000Y-13459910D02*
X8630000Y-13630090D01*
X8544910Y-13545000D02*
X8715090Y-13545000D01*
X8630000Y-15219910D02*
X8630000Y-15390090D01*
X8544910Y-15305000D02*
X8715090Y-15305000D01*
X9390000Y-8179910D02*
X9390000Y-8350090D01*
X9304910Y-8265000D02*
X9475090Y-8265000D01*
X9390000Y-9939910D02*
X9390000Y-10110090D01*
X9304910Y-10025000D02*
X9475090Y-10025000D01*
X9390000Y-11699910D02*
X9390000Y-11870090D01*
X9304910Y-11785000D02*
X9475090Y-11785000D01*
X9390000Y-13459910D02*
X9390000Y-13630090D01*
X9304910Y-13545000D02*
X9475090Y-13545000D01*
X9390000Y-15219910D02*
X9390000Y-15390090D01*
X9304910Y-15305000D02*
X9475090Y-15305000D01*
X10490000Y-8179910D02*
X10490000Y-8350090D01*
X10404910Y-8265000D02*
X10575090Y-8265000D01*
X10490000Y-9939910D02*
X10490000Y-10110090D01*
X10404910Y-10025000D02*
X10575090Y-10025000D01*
X10490000Y-11699910D02*
X10490000Y-11870090D01*
X10404910Y-11785000D02*
X10575090Y-11785000D01*
X10490000Y-13459910D02*
X10490000Y-13630090D01*
X10404910Y-13545000D02*
X10575090Y-13545000D01*
X10490000Y-15219910D02*
X10490000Y-15390090D01*
X10404910Y-15305000D02*
X10575090Y-15305000D01*
X11250000Y-8179910D02*
X11250000Y-8350090D01*
X11164910Y-8265000D02*
X11335090Y-8265000D01*
X11250000Y-10819910D02*
X11250000Y-10990090D01*
X11164910Y-10905000D02*
X11335090Y-10905000D01*
X11250000Y-14339910D02*
X11250000Y-14510090D01*
X11164910Y-14425000D02*
X11335090Y-14425000D01*
X12350000Y-8179910D02*
X12350000Y-8350090D01*
X12264910Y-8265000D02*
X12435090Y-8265000D01*
X12350000Y-10819910D02*
X12350000Y-10990090D01*
X12264910Y-10905000D02*
X12435090Y-10905000D01*
X12350000Y-14339910D02*
X12350000Y-14510090D01*
X12264910Y-14425000D02*
X12435090Y-14425000D01*
D14*
X6326067Y-7776067D02*
X6326067Y-7563933D01*
X6113933Y-7563933D01*
X6113933Y-7776067D01*
X6326067Y-7776067D01*
X6326067Y-9536067D02*
X6326067Y-9323933D01*
X6113933Y-9323933D01*
X6113933Y-9536067D01*
X6326067Y-9536067D01*
X6326067Y-11296067D02*
X6326067Y-11083933D01*
X6113933Y-11083933D01*
X6113933Y-11296067D01*
X6326067Y-11296067D01*
X6326067Y-13056067D02*
X6326067Y-12843933D01*
X6113933Y-12843933D01*
X6113933Y-13056067D01*
X6326067Y-13056067D01*
X6326067Y-14816067D02*
X6326067Y-14603933D01*
X6113933Y-14603933D01*
X6113933Y-14816067D01*
X6326067Y-14816067D01*
X6826067Y-7996067D02*
X6826067Y-7783933D01*
X6613933Y-7783933D01*
X6613933Y-7996067D01*
X6826067Y-7996067D01*
X6826067Y-9756067D02*
X6826067Y-9543933D01*
X6613933Y-9543933D01*
X6613933Y-9756067D01*
X6826067Y-9756067D01*
X6826067Y-11516067D02*
X6826067Y-11303933D01*
X6613933Y-11303933D01*
X6613933Y-11516067D01*
X6826067Y-11516067D01*
X6826067Y-13276067D02*
X6826067Y-13063933D01*
X6613933Y-13063933D01*
X6613933Y-13276067D01*
X6826067Y-13276067D01*
X6826067Y-15036067D02*
X6826067Y-14823933D01*
X6613933Y-14823933D01*
X6613933Y-15036067D01*
X6826067Y-15036067D01*
X8186067Y-7776067D02*
X8186067Y-7563933D01*
X7973933Y-7563933D01*
X7973933Y-7776067D01*
X8186067Y-7776067D01*
X8186067Y-9536067D02*
X8186067Y-9323933D01*
X7973933Y-9323933D01*
X7973933Y-9536067D01*
X8186067Y-9536067D01*
X8186067Y-11296067D02*
X8186067Y-11083933D01*
X7973933Y-11083933D01*
X7973933Y-11296067D01*
X8186067Y-11296067D01*
X8186067Y-13056067D02*
X8186067Y-12843933D01*
X7973933Y-12843933D01*
X7973933Y-13056067D01*
X8186067Y-13056067D01*
X8186067Y-14816067D02*
X8186067Y-14603933D01*
X7973933Y-14603933D01*
X7973933Y-14816067D01*
X8186067Y-14816067D01*
X8686067Y-7996067D02*
X8686067Y-7783933D01*
X8473933Y-7783933D01*
X8473933Y-7996067D01*
X8686067Y-7996067D01*
X8686067Y-9756067D02*
X8686067Y-9543933D01*
X8473933Y-9543933D01*
X8473933Y-9756067D01*
X8686067Y-9756067D01*
X8686067Y-11516067D02*
X8686067Y-11303933D01*
X8473933Y-11303933D01*
X8473933Y-11516067D01*
X8686067Y-11516067D01*
X8686067Y-13276067D02*
X8686067Y-13063933D01*
X8473933Y-13063933D01*
X8473933Y-13276067D01*
X8686067Y-13276067D01*
X8686067Y-15036067D02*
X8686067Y-14823933D01*
X8473933Y-14823933D01*
X8473933Y-15036067D01*
X8686067Y-15036067D01*
X10046067Y-7776067D02*
X10046067Y-7563933D01*
X9833933Y-7563933D01*
X9833933Y-7776067D01*
X10046067Y-7776067D01*
X10046067Y-9536067D02*
X10046067Y-9323933D01*
X9833933Y-9323933D01*
X9833933Y-9536067D01*
X10046067Y-9536067D01*
X10046067Y-11296067D02*
X10046067Y-11083933D01*
X9833933Y-11083933D01*
X9833933Y-11296067D01*
X10046067Y-11296067D01*
X10046067Y-13056067D02*
X10046067Y-12843933D01*
X9833933Y-12843933D01*
X9833933Y-13056067D01*
X10046067Y-13056067D01*
X10046067Y-14816067D02*
X10046067Y-14603933D01*
X9833933Y-14603933D01*
X9833933Y-14816067D01*
X10046067Y-14816067D01*
X10546067Y-7996067D02*
X10546067Y-7783933D01*
X10333933Y-7783933D01*
X10333933Y-7996067D01*
X10546067Y-7996067D01*
X10546067Y-9756067D02*
X10546067Y-9543933D01*
X10333933Y-9543933D01*
X10333933Y-9756067D01*
X10546067Y-9756067D01*
X10546067Y-11516067D02*
X10546067Y-11303933D01*
X10333933Y-11303933D01*
X10333933Y-11516067D01*
X10546067Y-11516067D01*
X10546067Y-13276067D02*
X10546067Y-13063933D01*
X10333933Y-13063933D01*
X10333933Y-13276067D01*
X10546067Y-13276067D01*
X10546067Y-15036067D02*
X10546067Y-14823933D01*
X10333933Y-14823933D01*
X10333933Y-15036067D01*
X10546067Y-15036067D01*
X11906067Y-7776067D02*
X11906067Y-7563933D01*
X11693933Y-7563933D01*
X11693933Y-7776067D01*
X11906067Y-7776067D01*
X11906067Y-10416067D02*
X11906067Y-10203933D01*
X11693933Y-10203933D01*
X11693933Y-10416067D01*
X11906067Y-10416067D01*
X11906067Y-13936067D02*
X11906067Y-13723933D01*
X11693933Y-13723933D01*
X11693933Y-13936067D01*
X11906067Y-13936067D01*
X12406067Y-7996067D02*
X12406067Y-7783933D01*
X12193933Y-7783933D01*
X12193933Y-7996067D01*
X12406067Y-7996067D01*
X12406067Y-10636067D02*
X12406067Y-10423933D01*
X12193933Y-10423933D01*
X12193933Y-10636067D01*
X12406067Y-10636067D01*
X12406067Y-14156067D02*
X12406067Y-13943933D01*
X12193933Y-13943933D01*
X12193933Y-14156067D01*
X12406067Y-14156067D01*
D15*
X6220000Y-8436450D02*
X6391450Y-8265000D01*
X6220000Y-8093550D01*
X6048550Y-8265000D01*
X6220000Y-8436450D01*
X6220000Y-10196450D02*
X6391450Y-10025000D01*
X6220000Y-9853550D01*
X6048550Y-10025000D01*
X6220000Y-10196450D01*
X6220000Y-11956450D02*
X6391450Y-11785000D01*
X6220000Y-11613550D01*
X6048550Y-11785000D01*
X6220000Y-11956450D01*
X6220000Y-13716450D02*
X6391450Y-13545000D01*
X6220000Y-13373550D01*
X6048550Y-13545000D01*
X6220000Y-13716450D01*
X6220000Y-15476450D02*
X6391450Y-15305000D01*
X6220000Y-15133550D01*
X6048550Y-15305000D01*
X6220000Y-15476450D01*
X8080000Y-8436450D02*
X8251450Y-8265000D01*
X8080000Y-8093550D01*
X7908550Y-8265000D01*
X8080000Y-8436450D01*
X8080000Y-10196450D02*
X8251450Y-10025000D01*
X8080000Y-9853550D01*
X7908550Y-10025000D01*
X8080000Y-10196450D01*
X8080000Y-11956450D02*
X8251450Y-11785000D01*
X8080000Y-11613550D01*
X7908550Y-11785000D01*
X8080000Y-11956450D01*
X8080000Y-13716450D02*
X8251450Y-13545000D01*
X8080000Y-13373550D01*
X7908550Y-13545000D01*
X8080000Y-13716450D01*
X8080000Y-15476450D02*
X8251450Y-15305000D01*
X8080000Y-15133550D01*
X7908550Y-15305000D01*
X8080000Y-15476450D01*
X9940000Y-8436450D02*
X10111450Y-8265000D01*
X9940000Y-8093550D01*
X9768550Y-8265000D01*
X9940000Y-8436450D01*
X9940000Y-10196450D02*
X10111450Y-10025000D01*
X9940000Y-9853550D01*
X9768550Y-10025000D01*
X9940000Y-10196450D01*
X9940000Y-11956450D02*
X10111450Y-11785000D01*
X9940000Y-11613550D01*
X9768550Y-11785000D01*
X9940000Y-11956450D01*
X9940000Y-13716450D02*
X10111450Y-13545000D01*
X9940000Y-13373550D01*
X9768550Y-13545000D01*
X9940000Y-13716450D01*
X9940000Y-15476450D02*
X10111450Y-15305000D01*
X9940000Y-15133550D01*
X9768550Y-15305000D01*
X9940000Y-15476450D01*
X11800000Y-8436450D02*
X11971450Y-8265000D01*
X11800000Y-8093550D01*
X11628550Y-8265000D01*
X11800000Y-8436450D01*
X11800000Y-11076450D02*
X11971450Y-10905000D01*
X11800000Y-10733550D01*
X11628550Y-10905000D01*
X11800000Y-11076450D01*
X11800000Y-14596450D02*
X11971450Y-14425000D01*
X11800000Y-14253550D01*
X11628550Y-14425000D01*
X11800000Y-14596450D01*
D10*
X4750777Y-16821484D02*
X4750777Y-16621484D01*
X4750777Y-16621484D02*
X4798396Y-16621484D01*
X4798396Y-16621484D02*
X4826967Y-16631008D01*
X4826967Y-16631008D02*
X4846015Y-16650055D01*
X4846015Y-16650055D02*
X4855539Y-16669103D01*
X4855539Y-16669103D02*
X4865063Y-16707198D01*
X4865063Y-16707198D02*
X4865063Y-16735769D01*
X4865063Y-16735769D02*
X4855539Y-16773865D01*
X4855539Y-16773865D02*
X4846015Y-16792912D01*
X4846015Y-16792912D02*
X4826967Y-16811960D01*
X4826967Y-16811960D02*
X4798396Y-16821484D01*
X4798396Y-16821484D02*
X4750777Y-16821484D01*
X4950777Y-16821484D02*
X4950777Y-16688150D01*
X4950777Y-16726246D02*
X4960301Y-16707198D01*
X4960301Y-16707198D02*
X4969824Y-16697674D01*
X4969824Y-16697674D02*
X4988872Y-16688150D01*
X4988872Y-16688150D02*
X5007920Y-16688150D01*
X5074586Y-16821484D02*
X5074586Y-16688150D01*
X5074586Y-16621484D02*
X5065063Y-16631008D01*
X5065063Y-16631008D02*
X5074586Y-16640531D01*
X5074586Y-16640531D02*
X5084110Y-16631008D01*
X5084110Y-16631008D02*
X5074586Y-16621484D01*
X5074586Y-16621484D02*
X5074586Y-16640531D01*
X5198396Y-16821484D02*
X5179348Y-16811960D01*
X5179348Y-16811960D02*
X5169824Y-16792912D01*
X5169824Y-16792912D02*
X5169824Y-16621484D01*
X5303158Y-16821484D02*
X5284110Y-16811960D01*
X5284110Y-16811960D02*
X5274586Y-16792912D01*
X5274586Y-16792912D02*
X5274586Y-16621484D01*
X5531729Y-16821484D02*
X5531729Y-16621484D01*
X5531729Y-16621484D02*
X5598396Y-16764341D01*
X5598396Y-16764341D02*
X5665062Y-16621484D01*
X5665062Y-16621484D02*
X5665062Y-16821484D01*
X5846015Y-16821484D02*
X5846015Y-16716722D01*
X5846015Y-16716722D02*
X5836491Y-16697674D01*
X5836491Y-16697674D02*
X5817443Y-16688150D01*
X5817443Y-16688150D02*
X5779348Y-16688150D01*
X5779348Y-16688150D02*
X5760301Y-16697674D01*
X5846015Y-16811960D02*
X5826967Y-16821484D01*
X5826967Y-16821484D02*
X5779348Y-16821484D01*
X5779348Y-16821484D02*
X5760301Y-16811960D01*
X5760301Y-16811960D02*
X5750777Y-16792912D01*
X5750777Y-16792912D02*
X5750777Y-16773865D01*
X5750777Y-16773865D02*
X5760301Y-16754817D01*
X5760301Y-16754817D02*
X5779348Y-16745293D01*
X5779348Y-16745293D02*
X5826967Y-16745293D01*
X5826967Y-16745293D02*
X5846015Y-16735769D01*
X5941253Y-16688150D02*
X5941253Y-16888150D01*
X5941253Y-16697674D02*
X5960301Y-16688150D01*
X5960301Y-16688150D02*
X5998396Y-16688150D01*
X5998396Y-16688150D02*
X6017443Y-16697674D01*
X6017443Y-16697674D02*
X6026967Y-16707198D01*
X6026967Y-16707198D02*
X6036491Y-16726246D01*
X6036491Y-16726246D02*
X6036491Y-16783389D01*
X6036491Y-16783389D02*
X6026967Y-16802436D01*
X6026967Y-16802436D02*
X6017443Y-16811960D01*
X6017443Y-16811960D02*
X5998396Y-16821484D01*
X5998396Y-16821484D02*
X5960301Y-16821484D01*
X5960301Y-16821484D02*
X5941253Y-16811960D01*
X6122205Y-16802436D02*
X6131729Y-16811960D01*
X6131729Y-16811960D02*
X6122205Y-16821484D01*
X6122205Y-16821484D02*
X6112682Y-16811960D01*
X6112682Y-16811960D02*
X6122205Y-16802436D01*
X6122205Y-16802436D02*
X6122205Y-16821484D01*
X6122205Y-16697674D02*
X6131729Y-16707198D01*
X6131729Y-16707198D02*
X6122205Y-16716722D01*
X6122205Y-16716722D02*
X6112682Y-16707198D01*
X6112682Y-16707198D02*
X6122205Y-16697674D01*
X6122205Y-16697674D02*
X6122205Y-16716722D01*
D11*
X4420000Y-17115000D02*
X4490000Y-17185000D01*
X4490000Y-17115000D02*
X4420000Y-17185000D01*
D10*
X4788872Y-17041484D02*
X4807920Y-17041484D01*
X4807920Y-17041484D02*
X4826967Y-17051008D01*
X4826967Y-17051008D02*
X4836491Y-17060531D01*
X4836491Y-17060531D02*
X4846015Y-17079579D01*
X4846015Y-17079579D02*
X4855539Y-17117674D01*
X4855539Y-17117674D02*
X4855539Y-17165293D01*
X4855539Y-17165293D02*
X4846015Y-17203389D01*
X4846015Y-17203389D02*
X4836491Y-17222436D01*
X4836491Y-17222436D02*
X4826967Y-17231960D01*
X4826967Y-17231960D02*
X4807920Y-17241484D01*
X4807920Y-17241484D02*
X4788872Y-17241484D01*
X4788872Y-17241484D02*
X4769824Y-17231960D01*
X4769824Y-17231960D02*
X4760301Y-17222436D01*
X4760301Y-17222436D02*
X4750777Y-17203389D01*
X4750777Y-17203389D02*
X4741253Y-17165293D01*
X4741253Y-17165293D02*
X4741253Y-17117674D01*
X4741253Y-17117674D02*
X4750777Y-17079579D01*
X4750777Y-17079579D02*
X4760301Y-17060531D01*
X4760301Y-17060531D02*
X4769824Y-17051008D01*
X4769824Y-17051008D02*
X4788872Y-17041484D01*
X4941253Y-17222436D02*
X4950777Y-17231960D01*
X4950777Y-17231960D02*
X4941253Y-17241484D01*
X4941253Y-17241484D02*
X4931729Y-17231960D01*
X4931729Y-17231960D02*
X4941253Y-17222436D01*
X4941253Y-17222436D02*
X4941253Y-17241484D01*
X5017444Y-17041484D02*
X5150777Y-17041484D01*
X5150777Y-17041484D02*
X5065063Y-17241484D01*
X5265063Y-17041484D02*
X5284110Y-17041484D01*
X5284110Y-17041484D02*
X5303158Y-17051008D01*
X5303158Y-17051008D02*
X5312682Y-17060531D01*
X5312682Y-17060531D02*
X5322205Y-17079579D01*
X5322205Y-17079579D02*
X5331729Y-17117674D01*
X5331729Y-17117674D02*
X5331729Y-17165293D01*
X5331729Y-17165293D02*
X5322205Y-17203389D01*
X5322205Y-17203389D02*
X5312682Y-17222436D01*
X5312682Y-17222436D02*
X5303158Y-17231960D01*
X5303158Y-17231960D02*
X5284110Y-17241484D01*
X5284110Y-17241484D02*
X5265063Y-17241484D01*
X5265063Y-17241484D02*
X5246015Y-17231960D01*
X5246015Y-17231960D02*
X5236491Y-17222436D01*
X5236491Y-17222436D02*
X5226967Y-17203389D01*
X5226967Y-17203389D02*
X5217444Y-17165293D01*
X5217444Y-17165293D02*
X5217444Y-17117674D01*
X5217444Y-17117674D02*
X5226967Y-17079579D01*
X5226967Y-17079579D02*
X5236491Y-17060531D01*
X5236491Y-17060531D02*
X5246015Y-17051008D01*
X5246015Y-17051008D02*
X5265063Y-17041484D01*
X5455539Y-17041484D02*
X5474586Y-17041484D01*
X5474586Y-17041484D02*
X5493634Y-17051008D01*
X5493634Y-17051008D02*
X5503158Y-17060531D01*
X5503158Y-17060531D02*
X5512682Y-17079579D01*
X5512682Y-17079579D02*
X5522205Y-17117674D01*
X5522205Y-17117674D02*
X5522205Y-17165293D01*
X5522205Y-17165293D02*
X5512682Y-17203389D01*
X5512682Y-17203389D02*
X5503158Y-17222436D01*
X5503158Y-17222436D02*
X5493634Y-17231960D01*
X5493634Y-17231960D02*
X5474586Y-17241484D01*
X5474586Y-17241484D02*
X5455539Y-17241484D01*
X5455539Y-17241484D02*
X5436491Y-17231960D01*
X5436491Y-17231960D02*
X5426967Y-17222436D01*
X5426967Y-17222436D02*
X5417444Y-17203389D01*
X5417444Y-17203389D02*
X5407920Y-17165293D01*
X5407920Y-17165293D02*
X5407920Y-17117674D01*
X5407920Y-17117674D02*
X5417444Y-17079579D01*
X5417444Y-17079579D02*
X5426967Y-17060531D01*
X5426967Y-17060531D02*
X5436491Y-17051008D01*
X5436491Y-17051008D02*
X5455539Y-17041484D01*
X5607920Y-17241484D02*
X5607920Y-17108150D01*
X5607920Y-17127198D02*
X5617443Y-17117674D01*
X5617443Y-17117674D02*
X5636491Y-17108150D01*
X5636491Y-17108150D02*
X5665063Y-17108150D01*
X5665063Y-17108150D02*
X5684110Y-17117674D01*
X5684110Y-17117674D02*
X5693634Y-17136722D01*
X5693634Y-17136722D02*
X5693634Y-17241484D01*
X5693634Y-17136722D02*
X5703158Y-17117674D01*
X5703158Y-17117674D02*
X5722205Y-17108150D01*
X5722205Y-17108150D02*
X5750777Y-17108150D01*
X5750777Y-17108150D02*
X5769824Y-17117674D01*
X5769824Y-17117674D02*
X5779348Y-17136722D01*
X5779348Y-17136722D02*
X5779348Y-17241484D01*
X5874586Y-17241484D02*
X5874586Y-17108150D01*
X5874586Y-17127198D02*
X5884110Y-17117674D01*
X5884110Y-17117674D02*
X5903158Y-17108150D01*
X5903158Y-17108150D02*
X5931729Y-17108150D01*
X5931729Y-17108150D02*
X5950777Y-17117674D01*
X5950777Y-17117674D02*
X5960301Y-17136722D01*
X5960301Y-17136722D02*
X5960301Y-17241484D01*
X5960301Y-17136722D02*
X5969824Y-17117674D01*
X5969824Y-17117674D02*
X5988872Y-17108150D01*
X5988872Y-17108150D02*
X6017443Y-17108150D01*
X6017443Y-17108150D02*
X6036491Y-17117674D01*
X6036491Y-17117674D02*
X6046015Y-17136722D01*
X6046015Y-17136722D02*
X6046015Y-17241484D01*
X6436491Y-17031960D02*
X6265063Y-17289103D01*
X6693634Y-17041484D02*
X6712682Y-17041484D01*
X6712682Y-17041484D02*
X6731729Y-17051008D01*
X6731729Y-17051008D02*
X6741253Y-17060531D01*
X6741253Y-17060531D02*
X6750777Y-17079579D01*
X6750777Y-17079579D02*
X6760301Y-17117674D01*
X6760301Y-17117674D02*
X6760301Y-17165293D01*
X6760301Y-17165293D02*
X6750777Y-17203389D01*
X6750777Y-17203389D02*
X6741253Y-17222436D01*
X6741253Y-17222436D02*
X6731729Y-17231960D01*
X6731729Y-17231960D02*
X6712682Y-17241484D01*
X6712682Y-17241484D02*
X6693634Y-17241484D01*
X6693634Y-17241484D02*
X6674586Y-17231960D01*
X6674586Y-17231960D02*
X6665063Y-17222436D01*
X6665063Y-17222436D02*
X6655539Y-17203389D01*
X6655539Y-17203389D02*
X6646015Y-17165293D01*
X6646015Y-17165293D02*
X6646015Y-17117674D01*
X6646015Y-17117674D02*
X6655539Y-17079579D01*
X6655539Y-17079579D02*
X6665063Y-17060531D01*
X6665063Y-17060531D02*
X6674586Y-17051008D01*
X6674586Y-17051008D02*
X6693634Y-17041484D01*
X6846015Y-17222436D02*
X6855539Y-17231960D01*
X6855539Y-17231960D02*
X6846015Y-17241484D01*
X6846015Y-17241484D02*
X6836491Y-17231960D01*
X6836491Y-17231960D02*
X6846015Y-17222436D01*
X6846015Y-17222436D02*
X6846015Y-17241484D01*
X6979348Y-17041484D02*
X6998396Y-17041484D01*
X6998396Y-17041484D02*
X7017444Y-17051008D01*
X7017444Y-17051008D02*
X7026967Y-17060531D01*
X7026967Y-17060531D02*
X7036491Y-17079579D01*
X7036491Y-17079579D02*
X7046015Y-17117674D01*
X7046015Y-17117674D02*
X7046015Y-17165293D01*
X7046015Y-17165293D02*
X7036491Y-17203389D01*
X7036491Y-17203389D02*
X7026967Y-17222436D01*
X7026967Y-17222436D02*
X7017444Y-17231960D01*
X7017444Y-17231960D02*
X6998396Y-17241484D01*
X6998396Y-17241484D02*
X6979348Y-17241484D01*
X6979348Y-17241484D02*
X6960301Y-17231960D01*
X6960301Y-17231960D02*
X6950777Y-17222436D01*
X6950777Y-17222436D02*
X6941253Y-17203389D01*
X6941253Y-17203389D02*
X6931729Y-17165293D01*
X6931729Y-17165293D02*
X6931729Y-17117674D01*
X6931729Y-17117674D02*
X6941253Y-17079579D01*
X6941253Y-17079579D02*
X6950777Y-17060531D01*
X6950777Y-17060531D02*
X6960301Y-17051008D01*
X6960301Y-17051008D02*
X6979348Y-17041484D01*
X7122206Y-17060531D02*
X7131729Y-17051008D01*
X7131729Y-17051008D02*
X7150777Y-17041484D01*
X7150777Y-17041484D02*
X7198396Y-17041484D01*
X7198396Y-17041484D02*
X7217444Y-17051008D01*
X7217444Y-17051008D02*
X7226967Y-17060531D01*
X7226967Y-17060531D02*
X7236491Y-17079579D01*
X7236491Y-17079579D02*
X7236491Y-17098627D01*
X7236491Y-17098627D02*
X7226967Y-17127198D01*
X7226967Y-17127198D02*
X7112682Y-17241484D01*
X7112682Y-17241484D02*
X7236491Y-17241484D01*
X7303158Y-17041484D02*
X7436491Y-17041484D01*
X7436491Y-17041484D02*
X7350777Y-17241484D01*
X7598396Y-17041484D02*
X7560301Y-17041484D01*
X7560301Y-17041484D02*
X7541253Y-17051008D01*
X7541253Y-17051008D02*
X7531729Y-17060531D01*
X7531729Y-17060531D02*
X7512682Y-17089103D01*
X7512682Y-17089103D02*
X7503158Y-17127198D01*
X7503158Y-17127198D02*
X7503158Y-17203389D01*
X7503158Y-17203389D02*
X7512682Y-17222436D01*
X7512682Y-17222436D02*
X7522206Y-17231960D01*
X7522206Y-17231960D02*
X7541253Y-17241484D01*
X7541253Y-17241484D02*
X7579348Y-17241484D01*
X7579348Y-17241484D02*
X7598396Y-17231960D01*
X7598396Y-17231960D02*
X7607920Y-17222436D01*
X7607920Y-17222436D02*
X7617444Y-17203389D01*
X7617444Y-17203389D02*
X7617444Y-17155770D01*
X7617444Y-17155770D02*
X7607920Y-17136722D01*
X7607920Y-17136722D02*
X7598396Y-17127198D01*
X7598396Y-17127198D02*
X7579348Y-17117674D01*
X7579348Y-17117674D02*
X7541253Y-17117674D01*
X7541253Y-17117674D02*
X7522206Y-17127198D01*
X7522206Y-17127198D02*
X7512682Y-17136722D01*
X7512682Y-17136722D02*
X7503158Y-17155770D01*
X7693634Y-17041484D02*
X7693634Y-17079579D01*
X7769825Y-17041484D02*
X7769825Y-17079579D01*
X8065063Y-17317674D02*
X8055539Y-17308150D01*
X8055539Y-17308150D02*
X8036491Y-17279579D01*
X8036491Y-17279579D02*
X8026968Y-17260531D01*
X8026968Y-17260531D02*
X8017444Y-17231960D01*
X8017444Y-17231960D02*
X8007920Y-17184341D01*
X8007920Y-17184341D02*
X8007920Y-17146246D01*
X8007920Y-17146246D02*
X8017444Y-17098627D01*
X8017444Y-17098627D02*
X8026968Y-17070055D01*
X8026968Y-17070055D02*
X8036491Y-17051008D01*
X8036491Y-17051008D02*
X8055539Y-17022436D01*
X8055539Y-17022436D02*
X8065063Y-17012912D01*
X8131729Y-17060531D02*
X8141253Y-17051008D01*
X8141253Y-17051008D02*
X8160301Y-17041484D01*
X8160301Y-17041484D02*
X8207920Y-17041484D01*
X8207920Y-17041484D02*
X8226968Y-17051008D01*
X8226968Y-17051008D02*
X8236491Y-17060531D01*
X8236491Y-17060531D02*
X8246015Y-17079579D01*
X8246015Y-17079579D02*
X8246015Y-17098627D01*
X8246015Y-17098627D02*
X8236491Y-17127198D01*
X8236491Y-17127198D02*
X8122206Y-17241484D01*
X8122206Y-17241484D02*
X8246015Y-17241484D01*
X8484111Y-17241484D02*
X8484111Y-17041484D01*
X8569825Y-17241484D02*
X8569825Y-17136722D01*
X8569825Y-17136722D02*
X8560301Y-17117674D01*
X8560301Y-17117674D02*
X8541253Y-17108150D01*
X8541253Y-17108150D02*
X8512682Y-17108150D01*
X8512682Y-17108150D02*
X8493634Y-17117674D01*
X8493634Y-17117674D02*
X8484111Y-17127198D01*
X8693634Y-17241484D02*
X8674587Y-17231960D01*
X8674587Y-17231960D02*
X8665063Y-17222436D01*
X8665063Y-17222436D02*
X8655539Y-17203389D01*
X8655539Y-17203389D02*
X8655539Y-17146246D01*
X8655539Y-17146246D02*
X8665063Y-17127198D01*
X8665063Y-17127198D02*
X8674587Y-17117674D01*
X8674587Y-17117674D02*
X8693634Y-17108150D01*
X8693634Y-17108150D02*
X8722206Y-17108150D01*
X8722206Y-17108150D02*
X8741253Y-17117674D01*
X8741253Y-17117674D02*
X8750777Y-17127198D01*
X8750777Y-17127198D02*
X8760301Y-17146246D01*
X8760301Y-17146246D02*
X8760301Y-17203389D01*
X8760301Y-17203389D02*
X8750777Y-17222436D01*
X8750777Y-17222436D02*
X8741253Y-17231960D01*
X8741253Y-17231960D02*
X8722206Y-17241484D01*
X8722206Y-17241484D02*
X8693634Y-17241484D01*
X8874587Y-17241484D02*
X8855539Y-17231960D01*
X8855539Y-17231960D02*
X8846015Y-17212912D01*
X8846015Y-17212912D02*
X8846015Y-17041484D01*
X9026968Y-17231960D02*
X9007920Y-17241484D01*
X9007920Y-17241484D02*
X8969825Y-17241484D01*
X8969825Y-17241484D02*
X8950777Y-17231960D01*
X8950777Y-17231960D02*
X8941253Y-17212912D01*
X8941253Y-17212912D02*
X8941253Y-17136722D01*
X8941253Y-17136722D02*
X8950777Y-17117674D01*
X8950777Y-17117674D02*
X8969825Y-17108150D01*
X8969825Y-17108150D02*
X9007920Y-17108150D01*
X9007920Y-17108150D02*
X9026968Y-17117674D01*
X9026968Y-17117674D02*
X9036492Y-17136722D01*
X9036492Y-17136722D02*
X9036492Y-17155770D01*
X9036492Y-17155770D02*
X8941253Y-17174817D01*
X9112682Y-17231960D02*
X9131730Y-17241484D01*
X9131730Y-17241484D02*
X9169825Y-17241484D01*
X9169825Y-17241484D02*
X9188873Y-17231960D01*
X9188873Y-17231960D02*
X9198396Y-17212912D01*
X9198396Y-17212912D02*
X9198396Y-17203389D01*
X9198396Y-17203389D02*
X9188873Y-17184341D01*
X9188873Y-17184341D02*
X9169825Y-17174817D01*
X9169825Y-17174817D02*
X9141253Y-17174817D01*
X9141253Y-17174817D02*
X9122206Y-17165293D01*
X9122206Y-17165293D02*
X9112682Y-17146246D01*
X9112682Y-17146246D02*
X9112682Y-17136722D01*
X9112682Y-17136722D02*
X9122206Y-17117674D01*
X9122206Y-17117674D02*
X9141253Y-17108150D01*
X9141253Y-17108150D02*
X9169825Y-17108150D01*
X9169825Y-17108150D02*
X9188873Y-17117674D01*
X9265063Y-17317674D02*
X9274587Y-17308150D01*
X9274587Y-17308150D02*
X9293634Y-17279579D01*
X9293634Y-17279579D02*
X9303158Y-17260531D01*
X9303158Y-17260531D02*
X9312682Y-17231960D01*
X9312682Y-17231960D02*
X9322206Y-17184341D01*
X9322206Y-17184341D02*
X9322206Y-17146246D01*
X9322206Y-17146246D02*
X9312682Y-17098627D01*
X9312682Y-17098627D02*
X9303158Y-17070055D01*
X9303158Y-17070055D02*
X9293634Y-17051008D01*
X9293634Y-17051008D02*
X9274587Y-17022436D01*
X9274587Y-17022436D02*
X9265063Y-17012912D01*
X9626968Y-17317674D02*
X9617444Y-17308150D01*
X9617444Y-17308150D02*
X9598396Y-17279579D01*
X9598396Y-17279579D02*
X9588873Y-17260531D01*
X9588873Y-17260531D02*
X9579349Y-17231960D01*
X9579349Y-17231960D02*
X9569825Y-17184341D01*
X9569825Y-17184341D02*
X9569825Y-17146246D01*
X9569825Y-17146246D02*
X9579349Y-17098627D01*
X9579349Y-17098627D02*
X9588873Y-17070055D01*
X9588873Y-17070055D02*
X9598396Y-17051008D01*
X9598396Y-17051008D02*
X9617444Y-17022436D01*
X9617444Y-17022436D02*
X9626968Y-17012912D01*
X9703158Y-17108150D02*
X9703158Y-17241484D01*
X9703158Y-17127198D02*
X9712682Y-17117674D01*
X9712682Y-17117674D02*
X9731730Y-17108150D01*
X9731730Y-17108150D02*
X9760301Y-17108150D01*
X9760301Y-17108150D02*
X9779349Y-17117674D01*
X9779349Y-17117674D02*
X9788873Y-17136722D01*
X9788873Y-17136722D02*
X9788873Y-17241484D01*
X9912682Y-17241484D02*
X9893634Y-17231960D01*
X9893634Y-17231960D02*
X9884111Y-17222436D01*
X9884111Y-17222436D02*
X9874587Y-17203389D01*
X9874587Y-17203389D02*
X9874587Y-17146246D01*
X9874587Y-17146246D02*
X9884111Y-17127198D01*
X9884111Y-17127198D02*
X9893634Y-17117674D01*
X9893634Y-17117674D02*
X9912682Y-17108150D01*
X9912682Y-17108150D02*
X9941254Y-17108150D01*
X9941254Y-17108150D02*
X9960301Y-17117674D01*
X9960301Y-17117674D02*
X9969825Y-17127198D01*
X9969825Y-17127198D02*
X9979349Y-17146246D01*
X9979349Y-17146246D02*
X9979349Y-17203389D01*
X9979349Y-17203389D02*
X9969825Y-17222436D01*
X9969825Y-17222436D02*
X9960301Y-17231960D01*
X9960301Y-17231960D02*
X9941254Y-17241484D01*
X9941254Y-17241484D02*
X9912682Y-17241484D01*
X10036492Y-17108150D02*
X10112682Y-17108150D01*
X10065063Y-17041484D02*
X10065063Y-17212912D01*
X10065063Y-17212912D02*
X10074587Y-17231960D01*
X10074587Y-17231960D02*
X10093634Y-17241484D01*
X10093634Y-17241484D02*
X10112682Y-17241484D01*
X10331730Y-17108150D02*
X10331730Y-17308150D01*
X10331730Y-17117674D02*
X10350777Y-17108150D01*
X10350777Y-17108150D02*
X10388873Y-17108150D01*
X10388873Y-17108150D02*
X10407920Y-17117674D01*
X10407920Y-17117674D02*
X10417444Y-17127198D01*
X10417444Y-17127198D02*
X10426968Y-17146246D01*
X10426968Y-17146246D02*
X10426968Y-17203389D01*
X10426968Y-17203389D02*
X10417444Y-17222436D01*
X10417444Y-17222436D02*
X10407920Y-17231960D01*
X10407920Y-17231960D02*
X10388873Y-17241484D01*
X10388873Y-17241484D02*
X10350777Y-17241484D01*
X10350777Y-17241484D02*
X10331730Y-17231960D01*
X10541254Y-17241484D02*
X10522206Y-17231960D01*
X10522206Y-17231960D02*
X10512682Y-17212912D01*
X10512682Y-17212912D02*
X10512682Y-17041484D01*
X10703158Y-17241484D02*
X10703158Y-17136722D01*
X10703158Y-17136722D02*
X10693635Y-17117674D01*
X10693635Y-17117674D02*
X10674587Y-17108150D01*
X10674587Y-17108150D02*
X10636492Y-17108150D01*
X10636492Y-17108150D02*
X10617444Y-17117674D01*
X10703158Y-17231960D02*
X10684111Y-17241484D01*
X10684111Y-17241484D02*
X10636492Y-17241484D01*
X10636492Y-17241484D02*
X10617444Y-17231960D01*
X10617444Y-17231960D02*
X10607920Y-17212912D01*
X10607920Y-17212912D02*
X10607920Y-17193865D01*
X10607920Y-17193865D02*
X10617444Y-17174817D01*
X10617444Y-17174817D02*
X10636492Y-17165293D01*
X10636492Y-17165293D02*
X10684111Y-17165293D01*
X10684111Y-17165293D02*
X10703158Y-17155770D01*
X10769825Y-17108150D02*
X10846015Y-17108150D01*
X10798396Y-17041484D02*
X10798396Y-17212912D01*
X10798396Y-17212912D02*
X10807920Y-17231960D01*
X10807920Y-17231960D02*
X10826968Y-17241484D01*
X10826968Y-17241484D02*
X10846015Y-17241484D01*
X10988873Y-17231960D02*
X10969825Y-17241484D01*
X10969825Y-17241484D02*
X10931730Y-17241484D01*
X10931730Y-17241484D02*
X10912682Y-17231960D01*
X10912682Y-17231960D02*
X10903158Y-17212912D01*
X10903158Y-17212912D02*
X10903158Y-17136722D01*
X10903158Y-17136722D02*
X10912682Y-17117674D01*
X10912682Y-17117674D02*
X10931730Y-17108150D01*
X10931730Y-17108150D02*
X10969825Y-17108150D01*
X10969825Y-17108150D02*
X10988873Y-17117674D01*
X10988873Y-17117674D02*
X10998396Y-17136722D01*
X10998396Y-17136722D02*
X10998396Y-17155770D01*
X10998396Y-17155770D02*
X10903158Y-17174817D01*
X11169825Y-17241484D02*
X11169825Y-17041484D01*
X11169825Y-17231960D02*
X11150777Y-17241484D01*
X11150777Y-17241484D02*
X11112682Y-17241484D01*
X11112682Y-17241484D02*
X11093635Y-17231960D01*
X11093635Y-17231960D02*
X11084111Y-17222436D01*
X11084111Y-17222436D02*
X11074587Y-17203389D01*
X11074587Y-17203389D02*
X11074587Y-17146246D01*
X11074587Y-17146246D02*
X11084111Y-17127198D01*
X11084111Y-17127198D02*
X11093635Y-17117674D01*
X11093635Y-17117674D02*
X11112682Y-17108150D01*
X11112682Y-17108150D02*
X11150777Y-17108150D01*
X11150777Y-17108150D02*
X11169825Y-17117674D01*
X11246015Y-17317674D02*
X11255539Y-17308150D01*
X11255539Y-17308150D02*
X11274587Y-17279579D01*
X11274587Y-17279579D02*
X11284111Y-17260531D01*
X11284111Y-17260531D02*
X11293634Y-17231960D01*
X11293634Y-17231960D02*
X11303158Y-17184341D01*
X11303158Y-17184341D02*
X11303158Y-17146246D01*
X11303158Y-17146246D02*
X11293634Y-17098627D01*
X11293634Y-17098627D02*
X11284111Y-17070055D01*
X11284111Y-17070055D02*
X11274587Y-17051008D01*
X11274587Y-17051008D02*
X11255539Y-17022436D01*
X11255539Y-17022436D02*
X11246015Y-17012912D01*
D11*
X4490000Y-17414000D02*
G75*
G02*
X4390940Y-17414000I-49530J0D01*
G01*
X4390940Y-17414000D02*
G75*
G02*
X4490000Y-17414000I49530J0D01*
G01*
D10*
X4788872Y-17305484D02*
X4807920Y-17305484D01*
X4807920Y-17305484D02*
X4826967Y-17315008D01*
X4826967Y-17315008D02*
X4836491Y-17324531D01*
X4836491Y-17324531D02*
X4846015Y-17343579D01*
X4846015Y-17343579D02*
X4855539Y-17381674D01*
X4855539Y-17381674D02*
X4855539Y-17429293D01*
X4855539Y-17429293D02*
X4846015Y-17467389D01*
X4846015Y-17467389D02*
X4836491Y-17486436D01*
X4836491Y-17486436D02*
X4826967Y-17495960D01*
X4826967Y-17495960D02*
X4807920Y-17505484D01*
X4807920Y-17505484D02*
X4788872Y-17505484D01*
X4788872Y-17505484D02*
X4769824Y-17495960D01*
X4769824Y-17495960D02*
X4760301Y-17486436D01*
X4760301Y-17486436D02*
X4750777Y-17467389D01*
X4750777Y-17467389D02*
X4741253Y-17429293D01*
X4741253Y-17429293D02*
X4741253Y-17381674D01*
X4741253Y-17381674D02*
X4750777Y-17343579D01*
X4750777Y-17343579D02*
X4760301Y-17324531D01*
X4760301Y-17324531D02*
X4769824Y-17315008D01*
X4769824Y-17315008D02*
X4788872Y-17305484D01*
X4941253Y-17486436D02*
X4950777Y-17495960D01*
X4950777Y-17495960D02*
X4941253Y-17505484D01*
X4941253Y-17505484D02*
X4931729Y-17495960D01*
X4931729Y-17495960D02*
X4941253Y-17486436D01*
X4941253Y-17486436D02*
X4941253Y-17505484D01*
X5046015Y-17505484D02*
X5084110Y-17505484D01*
X5084110Y-17505484D02*
X5103158Y-17495960D01*
X5103158Y-17495960D02*
X5112682Y-17486436D01*
X5112682Y-17486436D02*
X5131729Y-17457865D01*
X5131729Y-17457865D02*
X5141253Y-17419770D01*
X5141253Y-17419770D02*
X5141253Y-17343579D01*
X5141253Y-17343579D02*
X5131729Y-17324531D01*
X5131729Y-17324531D02*
X5122205Y-17315008D01*
X5122205Y-17315008D02*
X5103158Y-17305484D01*
X5103158Y-17305484D02*
X5065063Y-17305484D01*
X5065063Y-17305484D02*
X5046015Y-17315008D01*
X5046015Y-17315008D02*
X5036491Y-17324531D01*
X5036491Y-17324531D02*
X5026967Y-17343579D01*
X5026967Y-17343579D02*
X5026967Y-17391198D01*
X5026967Y-17391198D02*
X5036491Y-17410246D01*
X5036491Y-17410246D02*
X5046015Y-17419770D01*
X5046015Y-17419770D02*
X5065063Y-17429293D01*
X5065063Y-17429293D02*
X5103158Y-17429293D01*
X5103158Y-17429293D02*
X5122205Y-17419770D01*
X5122205Y-17419770D02*
X5131729Y-17410246D01*
X5131729Y-17410246D02*
X5141253Y-17391198D01*
X5236491Y-17505484D02*
X5274586Y-17505484D01*
X5274586Y-17505484D02*
X5293634Y-17495960D01*
X5293634Y-17495960D02*
X5303158Y-17486436D01*
X5303158Y-17486436D02*
X5322205Y-17457865D01*
X5322205Y-17457865D02*
X5331729Y-17419770D01*
X5331729Y-17419770D02*
X5331729Y-17343579D01*
X5331729Y-17343579D02*
X5322205Y-17324531D01*
X5322205Y-17324531D02*
X5312682Y-17315008D01*
X5312682Y-17315008D02*
X5293634Y-17305484D01*
X5293634Y-17305484D02*
X5255539Y-17305484D01*
X5255539Y-17305484D02*
X5236491Y-17315008D01*
X5236491Y-17315008D02*
X5226967Y-17324531D01*
X5226967Y-17324531D02*
X5217444Y-17343579D01*
X5217444Y-17343579D02*
X5217444Y-17391198D01*
X5217444Y-17391198D02*
X5226967Y-17410246D01*
X5226967Y-17410246D02*
X5236491Y-17419770D01*
X5236491Y-17419770D02*
X5255539Y-17429293D01*
X5255539Y-17429293D02*
X5293634Y-17429293D01*
X5293634Y-17429293D02*
X5312682Y-17419770D01*
X5312682Y-17419770D02*
X5322205Y-17410246D01*
X5322205Y-17410246D02*
X5331729Y-17391198D01*
X5522205Y-17505484D02*
X5407920Y-17505484D01*
X5465063Y-17505484D02*
X5465063Y-17305484D01*
X5465063Y-17305484D02*
X5446015Y-17334055D01*
X5446015Y-17334055D02*
X5426967Y-17353103D01*
X5426967Y-17353103D02*
X5407920Y-17362627D01*
X5607920Y-17505484D02*
X5607920Y-17372150D01*
X5607920Y-17391198D02*
X5617443Y-17381674D01*
X5617443Y-17381674D02*
X5636491Y-17372150D01*
X5636491Y-17372150D02*
X5665063Y-17372150D01*
X5665063Y-17372150D02*
X5684110Y-17381674D01*
X5684110Y-17381674D02*
X5693634Y-17400722D01*
X5693634Y-17400722D02*
X5693634Y-17505484D01*
X5693634Y-17400722D02*
X5703158Y-17381674D01*
X5703158Y-17381674D02*
X5722205Y-17372150D01*
X5722205Y-17372150D02*
X5750777Y-17372150D01*
X5750777Y-17372150D02*
X5769824Y-17381674D01*
X5769824Y-17381674D02*
X5779348Y-17400722D01*
X5779348Y-17400722D02*
X5779348Y-17505484D01*
X5874586Y-17505484D02*
X5874586Y-17372150D01*
X5874586Y-17391198D02*
X5884110Y-17381674D01*
X5884110Y-17381674D02*
X5903158Y-17372150D01*
X5903158Y-17372150D02*
X5931729Y-17372150D01*
X5931729Y-17372150D02*
X5950777Y-17381674D01*
X5950777Y-17381674D02*
X5960301Y-17400722D01*
X5960301Y-17400722D02*
X5960301Y-17505484D01*
X5960301Y-17400722D02*
X5969824Y-17381674D01*
X5969824Y-17381674D02*
X5988872Y-17372150D01*
X5988872Y-17372150D02*
X6017443Y-17372150D01*
X6017443Y-17372150D02*
X6036491Y-17381674D01*
X6036491Y-17381674D02*
X6046015Y-17400722D01*
X6046015Y-17400722D02*
X6046015Y-17505484D01*
X6436491Y-17295960D02*
X6265063Y-17553103D01*
X6693634Y-17305484D02*
X6712682Y-17305484D01*
X6712682Y-17305484D02*
X6731729Y-17315008D01*
X6731729Y-17315008D02*
X6741253Y-17324531D01*
X6741253Y-17324531D02*
X6750777Y-17343579D01*
X6750777Y-17343579D02*
X6760301Y-17381674D01*
X6760301Y-17381674D02*
X6760301Y-17429293D01*
X6760301Y-17429293D02*
X6750777Y-17467389D01*
X6750777Y-17467389D02*
X6741253Y-17486436D01*
X6741253Y-17486436D02*
X6731729Y-17495960D01*
X6731729Y-17495960D02*
X6712682Y-17505484D01*
X6712682Y-17505484D02*
X6693634Y-17505484D01*
X6693634Y-17505484D02*
X6674586Y-17495960D01*
X6674586Y-17495960D02*
X6665063Y-17486436D01*
X6665063Y-17486436D02*
X6655539Y-17467389D01*
X6655539Y-17467389D02*
X6646015Y-17429293D01*
X6646015Y-17429293D02*
X6646015Y-17381674D01*
X6646015Y-17381674D02*
X6655539Y-17343579D01*
X6655539Y-17343579D02*
X6665063Y-17324531D01*
X6665063Y-17324531D02*
X6674586Y-17315008D01*
X6674586Y-17315008D02*
X6693634Y-17305484D01*
X6846015Y-17486436D02*
X6855539Y-17495960D01*
X6855539Y-17495960D02*
X6846015Y-17505484D01*
X6846015Y-17505484D02*
X6836491Y-17495960D01*
X6836491Y-17495960D02*
X6846015Y-17486436D01*
X6846015Y-17486436D02*
X6846015Y-17505484D01*
X6979348Y-17305484D02*
X6998396Y-17305484D01*
X6998396Y-17305484D02*
X7017444Y-17315008D01*
X7017444Y-17315008D02*
X7026967Y-17324531D01*
X7026967Y-17324531D02*
X7036491Y-17343579D01*
X7036491Y-17343579D02*
X7046015Y-17381674D01*
X7046015Y-17381674D02*
X7046015Y-17429293D01*
X7046015Y-17429293D02*
X7036491Y-17467389D01*
X7036491Y-17467389D02*
X7026967Y-17486436D01*
X7026967Y-17486436D02*
X7017444Y-17495960D01*
X7017444Y-17495960D02*
X6998396Y-17505484D01*
X6998396Y-17505484D02*
X6979348Y-17505484D01*
X6979348Y-17505484D02*
X6960301Y-17495960D01*
X6960301Y-17495960D02*
X6950777Y-17486436D01*
X6950777Y-17486436D02*
X6941253Y-17467389D01*
X6941253Y-17467389D02*
X6931729Y-17429293D01*
X6931729Y-17429293D02*
X6931729Y-17381674D01*
X6931729Y-17381674D02*
X6941253Y-17343579D01*
X6941253Y-17343579D02*
X6950777Y-17324531D01*
X6950777Y-17324531D02*
X6960301Y-17315008D01*
X6960301Y-17315008D02*
X6979348Y-17305484D01*
X7112682Y-17305484D02*
X7236491Y-17305484D01*
X7236491Y-17305484D02*
X7169825Y-17381674D01*
X7169825Y-17381674D02*
X7198396Y-17381674D01*
X7198396Y-17381674D02*
X7217444Y-17391198D01*
X7217444Y-17391198D02*
X7226967Y-17400722D01*
X7226967Y-17400722D02*
X7236491Y-17419770D01*
X7236491Y-17419770D02*
X7236491Y-17467389D01*
X7236491Y-17467389D02*
X7226967Y-17486436D01*
X7226967Y-17486436D02*
X7217444Y-17495960D01*
X7217444Y-17495960D02*
X7198396Y-17505484D01*
X7198396Y-17505484D02*
X7141253Y-17505484D01*
X7141253Y-17505484D02*
X7122206Y-17495960D01*
X7122206Y-17495960D02*
X7112682Y-17486436D01*
X7331729Y-17505484D02*
X7369825Y-17505484D01*
X7369825Y-17505484D02*
X7388872Y-17495960D01*
X7388872Y-17495960D02*
X7398396Y-17486436D01*
X7398396Y-17486436D02*
X7417444Y-17457865D01*
X7417444Y-17457865D02*
X7426967Y-17419770D01*
X7426967Y-17419770D02*
X7426967Y-17343579D01*
X7426967Y-17343579D02*
X7417444Y-17324531D01*
X7417444Y-17324531D02*
X7407920Y-17315008D01*
X7407920Y-17315008D02*
X7388872Y-17305484D01*
X7388872Y-17305484D02*
X7350777Y-17305484D01*
X7350777Y-17305484D02*
X7331729Y-17315008D01*
X7331729Y-17315008D02*
X7322206Y-17324531D01*
X7322206Y-17324531D02*
X7312682Y-17343579D01*
X7312682Y-17343579D02*
X7312682Y-17391198D01*
X7312682Y-17391198D02*
X7322206Y-17410246D01*
X7322206Y-17410246D02*
X7331729Y-17419770D01*
X7331729Y-17419770D02*
X7350777Y-17429293D01*
X7350777Y-17429293D02*
X7388872Y-17429293D01*
X7388872Y-17429293D02*
X7407920Y-17419770D01*
X7407920Y-17419770D02*
X7417444Y-17410246D01*
X7417444Y-17410246D02*
X7426967Y-17391198D01*
X7550777Y-17305484D02*
X7569825Y-17305484D01*
X7569825Y-17305484D02*
X7588872Y-17315008D01*
X7588872Y-17315008D02*
X7598396Y-17324531D01*
X7598396Y-17324531D02*
X7607920Y-17343579D01*
X7607920Y-17343579D02*
X7617444Y-17381674D01*
X7617444Y-17381674D02*
X7617444Y-17429293D01*
X7617444Y-17429293D02*
X7607920Y-17467389D01*
X7607920Y-17467389D02*
X7598396Y-17486436D01*
X7598396Y-17486436D02*
X7588872Y-17495960D01*
X7588872Y-17495960D02*
X7569825Y-17505484D01*
X7569825Y-17505484D02*
X7550777Y-17505484D01*
X7550777Y-17505484D02*
X7531729Y-17495960D01*
X7531729Y-17495960D02*
X7522206Y-17486436D01*
X7522206Y-17486436D02*
X7512682Y-17467389D01*
X7512682Y-17467389D02*
X7503158Y-17429293D01*
X7503158Y-17429293D02*
X7503158Y-17381674D01*
X7503158Y-17381674D02*
X7512682Y-17343579D01*
X7512682Y-17343579D02*
X7522206Y-17324531D01*
X7522206Y-17324531D02*
X7531729Y-17315008D01*
X7531729Y-17315008D02*
X7550777Y-17305484D01*
X7693634Y-17305484D02*
X7693634Y-17343579D01*
X7769825Y-17305484D02*
X7769825Y-17343579D01*
X8065063Y-17581674D02*
X8055539Y-17572150D01*
X8055539Y-17572150D02*
X8036491Y-17543579D01*
X8036491Y-17543579D02*
X8026968Y-17524531D01*
X8026968Y-17524531D02*
X8017444Y-17495960D01*
X8017444Y-17495960D02*
X8007920Y-17448341D01*
X8007920Y-17448341D02*
X8007920Y-17410246D01*
X8007920Y-17410246D02*
X8017444Y-17362627D01*
X8017444Y-17362627D02*
X8026968Y-17334055D01*
X8026968Y-17334055D02*
X8036491Y-17315008D01*
X8036491Y-17315008D02*
X8055539Y-17286436D01*
X8055539Y-17286436D02*
X8065063Y-17276912D01*
X8246015Y-17505484D02*
X8131729Y-17505484D01*
X8188872Y-17505484D02*
X8188872Y-17305484D01*
X8188872Y-17305484D02*
X8169825Y-17334055D01*
X8169825Y-17334055D02*
X8150777Y-17353103D01*
X8150777Y-17353103D02*
X8131729Y-17362627D01*
X8360301Y-17391198D02*
X8341253Y-17381674D01*
X8341253Y-17381674D02*
X8331729Y-17372150D01*
X8331729Y-17372150D02*
X8322206Y-17353103D01*
X8322206Y-17353103D02*
X8322206Y-17343579D01*
X8322206Y-17343579D02*
X8331729Y-17324531D01*
X8331729Y-17324531D02*
X8341253Y-17315008D01*
X8341253Y-17315008D02*
X8360301Y-17305484D01*
X8360301Y-17305484D02*
X8398396Y-17305484D01*
X8398396Y-17305484D02*
X8417444Y-17315008D01*
X8417444Y-17315008D02*
X8426968Y-17324531D01*
X8426968Y-17324531D02*
X8436491Y-17343579D01*
X8436491Y-17343579D02*
X8436491Y-17353103D01*
X8436491Y-17353103D02*
X8426968Y-17372150D01*
X8426968Y-17372150D02*
X8417444Y-17381674D01*
X8417444Y-17381674D02*
X8398396Y-17391198D01*
X8398396Y-17391198D02*
X8360301Y-17391198D01*
X8360301Y-17391198D02*
X8341253Y-17400722D01*
X8341253Y-17400722D02*
X8331729Y-17410246D01*
X8331729Y-17410246D02*
X8322206Y-17429293D01*
X8322206Y-17429293D02*
X8322206Y-17467389D01*
X8322206Y-17467389D02*
X8331729Y-17486436D01*
X8331729Y-17486436D02*
X8341253Y-17495960D01*
X8341253Y-17495960D02*
X8360301Y-17505484D01*
X8360301Y-17505484D02*
X8398396Y-17505484D01*
X8398396Y-17505484D02*
X8417444Y-17495960D01*
X8417444Y-17495960D02*
X8426968Y-17486436D01*
X8426968Y-17486436D02*
X8436491Y-17467389D01*
X8436491Y-17467389D02*
X8436491Y-17429293D01*
X8436491Y-17429293D02*
X8426968Y-17410246D01*
X8426968Y-17410246D02*
X8417444Y-17400722D01*
X8417444Y-17400722D02*
X8398396Y-17391198D01*
X8674587Y-17505484D02*
X8674587Y-17305484D01*
X8760301Y-17505484D02*
X8760301Y-17400722D01*
X8760301Y-17400722D02*
X8750777Y-17381674D01*
X8750777Y-17381674D02*
X8731730Y-17372150D01*
X8731730Y-17372150D02*
X8703158Y-17372150D01*
X8703158Y-17372150D02*
X8684111Y-17381674D01*
X8684111Y-17381674D02*
X8674587Y-17391198D01*
X8884111Y-17505484D02*
X8865063Y-17495960D01*
X8865063Y-17495960D02*
X8855539Y-17486436D01*
X8855539Y-17486436D02*
X8846015Y-17467389D01*
X8846015Y-17467389D02*
X8846015Y-17410246D01*
X8846015Y-17410246D02*
X8855539Y-17391198D01*
X8855539Y-17391198D02*
X8865063Y-17381674D01*
X8865063Y-17381674D02*
X8884111Y-17372150D01*
X8884111Y-17372150D02*
X8912682Y-17372150D01*
X8912682Y-17372150D02*
X8931730Y-17381674D01*
X8931730Y-17381674D02*
X8941253Y-17391198D01*
X8941253Y-17391198D02*
X8950777Y-17410246D01*
X8950777Y-17410246D02*
X8950777Y-17467389D01*
X8950777Y-17467389D02*
X8941253Y-17486436D01*
X8941253Y-17486436D02*
X8931730Y-17495960D01*
X8931730Y-17495960D02*
X8912682Y-17505484D01*
X8912682Y-17505484D02*
X8884111Y-17505484D01*
X9065063Y-17505484D02*
X9046015Y-17495960D01*
X9046015Y-17495960D02*
X9036492Y-17476912D01*
X9036492Y-17476912D02*
X9036492Y-17305484D01*
X9217444Y-17495960D02*
X9198396Y-17505484D01*
X9198396Y-17505484D02*
X9160301Y-17505484D01*
X9160301Y-17505484D02*
X9141253Y-17495960D01*
X9141253Y-17495960D02*
X9131730Y-17476912D01*
X9131730Y-17476912D02*
X9131730Y-17400722D01*
X9131730Y-17400722D02*
X9141253Y-17381674D01*
X9141253Y-17381674D02*
X9160301Y-17372150D01*
X9160301Y-17372150D02*
X9198396Y-17372150D01*
X9198396Y-17372150D02*
X9217444Y-17381674D01*
X9217444Y-17381674D02*
X9226968Y-17400722D01*
X9226968Y-17400722D02*
X9226968Y-17419770D01*
X9226968Y-17419770D02*
X9131730Y-17438817D01*
X9303158Y-17495960D02*
X9322206Y-17505484D01*
X9322206Y-17505484D02*
X9360301Y-17505484D01*
X9360301Y-17505484D02*
X9379349Y-17495960D01*
X9379349Y-17495960D02*
X9388873Y-17476912D01*
X9388873Y-17476912D02*
X9388873Y-17467389D01*
X9388873Y-17467389D02*
X9379349Y-17448341D01*
X9379349Y-17448341D02*
X9360301Y-17438817D01*
X9360301Y-17438817D02*
X9331730Y-17438817D01*
X9331730Y-17438817D02*
X9312682Y-17429293D01*
X9312682Y-17429293D02*
X9303158Y-17410246D01*
X9303158Y-17410246D02*
X9303158Y-17400722D01*
X9303158Y-17400722D02*
X9312682Y-17381674D01*
X9312682Y-17381674D02*
X9331730Y-17372150D01*
X9331730Y-17372150D02*
X9360301Y-17372150D01*
X9360301Y-17372150D02*
X9379349Y-17381674D01*
X9455539Y-17581674D02*
X9465063Y-17572150D01*
X9465063Y-17572150D02*
X9484111Y-17543579D01*
X9484111Y-17543579D02*
X9493634Y-17524531D01*
X9493634Y-17524531D02*
X9503158Y-17495960D01*
X9503158Y-17495960D02*
X9512682Y-17448341D01*
X9512682Y-17448341D02*
X9512682Y-17410246D01*
X9512682Y-17410246D02*
X9503158Y-17362627D01*
X9503158Y-17362627D02*
X9493634Y-17334055D01*
X9493634Y-17334055D02*
X9484111Y-17315008D01*
X9484111Y-17315008D02*
X9465063Y-17286436D01*
X9465063Y-17286436D02*
X9455539Y-17276912D01*
X9817444Y-17581674D02*
X9807920Y-17572150D01*
X9807920Y-17572150D02*
X9788873Y-17543579D01*
X9788873Y-17543579D02*
X9779349Y-17524531D01*
X9779349Y-17524531D02*
X9769825Y-17495960D01*
X9769825Y-17495960D02*
X9760301Y-17448341D01*
X9760301Y-17448341D02*
X9760301Y-17410246D01*
X9760301Y-17410246D02*
X9769825Y-17362627D01*
X9769825Y-17362627D02*
X9779349Y-17334055D01*
X9779349Y-17334055D02*
X9788873Y-17315008D01*
X9788873Y-17315008D02*
X9807920Y-17286436D01*
X9807920Y-17286436D02*
X9817444Y-17276912D01*
X9893634Y-17372150D02*
X9893634Y-17505484D01*
X9893634Y-17391198D02*
X9903158Y-17381674D01*
X9903158Y-17381674D02*
X9922206Y-17372150D01*
X9922206Y-17372150D02*
X9950777Y-17372150D01*
X9950777Y-17372150D02*
X9969825Y-17381674D01*
X9969825Y-17381674D02*
X9979349Y-17400722D01*
X9979349Y-17400722D02*
X9979349Y-17505484D01*
X10103158Y-17505484D02*
X10084111Y-17495960D01*
X10084111Y-17495960D02*
X10074587Y-17486436D01*
X10074587Y-17486436D02*
X10065063Y-17467389D01*
X10065063Y-17467389D02*
X10065063Y-17410246D01*
X10065063Y-17410246D02*
X10074587Y-17391198D01*
X10074587Y-17391198D02*
X10084111Y-17381674D01*
X10084111Y-17381674D02*
X10103158Y-17372150D01*
X10103158Y-17372150D02*
X10131730Y-17372150D01*
X10131730Y-17372150D02*
X10150777Y-17381674D01*
X10150777Y-17381674D02*
X10160301Y-17391198D01*
X10160301Y-17391198D02*
X10169825Y-17410246D01*
X10169825Y-17410246D02*
X10169825Y-17467389D01*
X10169825Y-17467389D02*
X10160301Y-17486436D01*
X10160301Y-17486436D02*
X10150777Y-17495960D01*
X10150777Y-17495960D02*
X10131730Y-17505484D01*
X10131730Y-17505484D02*
X10103158Y-17505484D01*
X10226968Y-17372150D02*
X10303158Y-17372150D01*
X10255539Y-17305484D02*
X10255539Y-17476912D01*
X10255539Y-17476912D02*
X10265063Y-17495960D01*
X10265063Y-17495960D02*
X10284111Y-17505484D01*
X10284111Y-17505484D02*
X10303158Y-17505484D01*
X10522206Y-17372150D02*
X10522206Y-17572150D01*
X10522206Y-17381674D02*
X10541254Y-17372150D01*
X10541254Y-17372150D02*
X10579349Y-17372150D01*
X10579349Y-17372150D02*
X10598396Y-17381674D01*
X10598396Y-17381674D02*
X10607920Y-17391198D01*
X10607920Y-17391198D02*
X10617444Y-17410246D01*
X10617444Y-17410246D02*
X10617444Y-17467389D01*
X10617444Y-17467389D02*
X10607920Y-17486436D01*
X10607920Y-17486436D02*
X10598396Y-17495960D01*
X10598396Y-17495960D02*
X10579349Y-17505484D01*
X10579349Y-17505484D02*
X10541254Y-17505484D01*
X10541254Y-17505484D02*
X10522206Y-17495960D01*
X10731730Y-17505484D02*
X10712682Y-17495960D01*
X10712682Y-17495960D02*
X10703158Y-17476912D01*
X10703158Y-17476912D02*
X10703158Y-17305484D01*
X10893635Y-17505484D02*
X10893635Y-17400722D01*
X10893635Y-17400722D02*
X10884111Y-17381674D01*
X10884111Y-17381674D02*
X10865063Y-17372150D01*
X10865063Y-17372150D02*
X10826968Y-17372150D01*
X10826968Y-17372150D02*
X10807920Y-17381674D01*
X10893635Y-17495960D02*
X10874587Y-17505484D01*
X10874587Y-17505484D02*
X10826968Y-17505484D01*
X10826968Y-17505484D02*
X10807920Y-17495960D01*
X10807920Y-17495960D02*
X10798396Y-17476912D01*
X10798396Y-17476912D02*
X10798396Y-17457865D01*
X10798396Y-17457865D02*
X10807920Y-17438817D01*
X10807920Y-17438817D02*
X10826968Y-17429293D01*
X10826968Y-17429293D02*
X10874587Y-17429293D01*
X10874587Y-17429293D02*
X10893635Y-17419770D01*
X10960301Y-17372150D02*
X11036492Y-17372150D01*
X10988873Y-17305484D02*
X10988873Y-17476912D01*
X10988873Y-17476912D02*
X10998396Y-17495960D01*
X10998396Y-17495960D02*
X11017444Y-17505484D01*
X11017444Y-17505484D02*
X11036492Y-17505484D01*
X11179349Y-17495960D02*
X11160301Y-17505484D01*
X11160301Y-17505484D02*
X11122206Y-17505484D01*
X11122206Y-17505484D02*
X11103158Y-17495960D01*
X11103158Y-17495960D02*
X11093635Y-17476912D01*
X11093635Y-17476912D02*
X11093635Y-17400722D01*
X11093635Y-17400722D02*
X11103158Y-17381674D01*
X11103158Y-17381674D02*
X11122206Y-17372150D01*
X11122206Y-17372150D02*
X11160301Y-17372150D01*
X11160301Y-17372150D02*
X11179349Y-17381674D01*
X11179349Y-17381674D02*
X11188873Y-17400722D01*
X11188873Y-17400722D02*
X11188873Y-17419770D01*
X11188873Y-17419770D02*
X11093635Y-17438817D01*
X11360301Y-17505484D02*
X11360301Y-17305484D01*
X11360301Y-17495960D02*
X11341254Y-17505484D01*
X11341254Y-17505484D02*
X11303158Y-17505484D01*
X11303158Y-17505484D02*
X11284111Y-17495960D01*
X11284111Y-17495960D02*
X11274587Y-17486436D01*
X11274587Y-17486436D02*
X11265063Y-17467389D01*
X11265063Y-17467389D02*
X11265063Y-17410246D01*
X11265063Y-17410246D02*
X11274587Y-17391198D01*
X11274587Y-17391198D02*
X11284111Y-17381674D01*
X11284111Y-17381674D02*
X11303158Y-17372150D01*
X11303158Y-17372150D02*
X11341254Y-17372150D01*
X11341254Y-17372150D02*
X11360301Y-17381674D01*
X11436492Y-17581674D02*
X11446015Y-17572150D01*
X11446015Y-17572150D02*
X11465063Y-17543579D01*
X11465063Y-17543579D02*
X11474587Y-17524531D01*
X11474587Y-17524531D02*
X11484111Y-17495960D01*
X11484111Y-17495960D02*
X11493634Y-17448341D01*
X11493634Y-17448341D02*
X11493634Y-17410246D01*
X11493634Y-17410246D02*
X11484111Y-17362627D01*
X11484111Y-17362627D02*
X11474587Y-17334055D01*
X11474587Y-17334055D02*
X11465063Y-17315008D01*
X11465063Y-17315008D02*
X11446015Y-17286436D01*
X11446015Y-17286436D02*
X11436492Y-17276912D01*
D13*
X4404910Y-17592910D02*
X4404910Y-17763090D01*
X4319820Y-17678000D02*
X4490000Y-17678000D01*
D10*
X4855539Y-17769484D02*
X4741253Y-17769484D01*
X4798396Y-17769484D02*
X4798396Y-17569484D01*
X4798396Y-17569484D02*
X4779348Y-17598055D01*
X4779348Y-17598055D02*
X4760301Y-17617103D01*
X4760301Y-17617103D02*
X4741253Y-17626627D01*
X4941253Y-17750436D02*
X4950777Y-17759960D01*
X4950777Y-17759960D02*
X4941253Y-17769484D01*
X4941253Y-17769484D02*
X4931729Y-17759960D01*
X4931729Y-17759960D02*
X4941253Y-17750436D01*
X4941253Y-17750436D02*
X4941253Y-17769484D01*
X5017444Y-17569484D02*
X5150777Y-17569484D01*
X5150777Y-17569484D02*
X5065063Y-17769484D01*
X5265063Y-17569484D02*
X5284110Y-17569484D01*
X5284110Y-17569484D02*
X5303158Y-17579008D01*
X5303158Y-17579008D02*
X5312682Y-17588531D01*
X5312682Y-17588531D02*
X5322205Y-17607579D01*
X5322205Y-17607579D02*
X5331729Y-17645674D01*
X5331729Y-17645674D02*
X5331729Y-17693293D01*
X5331729Y-17693293D02*
X5322205Y-17731389D01*
X5322205Y-17731389D02*
X5312682Y-17750436D01*
X5312682Y-17750436D02*
X5303158Y-17759960D01*
X5303158Y-17759960D02*
X5284110Y-17769484D01*
X5284110Y-17769484D02*
X5265063Y-17769484D01*
X5265063Y-17769484D02*
X5246015Y-17759960D01*
X5246015Y-17759960D02*
X5236491Y-17750436D01*
X5236491Y-17750436D02*
X5226967Y-17731389D01*
X5226967Y-17731389D02*
X5217444Y-17693293D01*
X5217444Y-17693293D02*
X5217444Y-17645674D01*
X5217444Y-17645674D02*
X5226967Y-17607579D01*
X5226967Y-17607579D02*
X5236491Y-17588531D01*
X5236491Y-17588531D02*
X5246015Y-17579008D01*
X5246015Y-17579008D02*
X5265063Y-17569484D01*
X5407920Y-17588531D02*
X5417444Y-17579008D01*
X5417444Y-17579008D02*
X5436491Y-17569484D01*
X5436491Y-17569484D02*
X5484110Y-17569484D01*
X5484110Y-17569484D02*
X5503158Y-17579008D01*
X5503158Y-17579008D02*
X5512682Y-17588531D01*
X5512682Y-17588531D02*
X5522205Y-17607579D01*
X5522205Y-17607579D02*
X5522205Y-17626627D01*
X5522205Y-17626627D02*
X5512682Y-17655198D01*
X5512682Y-17655198D02*
X5398396Y-17769484D01*
X5398396Y-17769484D02*
X5522205Y-17769484D01*
X5607920Y-17769484D02*
X5607920Y-17636150D01*
X5607920Y-17655198D02*
X5617443Y-17645674D01*
X5617443Y-17645674D02*
X5636491Y-17636150D01*
X5636491Y-17636150D02*
X5665063Y-17636150D01*
X5665063Y-17636150D02*
X5684110Y-17645674D01*
X5684110Y-17645674D02*
X5693634Y-17664722D01*
X5693634Y-17664722D02*
X5693634Y-17769484D01*
X5693634Y-17664722D02*
X5703158Y-17645674D01*
X5703158Y-17645674D02*
X5722205Y-17636150D01*
X5722205Y-17636150D02*
X5750777Y-17636150D01*
X5750777Y-17636150D02*
X5769824Y-17645674D01*
X5769824Y-17645674D02*
X5779348Y-17664722D01*
X5779348Y-17664722D02*
X5779348Y-17769484D01*
X5874586Y-17769484D02*
X5874586Y-17636150D01*
X5874586Y-17655198D02*
X5884110Y-17645674D01*
X5884110Y-17645674D02*
X5903158Y-17636150D01*
X5903158Y-17636150D02*
X5931729Y-17636150D01*
X5931729Y-17636150D02*
X5950777Y-17645674D01*
X5950777Y-17645674D02*
X5960301Y-17664722D01*
X5960301Y-17664722D02*
X5960301Y-17769484D01*
X5960301Y-17664722D02*
X5969824Y-17645674D01*
X5969824Y-17645674D02*
X5988872Y-17636150D01*
X5988872Y-17636150D02*
X6017443Y-17636150D01*
X6017443Y-17636150D02*
X6036491Y-17645674D01*
X6036491Y-17645674D02*
X6046015Y-17664722D01*
X6046015Y-17664722D02*
X6046015Y-17769484D01*
X6436491Y-17559960D02*
X6265063Y-17817103D01*
X6693634Y-17569484D02*
X6712682Y-17569484D01*
X6712682Y-17569484D02*
X6731729Y-17579008D01*
X6731729Y-17579008D02*
X6741253Y-17588531D01*
X6741253Y-17588531D02*
X6750777Y-17607579D01*
X6750777Y-17607579D02*
X6760301Y-17645674D01*
X6760301Y-17645674D02*
X6760301Y-17693293D01*
X6760301Y-17693293D02*
X6750777Y-17731389D01*
X6750777Y-17731389D02*
X6741253Y-17750436D01*
X6741253Y-17750436D02*
X6731729Y-17759960D01*
X6731729Y-17759960D02*
X6712682Y-17769484D01*
X6712682Y-17769484D02*
X6693634Y-17769484D01*
X6693634Y-17769484D02*
X6674586Y-17759960D01*
X6674586Y-17759960D02*
X6665063Y-17750436D01*
X6665063Y-17750436D02*
X6655539Y-17731389D01*
X6655539Y-17731389D02*
X6646015Y-17693293D01*
X6646015Y-17693293D02*
X6646015Y-17645674D01*
X6646015Y-17645674D02*
X6655539Y-17607579D01*
X6655539Y-17607579D02*
X6665063Y-17588531D01*
X6665063Y-17588531D02*
X6674586Y-17579008D01*
X6674586Y-17579008D02*
X6693634Y-17569484D01*
X6846015Y-17750436D02*
X6855539Y-17759960D01*
X6855539Y-17759960D02*
X6846015Y-17769484D01*
X6846015Y-17769484D02*
X6836491Y-17759960D01*
X6836491Y-17759960D02*
X6846015Y-17750436D01*
X6846015Y-17750436D02*
X6846015Y-17769484D01*
X6979348Y-17569484D02*
X6998396Y-17569484D01*
X6998396Y-17569484D02*
X7017444Y-17579008D01*
X7017444Y-17579008D02*
X7026967Y-17588531D01*
X7026967Y-17588531D02*
X7036491Y-17607579D01*
X7036491Y-17607579D02*
X7046015Y-17645674D01*
X7046015Y-17645674D02*
X7046015Y-17693293D01*
X7046015Y-17693293D02*
X7036491Y-17731389D01*
X7036491Y-17731389D02*
X7026967Y-17750436D01*
X7026967Y-17750436D02*
X7017444Y-17759960D01*
X7017444Y-17759960D02*
X6998396Y-17769484D01*
X6998396Y-17769484D02*
X6979348Y-17769484D01*
X6979348Y-17769484D02*
X6960301Y-17759960D01*
X6960301Y-17759960D02*
X6950777Y-17750436D01*
X6950777Y-17750436D02*
X6941253Y-17731389D01*
X6941253Y-17731389D02*
X6931729Y-17693293D01*
X6931729Y-17693293D02*
X6931729Y-17645674D01*
X6931729Y-17645674D02*
X6941253Y-17607579D01*
X6941253Y-17607579D02*
X6950777Y-17588531D01*
X6950777Y-17588531D02*
X6960301Y-17579008D01*
X6960301Y-17579008D02*
X6979348Y-17569484D01*
X7217444Y-17569484D02*
X7179348Y-17569484D01*
X7179348Y-17569484D02*
X7160301Y-17579008D01*
X7160301Y-17579008D02*
X7150777Y-17588531D01*
X7150777Y-17588531D02*
X7131729Y-17617103D01*
X7131729Y-17617103D02*
X7122206Y-17655198D01*
X7122206Y-17655198D02*
X7122206Y-17731389D01*
X7122206Y-17731389D02*
X7131729Y-17750436D01*
X7131729Y-17750436D02*
X7141253Y-17759960D01*
X7141253Y-17759960D02*
X7160301Y-17769484D01*
X7160301Y-17769484D02*
X7198396Y-17769484D01*
X7198396Y-17769484D02*
X7217444Y-17759960D01*
X7217444Y-17759960D02*
X7226967Y-17750436D01*
X7226967Y-17750436D02*
X7236491Y-17731389D01*
X7236491Y-17731389D02*
X7236491Y-17683770D01*
X7236491Y-17683770D02*
X7226967Y-17664722D01*
X7226967Y-17664722D02*
X7217444Y-17655198D01*
X7217444Y-17655198D02*
X7198396Y-17645674D01*
X7198396Y-17645674D02*
X7160301Y-17645674D01*
X7160301Y-17645674D02*
X7141253Y-17655198D01*
X7141253Y-17655198D02*
X7131729Y-17664722D01*
X7131729Y-17664722D02*
X7122206Y-17683770D01*
X7303158Y-17569484D02*
X7436491Y-17569484D01*
X7436491Y-17569484D02*
X7350777Y-17769484D01*
X7550777Y-17569484D02*
X7569825Y-17569484D01*
X7569825Y-17569484D02*
X7588872Y-17579008D01*
X7588872Y-17579008D02*
X7598396Y-17588531D01*
X7598396Y-17588531D02*
X7607920Y-17607579D01*
X7607920Y-17607579D02*
X7617444Y-17645674D01*
X7617444Y-17645674D02*
X7617444Y-17693293D01*
X7617444Y-17693293D02*
X7607920Y-17731389D01*
X7607920Y-17731389D02*
X7598396Y-17750436D01*
X7598396Y-17750436D02*
X7588872Y-17759960D01*
X7588872Y-17759960D02*
X7569825Y-17769484D01*
X7569825Y-17769484D02*
X7550777Y-17769484D01*
X7550777Y-17769484D02*
X7531729Y-17759960D01*
X7531729Y-17759960D02*
X7522206Y-17750436D01*
X7522206Y-17750436D02*
X7512682Y-17731389D01*
X7512682Y-17731389D02*
X7503158Y-17693293D01*
X7503158Y-17693293D02*
X7503158Y-17645674D01*
X7503158Y-17645674D02*
X7512682Y-17607579D01*
X7512682Y-17607579D02*
X7522206Y-17588531D01*
X7522206Y-17588531D02*
X7531729Y-17579008D01*
X7531729Y-17579008D02*
X7550777Y-17569484D01*
X7693634Y-17569484D02*
X7693634Y-17607579D01*
X7769825Y-17569484D02*
X7769825Y-17607579D01*
X8065063Y-17845674D02*
X8055539Y-17836150D01*
X8055539Y-17836150D02*
X8036491Y-17807579D01*
X8036491Y-17807579D02*
X8026968Y-17788531D01*
X8026968Y-17788531D02*
X8017444Y-17759960D01*
X8017444Y-17759960D02*
X8007920Y-17712341D01*
X8007920Y-17712341D02*
X8007920Y-17674246D01*
X8007920Y-17674246D02*
X8017444Y-17626627D01*
X8017444Y-17626627D02*
X8026968Y-17598055D01*
X8026968Y-17598055D02*
X8036491Y-17579008D01*
X8036491Y-17579008D02*
X8055539Y-17550436D01*
X8055539Y-17550436D02*
X8065063Y-17540912D01*
X8122206Y-17569484D02*
X8246015Y-17569484D01*
X8246015Y-17569484D02*
X8179348Y-17645674D01*
X8179348Y-17645674D02*
X8207920Y-17645674D01*
X8207920Y-17645674D02*
X8226968Y-17655198D01*
X8226968Y-17655198D02*
X8236491Y-17664722D01*
X8236491Y-17664722D02*
X8246015Y-17683770D01*
X8246015Y-17683770D02*
X8246015Y-17731389D01*
X8246015Y-17731389D02*
X8236491Y-17750436D01*
X8236491Y-17750436D02*
X8226968Y-17759960D01*
X8226968Y-17759960D02*
X8207920Y-17769484D01*
X8207920Y-17769484D02*
X8150777Y-17769484D01*
X8150777Y-17769484D02*
X8131729Y-17759960D01*
X8131729Y-17759960D02*
X8122206Y-17750436D01*
X8417444Y-17569484D02*
X8379348Y-17569484D01*
X8379348Y-17569484D02*
X8360301Y-17579008D01*
X8360301Y-17579008D02*
X8350777Y-17588531D01*
X8350777Y-17588531D02*
X8331729Y-17617103D01*
X8331729Y-17617103D02*
X8322206Y-17655198D01*
X8322206Y-17655198D02*
X8322206Y-17731389D01*
X8322206Y-17731389D02*
X8331729Y-17750436D01*
X8331729Y-17750436D02*
X8341253Y-17759960D01*
X8341253Y-17759960D02*
X8360301Y-17769484D01*
X8360301Y-17769484D02*
X8398396Y-17769484D01*
X8398396Y-17769484D02*
X8417444Y-17759960D01*
X8417444Y-17759960D02*
X8426968Y-17750436D01*
X8426968Y-17750436D02*
X8436491Y-17731389D01*
X8436491Y-17731389D02*
X8436491Y-17683770D01*
X8436491Y-17683770D02*
X8426968Y-17664722D01*
X8426968Y-17664722D02*
X8417444Y-17655198D01*
X8417444Y-17655198D02*
X8398396Y-17645674D01*
X8398396Y-17645674D02*
X8360301Y-17645674D01*
X8360301Y-17645674D02*
X8341253Y-17655198D01*
X8341253Y-17655198D02*
X8331729Y-17664722D01*
X8331729Y-17664722D02*
X8322206Y-17683770D01*
X8674587Y-17769484D02*
X8674587Y-17569484D01*
X8760301Y-17769484D02*
X8760301Y-17664722D01*
X8760301Y-17664722D02*
X8750777Y-17645674D01*
X8750777Y-17645674D02*
X8731730Y-17636150D01*
X8731730Y-17636150D02*
X8703158Y-17636150D01*
X8703158Y-17636150D02*
X8684111Y-17645674D01*
X8684111Y-17645674D02*
X8674587Y-17655198D01*
X8884111Y-17769484D02*
X8865063Y-17759960D01*
X8865063Y-17759960D02*
X8855539Y-17750436D01*
X8855539Y-17750436D02*
X8846015Y-17731389D01*
X8846015Y-17731389D02*
X8846015Y-17674246D01*
X8846015Y-17674246D02*
X8855539Y-17655198D01*
X8855539Y-17655198D02*
X8865063Y-17645674D01*
X8865063Y-17645674D02*
X8884111Y-17636150D01*
X8884111Y-17636150D02*
X8912682Y-17636150D01*
X8912682Y-17636150D02*
X8931730Y-17645674D01*
X8931730Y-17645674D02*
X8941253Y-17655198D01*
X8941253Y-17655198D02*
X8950777Y-17674246D01*
X8950777Y-17674246D02*
X8950777Y-17731389D01*
X8950777Y-17731389D02*
X8941253Y-17750436D01*
X8941253Y-17750436D02*
X8931730Y-17759960D01*
X8931730Y-17759960D02*
X8912682Y-17769484D01*
X8912682Y-17769484D02*
X8884111Y-17769484D01*
X9065063Y-17769484D02*
X9046015Y-17759960D01*
X9046015Y-17759960D02*
X9036492Y-17740912D01*
X9036492Y-17740912D02*
X9036492Y-17569484D01*
X9217444Y-17759960D02*
X9198396Y-17769484D01*
X9198396Y-17769484D02*
X9160301Y-17769484D01*
X9160301Y-17769484D02*
X9141253Y-17759960D01*
X9141253Y-17759960D02*
X9131730Y-17740912D01*
X9131730Y-17740912D02*
X9131730Y-17664722D01*
X9131730Y-17664722D02*
X9141253Y-17645674D01*
X9141253Y-17645674D02*
X9160301Y-17636150D01*
X9160301Y-17636150D02*
X9198396Y-17636150D01*
X9198396Y-17636150D02*
X9217444Y-17645674D01*
X9217444Y-17645674D02*
X9226968Y-17664722D01*
X9226968Y-17664722D02*
X9226968Y-17683770D01*
X9226968Y-17683770D02*
X9131730Y-17702817D01*
X9303158Y-17759960D02*
X9322206Y-17769484D01*
X9322206Y-17769484D02*
X9360301Y-17769484D01*
X9360301Y-17769484D02*
X9379349Y-17759960D01*
X9379349Y-17759960D02*
X9388873Y-17740912D01*
X9388873Y-17740912D02*
X9388873Y-17731389D01*
X9388873Y-17731389D02*
X9379349Y-17712341D01*
X9379349Y-17712341D02*
X9360301Y-17702817D01*
X9360301Y-17702817D02*
X9331730Y-17702817D01*
X9331730Y-17702817D02*
X9312682Y-17693293D01*
X9312682Y-17693293D02*
X9303158Y-17674246D01*
X9303158Y-17674246D02*
X9303158Y-17664722D01*
X9303158Y-17664722D02*
X9312682Y-17645674D01*
X9312682Y-17645674D02*
X9331730Y-17636150D01*
X9331730Y-17636150D02*
X9360301Y-17636150D01*
X9360301Y-17636150D02*
X9379349Y-17645674D01*
X9455539Y-17845674D02*
X9465063Y-17836150D01*
X9465063Y-17836150D02*
X9484111Y-17807579D01*
X9484111Y-17807579D02*
X9493634Y-17788531D01*
X9493634Y-17788531D02*
X9503158Y-17759960D01*
X9503158Y-17759960D02*
X9512682Y-17712341D01*
X9512682Y-17712341D02*
X9512682Y-17674246D01*
X9512682Y-17674246D02*
X9503158Y-17626627D01*
X9503158Y-17626627D02*
X9493634Y-17598055D01*
X9493634Y-17598055D02*
X9484111Y-17579008D01*
X9484111Y-17579008D02*
X9465063Y-17550436D01*
X9465063Y-17550436D02*
X9455539Y-17540912D01*
X9817444Y-17845674D02*
X9807920Y-17836150D01*
X9807920Y-17836150D02*
X9788873Y-17807579D01*
X9788873Y-17807579D02*
X9779349Y-17788531D01*
X9779349Y-17788531D02*
X9769825Y-17759960D01*
X9769825Y-17759960D02*
X9760301Y-17712341D01*
X9760301Y-17712341D02*
X9760301Y-17674246D01*
X9760301Y-17674246D02*
X9769825Y-17626627D01*
X9769825Y-17626627D02*
X9779349Y-17598055D01*
X9779349Y-17598055D02*
X9788873Y-17579008D01*
X9788873Y-17579008D02*
X9807920Y-17550436D01*
X9807920Y-17550436D02*
X9817444Y-17540912D01*
X9893634Y-17636150D02*
X9893634Y-17769484D01*
X9893634Y-17655198D02*
X9903158Y-17645674D01*
X9903158Y-17645674D02*
X9922206Y-17636150D01*
X9922206Y-17636150D02*
X9950777Y-17636150D01*
X9950777Y-17636150D02*
X9969825Y-17645674D01*
X9969825Y-17645674D02*
X9979349Y-17664722D01*
X9979349Y-17664722D02*
X9979349Y-17769484D01*
X10103158Y-17769484D02*
X10084111Y-17759960D01*
X10084111Y-17759960D02*
X10074587Y-17750436D01*
X10074587Y-17750436D02*
X10065063Y-17731389D01*
X10065063Y-17731389D02*
X10065063Y-17674246D01*
X10065063Y-17674246D02*
X10074587Y-17655198D01*
X10074587Y-17655198D02*
X10084111Y-17645674D01*
X10084111Y-17645674D02*
X10103158Y-17636150D01*
X10103158Y-17636150D02*
X10131730Y-17636150D01*
X10131730Y-17636150D02*
X10150777Y-17645674D01*
X10150777Y-17645674D02*
X10160301Y-17655198D01*
X10160301Y-17655198D02*
X10169825Y-17674246D01*
X10169825Y-17674246D02*
X10169825Y-17731389D01*
X10169825Y-17731389D02*
X10160301Y-17750436D01*
X10160301Y-17750436D02*
X10150777Y-17759960D01*
X10150777Y-17759960D02*
X10131730Y-17769484D01*
X10131730Y-17769484D02*
X10103158Y-17769484D01*
X10226968Y-17636150D02*
X10303158Y-17636150D01*
X10255539Y-17569484D02*
X10255539Y-17740912D01*
X10255539Y-17740912D02*
X10265063Y-17759960D01*
X10265063Y-17759960D02*
X10284111Y-17769484D01*
X10284111Y-17769484D02*
X10303158Y-17769484D01*
X10522206Y-17636150D02*
X10522206Y-17836150D01*
X10522206Y-17645674D02*
X10541254Y-17636150D01*
X10541254Y-17636150D02*
X10579349Y-17636150D01*
X10579349Y-17636150D02*
X10598396Y-17645674D01*
X10598396Y-17645674D02*
X10607920Y-17655198D01*
X10607920Y-17655198D02*
X10617444Y-17674246D01*
X10617444Y-17674246D02*
X10617444Y-17731389D01*
X10617444Y-17731389D02*
X10607920Y-17750436D01*
X10607920Y-17750436D02*
X10598396Y-17759960D01*
X10598396Y-17759960D02*
X10579349Y-17769484D01*
X10579349Y-17769484D02*
X10541254Y-17769484D01*
X10541254Y-17769484D02*
X10522206Y-17759960D01*
X10731730Y-17769484D02*
X10712682Y-17759960D01*
X10712682Y-17759960D02*
X10703158Y-17740912D01*
X10703158Y-17740912D02*
X10703158Y-17569484D01*
X10893635Y-17769484D02*
X10893635Y-17664722D01*
X10893635Y-17664722D02*
X10884111Y-17645674D01*
X10884111Y-17645674D02*
X10865063Y-17636150D01*
X10865063Y-17636150D02*
X10826968Y-17636150D01*
X10826968Y-17636150D02*
X10807920Y-17645674D01*
X10893635Y-17759960D02*
X10874587Y-17769484D01*
X10874587Y-17769484D02*
X10826968Y-17769484D01*
X10826968Y-17769484D02*
X10807920Y-17759960D01*
X10807920Y-17759960D02*
X10798396Y-17740912D01*
X10798396Y-17740912D02*
X10798396Y-17721865D01*
X10798396Y-17721865D02*
X10807920Y-17702817D01*
X10807920Y-17702817D02*
X10826968Y-17693293D01*
X10826968Y-17693293D02*
X10874587Y-17693293D01*
X10874587Y-17693293D02*
X10893635Y-17683770D01*
X10960301Y-17636150D02*
X11036492Y-17636150D01*
X10988873Y-17569484D02*
X10988873Y-17740912D01*
X10988873Y-17740912D02*
X10998396Y-17759960D01*
X10998396Y-17759960D02*
X11017444Y-17769484D01*
X11017444Y-17769484D02*
X11036492Y-17769484D01*
X11179349Y-17759960D02*
X11160301Y-17769484D01*
X11160301Y-17769484D02*
X11122206Y-17769484D01*
X11122206Y-17769484D02*
X11103158Y-17759960D01*
X11103158Y-17759960D02*
X11093635Y-17740912D01*
X11093635Y-17740912D02*
X11093635Y-17664722D01*
X11093635Y-17664722D02*
X11103158Y-17645674D01*
X11103158Y-17645674D02*
X11122206Y-17636150D01*
X11122206Y-17636150D02*
X11160301Y-17636150D01*
X11160301Y-17636150D02*
X11179349Y-17645674D01*
X11179349Y-17645674D02*
X11188873Y-17664722D01*
X11188873Y-17664722D02*
X11188873Y-17683770D01*
X11188873Y-17683770D02*
X11093635Y-17702817D01*
X11360301Y-17769484D02*
X11360301Y-17569484D01*
X11360301Y-17759960D02*
X11341254Y-17769484D01*
X11341254Y-17769484D02*
X11303158Y-17769484D01*
X11303158Y-17769484D02*
X11284111Y-17759960D01*
X11284111Y-17759960D02*
X11274587Y-17750436D01*
X11274587Y-17750436D02*
X11265063Y-17731389D01*
X11265063Y-17731389D02*
X11265063Y-17674246D01*
X11265063Y-17674246D02*
X11274587Y-17655198D01*
X11274587Y-17655198D02*
X11284111Y-17645674D01*
X11284111Y-17645674D02*
X11303158Y-17636150D01*
X11303158Y-17636150D02*
X11341254Y-17636150D01*
X11341254Y-17636150D02*
X11360301Y-17645674D01*
X11436492Y-17845674D02*
X11446015Y-17836150D01*
X11446015Y-17836150D02*
X11465063Y-17807579D01*
X11465063Y-17807579D02*
X11474587Y-17788531D01*
X11474587Y-17788531D02*
X11484111Y-17759960D01*
X11484111Y-17759960D02*
X11493634Y-17712341D01*
X11493634Y-17712341D02*
X11493634Y-17674246D01*
X11493634Y-17674246D02*
X11484111Y-17626627D01*
X11484111Y-17626627D02*
X11474587Y-17598055D01*
X11474587Y-17598055D02*
X11465063Y-17579008D01*
X11465063Y-17579008D02*
X11446015Y-17550436D01*
X11446015Y-17550436D02*
X11436492Y-17540912D01*
X4460711Y-18038891D02*
X4460711Y-17897469D01*
X4319289Y-17897469D01*
X4319289Y-18038891D01*
X4460711Y-18038891D01*
X4731729Y-17859664D02*
X4855539Y-17859664D01*
X4855539Y-17859664D02*
X4788872Y-17935854D01*
X4788872Y-17935854D02*
X4817444Y-17935854D01*
X4817444Y-17935854D02*
X4836491Y-17945378D01*
X4836491Y-17945378D02*
X4846015Y-17954902D01*
X4846015Y-17954902D02*
X4855539Y-17973950D01*
X4855539Y-17973950D02*
X4855539Y-18021569D01*
X4855539Y-18021569D02*
X4846015Y-18040616D01*
X4846015Y-18040616D02*
X4836491Y-18050140D01*
X4836491Y-18050140D02*
X4817444Y-18059664D01*
X4817444Y-18059664D02*
X4760301Y-18059664D01*
X4760301Y-18059664D02*
X4741253Y-18050140D01*
X4741253Y-18050140D02*
X4731729Y-18040616D01*
X4941253Y-18040616D02*
X4950777Y-18050140D01*
X4950777Y-18050140D02*
X4941253Y-18059664D01*
X4941253Y-18059664D02*
X4931729Y-18050140D01*
X4931729Y-18050140D02*
X4941253Y-18040616D01*
X4941253Y-18040616D02*
X4941253Y-18059664D01*
X5074586Y-17859664D02*
X5093634Y-17859664D01*
X5093634Y-17859664D02*
X5112682Y-17869188D01*
X5112682Y-17869188D02*
X5122205Y-17878711D01*
X5122205Y-17878711D02*
X5131729Y-17897759D01*
X5131729Y-17897759D02*
X5141253Y-17935854D01*
X5141253Y-17935854D02*
X5141253Y-17983473D01*
X5141253Y-17983473D02*
X5131729Y-18021569D01*
X5131729Y-18021569D02*
X5122205Y-18040616D01*
X5122205Y-18040616D02*
X5112682Y-18050140D01*
X5112682Y-18050140D02*
X5093634Y-18059664D01*
X5093634Y-18059664D02*
X5074586Y-18059664D01*
X5074586Y-18059664D02*
X5055539Y-18050140D01*
X5055539Y-18050140D02*
X5046015Y-18040616D01*
X5046015Y-18040616D02*
X5036491Y-18021569D01*
X5036491Y-18021569D02*
X5026967Y-17983473D01*
X5026967Y-17983473D02*
X5026967Y-17935854D01*
X5026967Y-17935854D02*
X5036491Y-17897759D01*
X5036491Y-17897759D02*
X5046015Y-17878711D01*
X5046015Y-17878711D02*
X5055539Y-17869188D01*
X5055539Y-17869188D02*
X5074586Y-17859664D01*
X5265063Y-17859664D02*
X5284110Y-17859664D01*
X5284110Y-17859664D02*
X5303158Y-17869188D01*
X5303158Y-17869188D02*
X5312682Y-17878711D01*
X5312682Y-17878711D02*
X5322205Y-17897759D01*
X5322205Y-17897759D02*
X5331729Y-17935854D01*
X5331729Y-17935854D02*
X5331729Y-17983473D01*
X5331729Y-17983473D02*
X5322205Y-18021569D01*
X5322205Y-18021569D02*
X5312682Y-18040616D01*
X5312682Y-18040616D02*
X5303158Y-18050140D01*
X5303158Y-18050140D02*
X5284110Y-18059664D01*
X5284110Y-18059664D02*
X5265063Y-18059664D01*
X5265063Y-18059664D02*
X5246015Y-18050140D01*
X5246015Y-18050140D02*
X5236491Y-18040616D01*
X5236491Y-18040616D02*
X5226967Y-18021569D01*
X5226967Y-18021569D02*
X5217444Y-17983473D01*
X5217444Y-17983473D02*
X5217444Y-17935854D01*
X5217444Y-17935854D02*
X5226967Y-17897759D01*
X5226967Y-17897759D02*
X5236491Y-17878711D01*
X5236491Y-17878711D02*
X5246015Y-17869188D01*
X5246015Y-17869188D02*
X5265063Y-17859664D01*
X5455539Y-17859664D02*
X5474586Y-17859664D01*
X5474586Y-17859664D02*
X5493634Y-17869188D01*
X5493634Y-17869188D02*
X5503158Y-17878711D01*
X5503158Y-17878711D02*
X5512682Y-17897759D01*
X5512682Y-17897759D02*
X5522205Y-17935854D01*
X5522205Y-17935854D02*
X5522205Y-17983473D01*
X5522205Y-17983473D02*
X5512682Y-18021569D01*
X5512682Y-18021569D02*
X5503158Y-18040616D01*
X5503158Y-18040616D02*
X5493634Y-18050140D01*
X5493634Y-18050140D02*
X5474586Y-18059664D01*
X5474586Y-18059664D02*
X5455539Y-18059664D01*
X5455539Y-18059664D02*
X5436491Y-18050140D01*
X5436491Y-18050140D02*
X5426967Y-18040616D01*
X5426967Y-18040616D02*
X5417444Y-18021569D01*
X5417444Y-18021569D02*
X5407920Y-17983473D01*
X5407920Y-17983473D02*
X5407920Y-17935854D01*
X5407920Y-17935854D02*
X5417444Y-17897759D01*
X5417444Y-17897759D02*
X5426967Y-17878711D01*
X5426967Y-17878711D02*
X5436491Y-17869188D01*
X5436491Y-17869188D02*
X5455539Y-17859664D01*
X5607920Y-18059664D02*
X5607920Y-17926330D01*
X5607920Y-17945378D02*
X5617443Y-17935854D01*
X5617443Y-17935854D02*
X5636491Y-17926330D01*
X5636491Y-17926330D02*
X5665063Y-17926330D01*
X5665063Y-17926330D02*
X5684110Y-17935854D01*
X5684110Y-17935854D02*
X5693634Y-17954902D01*
X5693634Y-17954902D02*
X5693634Y-18059664D01*
X5693634Y-17954902D02*
X5703158Y-17935854D01*
X5703158Y-17935854D02*
X5722205Y-17926330D01*
X5722205Y-17926330D02*
X5750777Y-17926330D01*
X5750777Y-17926330D02*
X5769824Y-17935854D01*
X5769824Y-17935854D02*
X5779348Y-17954902D01*
X5779348Y-17954902D02*
X5779348Y-18059664D01*
X5874586Y-18059664D02*
X5874586Y-17926330D01*
X5874586Y-17945378D02*
X5884110Y-17935854D01*
X5884110Y-17935854D02*
X5903158Y-17926330D01*
X5903158Y-17926330D02*
X5931729Y-17926330D01*
X5931729Y-17926330D02*
X5950777Y-17935854D01*
X5950777Y-17935854D02*
X5960301Y-17954902D01*
X5960301Y-17954902D02*
X5960301Y-18059664D01*
X5960301Y-17954902D02*
X5969824Y-17935854D01*
X5969824Y-17935854D02*
X5988872Y-17926330D01*
X5988872Y-17926330D02*
X6017443Y-17926330D01*
X6017443Y-17926330D02*
X6036491Y-17935854D01*
X6036491Y-17935854D02*
X6046015Y-17954902D01*
X6046015Y-17954902D02*
X6046015Y-18059664D01*
X6436491Y-17850140D02*
X6265063Y-18107283D01*
X6693634Y-17859664D02*
X6712682Y-17859664D01*
X6712682Y-17859664D02*
X6731729Y-17869188D01*
X6731729Y-17869188D02*
X6741253Y-17878711D01*
X6741253Y-17878711D02*
X6750777Y-17897759D01*
X6750777Y-17897759D02*
X6760301Y-17935854D01*
X6760301Y-17935854D02*
X6760301Y-17983473D01*
X6760301Y-17983473D02*
X6750777Y-18021569D01*
X6750777Y-18021569D02*
X6741253Y-18040616D01*
X6741253Y-18040616D02*
X6731729Y-18050140D01*
X6731729Y-18050140D02*
X6712682Y-18059664D01*
X6712682Y-18059664D02*
X6693634Y-18059664D01*
X6693634Y-18059664D02*
X6674586Y-18050140D01*
X6674586Y-18050140D02*
X6665063Y-18040616D01*
X6665063Y-18040616D02*
X6655539Y-18021569D01*
X6655539Y-18021569D02*
X6646015Y-17983473D01*
X6646015Y-17983473D02*
X6646015Y-17935854D01*
X6646015Y-17935854D02*
X6655539Y-17897759D01*
X6655539Y-17897759D02*
X6665063Y-17878711D01*
X6665063Y-17878711D02*
X6674586Y-17869188D01*
X6674586Y-17869188D02*
X6693634Y-17859664D01*
X6846015Y-18040616D02*
X6855539Y-18050140D01*
X6855539Y-18050140D02*
X6846015Y-18059664D01*
X6846015Y-18059664D02*
X6836491Y-18050140D01*
X6836491Y-18050140D02*
X6846015Y-18040616D01*
X6846015Y-18040616D02*
X6846015Y-18059664D01*
X7046015Y-18059664D02*
X6931729Y-18059664D01*
X6988872Y-18059664D02*
X6988872Y-17859664D01*
X6988872Y-17859664D02*
X6969825Y-17888235D01*
X6969825Y-17888235D02*
X6950777Y-17907283D01*
X6950777Y-17907283D02*
X6931729Y-17916807D01*
X7236491Y-18059664D02*
X7122206Y-18059664D01*
X7179348Y-18059664D02*
X7179348Y-17859664D01*
X7179348Y-17859664D02*
X7160301Y-17888235D01*
X7160301Y-17888235D02*
X7141253Y-17907283D01*
X7141253Y-17907283D02*
X7122206Y-17916807D01*
X7350777Y-17945378D02*
X7331729Y-17935854D01*
X7331729Y-17935854D02*
X7322206Y-17926330D01*
X7322206Y-17926330D02*
X7312682Y-17907283D01*
X7312682Y-17907283D02*
X7312682Y-17897759D01*
X7312682Y-17897759D02*
X7322206Y-17878711D01*
X7322206Y-17878711D02*
X7331729Y-17869188D01*
X7331729Y-17869188D02*
X7350777Y-17859664D01*
X7350777Y-17859664D02*
X7388872Y-17859664D01*
X7388872Y-17859664D02*
X7407920Y-17869188D01*
X7407920Y-17869188D02*
X7417444Y-17878711D01*
X7417444Y-17878711D02*
X7426967Y-17897759D01*
X7426967Y-17897759D02*
X7426967Y-17907283D01*
X7426967Y-17907283D02*
X7417444Y-17926330D01*
X7417444Y-17926330D02*
X7407920Y-17935854D01*
X7407920Y-17935854D02*
X7388872Y-17945378D01*
X7388872Y-17945378D02*
X7350777Y-17945378D01*
X7350777Y-17945378D02*
X7331729Y-17954902D01*
X7331729Y-17954902D02*
X7322206Y-17964426D01*
X7322206Y-17964426D02*
X7312682Y-17983473D01*
X7312682Y-17983473D02*
X7312682Y-18021569D01*
X7312682Y-18021569D02*
X7322206Y-18040616D01*
X7322206Y-18040616D02*
X7331729Y-18050140D01*
X7331729Y-18050140D02*
X7350777Y-18059664D01*
X7350777Y-18059664D02*
X7388872Y-18059664D01*
X7388872Y-18059664D02*
X7407920Y-18050140D01*
X7407920Y-18050140D02*
X7417444Y-18040616D01*
X7417444Y-18040616D02*
X7426967Y-18021569D01*
X7426967Y-18021569D02*
X7426967Y-17983473D01*
X7426967Y-17983473D02*
X7417444Y-17964426D01*
X7417444Y-17964426D02*
X7407920Y-17954902D01*
X7407920Y-17954902D02*
X7388872Y-17945378D01*
X7617444Y-18059664D02*
X7503158Y-18059664D01*
X7560301Y-18059664D02*
X7560301Y-17859664D01*
X7560301Y-17859664D02*
X7541253Y-17888235D01*
X7541253Y-17888235D02*
X7522206Y-17907283D01*
X7522206Y-17907283D02*
X7503158Y-17916807D01*
X7693634Y-17859664D02*
X7693634Y-17897759D01*
X7769825Y-17859664D02*
X7769825Y-17897759D01*
X8065063Y-18135854D02*
X8055539Y-18126330D01*
X8055539Y-18126330D02*
X8036491Y-18097759D01*
X8036491Y-18097759D02*
X8026968Y-18078711D01*
X8026968Y-18078711D02*
X8017444Y-18050140D01*
X8017444Y-18050140D02*
X8007920Y-18002521D01*
X8007920Y-18002521D02*
X8007920Y-17964426D01*
X8007920Y-17964426D02*
X8017444Y-17916807D01*
X8017444Y-17916807D02*
X8026968Y-17888235D01*
X8026968Y-17888235D02*
X8036491Y-17869188D01*
X8036491Y-17869188D02*
X8055539Y-17840616D01*
X8055539Y-17840616D02*
X8065063Y-17831092D01*
X8122206Y-17859664D02*
X8246015Y-17859664D01*
X8246015Y-17859664D02*
X8179348Y-17935854D01*
X8179348Y-17935854D02*
X8207920Y-17935854D01*
X8207920Y-17935854D02*
X8226968Y-17945378D01*
X8226968Y-17945378D02*
X8236491Y-17954902D01*
X8236491Y-17954902D02*
X8246015Y-17973950D01*
X8246015Y-17973950D02*
X8246015Y-18021569D01*
X8246015Y-18021569D02*
X8236491Y-18040616D01*
X8236491Y-18040616D02*
X8226968Y-18050140D01*
X8226968Y-18050140D02*
X8207920Y-18059664D01*
X8207920Y-18059664D02*
X8150777Y-18059664D01*
X8150777Y-18059664D02*
X8131729Y-18050140D01*
X8131729Y-18050140D02*
X8122206Y-18040616D01*
X8417444Y-17859664D02*
X8379348Y-17859664D01*
X8379348Y-17859664D02*
X8360301Y-17869188D01*
X8360301Y-17869188D02*
X8350777Y-17878711D01*
X8350777Y-17878711D02*
X8331729Y-17907283D01*
X8331729Y-17907283D02*
X8322206Y-17945378D01*
X8322206Y-17945378D02*
X8322206Y-18021569D01*
X8322206Y-18021569D02*
X8331729Y-18040616D01*
X8331729Y-18040616D02*
X8341253Y-18050140D01*
X8341253Y-18050140D02*
X8360301Y-18059664D01*
X8360301Y-18059664D02*
X8398396Y-18059664D01*
X8398396Y-18059664D02*
X8417444Y-18050140D01*
X8417444Y-18050140D02*
X8426968Y-18040616D01*
X8426968Y-18040616D02*
X8436491Y-18021569D01*
X8436491Y-18021569D02*
X8436491Y-17973950D01*
X8436491Y-17973950D02*
X8426968Y-17954902D01*
X8426968Y-17954902D02*
X8417444Y-17945378D01*
X8417444Y-17945378D02*
X8398396Y-17935854D01*
X8398396Y-17935854D02*
X8360301Y-17935854D01*
X8360301Y-17935854D02*
X8341253Y-17945378D01*
X8341253Y-17945378D02*
X8331729Y-17954902D01*
X8331729Y-17954902D02*
X8322206Y-17973950D01*
X8674587Y-18059664D02*
X8674587Y-17859664D01*
X8760301Y-18059664D02*
X8760301Y-17954902D01*
X8760301Y-17954902D02*
X8750777Y-17935854D01*
X8750777Y-17935854D02*
X8731730Y-17926330D01*
X8731730Y-17926330D02*
X8703158Y-17926330D01*
X8703158Y-17926330D02*
X8684111Y-17935854D01*
X8684111Y-17935854D02*
X8674587Y-17945378D01*
X8884111Y-18059664D02*
X8865063Y-18050140D01*
X8865063Y-18050140D02*
X8855539Y-18040616D01*
X8855539Y-18040616D02*
X8846015Y-18021569D01*
X8846015Y-18021569D02*
X8846015Y-17964426D01*
X8846015Y-17964426D02*
X8855539Y-17945378D01*
X8855539Y-17945378D02*
X8865063Y-17935854D01*
X8865063Y-17935854D02*
X8884111Y-17926330D01*
X8884111Y-17926330D02*
X8912682Y-17926330D01*
X8912682Y-17926330D02*
X8931730Y-17935854D01*
X8931730Y-17935854D02*
X8941253Y-17945378D01*
X8941253Y-17945378D02*
X8950777Y-17964426D01*
X8950777Y-17964426D02*
X8950777Y-18021569D01*
X8950777Y-18021569D02*
X8941253Y-18040616D01*
X8941253Y-18040616D02*
X8931730Y-18050140D01*
X8931730Y-18050140D02*
X8912682Y-18059664D01*
X8912682Y-18059664D02*
X8884111Y-18059664D01*
X9065063Y-18059664D02*
X9046015Y-18050140D01*
X9046015Y-18050140D02*
X9036492Y-18031092D01*
X9036492Y-18031092D02*
X9036492Y-17859664D01*
X9217444Y-18050140D02*
X9198396Y-18059664D01*
X9198396Y-18059664D02*
X9160301Y-18059664D01*
X9160301Y-18059664D02*
X9141253Y-18050140D01*
X9141253Y-18050140D02*
X9131730Y-18031092D01*
X9131730Y-18031092D02*
X9131730Y-17954902D01*
X9131730Y-17954902D02*
X9141253Y-17935854D01*
X9141253Y-17935854D02*
X9160301Y-17926330D01*
X9160301Y-17926330D02*
X9198396Y-17926330D01*
X9198396Y-17926330D02*
X9217444Y-17935854D01*
X9217444Y-17935854D02*
X9226968Y-17954902D01*
X9226968Y-17954902D02*
X9226968Y-17973950D01*
X9226968Y-17973950D02*
X9131730Y-17992997D01*
X9303158Y-18050140D02*
X9322206Y-18059664D01*
X9322206Y-18059664D02*
X9360301Y-18059664D01*
X9360301Y-18059664D02*
X9379349Y-18050140D01*
X9379349Y-18050140D02*
X9388873Y-18031092D01*
X9388873Y-18031092D02*
X9388873Y-18021569D01*
X9388873Y-18021569D02*
X9379349Y-18002521D01*
X9379349Y-18002521D02*
X9360301Y-17992997D01*
X9360301Y-17992997D02*
X9331730Y-17992997D01*
X9331730Y-17992997D02*
X9312682Y-17983473D01*
X9312682Y-17983473D02*
X9303158Y-17964426D01*
X9303158Y-17964426D02*
X9303158Y-17954902D01*
X9303158Y-17954902D02*
X9312682Y-17935854D01*
X9312682Y-17935854D02*
X9331730Y-17926330D01*
X9331730Y-17926330D02*
X9360301Y-17926330D01*
X9360301Y-17926330D02*
X9379349Y-17935854D01*
X9455539Y-18135854D02*
X9465063Y-18126330D01*
X9465063Y-18126330D02*
X9484111Y-18097759D01*
X9484111Y-18097759D02*
X9493634Y-18078711D01*
X9493634Y-18078711D02*
X9503158Y-18050140D01*
X9503158Y-18050140D02*
X9512682Y-18002521D01*
X9512682Y-18002521D02*
X9512682Y-17964426D01*
X9512682Y-17964426D02*
X9503158Y-17916807D01*
X9503158Y-17916807D02*
X9493634Y-17888235D01*
X9493634Y-17888235D02*
X9484111Y-17869188D01*
X9484111Y-17869188D02*
X9465063Y-17840616D01*
X9465063Y-17840616D02*
X9455539Y-17831092D01*
X9817444Y-18135854D02*
X9807920Y-18126330D01*
X9807920Y-18126330D02*
X9788873Y-18097759D01*
X9788873Y-18097759D02*
X9779349Y-18078711D01*
X9779349Y-18078711D02*
X9769825Y-18050140D01*
X9769825Y-18050140D02*
X9760301Y-18002521D01*
X9760301Y-18002521D02*
X9760301Y-17964426D01*
X9760301Y-17964426D02*
X9769825Y-17916807D01*
X9769825Y-17916807D02*
X9779349Y-17888235D01*
X9779349Y-17888235D02*
X9788873Y-17869188D01*
X9788873Y-17869188D02*
X9807920Y-17840616D01*
X9807920Y-17840616D02*
X9817444Y-17831092D01*
X9893634Y-17926330D02*
X9893634Y-18059664D01*
X9893634Y-17945378D02*
X9903158Y-17935854D01*
X9903158Y-17935854D02*
X9922206Y-17926330D01*
X9922206Y-17926330D02*
X9950777Y-17926330D01*
X9950777Y-17926330D02*
X9969825Y-17935854D01*
X9969825Y-17935854D02*
X9979349Y-17954902D01*
X9979349Y-17954902D02*
X9979349Y-18059664D01*
X10103158Y-18059664D02*
X10084111Y-18050140D01*
X10084111Y-18050140D02*
X10074587Y-18040616D01*
X10074587Y-18040616D02*
X10065063Y-18021569D01*
X10065063Y-18021569D02*
X10065063Y-17964426D01*
X10065063Y-17964426D02*
X10074587Y-17945378D01*
X10074587Y-17945378D02*
X10084111Y-17935854D01*
X10084111Y-17935854D02*
X10103158Y-17926330D01*
X10103158Y-17926330D02*
X10131730Y-17926330D01*
X10131730Y-17926330D02*
X10150777Y-17935854D01*
X10150777Y-17935854D02*
X10160301Y-17945378D01*
X10160301Y-17945378D02*
X10169825Y-17964426D01*
X10169825Y-17964426D02*
X10169825Y-18021569D01*
X10169825Y-18021569D02*
X10160301Y-18040616D01*
X10160301Y-18040616D02*
X10150777Y-18050140D01*
X10150777Y-18050140D02*
X10131730Y-18059664D01*
X10131730Y-18059664D02*
X10103158Y-18059664D01*
X10226968Y-17926330D02*
X10303158Y-17926330D01*
X10255539Y-17859664D02*
X10255539Y-18031092D01*
X10255539Y-18031092D02*
X10265063Y-18050140D01*
X10265063Y-18050140D02*
X10284111Y-18059664D01*
X10284111Y-18059664D02*
X10303158Y-18059664D01*
X10522206Y-17926330D02*
X10522206Y-18126330D01*
X10522206Y-17935854D02*
X10541254Y-17926330D01*
X10541254Y-17926330D02*
X10579349Y-17926330D01*
X10579349Y-17926330D02*
X10598396Y-17935854D01*
X10598396Y-17935854D02*
X10607920Y-17945378D01*
X10607920Y-17945378D02*
X10617444Y-17964426D01*
X10617444Y-17964426D02*
X10617444Y-18021569D01*
X10617444Y-18021569D02*
X10607920Y-18040616D01*
X10607920Y-18040616D02*
X10598396Y-18050140D01*
X10598396Y-18050140D02*
X10579349Y-18059664D01*
X10579349Y-18059664D02*
X10541254Y-18059664D01*
X10541254Y-18059664D02*
X10522206Y-18050140D01*
X10731730Y-18059664D02*
X10712682Y-18050140D01*
X10712682Y-18050140D02*
X10703158Y-18031092D01*
X10703158Y-18031092D02*
X10703158Y-17859664D01*
X10893635Y-18059664D02*
X10893635Y-17954902D01*
X10893635Y-17954902D02*
X10884111Y-17935854D01*
X10884111Y-17935854D02*
X10865063Y-17926330D01*
X10865063Y-17926330D02*
X10826968Y-17926330D01*
X10826968Y-17926330D02*
X10807920Y-17935854D01*
X10893635Y-18050140D02*
X10874587Y-18059664D01*
X10874587Y-18059664D02*
X10826968Y-18059664D01*
X10826968Y-18059664D02*
X10807920Y-18050140D01*
X10807920Y-18050140D02*
X10798396Y-18031092D01*
X10798396Y-18031092D02*
X10798396Y-18012045D01*
X10798396Y-18012045D02*
X10807920Y-17992997D01*
X10807920Y-17992997D02*
X10826968Y-17983473D01*
X10826968Y-17983473D02*
X10874587Y-17983473D01*
X10874587Y-17983473D02*
X10893635Y-17973950D01*
X10960301Y-17926330D02*
X11036492Y-17926330D01*
X10988873Y-17859664D02*
X10988873Y-18031092D01*
X10988873Y-18031092D02*
X10998396Y-18050140D01*
X10998396Y-18050140D02*
X11017444Y-18059664D01*
X11017444Y-18059664D02*
X11036492Y-18059664D01*
X11179349Y-18050140D02*
X11160301Y-18059664D01*
X11160301Y-18059664D02*
X11122206Y-18059664D01*
X11122206Y-18059664D02*
X11103158Y-18050140D01*
X11103158Y-18050140D02*
X11093635Y-18031092D01*
X11093635Y-18031092D02*
X11093635Y-17954902D01*
X11093635Y-17954902D02*
X11103158Y-17935854D01*
X11103158Y-17935854D02*
X11122206Y-17926330D01*
X11122206Y-17926330D02*
X11160301Y-17926330D01*
X11160301Y-17926330D02*
X11179349Y-17935854D01*
X11179349Y-17935854D02*
X11188873Y-17954902D01*
X11188873Y-17954902D02*
X11188873Y-17973950D01*
X11188873Y-17973950D02*
X11093635Y-17992997D01*
X11360301Y-18059664D02*
X11360301Y-17859664D01*
X11360301Y-18050140D02*
X11341254Y-18059664D01*
X11341254Y-18059664D02*
X11303158Y-18059664D01*
X11303158Y-18059664D02*
X11284111Y-18050140D01*
X11284111Y-18050140D02*
X11274587Y-18040616D01*
X11274587Y-18040616D02*
X11265063Y-18021569D01*
X11265063Y-18021569D02*
X11265063Y-17964426D01*
X11265063Y-17964426D02*
X11274587Y-17945378D01*
X11274587Y-17945378D02*
X11284111Y-17935854D01*
X11284111Y-17935854D02*
X11303158Y-17926330D01*
X11303158Y-17926330D02*
X11341254Y-17926330D01*
X11341254Y-17926330D02*
X11360301Y-17935854D01*
X11436492Y-18135854D02*
X11446015Y-18126330D01*
X11446015Y-18126330D02*
X11465063Y-18097759D01*
X11465063Y-18097759D02*
X11474587Y-18078711D01*
X11474587Y-18078711D02*
X11484111Y-18050140D01*
X11484111Y-18050140D02*
X11493634Y-18002521D01*
X11493634Y-18002521D02*
X11493634Y-17964426D01*
X11493634Y-17964426D02*
X11484111Y-17916807D01*
X11484111Y-17916807D02*
X11474587Y-17888235D01*
X11474587Y-17888235D02*
X11465063Y-17869188D01*
X11465063Y-17869188D02*
X11446015Y-17840616D01*
X11446015Y-17840616D02*
X11436492Y-17831092D01*
X4390000Y-18388180D02*
X4490000Y-18288180D01*
X4390000Y-18188180D01*
X4290000Y-18288180D01*
X4390000Y-18388180D01*
X4731729Y-18179664D02*
X4855539Y-18179664D01*
X4855539Y-18179664D02*
X4788872Y-18255854D01*
X4788872Y-18255854D02*
X4817444Y-18255854D01*
X4817444Y-18255854D02*
X4836491Y-18265378D01*
X4836491Y-18265378D02*
X4846015Y-18274902D01*
X4846015Y-18274902D02*
X4855539Y-18293950D01*
X4855539Y-18293950D02*
X4855539Y-18341569D01*
X4855539Y-18341569D02*
X4846015Y-18360616D01*
X4846015Y-18360616D02*
X4836491Y-18370140D01*
X4836491Y-18370140D02*
X4817444Y-18379664D01*
X4817444Y-18379664D02*
X4760301Y-18379664D01*
X4760301Y-18379664D02*
X4741253Y-18370140D01*
X4741253Y-18370140D02*
X4731729Y-18360616D01*
X4941253Y-18360616D02*
X4950777Y-18370140D01*
X4950777Y-18370140D02*
X4941253Y-18379664D01*
X4941253Y-18379664D02*
X4931729Y-18370140D01*
X4931729Y-18370140D02*
X4941253Y-18360616D01*
X4941253Y-18360616D02*
X4941253Y-18379664D01*
X5122205Y-18246330D02*
X5122205Y-18379664D01*
X5074586Y-18170140D02*
X5026967Y-18312997D01*
X5026967Y-18312997D02*
X5150777Y-18312997D01*
X5217444Y-18198711D02*
X5226967Y-18189188D01*
X5226967Y-18189188D02*
X5246015Y-18179664D01*
X5246015Y-18179664D02*
X5293634Y-18179664D01*
X5293634Y-18179664D02*
X5312682Y-18189188D01*
X5312682Y-18189188D02*
X5322205Y-18198711D01*
X5322205Y-18198711D02*
X5331729Y-18217759D01*
X5331729Y-18217759D02*
X5331729Y-18236807D01*
X5331729Y-18236807D02*
X5322205Y-18265378D01*
X5322205Y-18265378D02*
X5207920Y-18379664D01*
X5207920Y-18379664D02*
X5331729Y-18379664D01*
X5426967Y-18379664D02*
X5465063Y-18379664D01*
X5465063Y-18379664D02*
X5484110Y-18370140D01*
X5484110Y-18370140D02*
X5493634Y-18360616D01*
X5493634Y-18360616D02*
X5512682Y-18332045D01*
X5512682Y-18332045D02*
X5522205Y-18293950D01*
X5522205Y-18293950D02*
X5522205Y-18217759D01*
X5522205Y-18217759D02*
X5512682Y-18198711D01*
X5512682Y-18198711D02*
X5503158Y-18189188D01*
X5503158Y-18189188D02*
X5484110Y-18179664D01*
X5484110Y-18179664D02*
X5446015Y-18179664D01*
X5446015Y-18179664D02*
X5426967Y-18189188D01*
X5426967Y-18189188D02*
X5417444Y-18198711D01*
X5417444Y-18198711D02*
X5407920Y-18217759D01*
X5407920Y-18217759D02*
X5407920Y-18265378D01*
X5407920Y-18265378D02*
X5417444Y-18284426D01*
X5417444Y-18284426D02*
X5426967Y-18293950D01*
X5426967Y-18293950D02*
X5446015Y-18303473D01*
X5446015Y-18303473D02*
X5484110Y-18303473D01*
X5484110Y-18303473D02*
X5503158Y-18293950D01*
X5503158Y-18293950D02*
X5512682Y-18284426D01*
X5512682Y-18284426D02*
X5522205Y-18265378D01*
X5607920Y-18379664D02*
X5607920Y-18246330D01*
X5607920Y-18265378D02*
X5617443Y-18255854D01*
X5617443Y-18255854D02*
X5636491Y-18246330D01*
X5636491Y-18246330D02*
X5665063Y-18246330D01*
X5665063Y-18246330D02*
X5684110Y-18255854D01*
X5684110Y-18255854D02*
X5693634Y-18274902D01*
X5693634Y-18274902D02*
X5693634Y-18379664D01*
X5693634Y-18274902D02*
X5703158Y-18255854D01*
X5703158Y-18255854D02*
X5722205Y-18246330D01*
X5722205Y-18246330D02*
X5750777Y-18246330D01*
X5750777Y-18246330D02*
X5769824Y-18255854D01*
X5769824Y-18255854D02*
X5779348Y-18274902D01*
X5779348Y-18274902D02*
X5779348Y-18379664D01*
X5874586Y-18379664D02*
X5874586Y-18246330D01*
X5874586Y-18265378D02*
X5884110Y-18255854D01*
X5884110Y-18255854D02*
X5903158Y-18246330D01*
X5903158Y-18246330D02*
X5931729Y-18246330D01*
X5931729Y-18246330D02*
X5950777Y-18255854D01*
X5950777Y-18255854D02*
X5960301Y-18274902D01*
X5960301Y-18274902D02*
X5960301Y-18379664D01*
X5960301Y-18274902D02*
X5969824Y-18255854D01*
X5969824Y-18255854D02*
X5988872Y-18246330D01*
X5988872Y-18246330D02*
X6017443Y-18246330D01*
X6017443Y-18246330D02*
X6036491Y-18255854D01*
X6036491Y-18255854D02*
X6046015Y-18274902D01*
X6046015Y-18274902D02*
X6046015Y-18379664D01*
X6436491Y-18170140D02*
X6265063Y-18427283D01*
X6693634Y-18179664D02*
X6712682Y-18179664D01*
X6712682Y-18179664D02*
X6731729Y-18189188D01*
X6731729Y-18189188D02*
X6741253Y-18198711D01*
X6741253Y-18198711D02*
X6750777Y-18217759D01*
X6750777Y-18217759D02*
X6760301Y-18255854D01*
X6760301Y-18255854D02*
X6760301Y-18303473D01*
X6760301Y-18303473D02*
X6750777Y-18341569D01*
X6750777Y-18341569D02*
X6741253Y-18360616D01*
X6741253Y-18360616D02*
X6731729Y-18370140D01*
X6731729Y-18370140D02*
X6712682Y-18379664D01*
X6712682Y-18379664D02*
X6693634Y-18379664D01*
X6693634Y-18379664D02*
X6674586Y-18370140D01*
X6674586Y-18370140D02*
X6665063Y-18360616D01*
X6665063Y-18360616D02*
X6655539Y-18341569D01*
X6655539Y-18341569D02*
X6646015Y-18303473D01*
X6646015Y-18303473D02*
X6646015Y-18255854D01*
X6646015Y-18255854D02*
X6655539Y-18217759D01*
X6655539Y-18217759D02*
X6665063Y-18198711D01*
X6665063Y-18198711D02*
X6674586Y-18189188D01*
X6674586Y-18189188D02*
X6693634Y-18179664D01*
X6846015Y-18360616D02*
X6855539Y-18370140D01*
X6855539Y-18370140D02*
X6846015Y-18379664D01*
X6846015Y-18379664D02*
X6836491Y-18370140D01*
X6836491Y-18370140D02*
X6846015Y-18360616D01*
X6846015Y-18360616D02*
X6846015Y-18379664D01*
X7046015Y-18379664D02*
X6931729Y-18379664D01*
X6988872Y-18379664D02*
X6988872Y-18179664D01*
X6988872Y-18179664D02*
X6969825Y-18208235D01*
X6969825Y-18208235D02*
X6950777Y-18227283D01*
X6950777Y-18227283D02*
X6931729Y-18236807D01*
X7112682Y-18179664D02*
X7236491Y-18179664D01*
X7236491Y-18179664D02*
X7169825Y-18255854D01*
X7169825Y-18255854D02*
X7198396Y-18255854D01*
X7198396Y-18255854D02*
X7217444Y-18265378D01*
X7217444Y-18265378D02*
X7226967Y-18274902D01*
X7226967Y-18274902D02*
X7236491Y-18293950D01*
X7236491Y-18293950D02*
X7236491Y-18341569D01*
X7236491Y-18341569D02*
X7226967Y-18360616D01*
X7226967Y-18360616D02*
X7217444Y-18370140D01*
X7217444Y-18370140D02*
X7198396Y-18379664D01*
X7198396Y-18379664D02*
X7141253Y-18379664D01*
X7141253Y-18379664D02*
X7122206Y-18370140D01*
X7122206Y-18370140D02*
X7112682Y-18360616D01*
X7417444Y-18179664D02*
X7322206Y-18179664D01*
X7322206Y-18179664D02*
X7312682Y-18274902D01*
X7312682Y-18274902D02*
X7322206Y-18265378D01*
X7322206Y-18265378D02*
X7341253Y-18255854D01*
X7341253Y-18255854D02*
X7388872Y-18255854D01*
X7388872Y-18255854D02*
X7407920Y-18265378D01*
X7407920Y-18265378D02*
X7417444Y-18274902D01*
X7417444Y-18274902D02*
X7426967Y-18293950D01*
X7426967Y-18293950D02*
X7426967Y-18341569D01*
X7426967Y-18341569D02*
X7417444Y-18360616D01*
X7417444Y-18360616D02*
X7407920Y-18370140D01*
X7407920Y-18370140D02*
X7388872Y-18379664D01*
X7388872Y-18379664D02*
X7341253Y-18379664D01*
X7341253Y-18379664D02*
X7322206Y-18370140D01*
X7322206Y-18370140D02*
X7312682Y-18360616D01*
X7550777Y-18179664D02*
X7569825Y-18179664D01*
X7569825Y-18179664D02*
X7588872Y-18189188D01*
X7588872Y-18189188D02*
X7598396Y-18198711D01*
X7598396Y-18198711D02*
X7607920Y-18217759D01*
X7607920Y-18217759D02*
X7617444Y-18255854D01*
X7617444Y-18255854D02*
X7617444Y-18303473D01*
X7617444Y-18303473D02*
X7607920Y-18341569D01*
X7607920Y-18341569D02*
X7598396Y-18360616D01*
X7598396Y-18360616D02*
X7588872Y-18370140D01*
X7588872Y-18370140D02*
X7569825Y-18379664D01*
X7569825Y-18379664D02*
X7550777Y-18379664D01*
X7550777Y-18379664D02*
X7531729Y-18370140D01*
X7531729Y-18370140D02*
X7522206Y-18360616D01*
X7522206Y-18360616D02*
X7512682Y-18341569D01*
X7512682Y-18341569D02*
X7503158Y-18303473D01*
X7503158Y-18303473D02*
X7503158Y-18255854D01*
X7503158Y-18255854D02*
X7512682Y-18217759D01*
X7512682Y-18217759D02*
X7522206Y-18198711D01*
X7522206Y-18198711D02*
X7531729Y-18189188D01*
X7531729Y-18189188D02*
X7550777Y-18179664D01*
X7693634Y-18179664D02*
X7693634Y-18217759D01*
X7769825Y-18179664D02*
X7769825Y-18217759D01*
X8065063Y-18455854D02*
X8055539Y-18446330D01*
X8055539Y-18446330D02*
X8036491Y-18417759D01*
X8036491Y-18417759D02*
X8026968Y-18398711D01*
X8026968Y-18398711D02*
X8017444Y-18370140D01*
X8017444Y-18370140D02*
X8007920Y-18322521D01*
X8007920Y-18322521D02*
X8007920Y-18284426D01*
X8007920Y-18284426D02*
X8017444Y-18236807D01*
X8017444Y-18236807D02*
X8026968Y-18208235D01*
X8026968Y-18208235D02*
X8036491Y-18189188D01*
X8036491Y-18189188D02*
X8055539Y-18160616D01*
X8055539Y-18160616D02*
X8065063Y-18151092D01*
X8246015Y-18379664D02*
X8131729Y-18379664D01*
X8188872Y-18379664D02*
X8188872Y-18179664D01*
X8188872Y-18179664D02*
X8169825Y-18208235D01*
X8169825Y-18208235D02*
X8150777Y-18227283D01*
X8150777Y-18227283D02*
X8131729Y-18236807D01*
X8360301Y-18265378D02*
X8341253Y-18255854D01*
X8341253Y-18255854D02*
X8331729Y-18246330D01*
X8331729Y-18246330D02*
X8322206Y-18227283D01*
X8322206Y-18227283D02*
X8322206Y-18217759D01*
X8322206Y-18217759D02*
X8331729Y-18198711D01*
X8331729Y-18198711D02*
X8341253Y-18189188D01*
X8341253Y-18189188D02*
X8360301Y-18179664D01*
X8360301Y-18179664D02*
X8398396Y-18179664D01*
X8398396Y-18179664D02*
X8417444Y-18189188D01*
X8417444Y-18189188D02*
X8426968Y-18198711D01*
X8426968Y-18198711D02*
X8436491Y-18217759D01*
X8436491Y-18217759D02*
X8436491Y-18227283D01*
X8436491Y-18227283D02*
X8426968Y-18246330D01*
X8426968Y-18246330D02*
X8417444Y-18255854D01*
X8417444Y-18255854D02*
X8398396Y-18265378D01*
X8398396Y-18265378D02*
X8360301Y-18265378D01*
X8360301Y-18265378D02*
X8341253Y-18274902D01*
X8341253Y-18274902D02*
X8331729Y-18284426D01*
X8331729Y-18284426D02*
X8322206Y-18303473D01*
X8322206Y-18303473D02*
X8322206Y-18341569D01*
X8322206Y-18341569D02*
X8331729Y-18360616D01*
X8331729Y-18360616D02*
X8341253Y-18370140D01*
X8341253Y-18370140D02*
X8360301Y-18379664D01*
X8360301Y-18379664D02*
X8398396Y-18379664D01*
X8398396Y-18379664D02*
X8417444Y-18370140D01*
X8417444Y-18370140D02*
X8426968Y-18360616D01*
X8426968Y-18360616D02*
X8436491Y-18341569D01*
X8436491Y-18341569D02*
X8436491Y-18303473D01*
X8436491Y-18303473D02*
X8426968Y-18284426D01*
X8426968Y-18284426D02*
X8417444Y-18274902D01*
X8417444Y-18274902D02*
X8398396Y-18265378D01*
X8674587Y-18379664D02*
X8674587Y-18179664D01*
X8760301Y-18379664D02*
X8760301Y-18274902D01*
X8760301Y-18274902D02*
X8750777Y-18255854D01*
X8750777Y-18255854D02*
X8731730Y-18246330D01*
X8731730Y-18246330D02*
X8703158Y-18246330D01*
X8703158Y-18246330D02*
X8684111Y-18255854D01*
X8684111Y-18255854D02*
X8674587Y-18265378D01*
X8884111Y-18379664D02*
X8865063Y-18370140D01*
X8865063Y-18370140D02*
X8855539Y-18360616D01*
X8855539Y-18360616D02*
X8846015Y-18341569D01*
X8846015Y-18341569D02*
X8846015Y-18284426D01*
X8846015Y-18284426D02*
X8855539Y-18265378D01*
X8855539Y-18265378D02*
X8865063Y-18255854D01*
X8865063Y-18255854D02*
X8884111Y-18246330D01*
X8884111Y-18246330D02*
X8912682Y-18246330D01*
X8912682Y-18246330D02*
X8931730Y-18255854D01*
X8931730Y-18255854D02*
X8941253Y-18265378D01*
X8941253Y-18265378D02*
X8950777Y-18284426D01*
X8950777Y-18284426D02*
X8950777Y-18341569D01*
X8950777Y-18341569D02*
X8941253Y-18360616D01*
X8941253Y-18360616D02*
X8931730Y-18370140D01*
X8931730Y-18370140D02*
X8912682Y-18379664D01*
X8912682Y-18379664D02*
X8884111Y-18379664D01*
X9065063Y-18379664D02*
X9046015Y-18370140D01*
X9046015Y-18370140D02*
X9036492Y-18351092D01*
X9036492Y-18351092D02*
X9036492Y-18179664D01*
X9217444Y-18370140D02*
X9198396Y-18379664D01*
X9198396Y-18379664D02*
X9160301Y-18379664D01*
X9160301Y-18379664D02*
X9141253Y-18370140D01*
X9141253Y-18370140D02*
X9131730Y-18351092D01*
X9131730Y-18351092D02*
X9131730Y-18274902D01*
X9131730Y-18274902D02*
X9141253Y-18255854D01*
X9141253Y-18255854D02*
X9160301Y-18246330D01*
X9160301Y-18246330D02*
X9198396Y-18246330D01*
X9198396Y-18246330D02*
X9217444Y-18255854D01*
X9217444Y-18255854D02*
X9226968Y-18274902D01*
X9226968Y-18274902D02*
X9226968Y-18293950D01*
X9226968Y-18293950D02*
X9131730Y-18312997D01*
X9303158Y-18370140D02*
X9322206Y-18379664D01*
X9322206Y-18379664D02*
X9360301Y-18379664D01*
X9360301Y-18379664D02*
X9379349Y-18370140D01*
X9379349Y-18370140D02*
X9388873Y-18351092D01*
X9388873Y-18351092D02*
X9388873Y-18341569D01*
X9388873Y-18341569D02*
X9379349Y-18322521D01*
X9379349Y-18322521D02*
X9360301Y-18312997D01*
X9360301Y-18312997D02*
X9331730Y-18312997D01*
X9331730Y-18312997D02*
X9312682Y-18303473D01*
X9312682Y-18303473D02*
X9303158Y-18284426D01*
X9303158Y-18284426D02*
X9303158Y-18274902D01*
X9303158Y-18274902D02*
X9312682Y-18255854D01*
X9312682Y-18255854D02*
X9331730Y-18246330D01*
X9331730Y-18246330D02*
X9360301Y-18246330D01*
X9360301Y-18246330D02*
X9379349Y-18255854D01*
X9455539Y-18455854D02*
X9465063Y-18446330D01*
X9465063Y-18446330D02*
X9484111Y-18417759D01*
X9484111Y-18417759D02*
X9493634Y-18398711D01*
X9493634Y-18398711D02*
X9503158Y-18370140D01*
X9503158Y-18370140D02*
X9512682Y-18322521D01*
X9512682Y-18322521D02*
X9512682Y-18284426D01*
X9512682Y-18284426D02*
X9503158Y-18236807D01*
X9503158Y-18236807D02*
X9493634Y-18208235D01*
X9493634Y-18208235D02*
X9484111Y-18189188D01*
X9484111Y-18189188D02*
X9465063Y-18160616D01*
X9465063Y-18160616D02*
X9455539Y-18151092D01*
X9817444Y-18455854D02*
X9807920Y-18446330D01*
X9807920Y-18446330D02*
X9788873Y-18417759D01*
X9788873Y-18417759D02*
X9779349Y-18398711D01*
X9779349Y-18398711D02*
X9769825Y-18370140D01*
X9769825Y-18370140D02*
X9760301Y-18322521D01*
X9760301Y-18322521D02*
X9760301Y-18284426D01*
X9760301Y-18284426D02*
X9769825Y-18236807D01*
X9769825Y-18236807D02*
X9779349Y-18208235D01*
X9779349Y-18208235D02*
X9788873Y-18189188D01*
X9788873Y-18189188D02*
X9807920Y-18160616D01*
X9807920Y-18160616D02*
X9817444Y-18151092D01*
X9893634Y-18246330D02*
X9893634Y-18379664D01*
X9893634Y-18265378D02*
X9903158Y-18255854D01*
X9903158Y-18255854D02*
X9922206Y-18246330D01*
X9922206Y-18246330D02*
X9950777Y-18246330D01*
X9950777Y-18246330D02*
X9969825Y-18255854D01*
X9969825Y-18255854D02*
X9979349Y-18274902D01*
X9979349Y-18274902D02*
X9979349Y-18379664D01*
X10103158Y-18379664D02*
X10084111Y-18370140D01*
X10084111Y-18370140D02*
X10074587Y-18360616D01*
X10074587Y-18360616D02*
X10065063Y-18341569D01*
X10065063Y-18341569D02*
X10065063Y-18284426D01*
X10065063Y-18284426D02*
X10074587Y-18265378D01*
X10074587Y-18265378D02*
X10084111Y-18255854D01*
X10084111Y-18255854D02*
X10103158Y-18246330D01*
X10103158Y-18246330D02*
X10131730Y-18246330D01*
X10131730Y-18246330D02*
X10150777Y-18255854D01*
X10150777Y-18255854D02*
X10160301Y-18265378D01*
X10160301Y-18265378D02*
X10169825Y-18284426D01*
X10169825Y-18284426D02*
X10169825Y-18341569D01*
X10169825Y-18341569D02*
X10160301Y-18360616D01*
X10160301Y-18360616D02*
X10150777Y-18370140D01*
X10150777Y-18370140D02*
X10131730Y-18379664D01*
X10131730Y-18379664D02*
X10103158Y-18379664D01*
X10226968Y-18246330D02*
X10303158Y-18246330D01*
X10255539Y-18179664D02*
X10255539Y-18351092D01*
X10255539Y-18351092D02*
X10265063Y-18370140D01*
X10265063Y-18370140D02*
X10284111Y-18379664D01*
X10284111Y-18379664D02*
X10303158Y-18379664D01*
X10522206Y-18246330D02*
X10522206Y-18446330D01*
X10522206Y-18255854D02*
X10541254Y-18246330D01*
X10541254Y-18246330D02*
X10579349Y-18246330D01*
X10579349Y-18246330D02*
X10598396Y-18255854D01*
X10598396Y-18255854D02*
X10607920Y-18265378D01*
X10607920Y-18265378D02*
X10617444Y-18284426D01*
X10617444Y-18284426D02*
X10617444Y-18341569D01*
X10617444Y-18341569D02*
X10607920Y-18360616D01*
X10607920Y-18360616D02*
X10598396Y-18370140D01*
X10598396Y-18370140D02*
X10579349Y-18379664D01*
X10579349Y-18379664D02*
X10541254Y-18379664D01*
X10541254Y-18379664D02*
X10522206Y-18370140D01*
X10731730Y-18379664D02*
X10712682Y-18370140D01*
X10712682Y-18370140D02*
X10703158Y-18351092D01*
X10703158Y-18351092D02*
X10703158Y-18179664D01*
X10893635Y-18379664D02*
X10893635Y-18274902D01*
X10893635Y-18274902D02*
X10884111Y-18255854D01*
X10884111Y-18255854D02*
X10865063Y-18246330D01*
X10865063Y-18246330D02*
X10826968Y-18246330D01*
X10826968Y-18246330D02*
X10807920Y-18255854D01*
X10893635Y-18370140D02*
X10874587Y-18379664D01*
X10874587Y-18379664D02*
X10826968Y-18379664D01*
X10826968Y-18379664D02*
X10807920Y-18370140D01*
X10807920Y-18370140D02*
X10798396Y-18351092D01*
X10798396Y-18351092D02*
X10798396Y-18332045D01*
X10798396Y-18332045D02*
X10807920Y-18312997D01*
X10807920Y-18312997D02*
X10826968Y-18303473D01*
X10826968Y-18303473D02*
X10874587Y-18303473D01*
X10874587Y-18303473D02*
X10893635Y-18293950D01*
X10960301Y-18246330D02*
X11036492Y-18246330D01*
X10988873Y-18179664D02*
X10988873Y-18351092D01*
X10988873Y-18351092D02*
X10998396Y-18370140D01*
X10998396Y-18370140D02*
X11017444Y-18379664D01*
X11017444Y-18379664D02*
X11036492Y-18379664D01*
X11179349Y-18370140D02*
X11160301Y-18379664D01*
X11160301Y-18379664D02*
X11122206Y-18379664D01*
X11122206Y-18379664D02*
X11103158Y-18370140D01*
X11103158Y-18370140D02*
X11093635Y-18351092D01*
X11093635Y-18351092D02*
X11093635Y-18274902D01*
X11093635Y-18274902D02*
X11103158Y-18255854D01*
X11103158Y-18255854D02*
X11122206Y-18246330D01*
X11122206Y-18246330D02*
X11160301Y-18246330D01*
X11160301Y-18246330D02*
X11179349Y-18255854D01*
X11179349Y-18255854D02*
X11188873Y-18274902D01*
X11188873Y-18274902D02*
X11188873Y-18293950D01*
X11188873Y-18293950D02*
X11093635Y-18312997D01*
X11360301Y-18379664D02*
X11360301Y-18179664D01*
X11360301Y-18370140D02*
X11341254Y-18379664D01*
X11341254Y-18379664D02*
X11303158Y-18379664D01*
X11303158Y-18379664D02*
X11284111Y-18370140D01*
X11284111Y-18370140D02*
X11274587Y-18360616D01*
X11274587Y-18360616D02*
X11265063Y-18341569D01*
X11265063Y-18341569D02*
X11265063Y-18284426D01*
X11265063Y-18284426D02*
X11274587Y-18265378D01*
X11274587Y-18265378D02*
X11284111Y-18255854D01*
X11284111Y-18255854D02*
X11303158Y-18246330D01*
X11303158Y-18246330D02*
X11341254Y-18246330D01*
X11341254Y-18246330D02*
X11360301Y-18255854D01*
X11436492Y-18455854D02*
X11446015Y-18446330D01*
X11446015Y-18446330D02*
X11465063Y-18417759D01*
X11465063Y-18417759D02*
X11474587Y-18398711D01*
X11474587Y-18398711D02*
X11484111Y-18370140D01*
X11484111Y-18370140D02*
X11493634Y-18322521D01*
X11493634Y-18322521D02*
X11493634Y-18284426D01*
X11493634Y-18284426D02*
X11484111Y-18236807D01*
X11484111Y-18236807D02*
X11474587Y-18208235D01*
X11474587Y-18208235D02*
X11465063Y-18189188D01*
X11465063Y-18189188D02*
X11446015Y-18160616D01*
X11446015Y-18160616D02*
X11436492Y-18151092D01*
M02*
