M48
; DRILL file {KiCad 8.0.7} date 2025-01-13T19:24:29-0500
; FORMAT={-:-/ absolute / metric / decimal}
; #@! TF.CreationDate,2025-01-13T19:24:29-05:00
; #@! TF.GenerationSoftware,Kicad,Pcbnew,8.0.7
; #@! TF.FileFunction,NonPlated,1,2,NPTH
FMAT,2
METRIC
; #@! TA.AperFunction,NonPlated,NPTH,ComponentDrill
T1C0.700
; #@! TA.AperFunction,NonPlated,NPTH,ComponentDrill
T2C0.991
; #@! TA.AperFunction,NonPlated,NPTH,ComponentDrill
T3C1.702
; #@! TA.AperFunction,NonPlated,NPTH,ComponentDrill
T4C3.000
; #@! TA.AperFunction,NonPlated,NPTH,ComponentDrill
T5C3.429
%
G90
G05
T1
X104.335Y-37.919
X110.115Y-37.919
T2
X56.98Y-86.85
X56.98Y-104.45
X56.98Y-122.05
X56.98Y-139.65
X56.98Y-157.25
X75.58Y-86.85
X75.58Y-104.45
X75.58Y-122.05
X75.58Y-139.65
X75.58Y-157.25
X94.18Y-86.85
X94.18Y-104.45
X94.18Y-122.05
X94.18Y-139.65
X94.18Y-157.25
X112.78Y-86.85
X112.78Y-113.25
X112.78Y-148.45
T3
X56.7Y-82.65
X56.7Y-100.25
X56.7Y-117.85
X56.7Y-135.45
X56.7Y-153.05
X67.7Y-82.65
X67.7Y-100.25
X67.7Y-117.85
X67.7Y-135.45
X67.7Y-153.05
X75.3Y-82.65
X75.3Y-100.25
X75.3Y-117.85
X75.3Y-135.45
X75.3Y-153.05
X86.3Y-82.65
X86.3Y-100.25
X86.3Y-117.85
X86.3Y-135.45
X86.3Y-153.05
X93.9Y-82.65
X93.9Y-100.25
X93.9Y-117.85
X93.9Y-135.45
X93.9Y-153.05
X104.9Y-82.65
X104.9Y-100.25
X104.9Y-117.85
X104.9Y-135.45
X104.9Y-153.05
X112.5Y-82.65
X112.5Y-109.05
X112.5Y-144.25
X123.5Y-82.65
X123.5Y-109.05
X123.5Y-144.25
T4
X62.2Y-76.7
X62.2Y-94.3
X62.2Y-111.9
X62.2Y-129.5
X62.2Y-147.1
X67.2Y-78.9
X67.2Y-96.5
X67.2Y-114.1
X67.2Y-131.7
X67.2Y-149.3
X80.8Y-76.7
X80.8Y-94.3
X80.8Y-111.9
X80.8Y-129.5
X80.8Y-147.1
X85.8Y-78.9
X85.8Y-96.5
X85.8Y-114.1
X85.8Y-131.7
X85.8Y-149.3
X99.4Y-76.7
X99.4Y-94.3
X99.4Y-111.9
X99.4Y-129.5
X99.4Y-147.1
X104.4Y-78.9
X104.4Y-96.5
X104.4Y-114.1
X104.4Y-131.7
X104.4Y-149.3
X118.0Y-76.7
X118.0Y-103.1
X118.0Y-138.3
X123.0Y-78.9
X123.0Y-105.3
X123.0Y-140.5
T5
X62.2Y-82.65
X62.2Y-100.25
X62.2Y-117.85
X62.2Y-135.45
X62.2Y-153.05
X80.8Y-82.65
X80.8Y-100.25
X80.8Y-117.85
X80.8Y-135.45
X80.8Y-153.05
X99.4Y-82.65
X99.4Y-100.25
X99.4Y-117.85
X99.4Y-135.45
X99.4Y-153.05
X118.0Y-82.65
X118.0Y-109.05
X118.0Y-144.25
M30
